<?xml version="1.0" encoding="UTF-8" standalone="no"?>
<!-- Created with Inkscape (http://www.inkscape.org/) -->

<svg
   width="63mm"
   height="89mm"
   viewBox="0 0 63 89"
   version="1.1"
   id="svg5"
   sodipodi:docname="1-Bélier.svg"
   inkscape:version="1.1.2 (1:1.1+202202050950+0a00cf5339)"
   xmlns:inkscape="http://www.inkscape.org/namespaces/inkscape"
   xmlns:sodipodi="http://sodipodi.sourceforge.net/DTD/sodipodi-0.dtd"
   xmlns:xlink="http://www.w3.org/1999/xlink"
   xmlns="http://www.w3.org/2000/svg"
   xmlns:svg="http://www.w3.org/2000/svg">
  <sodipodi:namedview
     id="namedview161"
     pagecolor="#ffffff"
     bordercolor="#666666"
     borderopacity="1.0"
     inkscape:pageshadow="2"
     inkscape:pageopacity="0.0"
     inkscape:pagecheckerboard="0"
     inkscape:document-units="mm"
     showgrid="false"
     inkscape:zoom="0.12560276"
     inkscape:cx="1369.3966"
     inkscape:cy="230.88664"
     inkscape:window-width="1920"
     inkscape:window-height="998"
     inkscape:window-x="0"
     inkscape:window-y="31"
     inkscape:window-maximized="1"
     inkscape:current-layer="svg5" />
  <defs
     id="defs2">
    <linearGradient
       id="linearGradient66035">
      <stop
         style="stop-color:#ffeeaa;stop-opacity:1;"
         offset="0"
         id="stop66031" />
      <stop
         style="stop-color:#ffeeaa;stop-opacity:0;"
         offset="1"
         id="stop66033" />
    </linearGradient>
    <linearGradient
       xlink:href="#linearGradient66035"
       id="linearGradient66037"
       x1="-609.21545"
       y1="124.85085"
       x2="-533.06219"
       y2="235.37372"
       gradientUnits="userSpaceOnUse"
       gradientTransform="translate(609.74701,-124.322)" />
    <linearGradient
       xlink:href="#linearGradient66035"
       id="linearGradient66272"
       gradientUnits="userSpaceOnUse"
       x1="-609.21545"
       y1="124.85085"
       x2="-533.06219"
       y2="235.37372"
       gradientTransform="translate(107.54224,19.681403)" />
    <linearGradient
       xlink:href="#linearGradient66035"
       id="linearGradient66419"
       gradientUnits="userSpaceOnUse"
       gradientTransform="translate(169.88249,19.681395)"
       x1="-609.21545"
       y1="124.85085"
       x2="-533.06219"
       y2="235.37372" />
    <linearGradient
       xlink:href="#linearGradient66035"
       id="linearGradient66886"
       gradientUnits="userSpaceOnUse"
       gradientTransform="translate(806.17471,63.04555)"
       x1="-609.21545"
       y1="124.85085"
       x2="-533.06219"
       y2="235.37372" />
    <linearGradient
       xlink:href="#linearGradient66035"
       id="linearGradient67116"
       gradientUnits="userSpaceOnUse"
       gradientTransform="translate(761.64943,-239.23166)"
       x1="-609.21545"
       y1="124.85085"
       x2="-533.06219"
       y2="235.37372" />
    <linearGradient
       xlink:href="#linearGradient66035"
       id="linearGradient73095"
       gradientUnits="userSpaceOnUse"
       gradientTransform="translate(-18.43475,-1222.8025)"
       x1="-609.21545"
       y1="124.85085"
       x2="-533.06219"
       y2="235.37372" />
    <linearGradient
       xlink:href="#linearGradient66035"
       id="linearGradient82342"
       gradientUnits="userSpaceOnUse"
       gradientTransform="translate(704.02075,-140.75031)"
       x1="-609.21545"
       y1="124.85085"
       x2="-533.06219"
       y2="235.37372" />
    <linearGradient
       xlink:href="#linearGradient66035"
       id="linearGradient90215"
       gradientUnits="userSpaceOnUse"
       gradientTransform="translate(340.696,-366.60502)"
       x1="-609.21545"
       y1="124.85085"
       x2="-533.06219"
       y2="235.37372" />
    <linearGradient
       xlink:href="#linearGradient66035"
       id="linearGradient99476"
       gradientUnits="userSpaceOnUse"
       gradientTransform="translate(510.6307,-103.31497)"
       x1="-609.21545"
       y1="124.85085"
       x2="-533.06219"
       y2="235.37372" />
    <linearGradient
       xlink:href="#linearGradient66035"
       id="linearGradient105434"
       gradientUnits="userSpaceOnUse"
       gradientTransform="translate(512.58237,-32.383406)"
       x1="-609.21545"
       y1="124.85085"
       x2="-533.06219"
       y2="235.37372" />
    <linearGradient
       xlink:href="#linearGradient66035"
       id="linearGradient116711"
       gradientUnits="userSpaceOnUse"
       gradientTransform="translate(521.8087,-182.6408)"
       x1="-609.21545"
       y1="124.85085"
       x2="-533.06219"
       y2="235.37372" />
    <linearGradient
       xlink:href="#linearGradient66035"
       id="linearGradient12364"
       gradientUnits="userSpaceOnUse"
       gradientTransform="translate(538.94331,-187.47364)"
       x1="-609.21545"
       y1="124.85085"
       x2="-533.06219"
       y2="235.37372" />
  </defs>
  <rect
     style="display:inline;fill:url(#linearGradient66037);fill-opacity:1;stroke:#000000;stroke-width:0.659785;stroke-miterlimit:4;stroke-dasharray:none;stroke-opacity:1"
     id="rect870-4"
     width="62.340214"
     height="88.340218"
     x="0.53155589"
     y="0.52885294"
     rx="3.7119057"
     ry="3.3358381" />
  <path
     style="display:inline;fill:#000000;stroke-width:0.099377"
     d="M 31.417582,60.460597 C 30.813663,59.732462 30.516277,59.117495 30.337789,58.227893 30.084042,56.96263 29.575682,55.846749 28.982694,55.252958 28.717793,54.98761 28.383237,54.526972 28.239465,54.229312 28.011037,53.75643 27.971441,53.525049 27.925819,52.396219 c -0.03343,-0.827384 -0.117309,-1.506287 -0.233308,-1.888158 -0.0996,-0.327944 -0.182085,-0.891105 -0.183256,-1.251465 -0.0014,-0.529978 -0.04322,-0.70092 -0.217219,-0.894393 -0.118313,-0.131558 -0.386625,-0.436599 -0.596267,-0.677877 -0.209635,-0.241283 -0.716558,-0.703443 -1.126488,-1.027036 -0.409934,-0.323592 -0.77944,-0.648698 -0.821141,-0.722458 -0.08245,-0.145974 0.262113,-0.445301 0.512757,-0.445301 0.108107,0 0.09294,-0.05596 -0.06065,-0.223605 -0.656626,-0.716677 -0.955911,-1.925848 -0.965434,-3.900539 -0.007,-1.392995 0.0084,-1.514942 0.223354,-1.861402 0.163625,-0.263172 0.343833,-0.404699 0.621104,-0.487769 0.214821,-0.06436 0.390576,-0.147955 0.390576,-0.185766 0,-0.03781 -0.131475,-0.250178 -0.292089,-0.471951 -0.201325,-0.277951 -0.501789,-0.506424 -0.967034,-0.735393 -0.575934,-0.283442 -0.777301,-0.331534 -1.372475,-0.327794 -0.578285,0.0036 -0.788564,0.05404 -1.230065,0.294966 -0.646534,0.352784 -1.126845,0.893963 -1.498292,1.68819 -0.532209,1.137921 -0.88711,3.357483 -0.969274,6.061985 -0.107689,3.545878 0.482575,5.849606 1.847,7.207967 0.814538,0.810929 1.348049,1.041516 2.39532,1.035278 0.796528,-0.0047 0.912317,-0.03472 2.030206,-0.525581 0.652019,-0.286305 1.24803,-0.50764 1.324484,-0.491854 0.214096,0.0442 -0.358612,0.77268 -0.947142,1.204706 -1.757511,1.290128 -3.566881,1.332997 -5.708649,0.135267 -1.959515,-1.095824 -4.039453,-4.809373 -4.801395,-8.572456 -0.205145,-1.013169 -0.245159,-1.494573 -0.245159,-2.949243 0,-2.006503 0.144162,-3.015788 0.644454,-4.512374 1.082367,-3.237728 3.432958,-6.158819 5.978198,-7.429117 2.377622,-1.186638 4.593565,-0.7326 7.44625,1.525716 0.487139,0.385638 0.981194,0.701157 1.097946,0.701157 0.116835,0 0.264343,0.06271 0.327892,0.139394 0.310715,0.37437 2.181029,0.337219 2.679796,-0.05323 0.130499,-0.102057 0.311245,-0.185542 0.401981,-0.185542 0.09062,0 0.520739,-0.318381 0.955512,-0.70751 2.29279,-2.052011 4.708577,-2.947042 6.510267,-2.411997 0.760518,0.225835 2.123727,0.929596 2.831376,1.461674 1.436266,1.079952 3.085095,3.156153 3.864239,4.865878 0.404351,0.887288 0.872083,2.308784 1.118915,3.400514 0.147229,0.651755 0.179296,1.233748 0.177344,3.229748 -0.0028,2.143756 -0.02872,2.551283 -0.22168,3.409984 -0.60049,2.671852 -1.808327,5.29238 -3.187793,6.916238 -0.603083,0.70996 -1.7329,1.43666 -2.716855,1.747489 -1.883336,0.594949 -3.740767,0.118815 -5.041544,-1.292358 -0.408756,-0.443442 -0.501667,-0.644917 -0.297386,-0.644917 0.06023,0 0.652912,0.232667 1.316754,0.517014 1.112055,0.47636 1.269574,0.517383 2.003406,0.521725 0.704721,0.0042 0.873003,-0.0329 1.460581,-0.321908 2.290643,-1.126606 3.197553,-4.784556 2.51132,-10.129353 -0.464526,-3.618029 -1.094182,-5.067465 -2.500222,-5.755383 -0.978851,-0.478905 -2.249764,-0.305255 -3.101463,0.423761 -0.341053,0.291921 -0.707007,0.788734 -0.707007,0.959787 0,0.02147 0.176508,0.09182 0.3925,0.156487 0.604086,0.180969 0.812633,0.556655 0.932173,1.679153 0.182643,1.71494 -0.138027,3.592648 -0.773734,4.529233 l -0.235344,0.346834 0.289411,0.119875 c 0.15922,0.06592 0.289412,0.194883 0.289412,0.286564 0,0.09168 -0.38129,0.469818 -0.847266,0.840317 -0.46603,0.370499 -1.030382,0.91614 -1.254153,1.212533 -0.223633,0.296394 -0.446233,0.538902 -0.494334,0.538902 -0.04796,0 -0.08756,0.305885 -0.08756,0.679742 0,0.373856 -0.08951,1.029445 -0.198815,1.456858 -0.140537,0.549598 -0.198815,1.10241 -0.198815,1.888185 0,1.0351 -0.01952,1.15176 -0.297415,1.706268 -0.163681,0.327362 -0.513071,0.816601 -0.776662,1.087196 -0.585013,0.600618 -1.052243,1.659553 -1.320435,2.992812 -0.185431,0.921848 -0.465585,1.46644 -1.187064,2.307599 -0.29365,0.342389 -0.415449,0.121715 -0.361297,-0.654682 0.02231,-0.335672 0.01394,-0.648718 -0.01952,-0.695645 -0.0909,-0.124559 -0.507802,-0.119596 -0.51876,0.0056 -0.0056,0.05895 -0.01673,0.416294 -0.0251,0.793993 -0.0084,0.377696 -0.06023,0.698435 -0.114884,0.712759 -0.05465,0.01422 -0.217776,-0.116891 -0.362747,-0.29148 z M 30.44941,54.139556 c -0.122412,-0.547345 -0.331126,-1.263233 -0.464246,-1.590874 -0.238969,-0.588393 -0.299227,-1.03072 -0.181806,-1.33687 0.06609,-0.172493 1.005425,-0.952194 1.14705,-0.952194 0.04852,0 0.05967,0.1136 0.0251,0.252436 -0.04238,0.169537 -0.0056,0.313942 0.106239,0.439709 0.106518,0.117504 0.158104,0.310372 0.139143,0.517725 -0.01673,0.18175 0.07306,0.768891 0.199652,1.30475 0.445926,1.891213 1.047085,1.926147 1.470369,0.08544 0.08365,-0.364225 0.164239,-0.899998 0.17846,-1.190608 0.01394,-0.290608 0.07696,-0.579049 0.138864,-0.64098 0.0619,-0.06193 0.112652,-0.260161 0.112652,-0.440542 0,-0.180356 0.04573,-0.327945 0.101499,-0.327945 0.05577,0 0.346491,0.237323 0.645941,0.527354 0.6354,0.61543 0.664233,0.777959 0.300091,1.691676 -0.420189,1.054262 -0.781905,2.84919 -0.574166,2.84919 0.177065,0 0.966554,-1.168247 1.362094,-2.015401 0.680378,-1.457205 0.690388,-1.533881 0.338683,-2.592493 -0.355609,-1.070394 -0.449719,-1.722728 -0.307397,-2.13096 0.102057,-0.292708 0.09062,-0.306589 -0.782239,-0.958452 -0.57584,-0.430027 -0.885746,-0.72799 -0.885746,-0.851654 0,-0.177233 0.0251,-0.173469 0.361687,0.05524 0.198816,0.134989 0.396404,0.245438 0.438844,0.245438 0.04238,0 0.224469,-0.190059 0.404379,-0.42235 2.084912,-2.691097 2.771759,-3.385038 3.479463,-3.515386 0.788374,-0.145222 1.203711,-0.721647 1.203711,-1.670685 0,-1.15503 -0.449272,-2.049242 -1.22956,-2.447316 -0.336564,-0.171712 -0.37022,-0.219422 -0.268805,-0.381608 0.134682,-0.215825 0.279596,-0.0053 -1.621362,-2.357027 -1.228305,-1.519601 -1.646543,-1.974835 -2.494561,-2.715265 -0.296522,-0.258906 -0.487139,-0.215211 -0.262949,0.06029 0.123806,0.152277 0.117672,0.161506 -0.06051,0.08812 -0.629266,-0.259492 -0.939117,-0.292571 -1.268598,-0.135435 -0.293622,0.140036 -0.361297,0.141179 -0.610583,0.0106 -0.272988,-0.143102 -0.632891,-0.107438 -1.169414,0.115916 -0.135239,0.0563 -0.156152,0.02565 -0.111537,-0.162064 0.08588,-0.3606 -1.363962,1.103704 -2.083127,2.103906 -0.334054,0.464587 -0.905028,1.225813 -1.268855,1.691615 -0.743962,0.952512 -0.912542,1.229702 -0.870716,1.43164 0.01589,0.07685 -0.159889,0.276975 -0.390704,0.444739 -1.076784,0.782696 -1.327459,2.820157 -0.445226,3.618578 0.10939,0.09902 0.429444,0.240837 0.711176,0.315157 0.295646,0.07799 0.703778,0.292083 0.965247,0.506335 0.47562,0.389742 1.639573,1.714549 2.448665,2.787089 0.262671,0.348251 0.513602,0.633184 0.557548,0.633184 0.04406,0 0.242593,-0.11045 0.441576,-0.245438 0.345375,-0.234368 0.361688,-0.236515 0.361688,-0.04743 0,0.133426 -0.272709,0.398258 -0.835554,0.811755 l -0.835527,0.613725 0.05075,0.700751 c 0.04322,0.598442 0.0056,0.840076 -0.257651,1.655102 -0.169537,0.524898 -0.308262,1.029802 -0.308262,1.122007 0,0.369682 0.935018,2.343952 1.411338,2.979969 0.673407,0.899197 0.780622,0.782512 0.487474,-0.530447 z"
     id="path2639-3" />
  <text
     xml:space="preserve"
     style="font-size:14.1111px;line-height:1.25;font-family:'Blood Crow';-inkscape-font-specification:'Blood Crow';stroke-width:0.264583"
     x="4.6315317"
     y="12.534263"
     id="text9052-1"><tspan
       id="tspan9050-4"
       style="font-style:normal;font-variant:normal;font-weight:normal;font-stretch:normal;font-size:14.1111px;font-family:'Bleeding Cowboys';-inkscape-font-specification:'Bleeding Cowboys';stroke-width:0.264583"
       x="4.6315317"
       y="12.534263">1</tspan></text>
  <text
     xml:space="preserve"
     style="font-size:14.1111px;line-height:1.25;font-family:'Blood Crow';-inkscape-font-specification:'Blood Crow';stroke-width:0.264583"
     x="-58.28883"
     y="-75.571785"
     id="text9052-3-9"
     transform="scale(-1)"><tspan
       id="tspan9050-0-2"
       style="font-style:normal;font-variant:normal;font-weight:normal;font-stretch:normal;font-size:14.1111px;font-family:'Bleeding Cowboys';-inkscape-font-specification:'Bleeding Cowboys';stroke-width:0.264583"
       x="-58.28883"
       y="-75.571785">1</tspan></text>
</svg>
