<?xml version="1.0" encoding="UTF-8" standalone="no"?>
<!-- Created with Inkscape (http://www.inkscape.org/) -->

<svg
   width="63mm"
   height="89mm"
   viewBox="0 0 63 89"
   version="1.1"
   id="svg5"
   sodipodi:docname="1-Corbeau.svg"
   inkscape:version="1.1.2 (1:1.1+202202050950+0a00cf5339)"
   xmlns:inkscape="http://www.inkscape.org/namespaces/inkscape"
   xmlns:sodipodi="http://sodipodi.sourceforge.net/DTD/sodipodi-0.dtd"
   xmlns:xlink="http://www.w3.org/1999/xlink"
   xmlns="http://www.w3.org/2000/svg"
   xmlns:svg="http://www.w3.org/2000/svg">
  <sodipodi:namedview
     id="namedview155"
     pagecolor="#ffffff"
     bordercolor="#666666"
     borderopacity="1.0"
     inkscape:pageshadow="2"
     inkscape:pageopacity="0.0"
     inkscape:pagecheckerboard="0"
     inkscape:document-units="mm"
     showgrid="false"
     inkscape:zoom="0.25120552"
     inkscape:cx="-995.20104"
     inkscape:cy="710.57354"
     inkscape:window-width="1920"
     inkscape:window-height="1057"
     inkscape:window-x="1920"
     inkscape:window-y="0"
     inkscape:window-maximized="1"
     inkscape:current-layer="svg5" />
  <defs
     id="defs2">
    <linearGradient
       id="linearGradient66035">
      <stop
         style="stop-color:#ffeeaa;stop-opacity:1;"
         offset="0"
         id="stop66031" />
      <stop
         style="stop-color:#ffeeaa;stop-opacity:0;"
         offset="1"
         id="stop66033" />
    </linearGradient>
    <linearGradient
       xlink:href="#linearGradient66035"
       id="linearGradient66037"
       x1="-609.21545"
       y1="124.85085"
       x2="-533.06219"
       y2="235.37372"
       gradientUnits="userSpaceOnUse" />
    <linearGradient
       xlink:href="#linearGradient66035"
       id="linearGradient66272"
       gradientUnits="userSpaceOnUse"
       x1="-609.21545"
       y1="124.85085"
       x2="-533.06219"
       y2="235.37372"
       gradientTransform="translate(107.54224,19.681403)" />
    <linearGradient
       xlink:href="#linearGradient66035"
       id="linearGradient66419"
       gradientUnits="userSpaceOnUse"
       gradientTransform="translate(169.88249,19.681395)"
       x1="-609.21545"
       y1="124.85085"
       x2="-533.06219"
       y2="235.37372" />
    <linearGradient
       xlink:href="#linearGradient66035"
       id="linearGradient66886"
       gradientUnits="userSpaceOnUse"
       gradientTransform="translate(609.74704,-124.32202)"
       x1="-609.21545"
       y1="124.85085"
       x2="-533.06219"
       y2="235.37372" />
    <linearGradient
       xlink:href="#linearGradient66035"
       id="linearGradient67116"
       gradientUnits="userSpaceOnUse"
       gradientTransform="translate(761.64943,-239.23166)"
       x1="-609.21545"
       y1="124.85085"
       x2="-533.06219"
       y2="235.37372" />
    <linearGradient
       xlink:href="#linearGradient66035"
       id="linearGradient73095"
       gradientUnits="userSpaceOnUse"
       gradientTransform="translate(-18.43475,-1222.8025)"
       x1="-609.21545"
       y1="124.85085"
       x2="-533.06219"
       y2="235.37372" />
    <linearGradient
       xlink:href="#linearGradient66035"
       id="linearGradient82342"
       gradientUnits="userSpaceOnUse"
       gradientTransform="translate(704.02075,-140.75031)"
       x1="-609.21545"
       y1="124.85085"
       x2="-533.06219"
       y2="235.37372" />
    <linearGradient
       xlink:href="#linearGradient66035"
       id="linearGradient90215"
       gradientUnits="userSpaceOnUse"
       gradientTransform="translate(340.696,-366.60502)"
       x1="-609.21545"
       y1="124.85085"
       x2="-533.06219"
       y2="235.37372" />
    <linearGradient
       xlink:href="#linearGradient66035"
       id="linearGradient99476"
       gradientUnits="userSpaceOnUse"
       gradientTransform="translate(510.6307,-103.31497)"
       x1="-609.21545"
       y1="124.85085"
       x2="-533.06219"
       y2="235.37372" />
    <linearGradient
       xlink:href="#linearGradient66035"
       id="linearGradient105434"
       gradientUnits="userSpaceOnUse"
       gradientTransform="translate(512.58237,-32.383406)"
       x1="-609.21545"
       y1="124.85085"
       x2="-533.06219"
       y2="235.37372" />
    <linearGradient
       xlink:href="#linearGradient66035"
       id="linearGradient116711"
       gradientUnits="userSpaceOnUse"
       gradientTransform="translate(521.8087,-182.6408)"
       x1="-609.21545"
       y1="124.85085"
       x2="-533.06219"
       y2="235.37372" />
  </defs>
  <g
     id="g66443"
     transform="translate(609.66132,-124.3196)">
    <rect
       style="display:inline;fill:url(#linearGradient66037);fill-opacity:1;stroke:#000000;stroke-width:0.659785;stroke-miterlimit:4;stroke-dasharray:none;stroke-opacity:1"
       id="rect870-4"
       width="62.340214"
       height="88.340218"
       x="-609.21545"
       y="124.85085"
       rx="3.7119057"
       ry="3.3358381" />
    <path
       style="fill:#000000;stroke-width:0.102446"
       d="m -579.45151,183.06168 -0.002,-0.92474 -0.62192,0.5918 c -0.688,0.65467 -0.86057,0.73202 -0.70186,0.31456 0.058,-0.15247 0.1922,-0.59046 0.2983,-0.9733 l 0.19288,-0.69608 -0.50702,0.53791 -0.50702,0.53791 0.0674,-1.01042 c 0.0769,-1.15361 0.15704,-1.11933 -0.88312,-0.37805 -0.3092,0.22038 -0.5773,0.38556 -0.59577,0.3671 -0.0186,-0.0186 0.11024,-0.31847 0.28601,-0.66667 0.35553,-0.70432 0.9381,-2.38062 1.16327,-3.34727 l 0.14679,-0.63013 -0.43199,0.45085 c -0.34989,0.36517 -0.50033,0.45085 -0.79159,0.45085 h -0.3596 l 0.54767,-1.10129 c 0.73636,-1.4807 1.07257,-2.79558 1.09362,-4.27712 0.0125,-0.86973 -0.026,-1.23612 -0.16866,-1.60545 -0.25396,-0.6581 -0.40949,-0.77132 -0.68335,-0.49746 -0.26451,0.26451 -0.63551,0.41255 -1.03389,0.41255 -0.35163,0 -0.34355,0.0252 -0.14466,-0.45081 0.19853,-0.47511 0.0324,-0.57351 -0.47416,-0.28086 -0.36236,0.20933 -1.50038,0.48398 -1.59858,0.38578 -0.0311,-0.0311 0.13394,-0.42244 0.36669,-0.86977 0.58466,-1.1238 0.56559,-1.22274 -0.15709,-0.81489 -0.4914,0.27733 -0.71098,0.33433 -1.43425,0.37229 -0.46971,0.0246 -0.85402,0.0122 -0.85402,-0.0277 0,-0.0398 0.15964,-0.26725 0.35474,-0.50535 0.37911,-0.46265 0.76623,-1.22814 0.76992,-1.52243 0.003,-0.22741 0.0394,-0.23386 -0.73795,0.12992 -0.86912,0.40671 -1.86555,0.60921 -2.99908,0.60947 -0.78145,2e-4 -1.35189,-0.10737 -1.17516,-0.2216 0.0266,-0.0172 0.32414,-0.16927 0.66133,-0.33804 0.60775,-0.30418 1.901,-1.41087 1.78561,-1.528 -0.033,-0.0335 -0.31222,0.0257 -0.62046,0.1319 -0.82518,0.2839 -1.50849,0.35001 -2.24238,0.21692 -0.72789,-0.13198 -1.66981,-0.56386 -1.61148,-0.73886 0.021,-0.0629 0.45047,-0.28031 0.95444,-0.4831 0.50397,-0.2028 1.21596,-0.55237 1.5822,-0.77684 l 0.66587,-0.40811 -0.6659,-0.0783 c -1.83773,-0.21617 -2.66391,-0.50524 -3.41026,-1.19321 -0.53326,-0.49154 -0.95751,-1.22845 -0.85741,-1.4893 0.0473,-0.12334 0.12538,-0.15684 0.24753,-0.10623 0.21711,0.0899 2.17611,0.20197 2.17611,0.12442 0,-0.0303 -0.19978,-0.17226 -0.44396,-0.31536 -0.78367,-0.45926 -1.45366,-1.3666 -1.8004,-2.4382 -0.13755,-0.42503 -0.30804,-1.41893 -0.24342,-1.41893 0.0235,0 0.18951,0.11022 0.36888,0.24493 0.50797,0.38154 1.67917,0.93459 2.58237,1.21943 0.92832,0.29276 1.58546,0.43326 1.58546,0.33898 0,-0.0349 -0.29003,-0.35122 -0.64452,-0.70291 -0.71768,-0.71201 -1.26045,-1.65792 -1.6014,-2.7908 -0.25924,-0.86145 -0.41939,-2.07304 -0.31142,-2.35625 l 0.0781,-0.2049 0.0741,0.2049 c 0.29585,0.81791 0.86515,1.75497 1.50968,2.48485 1.36337,1.54396 2.2432,2.13077 4.3786,2.92039 1.50463,0.55638 1.45276,0.54744 1.3319,0.22954 -0.21266,-0.55931 -0.10836,-0.60334 0.34397,-0.14521 0.31032,0.31432 0.84937,0.65059 1.76719,1.1024 1.32352,0.65153 1.98658,1.06875 1.98658,1.25004 0,0.0533 -0.16507,0.27963 -0.36677,0.50291 -0.2716,0.30061 -0.34919,0.46137 -0.29902,0.61945 0.0859,0.27071 1.12099,0.96545 1.32293,0.88796 0.0834,-0.032 0.20269,-0.25651 0.26504,-0.49888 0.45461,-1.76733 0.5648,-1.89547 2.26724,-2.63665 1.22715,-0.53427 1.60836,-0.6064 2.01418,-0.38115 0.22863,0.12688 0.22077,0.1371 -0.28996,0.3763 -0.44222,0.20712 -0.91826,0.64948 -0.91826,0.8533 0,0.0303 0.19593,-0.057 0.4354,-0.19386 0.41277,-0.23602 0.79396,-0.32631 0.79396,-0.18809 0,0.0348 -0.13832,0.22082 -0.30734,0.41334 -0.27857,0.31727 -0.30734,0.41684 -0.30734,1.0636 0,0.49422 0.0394,0.71835 0.12805,0.72916 0.0704,0.009 0.17776,0.0208 0.23848,0.0274 0.0608,0.006 0.26,0.13754 0.44282,0.29137 0.25897,0.21791 0.37401,0.25739 0.52081,0.17882 0.26515,-0.14192 0.92363,-0.93029 0.92363,-1.10585 0,-0.0803 -0.13831,-0.32073 -0.30734,-0.53415 -0.16905,-0.21343 -0.30734,-0.43736 -0.30734,-0.49763 0,-0.19731 1.23241,-1.14049 1.98165,-1.51656 0.40325,-0.20241 1.03283,-0.56051 1.39908,-0.79577 1.03202,-0.66295 0.96067,-0.63631 0.88377,-0.32992 -0.0498,0.19828 -0.0289,0.2714 0.0776,0.2714 0.26925,0 2.25784,-0.73146 3.08525,-1.13482 1.55578,-0.75846 3.18777,-2.3957 3.97469,-3.98748 l 0.43048,-0.87079 0.0325,0.39597 c 0.0437,0.53146 -0.24308,1.90903 -0.56786,2.72863 -0.37237,0.93966 -0.87984,1.70633 -1.5422,2.32987 -0.31378,0.29539 -0.54104,0.56654 -0.50503,0.60255 0.0992,0.0992 1.76421,-0.34451 2.60306,-0.69372 0.40796,-0.16983 1.01817,-0.48745 1.35604,-0.70583 l 0.61429,-0.39703 -0.0583,0.32849 c -0.29987,1.68893 -1.04278,2.94071 -2.10549,3.54764 l -0.50729,0.28972 0.36319,0.0681 c 0.19973,0.0375 0.75916,0.0155 1.24313,-0.049 0.48397,-0.0644 0.9062,-0.0908 0.93829,-0.0588 0.12339,0.12331 -0.51345,1.20358 -0.90898,1.54214 -0.78007,0.66772 -1.98629,1.08295 -3.15382,1.08568 -1.0325,0.002 -1.06858,0.10956 -0.20889,0.62027 0.40807,0.24241 1.11668,0.59187 1.57467,0.77654 0.45799,0.18466 0.83272,0.39232 0.83272,0.46146 0,0.19067 -0.84696,0.58431 -1.52479,0.70865 -0.69413,0.12732 -1.3964,0.0563 -2.25206,-0.2278 -0.33056,-0.10975 -0.6242,-0.17636 -0.65255,-0.14801 -0.0573,0.0573 0.57934,0.9759 0.98951,1.4277 0.14524,0.15997 0.46808,0.41114 0.71745,0.55812 l 0.45339,0.26725 -0.29972,0.0884 c -0.41376,0.12207 -2.24755,0.0102 -3.1441,-0.19175 -0.40768,-0.0919 -1.03244,-0.28278 -1.38837,-0.4243 -0.40909,-0.16265 -0.68297,-0.22149 -0.74454,-0.15991 -0.10711,0.10711 0.54178,1.17781 0.91261,1.50586 0.11996,0.10614 0.19344,0.23292 0.16326,0.28172 -0.0902,0.14602 -1.45353,0.10045 -2.11384,-0.0707 -0.33835,-0.0877 -0.62862,-0.14529 -0.64503,-0.12807 -0.0163,0.0172 0.12841,0.35033 0.32183,0.7402 0.22616,0.45586 0.31636,0.74416 0.25271,0.80779 -0.12361,0.12364 -0.90317,-0.0626 -1.46775,-0.35059 -0.22326,-0.1139 -0.42513,-0.18791 -0.44858,-0.16446 -0.0235,0.0235 0.0271,0.20958 0.11235,0.41364 0.0853,0.20405 0.15504,0.41859 0.15504,0.47674 0,0.15186 -0.50134,0.13023 -1.08502,-0.0468 -0.27661,-0.0839 -0.53179,-0.15307 -0.56711,-0.15365 -0.14519,-0.003 -0.48929,1.0248 -0.59235,1.76843 -0.16415,1.18425 0.11583,2.81403 0.75258,4.38111 0.13652,0.33593 0.20349,0.61078 0.14884,0.61078 -0.0546,0 -0.28192,-0.0931 -0.50505,-0.20698 -0.22315,-0.11384 -0.4057,-0.16478 -0.4057,-0.11323 0,0.0515 0.0965,0.40977 0.21442,0.79604 0.28827,0.94405 1.14203,2.56252 1.74936,3.3162 0.2722,0.3378 0.49491,0.63777 0.49491,0.66661 0,0.12038 -1.06308,-0.49867 -1.43792,-0.83732 l -0.4061,-0.3669 v 0.69861 0.69861 l -0.42056,-0.40496 -0.42056,-0.40497 0.0752,0.35857 c 0.0701,0.33376 0.44968,1.54921 0.61975,1.984 0.0676,0.17292 0.0513,0.17912 -0.17127,0.0649 -0.1353,-0.0695 -0.44197,-0.31495 -0.68143,-0.54548 l -0.43534,-0.41916 v 0.908 c 0,0.88702 -0.005,0.90391 -0.19551,0.73104 -0.10753,-0.0973 -0.25144,-0.31192 -0.31978,-0.47688 -0.15213,-0.36728 -0.27234,-0.37966 -0.42535,-0.0438 -0.16141,0.35427 -0.26938,0.32164 -0.47806,-0.14443 l -0.17935,-0.40057 -0.22843,0.42618 c -0.12564,0.23438 -0.31826,0.54143 -0.42805,0.68229 l -0.19962,0.25612 -0.002,-0.92474 z m 0.48946,-21.88996 c 0.17317,-0.17315 0.15299,-0.58909 -0.032,-0.66009 -0.21202,-0.0814 -0.45971,0.14491 -0.45971,0.41993 0,0.36606 0.2458,0.4861 0.49175,0.24014 z"
       id="path2152-4-3" />
    <text
       xml:space="preserve"
       style="font-size:14.1111px;line-height:1.25;font-family:'Blood Crow';-inkscape-font-specification:'Blood Crow';stroke-width:0.264583"
       x="-605.11548"
       y="136.85626"
       id="text9052-1"><tspan
         id="tspan9050-4"
         style="font-style:normal;font-variant:normal;font-weight:normal;font-stretch:normal;font-size:14.1111px;font-family:'Bleeding Cowboys';-inkscape-font-specification:'Bleeding Cowboys';stroke-width:0.264583"
         x="-605.11548"
         y="136.85626">1</tspan></text>
    <text
       xml:space="preserve"
       style="font-size:14.1111px;line-height:1.25;font-family:'Blood Crow';-inkscape-font-specification:'Blood Crow';stroke-width:0.264583"
       x="551.45819"
       y="-199.89378"
       id="text9052-3-9"
       transform="scale(-1)"><tspan
         id="tspan9050-0-2"
         style="font-style:normal;font-variant:normal;font-weight:normal;font-stretch:normal;font-size:14.1111px;font-family:'Bleeding Cowboys';-inkscape-font-specification:'Bleeding Cowboys';stroke-width:0.264583"
         x="551.45819"
         y="-199.89378">1</tspan></text>
  </g>
</svg>
