<?xml version="1.0" encoding="UTF-8" standalone="no"?>
<!-- Created with Inkscape (http://www.inkscape.org/) -->

<svg
   width="63mm"
   height="89mm"
   viewBox="0 0 63 89"
   version="1.1"
   id="svg5"
   sodipodi:docname="1-Livre.svg"
   inkscape:version="1.1.2 (1:1.1+202202050950+0a00cf5339)"
   xmlns:inkscape="http://www.inkscape.org/namespaces/inkscape"
   xmlns:sodipodi="http://sodipodi.sourceforge.net/DTD/sodipodi-0.dtd"
   xmlns:xlink="http://www.w3.org/1999/xlink"
   xmlns="http://www.w3.org/2000/svg"
   xmlns:svg="http://www.w3.org/2000/svg">
  <sodipodi:namedview
     id="namedview27"
     pagecolor="#ffffff"
     bordercolor="#666666"
     borderopacity="1.0"
     inkscape:pageshadow="2"
     inkscape:pageopacity="0.0"
     inkscape:pagecheckerboard="0"
     inkscape:document-units="mm"
     showgrid="false"
     inkscape:zoom="0.25120553"
     inkscape:cx="525.46615"
     inkscape:cy="650.86148"
     inkscape:window-width="1440"
     inkscape:window-height="877"
     inkscape:window-x="1920"
     inkscape:window-y="0"
     inkscape:window-maximized="1"
     inkscape:current-layer="svg5" />
  <defs
     id="defs2">
    <linearGradient
       id="linearGradient66035">
      <stop
         style="stop-color:#ffeeaa;stop-opacity:1;"
         offset="0"
         id="stop66031" />
      <stop
         style="stop-color:#ffeeaa;stop-opacity:0;"
         offset="1"
         id="stop66033" />
    </linearGradient>
    <linearGradient
       xlink:href="#linearGradient66035"
       id="linearGradient66037"
       x1="-609.21545"
       y1="124.85085"
       x2="-533.06219"
       y2="235.37372"
       gradientUnits="userSpaceOnUse"
       gradientTransform="translate(609.74701,-124.322)" />
    <linearGradient
       xlink:href="#linearGradient66035"
       id="linearGradient138031"
       gradientUnits="userSpaceOnUse"
       gradientTransform="translate(931.5841,56.83376)"
       x1="-609.21545"
       y1="124.85085"
       x2="-533.06219"
       y2="235.37372" />
  </defs>
  <g
     id="layer1"
     style="display:inline">
    <rect
       style="display:inline;fill:url(#linearGradient66037);fill-opacity:1;stroke:#000000;stroke-width:0.659785;stroke-miterlimit:4;stroke-dasharray:none;stroke-opacity:1"
       id="rect870-4"
       width="62.340214"
       height="88.340218"
       x="0.53155589"
       y="0.52885294"
       rx="3.7119057"
       ry="3.3358381" />
  </g>
  <path
     style="display:inline;fill:#000000;stroke-width:0.128304"
     d="m 37.100429,59.232171 c -0.358519,-0.287037 -0.359995,-0.293754 -0.112386,-0.517933 0.138167,-0.125132 0.301586,-0.218102 0.36334,-0.206527 0.366619,0.06726 0.558392,-0.0959 0.999289,-0.849657 0.27024,-0.461875 0.469864,-0.851608 0.443656,-0.866037 -0.02611,-0.01449 -0.220713,-0.116149 -0.432536,-0.226213 -0.257484,-0.133819 -0.381539,-0.293215 -0.374739,-0.481151 0.0055,-0.15439 -0.01738,-0.280962 -0.0524,-0.280962 -0.03447,0 -0.373207,0.234323 -0.752693,0.52098 -0.475652,0.359103 -0.713469,0.638114 -0.76544,0.898098 -0.04144,0.207391 -0.121352,0.377183 -0.177261,0.377183 -0.05593,0 -0.201594,0.03819 -0.323791,0.0851 -0.196381,0.07534 -0.214043,0.01449 -0.153794,-0.518425 0.08166,-0.725036 0.247061,-0.925208 1.56453,-1.896384 0.927753,-0.683851 1.613137,-0.947867 1.613137,-0.621373 0,0.07043 0.04432,0.128311 0.09877,0.128311 0.216365,0 1.361876,-1.05847 1.565319,-1.446625 0.253731,-0.484162 0.722174,-0.738878 2.095162,-1.139287 1.088273,-0.317409 1.401092,-0.261536 1.479095,0.263876 0.03846,0.25952 0.08947,0.274867 0.63999,0.192034 0.41428,-0.06197 0.701076,-0.199856 0.932966,-0.448144 0.375557,-0.402025 0.526433,-0.44845 1.977684,-0.608682 1.0108,-0.1118 1.60381,-0.02611 1.60381,0.232587 0,0.07247 0.178135,0.131497 0.395856,0.131497 0.294489,0 0.499873,-0.119048 0.801905,-0.464039 0.242146,-0.276614 0.781809,-0.636461 1.336235,-0.890824 1.185907,-0.544095 1.201144,-0.714863 0.160474,-1.798658 -0.539701,-0.562053 -0.769843,-0.901861 -0.769843,-1.136733 0,-0.47423 -0.397687,-0.584442 -1.784677,-0.494585 -1.04522,0.06773 -1.166321,0.05267 -1.166321,-0.144244 0,-0.485044 0.249959,-0.716237 0.774321,-0.716237 0.477426,0 0.508735,-0.02323 0.508735,-0.377341 0,-0.207688 0.05881,-0.413619 0.130345,-0.457935 0.208543,-0.128886 0.01152,-0.31947 -0.330423,-0.31947 -0.198705,0 -0.313191,-0.07358 -0.313191,-0.201018 0,-0.342641 0.254298,-0.697248 0.50044,-0.697248 0.37538,0 0.910899,0.496705 0.910899,0.844911 0,0.257205 0.12976,0.370363 0.725667,0.634008 0.651958,0.288189 0.747482,0.301159 0.940333,0.126572 0.403149,-0.364863 0.724106,-0.224485 1.531399,0.669999 0.810629,0.898182 0.966977,1.369375 0.650573,1.960656 -0.142496,0.26617 -0.393022,2.121863 -0.426552,3.159652 -0.02611,0.844492 -0.261842,1.108378 -1.480785,1.665822 -1.090076,0.498564 -1.468373,0.536682 -1.722681,0.173788 -0.167701,-0.239536 -0.233738,-0.247934 -0.86769,-0.112089 -0.432369,0.09272 -0.769686,0.253433 -0.911968,0.434235 -0.295,0.375046 -0.722946,0.528793 -1.939799,0.696932 -1.353524,0.18711 -1.461536,0.178999 -1.773397,-0.132946 -0.35745,-0.357422 -0.951416,-0.264732 -1.482104,0.230848 -0.455948,0.425921 -2.790581,1.224203 -3.23812,1.107189 -0.408249,-0.106877 -0.782377,0.290225 -0.782377,0.830231 0,0.30114 -0.211728,0.815924 -0.651723,1.584848 -0.843007,1.473149 -1.224351,1.687804 -1.956949,1.10154 z m 3.057095,-4.434496 c -0.03977,-0.03976 -0.257494,0.121361 -0.484655,0.357069 l -0.412857,0.428819 0.484626,-0.357041 c 0.266766,-0.196372 0.452334,-0.389344 0.412886,-0.428847 z m 2.711258,-0.941689 c -0.103683,-0.274579 -0.09847,-0.431847 0.01738,-0.621428 0.08714,-0.139608 0.139607,-0.253722 0.116427,-0.253722 -0.160753,0 -1.45675,0.428206 -1.542492,0.509738 -0.05881,0.05593 -0.03038,0.2239 0.06308,0.373263 0.13642,0.218102 0.138167,0.322165 0.01161,0.526601 -0.08771,0.140193 -0.159293,0.279215 -0.159293,0.309139 0,0.02982 0.366852,-0.06494 0.815283,-0.210856 l 0.815227,-0.265028 -0.138743,-0.367586 z m 5.273599,-0.393217 c 0.115853,-0.09151 0.121641,-0.191746 0.02025,-0.38036 -0.07534,-0.14076 -0.107452,-0.370392 -0.07098,-0.509888 0.04924,-0.187686 0.01738,-0.234323 -0.127149,-0.179287 -0.106589,0.04088 -0.405407,0.07507 -0.664239,0.07618 -0.640177,0.0028 -0.894967,0.167711 -0.672609,0.435658 0.09646,0.116437 0.133234,0.333405 0.08714,0.517068 -0.07851,0.31293 -0.07181,0.315624 0.595127,0.240688 0.371005,-0.04172 0.745484,-0.131785 0.832229,-0.199847 z M 45.09782,53.35879 c 0.13787,-0.09417 0.04692,-0.106589 -0.320725,-0.04525 -0.636517,0.106589 -0.738934,0.181024 -0.245909,0.178135 0.205654,-9.28e-4 0.460834,-0.06077 0.566662,-0.132946 z m 5.192318,-0.781057 c 0.152066,-0.14076 -0.682374,0.0055 -0.958263,0.16655 -0.119615,0.0707 0.0019,0.08194 0.320752,0.03094 0.282411,-0.04552 0.569152,-0.134108 0.637511,-0.197543 z m 2.890852,-0.551044 c 0,-0.02899 0.03502,-0.142794 0.07794,-0.254308 0.04608,-0.119623 0.01161,-0.202745 -0.08602,-0.202745 -0.0904,0 -0.271411,-0.09731 -0.402769,-0.21578 -0.224467,-0.20334 -0.273706,-0.198992 -0.828429,0.07071 l -0.589711,0.286452 0.27313,0.290596 c 0.150328,0.159889 0.273139,0.388935 0.273139,0.509079 0,0.191457 0.07906,0.178135 0.641524,-0.10659 0.352814,-0.178711 0.641514,-0.348233 0.641514,-0.37656 z m -0.02954,-3.793307 c 0.08835,-0.141057 0.246475,-0.25662 0.351615,-0.25662 0.10514,0 0.191457,-0.06986 0.191457,-0.154965 0,-0.172338 -0.891585,-1.128074 -1.052477,-1.128074 -0.05648,0 -0.102253,0.170312 -0.102253,0.37853 0,0.227086 -0.08974,0.42894 -0.224476,0.504443 -0.204483,0.1147 -0.190872,0.16105 0.152354,0.519568 0.445096,0.465024 0.47543,0.471072 0.683981,0.136997 z m -1.708736,-1.658874 c -0.06717,-0.0654 -0.295083,-0.154667 -0.506812,-0.198109 l -0.384884,-0.07879 0.384884,0.187686 c 0.455175,0.221864 0.68347,0.261832 0.506812,0.08919 z M 35.475281,51.988886 C 31.447504,51.53907 31.430736,51.5383 30.561746,51.76297 c -1.20138,0.310849 -2.163659,0.208543 -3.340423,-0.355768 l -0.919761,-0.440953 -6.928439,-0.732886 c -3.81063,-0.403065 -7.024743,-0.772621 -7.142482,-0.821219 -0.176972,-0.07303 0.01448,-0.408668 1.090592,-1.933806 1.2079,-1.708569 1.307596,-1.816207 1.344234,-1.451567 0.04636,0.45945 -0.200142,0.978925 -0.911044,1.920382 -0.281532,0.372741 -0.489177,0.69564 -0.461632,0.717445 0.02897,0.02034 3.056575,0.360497 6.731218,0.752526 l 6.681164,0.712781 0.738301,0.416686 c 0.950928,0.536681 2.133224,0.653164 3.205482,0.315884 0.713858,-0.224485 0.74994,-0.22245 5.915723,0.331056 2.858633,0.306325 5.197501,0.602745 5.197501,0.658702 0,0.05593 -0.07302,0.101961 -0.162201,0.101961 -0.08919,0 -0.377722,0.115564 -0.641041,0.256621 -0.601444,0.322341 -0.615575,0.321793 -5.483573,-0.221865 z M 46.404254,47.68807 c 0.915015,-2.416928 2.346403,-6.198678 3.180834,-8.403903 l 1.517185,-4.009533 h -0.436 c -0.350501,0 -0.436038,-0.05007 -0.436038,-0.25663 0,-0.23373 0.08538,-0.256611 0.962314,-0.256611 0.538557,0 0.962248,0.055 0.962248,0.125114 0,0.132955 -6.001925,16.326404 -6.06011,16.350587 -0.01738,0.0084 -0.276326,0.201305 -0.572069,0.429887 -0.295789,0.228824 -0.59273,0.415701 -0.65989,0.415701 -0.06726,0 0.626519,-1.977508 1.541526,-4.394436 z m -3.808079,2.382107 c -0.493984,-0.170889 -1.417771,-0.452965 -2.052902,-0.62678 -3.577722,-0.979055 -7.293928,-0.929184 -9.098523,0.122225 l -0.524259,0.305424 -1.924558,-0.209119 -1.92456,-0.209128 -0.75829,-0.740931 c -1.700956,-1.662024 -3.927269,-2.530783 -6.485367,-2.530783 -1.17934,0 -2.8478,0.271979 -3.906822,0.636953 -0.416797,0.143659 -0.770189,0.260969 -0.785338,0.260969 -0.01739,0 0.02606,-0.274292 0.09066,-0.609435 0.06488,-0.335199 0.100791,-1.009147 0.07964,-1.497665 l -0.03852,-0.888185 0.898126,-0.229976 c 2.925945,-0.749331 6.516418,-0.83301 8.468092,-0.197246 1.804182,0.587649 3.071061,1.619742 3.778483,3.07824 0.211724,0.436372 0.386296,0.72654 0.388114,0.644794 0.0057,-0.276604 1.127089,-1.306896 1.784818,-1.640182 2.129827,-1.079261 5.853568,-0.987713 10.152451,0.249672 0.857136,0.246485 1.600734,0.44857 1.652501,0.44857 0.05184,0 1.38866,-3.2969 2.970972,-7.326435 2.656324,-6.764464 2.884423,-7.290657 2.97389,-6.860073 0.174651,0.840776 0.641124,1.451855 1.485403,1.945931 0.03271,0.01738 -6.248419,16.124169 -6.306289,16.169126 -0.01152,0.0084 -0.423802,-0.124557 -0.917784,-0.295501 z M 28.643533,45.302804 c -0.653467,-1.106148 -2.274831,-2.278304 -3.871572,-2.798858 -1.908864,-0.62232 -5.749212,-0.55541 -8.407991,0.146566 -0.384848,0.101669 -0.713418,0.170889 -0.730189,0.154092 -0.01739,-0.01449 0.904381,-1.461981 2.046907,-3.211623 l 2.07735,-3.181151 0.577374,0.07701 c 0.317564,0.04265 1.010419,0.110352 1.539656,0.150617 0.879531,0.06726 1.002135,0.04636 1.42597,-0.245045 0.752782,-0.517534 1.335284,-0.664388 1.679292,-0.423458 0.365038,0.255756 0.795912,0.247933 2.155204,-0.03819 1.758277,-0.370373 2.310048,-0.805648 2.508198,-1.978558 0.104555,-0.618762 -0.02606,-0.727952 -0.875069,-0.730674 -0.523095,-0.0019 -0.63267,0.04292 -0.752846,0.306724 -0.23229,0.509794 -1.1369,0.518639 -1.1369,0.01161 0,-0.08891 0.148293,-0.259241 0.329379,-0.377786 0.249095,-0.163364 0.371752,-0.180737 0.503538,-0.07098 0.132373,0.109776 0.33923,0.07534 0.857495,-0.142218 0.375783,-0.157566 0.703392,-0.301698 0.728018,-0.319796 0.02318,-0.02034 -0.119628,-0.335116 -0.320692,-0.704476 -0.392734,-0.72155 -0.93271,-1.140782 -1.470378,-1.141563 -0.546903,-8.17e-4 -2.582862,1.495836 -2.843656,2.090322 -0.120201,0.274301 -0.217811,0.340188 -0.413929,0.280088 -0.689466,-0.211441 -1.192286,-0.312121 -1.571719,-0.314899 -0.229109,-0.0019 -0.416999,-0.03242 -0.416999,-0.06866 0,-0.03614 0.264444,-0.463324 0.587598,-0.949335 0.503487,-0.75719 0.691726,-0.929955 1.315126,-1.207144 1.435873,-0.638468 2.169018,-0.789651 3.806802,-0.785145 1.370567,0.0028 1.645356,0.04404 2.501936,0.366582 1.206432,0.454192 2.478186,1.188861 3.432592,1.983045 l 0.737313,0.613485 0.513223,-0.378297 c 0.756252,-0.557483 2.177448,-1.213147 2.999197,-1.383775 1.207572,-0.250544 2.93158,-0.0825 4.759383,0.464012 1.494665,0.446944 1.676275,0.473413 2.758518,0.4017 0.637195,-0.04237 1.285325,-0.113529 1.440279,-0.158728 0.245343,-0.07126 -0.06745,0.791174 -2.423151,6.677674 -2.183404,5.456297 -2.744825,6.747891 -2.911969,6.699293 -3.291103,-0.957009 -5.566453,-1.371167 -7.520413,-1.368938 -2.189061,0.0028 -3.688748,0.446342 -4.719989,1.39694 -0.313045,0.288487 -0.593568,0.52464 -0.623368,0.52464 -0.02982,0 -0.151199,-0.164227 -0.269662,-0.364464 z M 14.930151,40.955749 c -0.55794,-0.321124 -0.607004,-0.328686 -0.811059,-0.124538 -0.286457,0.286453 -0.290888,0.285579 -1.39246,-0.216086 -1.056388,-0.481413 -1.372503,-0.821164 -1.372503,-1.47523 0,-0.357189 -0.09992,-0.525849 -0.529643,-0.893638 -0.350699,-0.300212 -0.664961,-0.456078 -0.9301877,-0.461374 -0.36802,-0.0084 -0.4395049,-0.08631 -0.8796174,-0.970303 -0.5758969,-1.156809 -0.6219497,-1.749511 -0.1691511,-2.175022 0.1729175,-0.162482 0.5178522,-0.706493 0.7667705,-1.20917 0.249094,-0.502735 0.5082377,-1.000591 0.5762747,-1.106464 0.06807,-0.105716 0.156987,-0.350176 0.197538,-0.542962 0.111801,-0.531702 0.645353,-0.740068 1.895425,-0.740068 1.141976,0 1.638714,0.191449 1.638714,0.631073 0,0.369444 1.256819,0.581052 1.810444,0.304903 0.397476,-0.198398 0.474435,-0.189712 1.830137,0.204204 1.526333,0.443442 1.7482,0.560632 1.7482,0.92346 0,0.27864 0.94635,0.595286 1.196572,0.40027 0.08284,-0.06457 0.280085,-0.149167 0.438463,-0.187983 0.405847,-0.09935 2.948247,0.229103 3.164784,0.408687 0.272844,0.226501 0.811175,0.03586 0.900124,-0.318728 0.142214,-0.566048 1.941336,-1.981122 2.519002,-1.981122 0.335429,0 1.018929,0.533987 1.018929,0.796043 0,0.224196 -0.509599,0.363108 -0.759618,0.206815 -0.217812,-0.136133 -0.350291,-0.09003 -0.96885,0.335988 -0.394089,0.271392 -0.744909,0.539338 -0.779548,0.595388 -0.03473,0.0562 0.08254,0.247357 0.260387,0.425103 0.349859,0.349859 0.403536,0.588149 0.182184,0.80941 -0.09273,0.09272 0.160461,0.07906 0.737723,-0.03977 0.604831,-0.124547 0.958692,-0.273138 1.135342,-0.47684 0.45347,-0.523267 0.903601,-0.182474 0.573549,0.434142 -0.19464,0.363646 -0.730018,0.59719 -2.035461,0.88799 -1.425772,0.317566 -1.360774,0.317798 -1.661424,-0.0055 -0.236639,-0.254019 -0.275452,-0.256918 -0.982296,-0.07247 -0.40469,0.105438 -0.858965,0.302766 -1.009465,0.437952 -0.441329,0.396256 -0.716316,0.435322 -1.938985,0.275453 -1.35973,-0.178136 -1.787098,-0.38744 -1.701625,-0.834496 0.05185,-0.270816 -0.01158,-0.327711 -0.532508,-0.480753 -0.493901,-0.145107 -0.64825,-0.145395 -0.937691,-0.0019 -0.472378,0.233449 -0.60715,0.221586 -1.880074,-0.168864 -1.22238,-0.374944 -1.406853,-0.479972 -1.562537,-0.889374 -0.152351,-0.400316 -0.957009,-0.53723 -1.305074,-0.222162 -0.197538,0.178711 -0.520112,0.24301 -1.393821,0.277487 -1.393213,0.05472 -1.445696,0.137861 -0.86725,1.373916 0.243591,0.520721 0.406167,1.066061 0.397709,1.334731 -0.01739,0.477854 0.362664,1.031629 0.703574,1.031629 0.303632,0 2.001694,0.782088 2.3086,1.063246 0.158725,0.145404 0.288774,0.369118 0.288774,0.496917 0,0.155244 0.255466,0.361297 0.769872,0.62102 0.4234,0.213755 0.769812,0.460964 0.769812,0.549418 0,0.196382 -0.614911,1.119936 -0.742382,1.114835 -0.0504,-0.0019 -0.35884,-0.157278 -0.685471,-0.345502 z m 0.786323,-0.482202 c 0,-0.101658 -1.046249,-0.602884 -1.115126,-0.534014 -0.03505,0.03502 0.158145,0.181033 0.429425,0.324032 0.500936,0.264155 0.685701,0.320864 0.685701,0.209982 z m -1.906228,-1.307703 c 0.09066,-0.108913 -0.04517,-0.227088 -0.484429,-0.421285 -0.525935,-0.232874 -0.624702,-0.243586 -0.716344,-0.0799 -0.0585,0.104564 -0.19522,0.278927 -0.304069,0.38769 -0.267919,0.268215 -0.138739,0.428354 0.636172,0.788611 l 0.657868,0.305859 0.04257,-0.414734 c 0.02317,-0.228248 0.09906,-0.48289 0.168282,-0.566197 z m -2.456581,-1.51805 c -0.165387,-0.1761 -0.35936,-0.32026 -0.430815,-0.32026 -0.07125,0 0.03534,0.172635 0.237506,0.383547 0.201882,0.210865 0.396001,0.355071 0.430817,0.320259 0.03475,-0.03474 -0.07212,-0.20739 -0.237508,-0.383546 z M 10.525401,36.22121 c 0.24417,0.09389 0.236349,-0.06485 -0.0307,-0.625341 -0.155827,-0.326763 -0.274871,-0.433361 -0.41697,-0.373373 -0.1091957,0.04635 -0.3499187,0.119911 -0.5344487,0.164236 l -0.3354946,0.08054 0.3215626,0.741896 0.321532,0.741917 0.2435897,-0.400799 c 0.153511,-0.252867 0.312815,-0.374284 0.430959,-0.328956 z m 12.013354,-1.194018 c -0.02317,-0.158142 0.05098,-0.390645 0.164807,-0.516409 0.193772,-0.214043 0.181317,-0.23373 -0.198695,-0.309763 -0.223024,-0.04459 -0.600372,-0.08111 -0.838518,-0.08111 -0.393972,0 -0.433015,0.03419 -0.433015,0.378567 0,0.224755 -0.08978,0.428726 -0.220708,0.502065 -0.226211,0.126573 -0.181896,0.140759 0.990637,0.317334 0.487962,0.07358 0.581111,0.02322 0.535377,-0.290689 z m -2.598939,-0.829684 c -0.08921,-0.08454 -1.015749,-0.31777 -1.015749,-0.255467 0,0.09002 0.54957,0.289062 0.823282,0.298167 0.135263,0.0055 0.221866,-0.01449 0.192323,-0.04265 z m -2.465528,-0.430444 c -0.04142,-0.21317 0.0057,-0.434198 0.116147,-0.558625 0.165966,-0.184787 0.109775,-0.227087 -0.551422,-0.415209 -0.404834,-0.115276 -0.776562,-0.167125 -0.826091,-0.114988 -0.04953,0.05184 -0.109196,0.291498 -0.132946,0.532343 -0.04113,0.421164 -0.01739,0.446545 0.598634,0.663653 0.857111,0.301633 0.874288,0.29932 0.795534,-0.107174 z m -7.146597,-0.160455 c 0,-0.07042 -0.02607,-0.12831 -0.05678,-0.12831 -0.03127,0 -0.0921,0.0576 -0.135842,0.12831 -0.04345,0.0707 -0.01739,0.128311 0.05647,0.128311 0.07473,0 0.135841,-0.0576 0.135841,-0.128311 z m 2.224316,-0.994375 c -0.04953,-0.194059 -0.08313,-0.453875 -0.07443,-0.577373 0.01448,-0.184797 -0.09356,-0.224476 -0.602372,-0.224476 -0.791306,0 -0.97856,0.199568 -0.703776,0.750621 0.185373,0.371665 0.252568,0.404097 0.836172,0.404097 0.628554,0 0.63374,-0.0028 0.544529,-0.352814 z m 2.202185,0.0962 c -0.141055,-0.06048 -0.400953,-0.107454 -0.577374,-0.104279 -0.291033,0.0055 -0.285009,0.01738 0.06401,0.104279 0.534275,0.136123 0.829595,0.136123 0.513219,0 z"
     id="path2769-3" />
  <text
     xml:space="preserve"
     style="font-size:14.1111px;line-height:1.25;font-family:'Blood Crow';-inkscape-font-specification:'Blood Crow';stroke-width:0.264583"
     x="6.2190318"
     y="12.534263"
     id="text9052-1"><tspan
       id="tspan9050-4"
       style="font-style:normal;font-variant:normal;font-weight:normal;font-stretch:normal;font-size:14.1111px;font-family:'Bleeding Cowboys';-inkscape-font-specification:'Bleeding Cowboys';stroke-width:0.264583"
       x="6.2190318"
       y="12.534263">1</tspan></text>
  <text
     xml:space="preserve"
     style="font-size:14.1111px;line-height:1.25;font-family:'Blood Crow';-inkscape-font-specification:'Blood Crow';stroke-width:0.264583"
     x="-57.230495"
     y="-75.571785"
     id="text9052-3-9"
     transform="scale(-1)"><tspan
       id="tspan9050-0-2"
       style="font-style:normal;font-variant:normal;font-weight:normal;font-stretch:normal;font-size:14.1111px;font-family:'Bleeding Cowboys';-inkscape-font-specification:'Bleeding Cowboys';stroke-width:0.264583"
       x="-57.230495"
       y="-75.571785">1</tspan></text>
</svg>
