<?xml version="1.0" encoding="UTF-8" standalone="no"?>
<!-- Created with Inkscape (http://www.inkscape.org/) -->

<svg
   width="63mm"
   height="89mm"
   viewBox="0 0 63 89"
   version="1.1"
   id="svg5"
   sodipodi:docname="1-Masque.svg"
   inkscape:version="1.1.2 (1:1.1+202202050950+0a00cf5339)"
   xmlns:inkscape="http://www.inkscape.org/namespaces/inkscape"
   xmlns:sodipodi="http://sodipodi.sourceforge.net/DTD/sodipodi-0.dtd"
   xmlns:xlink="http://www.w3.org/1999/xlink"
   xmlns="http://www.w3.org/2000/svg"
   xmlns:svg="http://www.w3.org/2000/svg">
  <sodipodi:namedview
     id="namedview18"
     pagecolor="#ffffff"
     bordercolor="#666666"
     borderopacity="1.0"
     inkscape:pageshadow="2"
     inkscape:pageopacity="0.0"
     inkscape:pagecheckerboard="0"
     inkscape:document-units="mm"
     showgrid="false"
     inkscape:zoom="1.0048221"
     inkscape:cx="215.95863"
     inkscape:cy="295.07711"
     inkscape:window-width="1920"
     inkscape:window-height="1057"
     inkscape:window-x="1920"
     inkscape:window-y="0"
     inkscape:window-maximized="1"
     inkscape:current-layer="svg5" />
  <defs
     id="defs2">
    <linearGradient
       id="linearGradient66035">
      <stop
         style="stop-color:#ffeeaa;stop-opacity:1;"
         offset="0"
         id="stop66031" />
      <stop
         style="stop-color:#ffeeaa;stop-opacity:0;"
         offset="1"
         id="stop66033" />
    </linearGradient>
    <linearGradient
       xlink:href="#linearGradient66035"
       id="linearGradient66037"
       x1="-609.21545"
       y1="124.85085"
       x2="-533.06219"
       y2="235.37372"
       gradientUnits="userSpaceOnUse"
       gradientTransform="translate(609.74701,-124.322)" />
  </defs>
  <g
     id="layer1"
     style="display:inline">
    <rect
       style="display:inline;fill:url(#linearGradient66037);fill-opacity:1;stroke:#000000;stroke-width:0.659785;stroke-miterlimit:4;stroke-dasharray:none;stroke-opacity:1"
       id="rect870-4"
       width="62.340214"
       height="88.340218"
       x="0.53155589"
       y="0.52885294"
       rx="3.7119057"
       ry="3.3358381" />
  </g>
  <path
     style="display:inline;fill:#000000;stroke-width:0.105202"
     d="m 29.793784,60.817927 c -1.343116,-0.44908 -3.275256,-1.694894 -4.410191,-2.843654 -0.751366,-0.760514 -0.860445,-0.934577 -1.888876,-3.01468 -0.989606,-2.001538 -2.117042,-4.476907 -2.117042,-4.648117 0,-0.03725 0.139417,0.141554 0.309558,0.397388 0.170162,0.255818 0.557689,0.701843 0.860971,0.991147 0.303314,0.289307 0.473402,0.407657 0.377957,0.263014 -1.346087,-2.040564 -1.913313,-3.619422 -2.135408,-5.943889 -0.04431,-0.462885 -0.100411,-0.746931 -0.12502,-0.631211 -0.02542,0.115732 -0.09172,0.257737 -0.148997,0.315608 -0.147878,0.14954 -0.03562,-6.565811 0.122478,-7.311509 0.216731,-1.02313 0.653605,-2.450078 1.006471,-3.287365 1.522911,-3.613618 5.288561,-6.212835 9.357901,-6.459247 3.541743,-0.214474 7.206328,1.672175 9.276887,4.77602 0.847197,1.269982 1.503323,2.960607 1.92912,4.970592 0.15802,0.745698 0.27034,7.461038 0.12247,7.311509 -0.0573,-0.05785 -0.12332,-0.199884 -0.14703,-0.315608 -0.0225,-0.115731 -0.077,0.120982 -0.11852,0.526008 -0.195008,1.899264 -0.582051,3.350194 -1.198324,4.49273 -0.266401,0.493718 -0.267817,0.494647 -0.565789,0.340584 -0.186543,-0.0964 -0.331281,-0.280031 -0.385263,-0.488318 l -0.08636,-0.333827 -0.229433,0.533191 -0.229433,0.53319 -0.684683,0.129192 c -0.64512,0.121714 -0.706042,0.158909 -1.05423,0.643574 -0.203183,0.282909 -0.452483,0.515888 -0.553817,0.517728 -0.101269,0.0018 -0.275433,0.07238 -0.387076,0.156764 -0.19387,0.146775 -0.187949,0.158542 0.137154,0.271931 0.311574,0.108621 0.333963,0.146012 0.268374,0.448149 -0.03948,0.181287 -0.136585,0.423017 -0.216163,0.537149 -0.07928,0.114123 -0.144491,0.244303 -0.144491,0.289303 0,0.152757 0.561079,0.08266 0.756924,-0.09456 0.257936,-0.233495 0.397846,-0.08728 0.514681,0.538078 0.07595,0.405663 0.05278,0.563352 -0.140532,0.961213 -0.202056,0.416014 -0.344176,0.535615 -1.128251,0.949828 -0.730823,0.386094 -0.959752,0.569145 -1.235657,0.988068 -0.206572,0.31348 -0.596577,0.68718 -0.999423,0.957396 -0.363421,0.243767 -0.675092,0.454156 -0.692589,0.467534 -0.01695,0.01326 0.05954,0.380925 0.171021,0.816769 l 0.202903,0.792442 -0.644551,0.291829 c -0.5689,0.257567 -0.792829,0.295685 -1.906995,0.324681 -1.009978,0.02624 -1.378109,-0.0059 -1.841041,-0.160602 z m 1.48648,-3.440015 c 0.464755,-0.182078 0.504694,-0.182417 0.873276,-0.0076 0.697406,0.330946 1.060044,0.334934 1.379804,0.01524 0.249193,-0.249102 0.277407,-0.345237 0.234228,-0.794888 l -0.04913,-0.511526 0.510252,-0.122392 c 0.667165,-0.160038 0.720041,-0.275656 0.168199,-0.367556 -0.624834,-0.104048 -1.144396,-0.389975 -1.551812,-0.853982 l -0.347899,-0.396259 -0.39893,0.44952 -0.398887,0.449516 -0.3864,-0.427666 c -0.212494,-0.235216 -0.420192,-0.427669 -0.461537,-0.427669 -0.04152,0 -0.137722,0.116805 -0.214199,0.259571 -0.202335,0.378044 -0.866335,0.778629 -1.546867,0.933186 -0.589078,0.133793 -0.591417,0.135825 -0.287148,0.251529 0.168757,0.06414 0.437368,0.145164 0.596953,0.180018 0.270348,0.05907 0.285839,0.0907 0.225764,0.466084 -0.06716,0.420249 0.140532,0.991 0.402309,1.104801 0.208267,0.09059 0.718347,0.009 1.251963,-0.199941 z m -0.224069,-5.146836 c 0,-0.127246 -0.963195,-0.688868 -1.18145,-0.688868 -0.292951,0 -0.501787,0.179792 -0.501787,0.432001 0,0.155212 0.04795,0.164807 0.354335,0.07078 0.272044,-0.0835 0.461323,-0.07094 0.815315,0.05415 0.253419,0.0896 0.472811,0.166614 0.487283,0.171185 0.01405,0.0045 0.02542,-0.01298 0.02542,-0.03925 z m 2.796469,-0.187694 c 0.365084,0.112035 0.371403,0.108931 0.339488,-0.167205 -0.05696,-0.492073 -0.832843,-0.408434 -1.353618,0.145899 l -0.237328,0.252544 0.439673,-0.172709 c 0.351793,-0.138195 0.514081,-0.149878 0.811699,-0.05853 z m 5.304042,-3.850959 v -1.035366 l -0.413316,-0.12383 c -0.333116,-0.09982 -0.436681,-0.194693 -0.533873,-0.489215 -0.117672,-0.356884 -0.10865,-0.377035 0.390519,-0.865939 0.538948,-0.527837 0.87378,-1.111862 0.905695,-1.579782 0.02542,-0.357267 -0.211367,-0.416791 -1.718445,-0.433747 l -1.106431,-0.01242 -0.706814,-1.418226 -0.706804,-1.418222 0.270917,-0.730928 c 0.168757,-0.455453 0.237607,-0.787091 0.182585,-0.879956 -0.04849,-0.08198 -0.443375,-0.579316 -0.87732,-1.105214 l -0.78901,-0.956179 -0.93923,-0.321309 c -0.516569,-0.176716 -0.955911,-0.30465 -0.976261,-0.284288 -0.01974,0.02032 0.275723,0.240776 0.657993,0.48984 0.816075,0.531685 2.402506,2.269916 2.300689,2.520824 -0.03551,0.08723 -0.164519,0.432651 -0.286944,0.767607 l -0.222653,0.60901 0.706235,1.417116 c 0.38846,0.77941 0.706278,1.458263 0.706278,1.508559 0,0.05029 -0.153523,0.155043 -0.341129,0.232734 -0.687279,0.284676 -1.339028,1.033574 -1.555052,1.786792 -0.07445,0.260079 -0.04463,0.300843 0.354218,0.479554 0.348123,0.156031 0.682988,0.193903 1.665342,0.18823 l 1.229617,-0.0071 0.175248,0.388473 c 0.158029,0.350189 0.228585,0.397546 0.717445,0.4805 l 0.542231,0.09202 0.09623,0.867914 c 0.0531,0.47735 0.135737,0.867908 0.184001,0.867908 0.04828,0 0.08775,-0.465912 0.08775,-1.035359 z M 28.438642,46.339146 c 0.365653,-0.180582 0.376488,-0.201719 0.274017,-0.535317 -0.204598,-0.666566 -0.822738,-1.337048 -1.59586,-1.730922 -0.722498,-0.368075 -0.72326,-0.368205 -2.173845,-0.368205 -1.66161,0 -1.765518,0.04143 -1.556125,0.620487 0.337321,0.932788 1.331326,1.864694 2.269504,2.127705 0.703146,0.19712 2.283601,0.132495 2.782223,-0.113757 z"
     id="path2429-3" />
  <text
     xml:space="preserve"
     style="font-size:14.1111px;line-height:1.25;font-family:'Blood Crow';-inkscape-font-specification:'Blood Crow';stroke-width:0.264583"
     x="6.2190318"
     y="12.534263"
     id="text9052-1"><tspan
       id="tspan9050-4"
       style="font-style:normal;font-variant:normal;font-weight:normal;font-stretch:normal;font-size:14.1111px;font-family:'Bleeding Cowboys';-inkscape-font-specification:'Bleeding Cowboys';stroke-width:0.264583"
       x="6.2190318"
       y="12.534263">1</tspan></text>
  <text
     xml:space="preserve"
     style="font-size:14.1111px;line-height:1.25;font-family:'Blood Crow';-inkscape-font-specification:'Blood Crow';stroke-width:0.264583"
     x="-57.230495"
     y="-75.571785"
     id="text9052-3-9"
     transform="scale(-1)"><tspan
       id="tspan9050-0-2"
       style="font-style:normal;font-variant:normal;font-weight:normal;font-stretch:normal;font-size:14.1111px;font-family:'Bleeding Cowboys';-inkscape-font-specification:'Bleeding Cowboys';stroke-width:0.264583"
       x="-57.230495"
       y="-75.571785">1</tspan></text>
</svg>
