<?xml version="1.0" encoding="UTF-8" standalone="no"?>
<!-- Created with Inkscape (http://www.inkscape.org/) -->

<svg
   width="63mm"
   height="89mm"
   viewBox="0 0 63 89"
   version="1.1"
   id="svg5"
   sodipodi:docname="12-Bélier.svg"
   inkscape:version="1.1.2 (1:1.1+202202050950+0a00cf5339)"
   xmlns:inkscape="http://www.inkscape.org/namespaces/inkscape"
   xmlns:sodipodi="http://sodipodi.sourceforge.net/DTD/sodipodi-0.dtd"
   xmlns:xlink="http://www.w3.org/1999/xlink"
   xmlns="http://www.w3.org/2000/svg"
   xmlns:svg="http://www.w3.org/2000/svg">
  <sodipodi:namedview
     id="namedview180"
     pagecolor="#ffffff"
     bordercolor="#666666"
     borderopacity="1.0"
     inkscape:pageshadow="2"
     inkscape:pageopacity="0.0"
     inkscape:pagecheckerboard="0"
     inkscape:document-units="mm"
     showgrid="false"
     inkscape:zoom="0.71051652"
     inkscape:cx="36.593097"
     inkscape:cy="190.00262"
     inkscape:window-width="1920"
     inkscape:window-height="998"
     inkscape:window-x="0"
     inkscape:window-y="31"
     inkscape:window-maximized="1"
     inkscape:current-layer="svg5" />
  <defs
     id="defs2">
    <linearGradient
       id="linearGradient66035">
      <stop
         style="stop-color:#ffeeaa;stop-opacity:1;"
         offset="0"
         id="stop66031" />
      <stop
         style="stop-color:#ffeeaa;stop-opacity:0;"
         offset="1"
         id="stop66033" />
    </linearGradient>
    <linearGradient
       xlink:href="#linearGradient66035"
       id="linearGradient66037"
       x1="-609.21545"
       y1="124.85085"
       x2="-533.06219"
       y2="235.37372"
       gradientUnits="userSpaceOnUse"
       gradientTransform="translate(609.74701,-124.322)" />
    <linearGradient
       xlink:href="#linearGradient66035"
       id="linearGradient66272"
       gradientUnits="userSpaceOnUse"
       x1="-609.21545"
       y1="124.85085"
       x2="-533.06219"
       y2="235.37372"
       gradientTransform="translate(28.205327,-3.083649)" />
    <linearGradient
       xlink:href="#linearGradient66035"
       id="linearGradient66419"
       gradientUnits="userSpaceOnUse"
       gradientTransform="translate(90.545577,-3.083657)"
       x1="-609.21545"
       y1="124.85085"
       x2="-533.06219"
       y2="235.37372" />
    <linearGradient
       xlink:href="#linearGradient66035"
       id="linearGradient66886"
       gradientUnits="userSpaceOnUse"
       gradientTransform="translate(806.17471,63.04555)"
       x1="-609.21545"
       y1="124.85085"
       x2="-533.06219"
       y2="235.37372" />
    <linearGradient
       xlink:href="#linearGradient66035"
       id="linearGradient67116"
       gradientUnits="userSpaceOnUse"
       gradientTransform="translate(152.88577,-3.08367)"
       x1="-609.21545"
       y1="124.85085"
       x2="-533.06219"
       y2="235.37372" />
    <linearGradient
       xlink:href="#linearGradient66035"
       id="linearGradient73095"
       gradientUnits="userSpaceOnUse"
       gradientTransform="translate(215.22601,-3.0836)"
       x1="-609.21545"
       y1="124.85085"
       x2="-533.06219"
       y2="235.37372" />
    <linearGradient
       xlink:href="#linearGradient66035"
       id="linearGradient82342"
       gradientUnits="userSpaceOnUse"
       gradientTransform="translate(-34.13484,85.25655)"
       x1="-609.21545"
       y1="124.85085"
       x2="-533.06219"
       y2="235.37372" />
    <linearGradient
       xlink:href="#linearGradient66035"
       id="linearGradient90215"
       gradientUnits="userSpaceOnUse"
       gradientTransform="translate(28.20537,85.25655)"
       x1="-609.21545"
       y1="124.85085"
       x2="-533.06219"
       y2="235.37372" />
    <linearGradient
       xlink:href="#linearGradient66035"
       id="linearGradient99476"
       gradientUnits="userSpaceOnUse"
       gradientTransform="translate(90.54556,85.25654)"
       x1="-609.21545"
       y1="124.85085"
       x2="-533.06219"
       y2="235.37372" />
    <linearGradient
       xlink:href="#linearGradient66035"
       id="linearGradient105434"
       gradientUnits="userSpaceOnUse"
       gradientTransform="translate(152.88578,85.256544)"
       x1="-609.21545"
       y1="124.85085"
       x2="-533.06219"
       y2="235.37372" />
    <linearGradient
       xlink:href="#linearGradient66035"
       id="linearGradient116711"
       gradientUnits="userSpaceOnUse"
       gradientTransform="translate(215.22599,85.25654)"
       x1="-609.21545"
       y1="124.85085"
       x2="-533.06219"
       y2="235.37372" />
    <linearGradient
       xlink:href="#linearGradient66035"
       id="linearGradient12364"
       gradientUnits="userSpaceOnUse"
       gradientTransform="translate(-34.13485,173.59677)"
       x1="-609.21545"
       y1="124.85085"
       x2="-533.06219"
       y2="235.37372" />
    <linearGradient
       xlink:href="#linearGradient66035"
       id="linearGradient106962"
       gradientUnits="userSpaceOnUse"
       gradientTransform="translate(215.22596,173.59678)"
       x1="-609.21545"
       y1="124.85085"
       x2="-533.06219"
       y2="235.37372" />
  </defs>
  <rect
     style="display:inline;fill:url(#linearGradient66037);fill-opacity:1;stroke:#000000;stroke-width:0.659785;stroke-miterlimit:4;stroke-dasharray:none;stroke-opacity:1"
     id="rect870-4"
     width="62.340214"
     height="88.340218"
     x="0.53155589"
     y="0.52885294"
     rx="3.7119057"
     ry="3.3358381" />
  <path
     style="display:inline;fill:#000000;stroke-width:0.0779876"
     d="m 31.003618,44.944227 c -0.47394,-0.57142 -0.70731,-1.05402 -0.84738,-1.75214 -0.19914,-0.99295 -0.59808,-1.86865 -1.06344,-2.33462 -0.20788,-0.20832 -0.47043,-0.56974 -0.58326,-0.80333 -0.17922,-0.37111 -0.21029,-0.55269 -0.24613,-1.43855 -0.0263,-0.6493 -0.0921,-1.18208 -0.18316,-1.48176 -0.0781,-0.25736 -0.1429,-0.6993 -0.14377,-0.98212 -0.001,-0.4159 -0.0339,-0.55004 -0.17047,-0.70188 -0.0928,-0.10329 -0.3034,-0.34262 -0.46794,-0.53197 -0.16455,-0.18928 -0.56231,-0.55203 -0.88401,-0.80598 -0.32172,-0.25395 -0.61169,-0.50908 -0.6444,-0.56696 -0.0648,-0.11445 0.2057,-0.34947 0.40238,-0.34947 0.0849,0 0.0729,-0.044 -0.0475,-0.1755 -0.51529,-0.56242 -0.75016,-1.51132 -0.75762,-3.061014 -0.007,-1.09317 0.007,-1.18886 0.17528,-1.46075 0.12845,-0.20658 0.26983,-0.31759 0.48744,-0.3828 0.16849,-0.0505 0.30651,-0.11619 0.30651,-0.14574 0,-0.0298 -0.10307,-0.19628 -0.22922,-0.37036 -0.158,-0.21817 -0.3938,-0.39741 -0.7589,-0.57711 -0.45198,-0.22244 -0.610001,-0.26016 -1.077081,-0.25723 -0.4538,0.002 -0.61884,0.0425 -0.96531,0.23147 -0.50737,0.27686 -0.8843,0.70156 -1.1758,1.32485 -0.41768,0.89298 -0.69618,2.634824 -0.76066,4.757224 -0.0845,2.78269 0.37872,4.59057 1.44946,5.65656 0.63921,0.63639 1.05789,0.81734 1.87976,0.81246 0.625101,-0.004 0.715961,-0.0274 1.593241,-0.41247 0.51168,-0.22467 0.97942,-0.39837 1.0394,-0.38598 0.16806,0.0348 -0.28141,0.60636 -0.74326,0.94541 -1.37925,1.01245 -2.799171,1.04608 -4.479961,0.10613 -1.53776,-0.85996 -3.17003,-3.77423 -3.76797,-6.72736 -0.16106,-0.79511 -0.19235,-1.17289 -0.19235,-2.31446 0,-1.574644 0.11313,-2.366704 0.50575,-3.541174 0.8494,-2.54086 2.69406,-4.83322 4.69147,-5.83011 1.865891,-0.93124 3.604891,-0.57492 5.843571,1.19733 0.38229,0.30264 0.77001,0.55024 0.86163,0.55024 0.0917,0 0.20745,0.0492 0.25732,0.10942 0.24384,0.29379 1.71159,0.26462 2.10301,-0.0418 0.10241,-0.0801 0.24425,-0.14552 0.31546,-0.14552 0.0711,0 0.40866,-0.24986 0.74985,-0.55523 1.7993,-1.61034 3.69513,-2.31273 5.10904,-1.89285 0.59682,0.17725 1.66662,0.7295 2.22196,1.14707 1.12713,0.84751 2.42108,2.47683 3.03252,3.81857 0.31732,0.6963 0.68438,1.81186 0.87809,2.66861 0.11554,0.51146 0.1407,0.9682 0.13917,2.534584 -0.002,1.68236 -0.0225,2.00218 -0.17396,2.67606 -0.47125,2.09677 -1.41912,4.15326 -2.50167,5.42762 -0.47328,0.55715 -1.35992,1.12744 -2.1321,1.37136 -1.47797,0.46689 -2.93562,0.0932 -3.95643,-1.01419 -0.32078,-0.348 -0.39369,-0.5061 -0.23338,-0.5061 0.0473,0 0.51239,0.1825 1.03335,0.40572 0.8727,0.37382 0.99631,0.40603 1.5722,0.40943 0.55304,0.002 0.6851,-0.0258 1.14621,-0.25262 1.79762,-0.88412 2.50933,-3.75476 1.9708,-7.94916 -0.36454,-2.839324 -0.85867,-3.976784 -1.96209,-4.516634 -0.76816,-0.37583 -1.76553,-0.23955 -2.43392,0.33256 -0.26764,0.22908 -0.55483,0.61897 -0.55483,0.7532 0,0.0175 0.13852,0.072 0.30802,0.12276 0.47406,0.14202 0.63772,0.43684 0.73154,1.31775 0.14333,1.345834 -0.10832,2.819384 -0.6072,3.554384 l -0.18469,0.27218 0.22712,0.0941 c 0.12495,0.0516 0.22712,0.15296 0.22712,0.22489 0,0.072 -0.29923,0.3687 -0.66491,0.65946 -0.36572,0.29075 -0.80861,0.71895 -0.98422,0.95154 -0.17549,0.23261 -0.35018,0.42293 -0.38793,0.42293 -0.0376,0 -0.0687,0.24003 -0.0687,0.53343 0,0.29338 -0.0702,0.80787 -0.15603,1.14328 -0.11028,0.43131 -0.15602,0.86513 -0.15602,1.48179 0,0.8123 -0.0153,0.90386 -0.2334,1.33902 -0.12845,0.2569 -0.40264,0.64083 -0.6095,0.85321 -0.4591,0.47133 -0.82576,1.30234 -1.03623,2.34864 -0.14552,0.72344 -0.36537,1.15081 -0.93157,1.81092 -0.23044,0.2687 -0.32603,0.0956 -0.28353,-0.51376 0.0175,-0.26342 0.0109,-0.5091 -0.0153,-0.54593 -0.0713,-0.0978 -0.3985,-0.0939 -0.4071,0.004 -0.004,0.0462 -0.0131,0.32671 -0.0197,0.62311 -0.007,0.2964 -0.0473,0.54809 -0.0901,0.55934 -0.0429,0.0109 -0.17091,-0.0917 -0.28468,-0.22874 z m -0.75979,-4.96053 c -0.0961,-0.42954 -0.25986,-0.99133 -0.36432,-1.24845 -0.18754,-0.46177 -0.23483,-0.8089 -0.14268,-1.04915 0.0519,-0.13545 0.78903,-0.74724 0.90017,-0.74724 0.0381,0 0.0468,0.0891 0.0197,0.19803 -0.0333,0.13305 -0.004,0.24638 0.0834,0.34507 0.0836,0.0921 0.12408,0.24358 0.1092,0.4063 -0.0131,0.14267 0.0573,0.60339 0.15668,1.02393 0.34995,1.48415 0.82172,1.51157 1.15389,0.067 0.0657,-0.28583 0.12889,-0.70628 0.14005,-0.93434 0.0109,-0.22807 0.0604,-0.45444 0.10898,-0.50304 0.0486,-0.0486 0.0884,-0.20417 0.0884,-0.34573 0,-0.14158 0.0359,-0.25734 0.0797,-0.25734 0.0438,0 0.27191,0.18622 0.50691,0.41385 0.49864,0.48297 0.52127,0.6105 0.2355,1.32755 -0.32975,0.82736 -0.61361,2.23595 -0.45059,2.23595 0.13896,0 0.75852,-0.91679 1.06893,-1.58161 0.53394,-1.14357 0.54179,-1.20375 0.26579,-2.0345 -0.27907,-0.84001 -0.35293,-1.35193 -0.24124,-1.67229 0.0801,-0.22973 0.0711,-0.2406 -0.61387,-0.75218 -0.4519,-0.33747 -0.69511,-0.57129 -0.69511,-0.66834 0,-0.13917 0.0197,-0.13611 0.28384,0.0433 0.15603,0.10591 0.31109,0.19257 0.34439,0.19257 0.0333,0 0.17616,-0.14924 0.31735,-0.33146 1.63616,-2.11187 2.17518,-2.65644 2.73056,-2.75875 0.61869,-0.114 0.94463,-0.56632 0.94463,-1.311104 0,-0.90642 -0.35257,-1.60817 -0.96492,-1.92057 -0.26412,-0.1348 -0.29053,-0.17222 -0.21095,-0.29947 0.1057,-0.16937 0.21942,-0.004 -1.27238,-1.84972 -0.96394,-1.19251 -1.29215,-1.54977 -1.95765,-2.13084 -0.2327,-0.20307 -0.38229,-0.16894 -0.20635,0.0473 0.0972,0.11948 0.0923,0.1267 -0.0475,0.0691 -0.49382,-0.20372 -0.73699,-0.22959 -0.99555,-0.10635 -0.23043,0.10985 -0.28353,0.11073 -0.47917,0.009 -0.21423,-0.11226 -0.49667,-0.0842 -0.91771,0.091 -0.10613,0.0442 -0.12254,0.0197 -0.0875,-0.12714 0.0674,-0.28299 -1.07039,0.86616 -1.63477,1.65109 -0.26215,0.36459 -0.71024,0.96196 -0.99575,1.32751 -0.58385,0.74749 -0.71613,0.96503 -0.6833,1.1235 0.0131,0.0604 -0.12539,0.2173 -0.30662,0.34901 -0.84503,0.61425 -1.04175,2.213174 -0.3494,2.839734 0.0858,0.0777 0.33701,0.18907 0.55811,0.24734 0.232,0.0613 0.5523,0.22923 0.75749,0.39735 0.37326,0.30585 1.28668,1.34552 1.92163,2.18722 0.20613,0.27329 0.40306,0.49689 0.43754,0.49689 0.0346,0 0.19038,-0.0867 0.34654,-0.19257 0.27104,-0.18382 0.28384,-0.18557 0.28384,-0.0372 0,0.10482 -0.21402,0.31255 -0.65572,0.63705 l -0.65569,0.48163 0.0398,0.54991 c 0.0339,0.46965 0.004,0.65926 -0.2022,1.29887 -0.13305,0.41192 -0.24191,0.80815 -0.24191,0.88052 0,0.29012 0.73377,1.83945 1.10757,2.33858 0.52846,0.70565 0.6126,0.61409 0.38255,-0.41628 z"
     id="path2639-5" />
  <path
     style="display:inline;fill:#000000;stroke-width:0.0779876"
     d="m 31.522398,46.087887 c -0.2579,0.69615 -0.55915,1.13956 -1.09371,1.60992 -0.76035,0.66894 -1.31926,1.45228 -1.49012,2.08828 -0.0765,0.28419 -0.25819,0.69227 -0.40407,0.90678 -0.23178,0.34076 -0.3735,0.45846 -1.12276,0.93243 -0.54916,0.34743 -0.97766,0.6708 -1.19166,0.8995 -0.18383,0.19632 -0.53416,0.47341 -0.77866,0.61557 -0.35968,0.20882 -0.45939,0.30438 -0.52261,0.49857 -0.043,0.13201 -0.14501,0.43406 -0.226726,0.67123 -0.08165,0.23715 -0.196917,0.76299 -0.255994,1.16857 -0.05907,0.40559 -0.135031,0.78428 -0.168801,0.84155 -0.06672,0.11334 -0.4055,-0.003 -0.50384,-0.17374 -0.04245,-0.0735 -0.07456,-0.0411 -0.128238,0.12889 -0.229425,0.72746 -0.933761,1.40531 -2.272102,2.18662 -0.943213,0.55265 -1.033083,0.58837 -1.352687,0.57858 -0.243128,-0.008 -0.409956,-0.0749 -0.575234,-0.23074 -0.12798,-0.12067 -0.253879,-0.20735 -0.27947,-0.19257 -0.02581,0.0149 -0.118448,0.1874 -0.206131,0.38369 -0.109941,0.24591 -0.147267,0.53974 -0.120342,0.94578 0.03335,0.50264 0.0797,0.65835 0.315773,1.06139 0.228632,0.392 0.346226,0.51468 0.683114,0.72025 0.493452,0.30097 1.049718,0.41505 1.735253,0.35585 0.982184,-0.0848 2.629911,-0.7145 4.500205,-1.71986 2.45213,-1.31817 3.78619,-2.62327 4.17399,-4.08355 0.23153,-0.87177 0.17889,-1.32483 -0.23627,-2.03415 -0.31601,-0.53935 -0.38171,-0.60634 -1.15383,-1.17355 -0.45041,-0.3308 -0.83471,-0.64902 -0.85397,-0.70716 -0.0539,-0.16294 0.66583,-0.0595 1.19038,0.17098 1.56644,0.68824 2.30552,1.90111 2.3319,3.82669 0.0241,1.76172 -1.68357,4.63244 -3.94208,6.62684 -0.60806,0.53704 -0.91958,0.75303 -1.90821,1.32381 -1.363677,0.78732 -2.106186,1.08538 -3.319617,1.33259 -2.625149,0.53483 -5.532721,0.0835 -7.394759,-1.14787 -1.739423,-1.15029 -2.30034,-2.83447 -1.884867,-5.65935 0.07095,-0.48239 0.09152,-0.94197 0.04571,-1.02131 -0.04585,-0.0794 -0.06112,-0.20426 -0.0339,-0.27756 0.13251,-0.35807 -0.626627,-1.61459 -1.087704,-1.80036 -0.120574,-0.0486 -0.248149,-0.13877 -0.283754,-0.20044 -0.03555,-0.0616 -0.420716,-0.22898 -0.855769,-0.37177 -2.2942448,-0.75307 -3.8504478,-2.04371 -4.1937758,-3.47813 -0.144907,-0.60549 -0.201544,-1.80809 -0.117588,-2.49781 0.1704,-1.39988 0.934458,-3.33513 1.790719,-4.53553 0.444353,-0.62295 1.2269261,-1.49862 1.8720388,-2.09475 0.385167,-0.35579 0.768135,-0.60595 2.125425,-1.38781 1.457967,-0.83945 1.745189,-0.98161 2.404516,-1.18738 2.051481,-0.64027 4.306389,-0.84764 5.951292,-0.5473 0.719146,0.1313 1.656352,0.614 2.253683,1.16077 1.143323,1.04652 1.548523,2.49572 1.0999,3.93347 -0.140987,0.4518 -0.24145,0.59399 -0.321605,0.45516 -0.02365,-0.041 -0.09815,-0.53499 -0.165311,-1.09777 -0.112613,-0.94269 -0.146523,-1.06584 -0.431524,-1.56628 -0.274788,-0.47995 -0.364893,-0.58041 -0.79188,-0.86634 -1.66448,-1.11472 -4.506382,-0.29576 -7.869574,2.26782 -2.276654,1.73536 -3.014658,2.73202 -2.930472,3.95754 0.0586,0.85316 0.675309,1.64876 1.504966,1.94155 0.332209,0.11725 0.813458,0.17101 0.929705,0.1039 0.01515,-0.009 -0.0069,-0.15596 -0.0477,-0.32813 -0.114037,-0.48156 0.05945,-0.77071 0.775435,-1.29241 1.093858,-0.79704 2.495815,-1.31588 3.381784,-1.25134 l 0.328059,0.0239 -0.03207,-0.24375 c -0.01779,-0.13401 0.01891,-0.27317 0.0812,-0.30913 0.06235,-0.036 0.468918,0.0748 0.903564,0.2461 0.434657,0.17134 1.026934,0.3408 1.316168,0.37659 0.289191,0.0357 0.541358,0.0918 0.560233,0.12449 0.0188,0.0326 0.242222,-0.0605 0.496314,-0.20722 0.254074,-0.14669 0.734736,-0.34314 1.068124,-0.43651 0.428666,-0.12015 0.827235,-0.29745 1.361278,-0.60578 0.703476,-0.40615 0.790416,-0.43868 1.276326,-0.46738 0.2867,-0.0172 0.75629,0.0283 1.04365,0.10124 0.63773,0.16192 1.54074,0.064 2.5521,-0.27692 0.69927,-0.2357 1.17931,-0.25899 2.03408,-0.0987 0.34793,0.0652 0.24581,0.23455 -0.30316,0.50242 -0.23688,0.11656 -0.44634,0.24511 -0.46514,0.28622 -0.049,0.11065 0.11793,0.39206 0.20701,0.35056 0.042,-0.0196 0.28949,-0.15201 0.54948,-0.2945 0.26019,-0.14213 0.49831,-0.23308 0.52946,-0.20164 0.0309,0.0317 0.006,0.19387 -0.0558,0.36091 z m -3.91605,3.13826 c -0.32394,0.298 -0.72859,0.72071 -0.89903,0.93974 -0.30613,0.3933 -0.58311,0.60781 -0.83725,0.64814 -0.14325,0.0228 -1.04164,-0.3097 -1.09721,-0.40595 -0.019,-0.033 0.0538,-0.0851 0.16165,-0.11608 0.13187,-0.0377 0.21537,-0.11973 0.25713,-0.24476 0.038,-0.11845 0.14891,-0.22925 0.29727,-0.29772 0.13011,-0.06 0.4939,-0.35132 0.80841,-0.64766 1.11034,-1.04514 0.8982,-1.46741 -0.51892,-1.03279 -0.28039,0.086 -0.6761,0.24151 -0.87919,0.34588 -0.202962,0.10459 -0.423754,0.17491 -0.490133,0.15714 -0.06639,-0.0178 -0.221017,0.0255 -0.343611,0.0963 -0.122612,0.0708 -0.240813,0.0976 -0.262713,0.0597 -0.0219,-0.0379 0.02532,-0.3286 0.104949,-0.64593 0.168945,-0.67332 0.268074,-0.75668 1.031938,-0.86772 0.88139,-0.12811 2.2432,-0.58657 2.16169,-0.72775 -0.0695,-0.12035 -1.17323,-0.19851 -1.90418,-0.13492 -1.257331,0.10938 -1.313374,0.13267 -1.894824,0.78707 -0.587935,0.66169 -0.994341,0.98161 -1.327626,1.04507 -0.239002,0.0455 -0.243915,0.0587 -0.344472,0.90771 -0.06631,0.56009 -0.147196,0.88763 -0.231244,0.93616 -0.120525,0.0696 -0.127725,0.051 -0.104421,-0.26747 0.01371,-0.18808 0.01122,-0.36569 -0.0054,-0.39453 -0.01665,-0.0288 -0.217325,-0.0779 -0.445728,-0.10911 -2.647013,-0.36102 -3.388134,-0.55554 -3.754427,-0.98535 -0.408072,-0.47881 -0.962763,-0.53492 -1.607761,-0.16253 -0.784983,0.45321 -1.216431,1.10942 -1.180802,1.79593 0.01532,0.29614 -0.0039,0.33772 -0.153874,0.33242 -0.199529,-0.007 -0.113174,-0.18802 -0.965715,2.02678 -0.550774,1.43105 -0.696065,1.89392 -0.866536,2.76079 -0.05951,0.30306 0.04484,0.41555 0.144138,0.15506 0.05487,-0.14392 0.06358,-0.14329 0.08359,0.007 0.07048,0.52952 0.169664,0.75305 0.405673,0.91535 0.210348,0.14463 0.23766,0.19018 0.24738,0.41047 0.0099,0.24166 0.175415,0.47223 0.537663,0.74926 0.09134,0.0698 0.07833,0.0963 -0.06636,0.13935 -0.278776,0.0831 1.285312,0.49391 2.247271,0.59021 0.44682,0.0447 1.188202,0.1341 1.647533,0.19859 0.93927,0.13188 1.193805,0.13767 1.314629,0.03 0.04576,-0.0415 0.250883,-6e-5 0.455562,0.091 0.954471,0.42469 2.437536,-0.2044 2.633978,-1.11728 0.02439,-0.11315 -0.0048,-0.38639 -0.06485,-0.607 -0.06291,-0.23157 -0.07763,-0.59293 -0.03463,-0.85468 0.07824,-0.47618 0.521915,-1.78706 0.933373,-2.7578 0.133611,-0.31515 0.22879,-0.5975 0.21155,-0.62736 -0.0173,-0.03 -0.170275,-0.12152 -0.340041,-0.20383 -0.294713,-0.14282 -0.302628,-0.15303 -0.174136,-0.22721 0.09078,-0.0524 0.377686,0.0291 0.879561,0.24934 l 0.744949,0.32703 0.456336,-0.30942 c 0.389781,-0.26418 0.568931,-0.33309 1.225951,-0.47432 0.42326,-0.0907 0.82084,-0.19458 0.88351,-0.23076 0.25125,-0.14506 1.22613,-1.55519 1.47148,-2.12848 0.34689,-0.81048 0.22552,-0.83757 -0.55178,-0.12316 z"
     id="path2639-5-9" />
  <path
     style="display:inline;fill:#000000;stroke-width:0.0779876"
     d="m 32.330978,45.032057 c 0.73183,-0.12474 1.26646,-0.0855 1.94109,0.14222 0.95949,0.32401 1.91734,0.41637 2.55356,0.24634 0.28435,-0.0759 0.72862,-0.12253 0.98733,-0.10345 0.411,0.0303 0.58379,0.0942 1.36889,0.50612 0.57546,0.30187 1.06976,0.51128 1.37482,0.58226 0.26193,0.061 0.67706,0.22589 0.92243,0.36655 0.36068,0.20708 0.49329,0.24566 0.69308,0.20331 0.13585,-0.0287 0.44841,-0.0915 0.69467,-0.13927 0.24619,-0.0479 0.75922,-0.21096 1.14,-0.36258 0.38079,-0.15164 0.74672,-0.2752 0.8132,-0.27459 0.13152,10e-4 0.1998,0.35288 0.10146,0.52321 -0.0425,0.0735 0.002,0.0851 0.17574,0.0466 0.74471,-0.16504 1.68392,0.106 3.02972,0.87439 0.95021,0.54052 1.02608,0.60049 1.17741,0.88217 0.11468,0.21453 0.14012,0.39247 0.0878,0.61354 -0.0405,0.17116 -0.0526,0.32354 -0.027,0.33831 0.0258,0.0149 0.22152,0.009 0.43535,-0.0133 0.26794,-0.0278 0.54107,-0.14234 0.87925,-0.36867 0.41862,-0.28021 0.5303,-0.3982 0.7613,-0.80416 0.22517,-0.39401 0.27262,-0.55719 0.2822,-0.95172 0.0139,-0.57783 -0.16542,-1.11661 -0.55945,-1.6807 -0.56451,-0.80821 -1.93374,-1.92032 -3.73955,-3.03736 -2.36763,-1.46453 -4.16491,-1.96731 -5.62345,-1.57301 -0.87074,0.23537 -1.23678,0.50749 -1.64349,1.22169 -0.30909,0.54335 -0.33425,0.63374 -0.43941,1.58602 -0.0613,0.55546 -0.14472,1.04739 -0.18544,1.09314 -0.11416,0.12814 -0.38441,-0.54689 -0.44711,-1.11639 -0.18719,-1.70069 0.49365,-2.94719 2.14806,-3.93283 1.51363,-0.90175 4.8536,-0.85821 7.71005,0.10053 0.76912,0.25807 1.11193,0.41986 2.10056,0.99065 1.36368,0.78732 1.99306,1.28132 2.81387,2.20857 1.77575,2.00604 2.83866,4.74974 2.70329,6.97799 -0.12647,2.08153 -1.30455,3.40939 -3.95871,4.46202 -0.45324,0.17975 -0.86152,0.39172 -0.90733,0.47107 -0.0459,0.0794 -0.14634,0.15506 -0.22342,0.16814 -0.37635,0.0643 -1.08497,1.34997 -1.01531,1.84216 0.0182,0.12874 0.004,0.28428 -0.0317,0.34595 -0.0356,0.0616 0.0121,0.47884 0.10592,0.92701 0.49495,2.36341 0.15532,4.35644 -0.91526,5.37098 -0.45191,0.42824 -1.46508,1.07858 -2.10437,1.35074 -1.29753,0.55237 -3.35554,0.8583 -4.82324,0.71695 -0.76167,-0.0733 -1.91131,-0.31324 -2.75013,-0.57385 -0.50071,-0.15567 -0.90884,-0.36225 -2.2646,-1.14677 -1.45596,-0.84291 -1.72268,-1.02057 -2.23055,-1.48868 -1.58023,-1.4565 -2.88727,-3.30563 -3.44962,-4.88032 -0.24587,-0.68845 -0.29644,-1.74145 -0.12159,-2.53214 0.33465,-1.5134 1.3871,-2.58892 2.85653,-2.91927 0.46177,-0.1038 0.63514,-0.0879 0.55499,0.0509 -0.0237,0.041 -0.41425,0.35249 -0.86804,0.69204 -0.76009,0.56888 -0.84979,0.65982 -1.14068,1.15686 -0.27825,0.47794 -0.3202,0.60621 -0.35433,1.11895 -0.13314,1.99885 1.99706,4.05053 5.89878,5.68134 2.64119,1.10396 3.87333,1.24476 4.89256,0.5591 0.70956,-0.47733 1.09022,-1.40922 0.92895,-2.27412 -0.0646,-0.34632 -0.25862,-0.78998 -0.37487,-0.85709 -0.0152,-0.009 -0.13162,0.084 -0.26032,0.20537 -0.36003,0.33954 -0.69718,0.33386 -1.50698,-0.0253 -1.23719,-0.54879 -2.38749,-1.5035 -2.77458,-2.30304 l -0.14337,-0.29604 -0.19506,0.14964 c -0.10716,0.0824 -0.24602,0.12021 -0.30832,0.0842 -0.0623,-0.036 -0.16969,-0.44349 -0.23865,-0.90556 -0.0689,-0.4621 -0.21832,-1.05975 -0.33195,-1.32813 -0.1137,-0.26828 -0.19118,-0.51473 -0.1723,-0.54742 0.0188,-0.0326 -0.17352,-0.17951 -0.42762,-0.32621 -0.25407,-0.14669 -0.66453,-0.46473 -0.91209,-0.70677 -0.31839,-0.31116 -0.67121,-0.56768 -1.20526,-0.87601 -0.70347,-0.40615 -0.77511,-0.46518 -1.04292,-0.87164 -0.15826,-0.23969 -0.35366,-0.66911 -0.43415,-0.95445 -0.17864,-0.63326 -0.71498,-1.3663 -1.51587,-2.07172 -0.55376,-0.48774 -0.81395,-0.89183 -1.10252,-1.71222 -0.11748,-0.33392 0.0802,-0.33015 0.58669,0.0113 0.21938,0.14687 0.43545,0.26399 0.48044,0.25972 0.12035,-0.0128 0.28057,-0.29816 0.20009,-0.35456 -0.038,-0.0266 -0.27639,-0.1747 -0.52978,-0.32862 -0.25319,-0.15426 -0.45101,-0.31501 -0.43935,-0.3577 0.012,-0.0426 0.16487,-0.10216 0.34043,-0.13217 z m 4.67584,1.82227 c 0.42004,0.13154 0.98845,0.27062 1.26335,0.30871 0.49367,0.0685 0.81794,0.20108 0.97993,0.40101 0.0913,0.11267 0.25261,1.05694 0.19704,1.15319 -0.019,0.033 -0.10056,-0.004 -0.18135,-0.082 -0.0986,-0.0954 -0.21137,-0.12666 -0.34053,-0.10031 -0.12157,0.0264 -0.27299,-0.0143 -0.40647,-0.10858 -0.11701,-0.0827 -0.5512,-0.25207 -0.96509,-0.37628 -1.46029,-0.43901 -1.71992,-0.0442 -0.63497,0.9658 0.21469,0.19981 0.54721,0.46476 0.73914,0.58846 0.19206,0.12347 0.36335,0.27953 0.38115,0.3459 0.0178,0.0664 0.13262,0.17864 0.25521,0.24942 0.12262,0.0708 0.20492,0.15976 0.18302,0.19769 -0.0219,0.0379 -0.29723,0.14237 -0.61186,0.23207 -0.66759,0.19035 -0.78935,0.14619 -1.26744,-0.45982 -0.55164,-0.69926 -1.62959,-1.64938 -1.7111,-1.5082 -0.0695,0.12034 0.4147,1.11529 0.83525,1.71652 0.72339,1.0342 0.77158,1.07108 1.62903,1.24744 0.86701,0.17832 1.34728,0.37031 1.56887,0.62722 0.1589,0.18423 0.17282,0.18187 0.95834,-0.15554 0.51821,-0.22262 0.84231,-0.31633 0.92636,-0.26781 0.12052,0.0696 0.10802,0.0851 -0.17942,0.22416 -0.16974,0.0822 -0.32232,0.17313 -0.33897,0.20197 -0.0166,0.0288 0.0412,0.22718 0.12838,0.44056 1.01085,2.47289 1.21295,3.21198 1.02387,3.74411 -0.21062,0.5928 0.0181,1.10123 0.66313,1.47362 0.78498,0.45321 1.569,0.49876 2.14572,0.12464 0.2488,-0.16133 0.29441,-0.16549 0.36482,-0.0329 0.0938,0.17623 -0.10624,0.19202 2.2381,-0.17705 1.51471,-0.23854 1.98821,-0.34415 2.82419,-0.62996 0.29221,-0.1 0.33745,-0.2466 0.0622,-0.20235 -0.15208,0.0244 -0.15588,0.0166 -0.0361,-0.0757 0.42333,-0.3258 0.56732,-0.52345 0.58987,-0.80899 0.0201,-0.25449 0.0459,-0.30091 0.23179,-0.41948 0.20434,-0.1294 0.32126,-0.38803 0.38005,-0.84026 0.0148,-0.11401 0.0442,-0.11597 0.15386,-0.0122 0.21137,0.19986 -0.21493,-1.36007 -0.6125,-2.2413 -0.18467,-0.40933 -0.47797,-1.09607 -0.65179,-1.5261 -0.35542,-0.87938 -0.47767,-1.1027 -0.63133,-1.15351 -0.0589,-0.0188 -0.12549,-0.21724 -0.14894,-0.44004 -0.10944,-1.03895 -1.39578,-2.00877 -2.28458,-1.72246 -0.11019,0.0355 -0.33224,0.19733 -0.49325,0.35967 -0.16909,0.17027 -0.47467,0.36369 -0.72286,0.45733 -0.45151,0.17033 -1.8086,0.44154 -2.85501,0.57057 -0.33974,0.0419 -0.63185,0.10062 -0.64909,0.13048 -0.0173,0.03 -0.0201,0.20822 -0.006,0.39639 0.0237,0.32664 0.0188,0.3386 -0.1097,0.26442 -0.0908,-0.0524 -0.16367,-0.34162 -0.22384,-0.8864 l -0.0893,-0.80866 -0.49614,-0.24048 c -0.42368,-0.20547 -0.57293,-0.32617 -1.02375,-0.82455 -0.29021,-0.32118 -0.57892,-0.61357 -0.6416,-0.64976 -0.25125,-0.14506 -1.95989,-0.28426 -2.57905,-0.21011 -0.87534,0.10484 -0.83812,0.22349 0.16923,0.53944 z"
     id="path2639-5-2" />
  <text
     xml:space="preserve"
     style="font-size:14.1111px;line-height:1.25;font-family:'Blood Crow';-inkscape-font-specification:'Blood Crow';stroke-width:0.264583"
     x="3.5731983"
     y="12.534263"
     id="text9052-1"><tspan
       id="tspan9050-4"
       style="font-style:normal;font-variant:normal;font-weight:normal;font-stretch:normal;font-size:14.1111px;font-family:'Bleeding Cowboys';-inkscape-font-specification:'Bleeding Cowboys';stroke-width:0.264583"
       x="3.5731983"
       y="12.534263">12</tspan></text>
  <text
     xml:space="preserve"
     style="font-size:14.1111px;line-height:1.25;font-family:'Blood Crow';-inkscape-font-specification:'Blood Crow';stroke-width:0.264583"
     x="-59.876331"
     y="-75.571785"
     id="text9052-3-9"
     transform="scale(-1)"><tspan
       id="tspan9050-0-2"
       style="font-style:normal;font-variant:normal;font-weight:normal;font-stretch:normal;font-size:14.1111px;font-family:'Bleeding Cowboys';-inkscape-font-specification:'Bleeding Cowboys';stroke-width:0.264583"
       x="-59.876331"
       y="-75.571785">12</tspan></text>
</svg>
