<?xml version="1.0" encoding="UTF-8" standalone="no"?>
<!-- Created with Inkscape (http://www.inkscape.org/) -->

<svg
   width="63mm"
   height="89mm"
   viewBox="0 0 63 89"
   version="1.1"
   id="svg5"
   xmlns:xlink="http://www.w3.org/1999/xlink"
   xmlns="http://www.w3.org/2000/svg"
   xmlns:svg="http://www.w3.org/2000/svg">
  <defs
     id="defs2">
    <linearGradient
       id="linearGradient66035">
      <stop
         style="stop-color:#ffeeaa;stop-opacity:1;"
         offset="0"
         id="stop66031" />
      <stop
         style="stop-color:#ffeeaa;stop-opacity:0;"
         offset="1"
         id="stop66033" />
    </linearGradient>
    <linearGradient
       xlink:href="#linearGradient66035"
       id="linearGradient66037"
       x1="-609.21545"
       y1="124.85085"
       x2="-533.06219"
       y2="235.37372"
       gradientUnits="userSpaceOnUse"
       gradientTransform="translate(609.74701,-124.322)" />
  </defs>
  <g
     id="layer1"
     style="display:inline">
    <rect
       style="display:inline;fill:url(#linearGradient66037);fill-opacity:1;stroke:#000000;stroke-width:0.659785;stroke-miterlimit:4;stroke-dasharray:none;stroke-opacity:1"
       id="rect870-4"
       width="62.340214"
       height="88.340218"
       x="0.53155589"
       y="0.52885294"
       rx="3.7119057"
       ry="3.3358381" />
  </g>
  <g
     id="layer2"
     style="display:inline">
    <path
       style="display:inline;fill:#000000;stroke-width:0.0939545"
       d="m 42.14843,42.055809 c -0.262545,-0.210107 -0.263622,-0.215127 -0.08233,-0.37928 0.101171,-0.09158 0.220834,-0.159669 0.266059,-0.151249 0.268469,0.04912 0.408907,-0.07025 0.731766,-0.622194 0.197887,-0.338228 0.344069,-0.623622 0.324877,-0.634188 -0.01907,-0.0098 -0.161622,-0.08512 -0.31673,-0.165735 -0.18856,-0.09803 -0.279404,-0.214697 -0.27442,-0.352335 0.0043,-0.113114 -0.01274,-0.205738 -0.03839,-0.205738 -0.02522,0 -0.273291,0.17161 -0.551182,0.381492 -0.348319,0.262971 -0.522474,0.467296 -0.560518,0.65767 -0.03035,0.151843 -0.08888,0.276197 -0.12981,0.276197 -0.04095,0 -0.147619,0.02797 -0.237103,0.06242 -0.143805,0.05518 -0.156749,0.01167 -0.112626,-0.379633 0.05984,-0.530931 0.180917,-0.677512 1.145682,-1.388701 0.679376,-0.500756 1.181272,-0.694087 1.181272,-0.45501 0,0.05164 0.03249,0.09392 0.07233,0.09392 0.158433,0 0.997269,-0.775101 1.146247,-1.059335 0.185807,-0.354551 0.528834,-0.541069 1.53425,-0.834288 0.796927,-0.232426 1.025994,-0.19157 1.083111,0.193331 0.02821,0.189997 0.06557,0.201256 0.468665,0.140685 0.303367,-0.0454 0.513386,-0.14637 0.683189,-0.328151 0.27501,-0.294399 0.385499,-0.328408 1.448212,-0.445736 0.740187,-0.08182 1.174442,-0.01949 1.174442,0.170231 0,0.053 0.130443,0.09627 0.289876,0.09627 0.215644,0 0.36605,-0.08708 0.587225,-0.339813 0.177318,-0.202529 0.572504,-0.466057 0.978503,-0.652327 0.868399,-0.398433 0.879556,-0.523473 0.1175,-1.317118 -0.395202,-0.411574 -0.56374,-0.660415 -0.56374,-0.832415 0,-0.347267 -0.291211,-0.427963 -1.306877,-0.362177 -0.765407,0.04967 -0.854087,0.03856 -0.854087,-0.105668 0,-0.355192 0.183046,-0.524491 0.567032,-0.524491 0.349609,0 0.37253,-0.01761 0.37253,-0.276318 0,-0.152029 0.04309,-0.302862 0.09545,-0.335332 0.152714,-0.09432 0.0085,-0.233948 -0.241967,-0.233948 -0.145498,0 -0.22934,-0.05377 -0.22934,-0.147157 0,-0.250918 0.186218,-0.510581 0.36646,-0.510581 0.274881,0 0.66704,0.363724 0.66704,0.618711 0,0.188244 0.09502,0.271214 0.531391,0.464262 0.477419,0.211131 0.547368,0.220552 0.688584,0.09276 0.295228,-0.267179 0.530253,-0.164358 1.121419,0.490636 0.593603,0.657713 0.708102,1.002766 0.476402,1.435739 -0.104359,0.194904 -0.287799,1.553819 -0.31236,2.313763 -0.01907,0.618404 -0.191741,0.811649 -1.084342,1.219855 -0.798244,0.365092 -1.075263,0.392996 -1.26149,0.127194 -0.122808,-0.175318 -0.171162,-0.181575 -0.635391,-0.08199 -0.316618,0.06788 -0.563638,0.185508 -0.667818,0.317994 -0.21602,0.274634 -0.529398,0.387226 -1.420478,0.510343 -0.991156,0.136975 -1.070244,0.131101 -1.298618,-0.09744 -0.26175,-0.261733 -0.696706,-0.193921 -1.085316,0.169068 -0.333888,0.311886 -2.043499,0.896452 -2.371223,0.810766 -0.298955,-0.07827 -0.572922,0.212524 -0.572922,0.607968 0,0.220527 -0.155048,0.59748 -0.477249,1.160561 -0.617318,1.078748 -0.896568,1.235935 -1.433036,0.806638 z m 2.23865,-3.247301 c -0.02907,-0.02898 -0.188552,0.08883 -0.354901,0.261465 l -0.302333,0.314023 0.354884,-0.261464 c 0.195349,-0.143827 0.331238,-0.285102 0.30235,-0.314024 z m 1.985407,-0.689584 c -0.07592,-0.200991 -0.07216,-0.316234 0.01274,-0.455064 0.06386,-0.102342 0.10224,-0.185884 0.08524,-0.185884 -0.117713,0 -1.066756,0.313566 -1.129532,0.373273 -0.04309,0.04087 -0.02223,0.163973 0.04625,0.273343 0.0999,0.159664 0.10117,0.235905 0.0085,0.385618 -0.06429,0.102719 -0.116662,0.204522 -0.116662,0.226374 0,0.02189 0.268649,-0.04753 0.597022,-0.154381 l 0.59698,-0.194117 -0.101598,-0.269179 z m 3.861743,-0.287936 c 0.08481,-0.06694 0.08908,-0.140497 0.01488,-0.278549 -0.05514,-0.10312 -0.07865,-0.271231 -0.05198,-0.373368 0.03608,-0.137359 0.01274,-0.171616 -0.09311,-0.131289 -0.07805,0.02992 -0.296878,0.05497 -0.486413,0.05574 -0.468785,0.0017 -0.655362,0.122886 -0.492535,0.319012 0.07062,0.08532 0.09756,0.244139 0.06386,0.378634 -0.05745,0.229152 -0.05258,0.231135 0.435802,0.176293 0.271675,-0.03052 0.545898,-0.09646 0.609427,-0.146371 z m -2.229459,-0.07609 c 0.100965,-0.06891 0.03437,-0.07805 -0.234855,-0.03308 -0.466117,0.07805 -0.54111,0.132478 -0.180079,0.130529 0.150593,-8.13e-4 0.337452,-0.04463 0.414959,-0.09744 z m 3.802232,-0.571965 c 0.111353,-0.103128 -0.49969,0.0034 -0.701715,0.121911 -0.0876,0.05164 8.55e-4,0.0601 0.23488,0.02274 0.206795,-0.03326 0.41678,-0.09822 0.466835,-0.144609 z m 2.11691,-0.403529 c 0,-0.02077 0.02565,-0.104496 0.05702,-0.186286 0.03377,-0.08766 0.0085,-0.148516 -0.06301,-0.148516 -0.06617,0 -0.198742,-0.07121 -0.294929,-0.1581 -0.164375,-0.148909 -0.200435,-0.145772 -0.606649,0.05164 l -0.431835,0.209814 0.200007,0.212814 c 0.110079,0.117021 0.200017,0.284815 0.200017,0.372786 0,0.140309 0.05788,0.130529 0.469776,-0.07805 0.258365,-0.130904 0.46976,-0.255004 0.46976,-0.275744 z m -0.02163,-2.777769 c 0.06472,-0.103317 0.180499,-0.187859 0.257484,-0.187859 0.07703,0 0.140198,-0.05104 0.140198,-0.11349 0,-0.126229 -0.652883,-0.826055 -0.770708,-0.826055 -0.04138,0 -0.07489,0.124655 -0.07489,0.277198 0,0.166324 -0.06574,0.314079 -0.164375,0.369375 -0.149747,0.08395 -0.139779,0.117996 0.111566,0.380481 0.325929,0.340513 0.34814,0.344959 0.500853,0.100384 z m -1.251264,-1.214768 c -0.04924,-0.04796 -0.216089,-0.113302 -0.371137,-0.144985 l -0.28184,-0.05771 0.28184,0.137351 c 0.333315,0.162408 0.500494,0.191766 0.371137,0.06532 z m -11.69266,3.964872 c -2.94947,-0.329408 -2.961747,-0.329972 -3.598095,-0.165358 -0.879752,0.22763 -1.584409,0.152628 -2.44613,-0.260519 l -0.673529,-0.32291 -5.073571,-0.536665 c -2.790456,-0.29516 -5.144084,-0.565776 -5.230302,-0.601374 -0.129597,-0.05343 0.0106,-0.299247 0.79862,-1.416093 0.884522,-1.251161 0.957524,-1.329976 0.984351,-1.06296 0.03394,0.336452 -0.146558,0.716864 -0.667134,1.406278 -0.206163,0.272949 -0.358219,0.509385 -0.338051,0.525372 0.0212,0.01573 2.238274,0.263972 4.929149,0.551045 l 4.8925,0.521969 0.540649,0.30512 c 0.696346,0.392996 1.56212,0.478308 2.34731,0.231331 0.522747,-0.164383 0.549173,-0.162998 4.331982,0.242421 2.093323,0.224304 3.806037,0.441367 3.806037,0.482361 0,0.04087 -0.05343,0.07455 -0.118774,0.07455 -0.06532,0 -0.276599,0.08455 -0.469426,0.18786 -0.440427,0.236051 -0.450772,0.235632 -4.015526,-0.162409 z m 8.003088,-3.149427 c 0.670041,-1.769857 1.71822,-4.539176 2.329263,-6.154002 l 1.111006,-2.936108 h -0.319277 c -0.256663,0 -0.319294,-0.03668 -0.319294,-0.18792 0,-0.171162 0.06258,-0.187919 0.704682,-0.187919 0.394373,0 0.704639,0.04027 0.704639,0.09162 0,0.09736 -4.395091,11.955517 -4.4377,11.973222 -0.01274,0.006 -0.202351,0.147345 -0.418927,0.314806 -0.216593,0.167495 -0.434041,0.304393 -0.483224,0.304393 -0.04924,0 0.458791,-1.448083 1.128832,-3.217966 z m -2.788584,1.744389 c -0.361731,-0.125226 -1.03821,-0.331714 -1.503301,-0.458986 -2.619909,-0.716933 -5.34122,-0.680419 -6.66269,0.08942 l -0.3839,0.223654 -1.409321,-0.153218 -1.409322,-0.153218 -0.555277,-0.542573 c -1.245579,-1.217076 -2.87587,-1.853262 -4.749121,-1.853262 -0.863611,0 -2.085389,0.199204 -2.860893,0.466442 -0.305213,0.105258 -0.563997,0.191185 -0.575093,0.191185 -0.01274,0 0.01906,-0.20082 0.06643,-0.446283 0.04753,-0.245455 0.07378,-0.738973 0.05831,-1.096713 l -0.02821,-0.650411 0.657687,-0.16847 c 2.142609,-0.548728 4.771853,-0.609983 6.201026,-0.144395 1.321171,0.430331 2.248884,1.18611 2.766912,2.25414 0.155047,0.319559 0.282883,0.53204 0.284217,0.472188 0.0043,-0.202641 0.825345,-0.957019 1.306988,-1.20109 1.559632,-0.790319 4.286457,-0.723276 7.434456,0.182773 0.627663,0.180601 1.172194,0.328476 1.210092,0.328476 0.03796,0 1.016898,-2.414258 2.1756,-5.365 1.945158,-4.953514 2.112191,-5.338816 2.177712,-5.023532 0.127895,0.615702 0.469477,1.063174 1.087736,1.424975 0.02394,0.01488 -4.57559,11.807454 -4.617969,11.840368 -0.0085,0.006 -0.310343,-0.09118 -0.672084,-0.216379 z M 35.955585,31.855643 c -0.478513,-0.810024 -1.665813,-1.668361 -2.835082,-2.049568 -1.397823,-0.455693 -4.210045,-0.406698 -6.157015,0.107326 -0.281823,0.07446 -0.522423,0.125134 -0.534708,0.112832 -0.01274,-0.0106 0.662261,-1.070549 1.498917,-2.351787 l 1.521204,-2.329494 0.422799,0.05643 c 0.232546,0.0312 0.739913,0.08079 1.127464,0.110293 0.64406,0.04941 0.733843,0.03394 1.044212,-0.179439 0.55125,-0.378984 0.977802,-0.486541 1.229712,-0.310095 0.267315,0.187286 0.582831,0.181558 1.578219,-0.02796 1.287555,-0.271205 1.691606,-0.589935 1.836711,-1.448861 0.0766,-0.453106 -0.01906,-0.533049 -0.640803,-0.535041 -0.383054,-8.55e-4 -0.463287,0.03138 -0.551293,0.224621 -0.170102,0.373316 -0.832534,0.379779 -0.832534,0.0085 0,-0.06514 0.1086,-0.189835 0.241197,-0.276643 0.182414,-0.119628 0.272231,-0.132349 0.368743,-0.05198 0.09693,0.08036 0.248413,0.05514 0.627919,-0.104137 0.27518,-0.11538 0.515087,-0.220928 0.533117,-0.234204 0.01693,-0.01488 -0.08759,-0.245396 -0.234837,-0.515848 -0.287585,-0.528381 -0.68301,-0.835399 -1.076733,-0.835946 -0.400486,-5.99e-4 -1.891383,1.095336 -2.082354,1.530685 -0.08802,0.200854 -0.159502,0.249131 -0.303111,0.205094 -0.504888,-0.154834 -0.873092,-0.228536 -1.15094,-0.230571 -0.167777,-8.55e-4 -0.305367,-0.02394 -0.305367,-0.05027 0,-0.0265 0.193647,-0.339273 0.430288,-0.695175 0.368699,-0.554473 0.506538,-0.680992 0.963046,-0.883975 1.051462,-0.467554 1.588332,-0.578266 2.787652,-0.57494 1.003638,0.0017 1.204859,0.03223 1.832129,0.268435 0.883436,0.332597 1.814731,0.870587 2.513617,1.452127 l 0.539922,0.449267 0.375822,-0.277027 c 0.553798,-0.408248 1.594505,-0.888378 2.196255,-1.013307 0.884291,-0.183465 2.146755,-0.06044 3.485212,0.339761 1.094524,0.327314 1.227515,0.346677 2.020023,0.294169 0.466605,-0.03095 0.941211,-0.08318 1.054685,-0.116235 0.179643,-0.05215 -0.04941,0.579377 -1.774422,4.889926 -1.598874,3.995552 -2.009995,4.941371 -2.132393,4.905781 -2.41001,-0.7008 -4.076208,-1.004081 -5.507065,-1.002457 -1.603011,0.0017 -2.701203,0.32686 -3.456359,1.022958 -0.229237,0.211293 -0.434657,0.384191 -0.456483,0.384191 -0.02188,0 -0.11072,-0.12015 -0.197468,-0.266896 z M 25.913522,28.672381 c -0.408565,-0.235179 -0.444497,-0.24071 -0.593919,-0.0912 -0.209771,0.209771 -0.213011,0.209343 -1.019676,-0.158228 -0.773571,-0.352533 -1.005057,-0.601348 -1.005057,-1.08029 0,-0.261561 -0.07318,-0.385088 -0.38785,-0.654413 -0.256808,-0.219824 -0.486935,-0.333956 -0.681155,-0.337854 -0.269495,-0.006 -0.321842,-0.06318 -0.644128,-0.710521 -0.421722,-0.847103 -0.455448,-1.281144 -0.123869,-1.592744 0.126622,-0.118987 0.379215,-0.517336 0.561492,-0.885454 0.182405,-0.368119 0.372171,-0.732698 0.421996,-0.810247 0.04984,-0.07737 0.11496,-0.256424 0.144651,-0.397579 0.0819,-0.389355 0.472581,-0.541957 1.387992,-0.541957 0.836245,0 1.199995,0.140198 1.199995,0.462142 0,0.270513 0.920343,0.425492 1.325753,0.223261 0.291065,-0.145079 0.347421,-0.138932 1.340176,0.149525 1.117709,0.324732 1.280177,0.410565 1.280177,0.676239 0,0.204043 0.692996,0.435914 0.87623,0.293108 0.06061,-0.04728 0.205103,-0.109232 0.321081,-0.137658 0.297195,-0.07275 2.158946,0.167777 2.317516,0.299297 0.199794,0.165649 0.594005,0.02633 0.659141,-0.233392 0.104146,-0.414515 1.421606,-1.450767 1.844619,-1.450767 0.245635,0 0.746146,0.391047 0.746146,0.582959 0,0.164161 -0.373172,0.265861 -0.556252,0.151439 -0.159502,-0.09969 -0.256518,-0.066 -0.709478,0.246011 -0.288586,0.198743 -0.54548,0.394955 -0.570845,0.436016 -0.02548,0.04112 0.06044,0.181131 0.190672,0.311301 0.256202,0.256176 0.295502,0.43069 0.133418,0.592688 -0.06788,0.06788 0.1175,0.05788 0.540214,-0.02924 0.442906,-0.0912 0.702031,-0.200016 0.831397,-0.349182 0.332059,-0.383182 0.661689,-0.133624 0.419995,0.317917 -0.142531,0.26629 -0.534579,0.437324 -1.49053,0.650276 -1.044066,0.232545 -0.996473,0.232699 -1.216631,-0.0043 -0.173283,-0.186013 -0.201709,-0.188347 -0.719319,-0.053 -0.296348,0.0772 -0.629004,0.221714 -0.739212,0.320679 -0.323175,0.290193 -0.524542,0.318782 -1.419888,0.201701 -0.995704,-0.13023 -1.308655,-0.283679 -1.246066,-0.611052 0.03796,-0.198315 -0.0085,-0.239975 -0.389945,-0.352063 -0.361672,-0.106266 -0.474701,-0.10648 -0.686652,-0.0017 -0.345916,0.170949 -0.444608,0.162255 -1.376749,-0.123655 -0.895123,-0.27459 -1.030208,-0.351473 -1.14422,-0.651301 -0.111558,-0.293142 -0.700801,-0.393381 -0.955677,-0.162682 -0.144652,0.130871 -0.380874,0.178165 -1.020668,0.203197 -1.020223,0.0401 -1.05866,0.100957 -0.635075,1.006117 0.178379,0.381292 0.297426,0.78065 0.291236,0.977374 -0.01274,0.349943 0.265572,0.755465 0.515216,0.755465 0.222346,0 1.465805,0.572708 1.690546,0.778598 0.116226,0.106471 0.211464,0.270273 0.211464,0.363878 0,0.113687 0.187072,0.264554 0.563757,0.454738 0.310053,0.156536 0.563724,0.337581 0.563724,0.402333 0,0.143805 -0.450285,0.82013 -0.543633,0.816402 -0.03693,-0.0017 -0.262776,-0.115174 -0.501956,-0.253021 z m 0.575812,-0.353106 c 0,-0.07463 -0.766151,-0.441504 -0.816582,-0.391064 -0.02565,0.02565 0.115807,0.132555 0.314455,0.23729 0.366828,0.193442 0.502127,0.234966 0.502127,0.153774 z m -1.395891,-0.957634 c 0.06643,-0.07976 -0.03308,-0.166282 -0.354739,-0.308497 -0.385131,-0.17053 -0.457457,-0.178378 -0.524568,-0.05856 -0.04283,0.0766 -0.142959,0.204257 -0.222663,0.283918 -0.196195,0.196408 -0.101598,0.313677 0.465853,0.577487 l 0.481745,0.223954 0.0312,-0.303709 c 0.01693,-0.167127 0.0725,-0.35361 0.123227,-0.414591 z m -1.798915,-1.11164 c -0.121107,-0.128956 -0.263152,-0.234512 -0.315473,-0.234512 -0.05215,0 0.0259,0.126408 0.173924,0.280883 0.147833,0.154406 0.28998,0.260014 0.315473,0.23452 0.02548,-0.02548 -0.05283,-0.151867 -0.173924,-0.280891 z m -0.606521,-1.044657 c 0.178806,0.06874 0.173078,-0.04753 -0.02248,-0.457919 -0.114106,-0.239291 -0.201281,-0.317327 -0.305342,-0.273419 -0.07993,0.03394 -0.256235,0.08781 -0.391364,0.120261 l -0.245677,0.05899 0.235478,0.543274 0.235453,0.543291 0.17837,-0.293484 c 0.112413,-0.185158 0.229075,-0.274095 0.315584,-0.240881 z m 8.79716,-0.87434 c -0.01701,-0.115807 0.03736,-0.286081 0.120689,-0.378155 0.141899,-0.156741 0.132777,-0.171163 -0.145499,-0.226835 -0.163323,-0.03266 -0.43964,-0.05916 -0.614035,-0.05916 -0.2885,0 -0.317088,0.02505 -0.317088,0.277189 0,0.164589 -0.06574,0.313977 -0.161622,0.367657 -0.165649,0.09269 -0.133196,0.103077 0.72543,0.232401 0.357321,0.05386 0.425535,0.01693 0.392048,-0.212866 z m -1.903155,-0.607581 c -0.06532,-0.06215 -0.743812,-0.232674 -0.743812,-0.187072 0,0.066 0.402435,0.211677 0.60287,0.218337 0.09905,0.0043 0.162468,-0.0106 0.140839,-0.0312 z m -1.805464,-0.315182 c -0.03035,-0.156107 0.0043,-0.31796 0.08506,-0.409094 0.121535,-0.135325 0.08036,-0.16629 -0.403794,-0.304026 -0.296451,-0.08446 -0.568665,-0.122381 -0.604931,-0.08421 -0.03625,0.03796 -0.07993,0.213464 -0.09736,0.389825 -0.03009,0.308411 -0.01274,0.326971 0.438376,0.485986 0.627645,0.220876 0.640221,0.219183 0.582549,-0.07848 z m -5.233321,-0.117499 c 0,-0.05155 -0.01906,-0.09396 -0.04155,-0.09396 -0.02291,0 -0.06745,0.04223 -0.09947,0.09396 -0.0318,0.05172 -0.01274,0.09395 0.04138,0.09395 0.05471,0 0.09947,-0.04223 0.09947,-0.09395 z m 1.62883,-0.728167 c -0.03625,-0.142104 -0.06087,-0.332383 -0.05454,-0.422799 0.0106,-0.135316 -0.06848,-0.164374 -0.441111,-0.164374 -0.579454,0 -0.716574,0.14613 -0.515361,0.549651 0.135744,0.272171 0.184953,0.295946 0.612317,0.295946 0.460279,0 0.464075,-0.0017 0.39875,-0.258381 z m 1.612621,0.07045 c -0.1033,-0.04437 -0.293613,-0.07865 -0.422808,-0.07634 -0.213114,0.0043 -0.208702,0.0106 0.04685,0.07634 0.391244,0.09968 0.607503,0.09968 0.375821,0 z"
       id="path2769-6-2" />
    <path
       style="display:inline;fill:#000000;stroke-width:0.0939545"
       d="m 29.331692,55.235774 c -0.334212,0.03708 -0.338521,0.03429 -0.326407,-0.209976 0.0068,-0.136299 0.04326,-0.269056 0.08122,-0.295081 0.224578,-0.155101 0.239471,-0.338814 0.07746,-0.957394 -0.09923,-0.379091 -0.197673,-0.684261 -0.218713,-0.678162 -0.02035,0.0066 -0.174471,0.0541 -0.341154,0.10677 -0.20265,0.06402 -0.349379,0.04575 -0.44318,-0.05509 -0.07694,-0.083 -0.154492,-0.136471 -0.172625,-0.118336 -0.01787,0.01783 -0.0719,0.314593 -0.119988,0.6595 -0.06036,0.432246 -0.03898,0.699873 0.06865,0.861389 0.08591,0.128829 0.132461,0.258146 0.103513,0.28709 -0.02898,0.02896 -0.08464,0.124162 -0.123518,0.211793 -0.06267,0.140707 -0.10259,0.11909 -0.348079,-0.188802 -0.33311,-0.417741 -0.351149,-0.607001 -0.171838,-1.79208 0.126296,-0.83448 0.344488,-1.326079 0.513539,-1.157026 0.0365,0.03651 0.08938,0.04344 0.11756,0.01527 0.112028,-0.112029 0.157091,-1.253256 0.06147,-1.559583 -0.11932,-0.382091 -0.0086,-0.756535 0.494946,-1.674808 0.399169,-0.727864 0.590029,-0.860948 0.902586,-0.62917 0.154296,0.114399 0.188672,0.09594 0.43087,-0.231917 0.182413,-0.246613 0.259518,-0.466518 0.251055,-0.715126 -0.01368,-0.402633 0.04035,-0.504808 0.708854,-1.339223 0.465536,-0.581243 0.816676,-0.844239 0.950829,-0.710084 0.03745,0.03748 0.160314,-0.02416 0.273044,-0.1369 0.152491,-0.152483 0.197263,-0.320411 0.17495,-0.655514 -0.01778,-0.268592 0.07523,-0.734373 0.230639,-1.153171 0.332315,-0.895786 0.25179,-0.992091 -0.848257,-1.014428 -0.570477,-0.01157 -0.865603,-0.06836 -0.987232,-0.189982 -0.245549,-0.245555 -0.50853,-0.0967 -1.180195,0.668004 -0.506102,0.576347 -0.576667,0.631195 -0.67865,0.529213 -0.251157,-0.251159 -0.241437,-0.500305 0.03009,-0.771824 0.247217,-0.247211 0.25097,-0.275871 0.06805,-0.458805 -0.107497,-0.1075 -0.183688,-0.244624 -0.169616,-0.30461 0.04129,-0.174681 -0.159382,-0.171471 -0.336529,0.0056 -0.102881,0.102883 -0.200187,0.124144 -0.266221,0.05811 -0.177429,-0.177426 -0.229357,-0.492711 -0.101906,-0.620161 0.194365,-0.194371 0.728859,-0.214478 0.909161,-0.03417 0.13311,0.133108 0.258963,0.12459 0.704032,-0.04746 0.486875,-0.188296 0.543,-0.231095 0.55249,-0.421313 0.01983,-0.397682 0.258732,-0.491165 1.139903,-0.446031 0.884813,0.04534 1.209758,0.208359 1.352085,0.678353 0.06403,0.211612 0.895208,1.302221 1.415203,1.85695 0.423799,0.450759 0.438341,0.709504 0.09582,1.629313 -0.306282,0.822603 -0.482429,1.038216 -0.802066,0.981948 -0.210805,-0.03713 -0.249422,-0.0074 -0.507264,0.391316 -0.175882,0.271881 -0.267376,0.529727 -0.247362,0.697075 0.04146,0.346945 -0.10053,0.648152 -0.643564,1.365297 -0.60399,0.797709 -0.664074,0.849479 -0.987155,0.849364 -0.370162,1.2e-5 -0.629766,0.355522 -0.647881,0.886984 -0.01556,0.456631 -0.811085,2.078859 -1.103416,2.250005 -0.266734,0.15605 -0.254833,0.555395 0.02479,0.835016 0.155937,0.155936 0.312848,0.532117 0.483173,1.158106 0.326279,1.1993 0.239967,1.507908 -0.442932,1.583689 z m -0.713223,-3.879153 c -0.04104,6e-5 -0.07053,0.196139 -0.06609,0.435837 l 0.0085,0.435829 0.06609,-0.435824 c 0.03642,-0.239833 0.03266,-0.435818 -0.0085,-0.435842 z m 0.916291,-1.891504 c -0.19581,-0.08844 -0.274633,-0.17259 -0.312771,-0.330786 -0.02719,-0.117525 -0.05916,-0.203734 -0.07113,-0.191711 -0.08327,0.08324 -0.532587,0.976036 -0.534759,1.062645 -0.0017,0.05936 0.100231,0.131664 0.225989,0.160577 0.183533,0.04226 0.238351,0.09527 0.27872,0.266629 0.02719,0.118092 0.06215,0.227111 0.07754,0.242563 0.01547,0.01547 0.156355,-0.223575 0.312993,-0.531323 l 0.284867,-0.55939 -0.262177,-0.118497 z m 2.527057,-2.934267 c 0.01265,-0.107301 -0.03633,-0.162337 -0.18644,-0.207482 -0.111909,-0.03392 -0.247405,-0.136174 -0.300769,-0.227257 -0.07164,-0.122638 -0.112344,-0.130357 -0.158672,-0.027 -0.03403,0.07635 -0.171052,0.248795 -0.30453,0.383361 -0.330271,0.33269 -0.376522,0.550304 -0.122698,0.57385 0.110259,0.0104 0.241617,0.103644 0.312891,0.222577 0.121407,0.202658 0.126254,0.200615 0.43281,-0.183502 0.170531,-0.213684 0.317807,-0.454216 0.327433,-0.534429 z m -1.630266,1.522665 c 0.02266,-0.120118 -0.03086,-0.07949 -0.189458,0.142671 -0.274403,0.384788 -0.288953,0.476299 -0.03505,0.219634 0.105916,-0.107061 0.207061,-0.270171 0.224518,-0.362324 z M 32.7157,44.96049 c 0.006,-0.151662 -0.350918,0.355752 -0.409984,0.582391 -0.02539,0.09845 0.04309,0.04189 0.182166,-0.150004 0.122706,-0.169743 0.225253,-0.364161 0.227843,-0.432357 z m 1.211536,-1.78222 c -0.0147,-0.01469 -0.05574,-0.09203 -0.0914,-0.172046 -0.03813,-0.08586 -0.09897,-0.111062 -0.149568,-0.06046 -0.04676,0.04679 -0.190894,0.09018 -0.320345,0.09675 -0.221526,0.01093 -0.244806,0.03865 -0.39245,0.465478 l -0.156997,0.453714 0.291912,0.0091 c 0.160587,0.0049 0.34283,0.05996 0.405033,0.122168 0.09921,0.09921 0.133222,0.05137 0.276993,-0.387375 0.09013,-0.275255 0.151851,-0.512486 0.137189,-0.527152 z m -1.979474,-1.948886 c -0.02727,-0.118817 -0.0051,-0.260468 0.04924,-0.314905 0.05446,-0.05447 0.06301,-0.135224 0.01889,-0.179384 -0.08925,-0.08926 -1.045768,-0.122451 -1.12908,-0.03914 -0.02924,0.02925 0.03522,0.1411 0.143054,0.248964 0.117611,0.117609 0.1756,0.268576 0.144959,0.377418 -0.04651,0.165252 -0.01539,0.182275 0.347926,0.190152 0.471247,0.01031 0.490098,-0.0022 0.425141,-0.283174 z m -1.743747,0.02581 c -0.06874,9.41e-4 -0.232914,0.07268 -0.364947,0.159913 l -0.240103,0.158486 0.296416,-0.102169 c 0.350533,-0.120849 0.4895,-0.218304 0.308617,-0.216248 z m -5.46437,11.071547 c -2.318517,1.852663 -2.327596,1.860946 -2.661159,2.427312 -0.461125,0.783038 -1.012426,1.22827 -1.913893,1.545461 l -0.704588,0.247924 -3.967035,3.208077 c -2.181858,1.764441 -4.03748,3.237353 -4.123622,3.273146 -0.129417,0.05386 -0.204103,-0.219095 -0.436614,-1.566038 -0.259254,-1.510157 -0.263366,-1.617507 -0.05557,-1.447668 0.261904,0.213909 0.403264,0.610532 0.522653,1.466124 0.04719,0.338784 0.106891,0.613488 0.132453,0.610532 0.02616,-0.0038 1.769361,-1.396042 3.875088,-3.095787 l 3.828608,-3.090432 0.598048,-0.166545 c 0.77028,-0.2145 1.4428,-0.76637 1.823374,-1.496221 0.253398,-0.485875 0.273069,-0.503582 3.234594,-2.891757 1.638807,-1.321596 3.003365,-2.379181 3.032355,-2.350194 0.0289,0.0289 0.01496,0.09049 -0.03129,0.136699 -0.04616,0.04618 -0.135803,0.255372 -0.199101,0.464771 -0.144515,0.478342 -0.152124,0.485361 -2.954241,2.724566 z m 3.432062,-7.886019 c -0.777692,-1.725268 -1.994725,-4.424647 -2.704503,-5.998574 l -1.290539,-2.861743 -0.225766,0.225763 c -0.18149,0.181489 -0.251705,0.199841 -0.358655,0.0929 -0.12103,-0.12103 -0.08863,-0.177129 0.365409,-0.631164 0.278865,-0.278863 0.526731,-0.469783 0.563039,-0.433469 0.06882,0.06885 5.346033,11.561626 5.328421,11.604275 -0.0051,0.01323 -0.0389,0.247272 -0.07361,0.518827 -0.03471,0.271592 -0.09167,0.522152 -0.126451,0.556929 -0.03479,0.03482 -0.699535,-1.348363 -1.477244,-3.073649 z m -0.738366,3.205296 c -0.344326,0.167233 -0.96868,0.499567 -1.387546,0.738442 -2.359501,1.345607 -4.257938,3.295683 -4.648002,4.774466 l -0.113311,0.429605 -1.104877,0.8882 -1.104885,0.888199 -0.776299,0.009 c -1.741354,0.02016 -3.343997,0.723094 -4.668588,2.047682 -0.610667,0.610665 -1.33373,1.615451 -1.693128,2.352781 -0.141395,0.290247 -0.263622,0.533994 -0.27147,0.541841 -0.009,0.009 -0.12852,-0.155482 -0.268598,-0.362542 -0.13995,-0.207173 -0.470358,-0.574702 -0.734262,-0.81672 L 10.18251,58.69701 10.528444,58.11283 c 1.127045,-1.903063 2.942887,-3.805534 4.282687,-4.486891 1.238492,-0.629919 2.428904,-0.751494 3.550417,-0.362584 0.335598,0.116328 0.57624,0.17618 0.534862,0.132916 -0.140266,-0.146312 -0.09311,-1.260323 0.07489,-1.773479 0.543983,-1.661667 2.519541,-3.542417 5.386187,-5.127715 0.571529,-0.31612 1.06114,-0.596598 1.087933,-0.623396 0.02684,-0.02684 -0.988078,-2.426193 -2.255244,-5.332009 -2.127229,-4.878099 -2.281567,-5.268659 -2.012303,-5.092049 0.525808,0.344931 1.083752,0.419807 1.776756,0.238463 0.02744,-0.0064 5.113701,11.584562 5.107015,11.637802 -0.0017,0.01028 -0.283926,0.154968 -0.628244,0.322232 z m -9.693257,4.756154 c -0.911136,-0.234413 -2.357612,-0.0018 -3.453966,0.555444 -1.310638,0.666185 -3.264533,2.689372 -4.27778,4.429558 -0.1466274,0.251932 -0.2809254,0.457891 -0.2983064,0.457879 -0.0165,0.0015 -0.2887052,-1.225282 -0.6030751,-2.722859 L 8.5354106,52.39934 8.8742739,52.140274 c 0.1865,-0.14237 0.5803259,-0.466071 0.8752297,-0.719249 0.4903544,-0.420478 0.5428974,-0.494906 0.6114874,-0.865252 0.121809,-0.657775 0.34737,-1.035447 0.650267,-1.088808 0.321448,-0.05659 0.540504,-0.283742 1.096199,-1.135737 0.718669,-1.102209 0.779,-1.613293 0.274249,-2.32325 -0.266229,-0.374559 -0.390397,-0.363442 -0.831449,0.07479 -0.271462,0.270255 -0.305402,0.34978 -0.23099,0.548654 0.143695,0.384255 -0.320149,0.857236 -0.582643,0.594736 -0.04608,-0.04606 -0.05745,-0.211025 -0.02505,-0.366168 0.04437,-0.213576 0.09891,-0.286082 0.223989,-0.297495 0.125365,-0.01171 0.214643,-0.136663 0.370366,-0.517642 0.112995,-0.276168 0.208002,-0.520441 0.211362,-0.542578 0.0017,-0.02249 -0.235453,-0.111582 -0.53081,-0.198705 -0.576974,-0.170269 -1.0736814,-0.107756 -1.3524694,0.170262 -0.2836101,0.282763 -0.5628942,2.111929 -0.3900899,2.554805 0.079764,0.204266 0.063349,0.288947 -0.069334,0.359355 -0.4664937,0.247525 -0.7789657,0.45577 -0.9768789,0.650799 -0.119234,0.11803 -0.2328524,0.198999 -0.2514725,0.18038 -0.018723,-0.01874 -0.1029661,-0.376832 -0.1873036,-0.795823 -0.1313579,-0.652782 -0.1233559,-0.839711 0.055912,-1.306041 0.4128819,-1.074106 0.7142229,-1.532016 1.5646169,-2.377711 0.7108884,-0.708471 0.8747594,-0.829175 1.4853234,-1.105699 0.859868,-0.389503 1.898813,-0.667611 2.804204,-0.750587 l 0.699467,-0.0641 0.06985,-0.461634 c 0.102923,-0.680269 0.499305,-1.755663 0.836476,-2.269502 0.495552,-0.755018 1.475244,-1.560725 2.704666,-2.224171 1.00539,-0.5425 1.113118,-0.622846 1.636378,-1.220363 0.308052,-0.351823 0.606717,-0.724357 0.663586,-0.827965 0.09015,-0.163903 0.374736,0.444623 2.202992,4.712405 1.69471,3.955857 2.072796,4.915358 1.961076,4.976741 -2.199675,1.208594 -3.592299,2.172321 -4.602922,3.185238 -1.132294,1.134709 -1.678911,2.141164 -1.720673,3.167356 -0.01265,0.311502 -0.03565,0.579012 -0.05112,0.594446 -0.01547,0.01547 -0.163247,-0.0067 -0.328348,-0.04909 z m -9.351719,4.849906 c -0.4551918,0.122602 -0.4845069,0.144099 -0.4844471,0.355474 0,0.296661 -0.00256,0.29865 -0.8329109,0.609136 C 6.2747377,58.514407 5.9351136,58.502153 5.5964469,58.163498 5.4114943,57.978545 5.2723994,57.942946 4.8594576,57.97501 4.5224238,58.00116 4.2790035,58.083181 4.1389083,58.21776 3.9441156,58.40409 3.8666601,58.400662 3.1810256,58.17082 2.2838334,57.87003 1.9530748,57.586965 1.967198,57.132168 1.972328,56.958496 1.8695323,56.498211 1.7381231,56.109023 1.6067994,55.719744 1.4831956,55.327763 1.4635838,55.237696 c -0.019492,-0.08995 -0.1000253,-0.262609 -0.17884,-0.383415 -0.2174053,-0.333229 -0.049072,-0.717387 0.5982364,-1.364679 0.5913116,-0.591315 0.9476579,-0.74939 1.175305,-0.521741 0.1912791,0.191281 0.9516504,-0.349914 1.0953191,-0.77958 0.1032312,-0.3084 0.1474218,-0.343904 1.0533769,-0.841918 1.0199581,-0.560719 1.1955324,-0.614909 1.3834003,-0.427048 0.1442757,0.14428 0.7982526,-0.181785 0.826841,-0.412329 0.0094,-0.07629 0.067795,-0.222269 0.1296994,-0.324379 0.1587067,-0.261592 1.6452441,-1.407968 1.8503643,-1.427096 0.2584074,-0.02414 0.4386494,-0.401405 0.3010504,-0.631115 -0.219457,-0.366749 -0.0206,-2.031076 0.278497,-2.330191 0.1736944,-0.17369 0.8041184,-0.251092 0.9398194,-0.11539 0.11608,0.116079 -0.07592,0.451864 -0.286243,0.500413 -0.183277,0.04229 -0.228058,0.134717 -0.327724,0.675633 -0.06352,0.344593 -0.106437,0.664987 -0.09534,0.711958 0.01103,0.04709 0.170821,0.08534 0.354952,0.0853 0.362306,-1.8e-5 0.513498,0.09559 0.513438,0.324753 0,0.096 0.124005,-0.04216 0.361313,-0.402663 0.248687,-0.377671 0.354978,-0.637844 0.340975,-0.834795 -0.03616,-0.505752 0.373402,-0.562371 0.521781,-0.07218 0.08751,0.28908 -0.06874,0.687239 -0.59415,1.513778 -0.573828,0.902701 -0.540068,0.869157 -0.863312,0.857266 -0.254055,-0.009 -0.275804,0.0094 -0.546112,0.471154 -0.154962,0.264138 -0.287995,0.60155 -0.295946,0.749457 -0.02334,0.433717 -0.1454984,0.59632 -0.8613888,1.146636 -0.7961581,0.611983 -1.1259507,0.724768 -1.313186,0.449024 -0.1133876,-0.16707 -0.1757281,-0.163643 -0.5246708,0.02678 -0.3308869,0.1806 -0.4109584,0.260372 -0.4867467,0.484327 -0.1237236,0.365479 -0.1996573,0.429117 -1.0609515,0.886071 -0.8271061,0.438784 -0.97699,0.479938 -1.2696194,0.348547 -0.2861662,-0.1284 -0.773708,0.217378 -0.7907978,0.560732 -0.00975,0.194824 -0.1433439,0.3953 -0.5780433,0.865403 -0.6930552,0.749759 -0.6771965,0.819973 0.2623654,1.160497 0.3957494,0.143483 0.7623119,0.341692 0.8970468,0.485174 0.2384362,0.256454 0.721977,0.346407 0.8985002,0.169881 0.1572277,-0.157222 1.4414491,-0.631515 1.7459533,-0.644844 0.157467,-0.0069 0.3406414,0.04158 0.4068291,0.107774 0.080362,0.08039 0.3193455,0.05478 0.7201816,-0.07709 0.3299294,-0.108553 0.6373232,-0.159907 0.683104,-0.11412 0.1016838,0.101685 0.261519,0.898318 0.1928777,0.961689 -0.027357,0.0249 -0.2672469,0.10437 -0.5338441,0.176024 z m 0.1574841,-0.656844 c -0.052748,-0.05277 -0.8539419,0.229559 -0.8539419,0.300886 0,0.03627 0.1756255,0.01184 0.3901497,-0.05456 0.3961683,-0.122604 0.5211999,-0.188913 0.4637922,-0.246324 z m -1.6641976,0.309893 c -0.0094,-0.103372 -0.1409757,-0.09418 -0.4689815,0.0327 -0.3929111,0.151745 -0.4496006,0.197338 -0.4123348,0.329515 0.023852,0.08445 0.043344,0.24552 0.043344,0.358207 1.454e-4,0.277613 0.1499609,0.293645 0.7377503,0.07893 l 0.4990064,-0.18228 -0.1926896,-0.23682 C 6.98154,57.155232 6.8889696,56.984075 6.8817199,56.905084 Z m -2.0580748,0.485977 c -0.1768223,-0.0056 -0.3519007,0.02025 -0.3888929,0.05725 -0.036847,0.03687 0.1076938,0.07107 0.3215939,0.07563 0.2137121,0.0046 0.3889016,-0.02118 0.3889016,-0.05725 0,-0.03603 -0.144746,-0.07003 -0.3216026,-0.07563 z M 3.6560172,57.081296 c 0.1750442,-0.07783 0.088775,-0.155996 -0.3396925,-0.307899 -0.2498921,-0.08852 -0.3667164,-0.08206 -0.4092485,0.02257 -0.032487,0.08053 -0.1190985,0.243276 -0.191698,0.361774 l -0.1320076,0.215431 0.5506602,0.217644 0.5506518,0.217674 -0.081388,-0.333651 c -0.051466,-0.210414 -0.031803,-0.355795 0.052834,-0.39348 z m 5.6022852,-6.838783 c -0.093921,-0.06986 -0.1758735,-0.228707 -0.1820631,-0.352736 -0.010515,-0.21117 -0.027101,-0.214918 -0.2632715,-0.05751 -0.138582,0.09239 -0.3527129,0.26904 -0.4760261,0.392355 -0.2040002,0.204 -0.2065051,0.241928 -0.028212,0.420218 0.1163798,0.116382 0.1755314,0.268503 0.1456863,0.374257 -0.051552,0.182673 -0.021287,0.16707 0.6772905,-0.348625 0.2907486,-0.21458 0.3128653,-0.288929 0.1266987,-0.427738 z M 7.48294,51.158622 c -0.090134,0.0022 -0.6904819,0.361429 -0.6582345,0.393674 0.046679,0.04667 0.4342463,-0.134886 0.580685,-0.271906 0.073095,-0.06702 0.1073861,-0.122379 0.077541,-0.121653 z m -1.4995236,1.053789 c -0.1318453,-0.08892 -0.2218081,-0.227855 -0.2291262,-0.349423 -0.00975,-0.181627 -0.060785,-0.174409 -0.5005024,0.07055 -0.26935,0.149897 -0.4886446,0.315571 -0.4872938,0.368206 8.549e-4,0.05248 0.094417,0.207464 0.2068043,0.34449 0.1968018,0.239359 0.2222013,0.240211 0.6536264,0.03367 0.599989,-0.28763 0.6076918,-0.297719 0.3564233,-0.467419 z m -3.7835956,3.617431 c -0.036419,-0.03645 -0.079935,-0.05296 -0.095828,-0.03706 -0.016243,0.0162 -0.017868,0.07756 -0.00427,0.136778 0.014106,0.05907 0.05745,0.07545 0.095691,0.03718 0.038728,-0.03869 0.040438,-0.100199 0.00427,-0.136772 z M 2.8366823,54.163194 C 2.710565,54.088344 2.5586122,53.971206 2.4991527,53.902798 2.4109597,53.799619 2.3344958,53.834988 2.071002,54.098481 c -0.4097359,0.409736 -0.4033582,0.610024 0.02428,0.753077 0.2884403,0.09647 0.3400431,0.07848 0.642239,-0.223708 0.3254667,-0.325466 0.3269371,-0.329359 0.099256,-0.464662 z M 4.026786,53.072712 c -0.1044195,0.04167 -0.2632288,0.151999 -0.3529523,0.244986 -0.1476697,0.153717 -0.1400781,0.155071 0.087116,0.02085 0.3471303,-0.206165 0.5000492,-0.359083 0.2657422,-0.265746 z"
       id="path2769-6-2-7" />
    <path
       style="display:inline;fill:#000000;stroke-width:0.0939545"
       d="m 41.56689,64.688999 c -0.0371,-0.334215 -0.03428,-0.338527 0.209976,-0.326407 0.136299,0.0068 0.269059,0.04325 0.295083,0.08118 0.155099,0.224572 0.338812,0.239467 0.957395,0.07748 0.379087,-0.09924 0.684258,-0.197673 0.678163,-0.218716 -0.0068,-0.02038 -0.05412,-0.174469 -0.106771,-0.341154 -0.06403,-0.202652 -0.04574,-0.349381 0.05506,-0.443182 0.08301,-0.07696 0.13647,-0.154486 0.118338,-0.172621 -0.01787,-0.01783 -0.314593,-0.0719 -0.6595,-0.119989 -0.432246,-0.06035 -0.699869,-0.03902 -0.861388,0.0687 -0.128828,0.08591 -0.258142,0.132454 -0.28709,0.10351 -0.02898,-0.02896 -0.124159,-0.0846 -0.211797,-0.123521 -0.140702,-0.06267 -0.11909,-0.102586 0.188808,-0.34808 0.417738,-0.333108 0.607,-0.351145 1.792076,-0.17184 0.834484,0.126303 1.326079,0.344492 1.157027,0.513545 -0.03651,0.03651 -0.04343,0.08938 -0.0153,0.117555 0.112029,0.112029 1.253257,0.157096 1.559582,0.06145 0.382088,-0.119319 0.756533,-0.0087 1.674807,0.494949 0.727867,0.399163 0.860952,0.590027 0.629167,0.902581 -0.114396,0.154297 -0.09594,0.188675 0.231922,0.430875 0.246609,0.182414 0.466519,0.259519 0.715121,0.251051 0.40264,-0.01371 0.504811,0.04037 1.339226,0.708856 0.581241,0.465539 0.844239,0.816673 0.710086,0.950827 -0.03745,0.03748 0.02419,0.160312 0.136897,0.273049 0.152483,0.152483 0.320414,0.19726 0.655516,0.174947 0.268589,-0.01783 0.734373,0.07527 1.153171,0.230641 0.895782,0.332316 0.992088,0.251788 1.014427,-0.848258 0.01154,-0.570477 0.06839,-0.865608 0.18998,-0.987231 0.245557,-0.245555 0.0967,-0.508532 -0.667998,-1.1802 -0.57635,-0.506101 -0.631202,-0.576667 -0.529219,-0.678649 0.251166,-0.251159 0.500306,-0.241438 0.771827,0.03008 0.247208,0.247211 0.275873,0.250965 0.4588,0.06803 0.107506,-0.107501 0.244626,-0.183689 0.304615,-0.169622 0.174677,0.04129 0.171471,-0.159381 -0.006,-0.336523 -0.102889,-0.102882 -0.124151,-0.200191 -0.05814,-0.266222 0.17743,-0.177426 0.492715,-0.22936 0.620165,-0.10191 0.194366,0.19437 0.214473,0.72886 0.0342,0.909164 -0.13311,0.133108 -0.124587,0.258962 0.04745,0.704032 0.188295,0.486878 0.231101,0.543002 0.421311,0.552493 0.397682,0.01983 0.491167,0.258727 0.446036,1.139895 -0.04531,0.884814 -0.20836,1.209766 -0.678351,1.352089 -0.211617,0.06402 -1.302226,0.895211 -1.856955,1.415204 -0.450755,0.423797 -0.709504,0.438342 -1.629309,0.09582 -0.822609,-0.306284 -1.038219,-0.482434 -0.981948,-0.802067 0.0371,-0.210807 0.0077,-0.249424 -0.391321,-0.507262 -0.271881,-0.175885 -0.529724,-0.267379 -0.697074,-0.247363 -0.346942,0.04145 -0.648146,-0.100531 -1.365293,-0.643563 -0.797714,-0.603998 -0.849479,-0.664074 -0.849368,-0.987158 -8e-6,-0.370159 -0.355517,-0.629769 -0.886984,-0.647886 -0.456628,-0.01556 -2.078858,-0.811084 -2.250004,-1.103409 -0.156048,-0.266738 -0.555396,-0.254841 -0.835014,0.02478 -0.155937,0.155936 -0.532117,0.312846 -1.158104,0.483174 -1.199303,0.32628 -1.50791,0.239969 -1.58369,-0.442931 z m 3.879158,-0.713224 c -6e-5,-0.04104 -0.196143,-0.07051 -0.435836,-0.06607 l -0.435837,0.0083 0.435828,0.06606 c 0.23983,0.03643 0.435819,0.03262 0.435845,-0.0083 z m 1.891503,0.916285 c 0.08844,-0.195803 0.172591,-0.274632 0.330784,-0.312771 0.117526,-0.02721 0.203735,-0.05914 0.191715,-0.07117 -0.08327,-0.08324 -0.976041,-0.532586 -1.062652,-0.534756 -0.05933,-0.0015 -0.131658,0.100229 -0.160571,0.225987 -0.04223,0.183538 -0.09527,0.238349 -0.266631,0.278719 -0.11809,0.02717 -0.227109,0.06213 -0.242566,0.07757 -0.01547,0.01547 0.223578,0.156352 0.531322,0.312994 l 0.559389,0.284867 0.1185,-0.262179 z m 2.934262,2.527063 c 0.107309,0.01264 0.16234,-0.03635 0.207488,-0.186445 0.03394,-0.111908 0.136171,-0.247404 0.227254,-0.300766 0.122638,-0.07162 0.130357,-0.112343 0.02701,-0.158673 -0.07634,-0.03403 -0.248798,-0.171054 -0.383362,-0.304532 -0.33269,-0.330272 -0.550301,-0.376517 -0.573845,-0.122699 -0.01043,0.110265 -0.10365,0.24162 -0.222578,0.312893 -0.202658,0.121411 -0.200614,0.126259 0.1835,0.432816 0.213686,0.170522 0.454217,0.3178 0.534425,0.32743 z m -1.522658,-1.630268 c 0.120116,0.02267 0.07951,-0.03089 -0.142677,-0.189462 -0.384789,-0.274402 -0.4763,-0.288947 -0.219628,-0.03503 0.107053,0.105911 0.270171,0.207059 0.362322,0.224518 z m 3.09302,2.284144 c 0.151662,0.0058 -0.355748,-0.350916 -0.582387,-0.409983 -0.09845,-0.02543 -0.04189,0.0431 0.150004,0.182165 0.169744,0.122712 0.36416,0.225255 0.432357,0.227849 z m 1.782218,1.211544 c 0.01471,-0.01469 0.09203,-0.05576 0.172052,-0.0914 0.08586,-0.03811 0.111063,-0.09897 0.06044,-0.14957 -0.04676,-0.04679 -0.09018,-0.190888 -0.09675,-0.32034 -0.01094,-0.221525 -0.03864,-0.244805 -0.465476,-0.392452 l -0.453722,-0.156993 -0.0091,0.291909 c -0.0051,0.160584 -0.05993,0.342828 -0.122167,0.405032 -0.09921,0.09921 -0.05138,0.133224 0.387379,0.276991 0.275249,0.09013 0.51248,0.151854 0.527151,0.137188 z m 1.948885,-1.979474 c 0.118825,-0.0273 0.260476,-0.0052 0.314909,0.04923 0.05446,0.05447 0.135222,0.06304 0.179387,0.01888 0.08925,-0.08926 0.12245,-1.045767 0.03916,-1.129082 -0.02924,-0.02925 -0.141095,0.03519 -0.24896,0.143053 -0.117611,0.11761 -0.268572,0.175601 -0.37742,0.144957 -0.165247,-0.04652 -0.182268,-0.01541 -0.190151,0.347931 -0.01034,0.471245 0.0026,0.490094 0.283174,0.425139 z m -0.02582,-1.743748 c -8.55e-4,-0.06873 -0.07267,-0.232915 -0.159912,-0.364953 l -0.158493,-0.240096 0.102171,0.296412 c 0.120851,0.35053 0.218303,0.489503 0.216251,0.308618 z M 44.475914,60.09695 c -1.852664,-2.318517 -1.860948,-2.327597 -2.427313,-2.661163 -0.783043,-0.46112 -1.228275,-1.012422 -1.545467,-1.91389 l -0.247917,-0.704589 -3.208083,-3.967036 c -1.764436,-2.18186 -3.237346,-4.037481 -3.273142,-4.123618 -0.05386,-0.129421 0.21909,-0.204103 1.566036,-0.436619 1.510159,-0.259253 1.617511,-0.263363 1.447665,-0.05559 -0.213909,0.261907 -0.61053,0.403267 -1.466122,0.522654 -0.338778,0.04722 -0.613488,0.10689 -0.61053,0.132456 0.0043,0.02612 1.396044,1.769355 3.095789,3.875082 l 3.09043,3.828608 0.166546,0.598048 c 0.214498,0.770283 0.766373,1.442802 1.496223,1.823376 0.485875,0.253401 0.50358,0.273066 2.891756,3.23459 1.321598,1.63881 2.379181,3.003369 2.350191,3.032356 -0.0289,0.0289 -0.09049,0.01494 -0.136701,-0.03127 -0.04617,-0.04618 -0.255372,-0.135798 -0.464767,-0.199097 -0.478343,-0.144516 -0.485362,-0.152128 -2.724568,-2.954246 z m 7.886016,3.432056 c 1.725264,-0.777687 4.424646,-1.994717 5.998573,-2.704499 l 2.861747,-1.290541 -0.225766,-0.225763 c -0.18149,-0.181489 -0.199845,-0.251709 -0.09289,-0.358654 0.12103,-0.121031 0.17713,-0.08863 0.631159,0.365406 0.278865,0.278864 0.469785,0.526728 0.433477,0.563041 -0.06882,0.06885 -11.561635,5.346028 -11.604278,5.328419 -0.01325,-0.0048 -0.247276,-0.0389 -0.518832,-0.07363 -0.27159,-0.03472 -0.522149,-0.09168 -0.556927,-0.126453 -0.03479,-0.03482 1.348366,-0.699536 3.073648,-1.477241 z M 49.156634,62.790649 C 48.989404,62.446316 48.657063,61.821964 48.418191,61.4031 47.072587,59.043597 45.122505,57.145159 43.64373,56.7551 l -0.429612,-0.113311 -0.888199,-1.104882 -0.888198,-1.104882 -0.009,-0.776297 c -0.02018,-1.741361 -0.723088,-3.344003 -2.047679,-4.668591 -0.610667,-0.610665 -1.61545,-1.333734 -2.352782,-1.693131 -0.290244,-0.141391 -0.533989,-0.263618 -0.541837,-0.271465 -0.009,-0.009 0.155484,-0.128521 0.362536,-0.268599 0.20718,-0.139952 0.574709,-0.470363 0.816727,-0.734264 l 0.439957,-0.47986 0.584182,0.345929 c 1.903061,1.127043 3.805533,2.942887 4.486893,4.282685 0.629919,1.238498 0.751488,2.428907 0.362578,3.55042 -0.11632,0.335597 -0.176172,0.576237 -0.132914,0.534858 0.146311,-0.140266 1.260327,-0.09311 1.773482,0.07488 1.661667,0.543986 3.542415,2.519549 5.127712,5.386194 0.316123,0.571529 0.596604,1.061134 0.623397,1.087932 0.02684,0.02684 2.426193,-0.988083 5.332012,-2.255246 4.878094,-2.12723 5.268654,-2.281569 5.092045,-2.012299 -0.344933,0.525803 -0.419807,1.083749 -0.238462,1.776755 0.006,0.02744 -11.584563,5.1137 -11.637799,5.107007 -0.01026,-0.0018 -0.154971,-0.283923 -0.322235,-0.628238 z M 44.400477,53.09739 c 0.234418,-0.911135 0.0017,-2.357617 -0.55544,-3.45397 -0.666185,-1.310633 -2.68937,-3.26453 -4.429562,-4.277776 -0.251926,-0.146625 -0.457884,-0.280925 -0.457876,-0.298311 -0.0017,-0.0165 1.225284,-0.288704 2.722858,-0.60307 l 2.722858,-0.571547 0.259065,0.338862 c 0.14237,0.1865 0.466067,0.580325 0.71925,0.875226 0.420474,0.49036 0.494903,0.542905 0.865244,0.611487 0.657781,0.12181 1.035449,0.347374 1.088813,0.650268 0.0566,0.321452 0.283738,0.540504 1.13574,1.096201 1.102209,0.718669 1.613287,0.778999 2.323244,0.274251 0.374565,-0.266229 0.363442,-0.390403 -0.0748,-0.831447 -0.270256,-0.271464 -0.349781,-0.305408 -0.54866,-0.230992 -0.384251,0.143694 -0.857233,-0.320146 -0.594731,-0.582646 0.04608,-0.04606 0.211027,-0.05744 0.366169,-0.02507 0.213575,0.0444 0.286081,0.09891 0.297494,0.223986 0.01171,0.125365 0.136658,0.214645 0.517643,0.370369 0.276164,0.112996 0.520439,0.208002 0.542573,0.211364 0.02248,0.0015 0.111584,-0.23546 0.198708,-0.530815 0.170266,-0.576976 0.107754,-1.073677 -0.170265,-1.352468 -0.282763,-0.28361 -2.111926,-0.562891 -2.554798,-0.390089 -0.204274,0.07978 -0.288953,0.06338 -0.359356,-0.06931 -0.247532,-0.466494 -0.455773,-0.778969 -0.650805,-0.976876 -0.11803,-0.119241 -0.198999,-0.232854 -0.180379,-0.251473 0.01872,-0.01874 0.37683,-0.102973 0.795825,-0.187304 0.65278,-0.131361 0.839707,-0.123358 1.306039,0.05591 1.074108,0.412886 1.532019,0.714225 2.377711,1.564623 0.708469,0.710889 0.829175,0.874755 1.105697,1.485324 0.3895,0.859865 0.667613,1.898807 0.750592,2.804205 l 0.06412,0.699463 0.46163,0.06986 c 0.680274,0.102919 1.755665,0.499307 2.269504,0.836471 0.755019,0.495558 1.560727,1.475245 2.224168,2.704664 0.542504,1.00539 0.622849,1.113122 1.220367,1.636379 0.351824,0.308057 0.724354,0.606719 0.827961,0.663586 0.163905,0.09015 -0.444616,0.37474 -4.712402,2.202993 -3.955853,1.694708 -4.91536,2.072798 -4.976743,1.961082 -1.208595,-2.199674 -2.172317,-3.592307 -3.185239,-4.602927 -1.134705,-1.132291 -2.141164,-1.678913 -3.167355,-1.720674 -0.311497,-0.01269 -0.579009,-0.03568 -0.594441,-0.05112 -0.01547,-0.01547 0.0068,-0.163249 0.04907,-0.328355 z m -4.849899,-9.351717 c -0.122604,-0.455195 -0.144105,-0.484514 -0.355474,-0.484454 -0.296665,0 -0.298657,-0.0026 -0.609137,-0.832904 -0.297725,-0.796276 -0.285465,-1.1359 0.05318,-1.474563 0.184952,-0.184952 0.220551,-0.324045 0.188492,-0.736991 -0.02616,-0.337031 -0.108173,-0.580457 -0.242754,-0.720548 -0.186329,-0.194794 -0.182901,-0.272251 0.04693,-0.957882 0.300785,-0.897195 0.583848,-1.227956 1.038647,-1.213828 0.173676,0.0054 0.633955,-0.09767 1.023147,-0.229076 0.389278,-0.13132 0.781257,-0.254931 0.871322,-0.274536 0.08996,-0.01947 0.262613,-0.100029 0.383422,-0.178846 0.333229,-0.217403 0.717386,-0.04905 1.364677,0.598236 0.591312,0.591315 0.749386,0.947659 0.521739,1.175309 -0.191279,0.191281 0.349917,0.951649 0.779581,1.095318 0.308403,0.103228 0.343907,0.147425 0.841913,1.053378 0.560723,1.01996 0.614916,1.195536 0.427057,1.383395 -0.144284,0.144281 0.181781,0.79826 0.412326,0.826847 0.07626,0.0094 0.22227,0.0678 0.324381,0.129699 0.261587,0.158704 1.407962,1.645242 1.427095,1.850367 0.02411,0.258407 0.401401,0.438644 0.631117,0.30105 0.366742,-0.219464 2.031076,-0.02062 2.330186,0.278495 0.173693,0.17369 0.251097,0.804116 0.115388,0.939819 -0.116072,0.116079 -0.451858,-0.07588 -0.500408,-0.286245 -0.04232,-0.183278 -0.134718,-0.228054 -0.675632,-0.327721 -0.344592,-0.06353 -0.664989,-0.106437 -0.711958,-0.09534 -0.04711,0.01106 -0.08532,0.170819 -0.08532,0.354949 2.5e-5,0.362305 -0.09559,0.513495 -0.324749,0.513435 -0.096,0 0.04215,0.12401 0.402666,0.361313 0.377668,0.248693 0.637844,0.354979 0.834791,0.340978 0.505752,-0.03615 0.562373,0.373399 0.07216,0.521783 -0.289081,0.08751 -0.687241,-0.06877 -1.513775,-0.59415 -0.902706,-0.573832 -0.869159,-0.540069 -0.857267,-0.863311 0.009,-0.25406 -0.0094,-0.27581 -0.471153,-0.546114 -0.264144,-0.154963 -0.601554,-0.287999 -0.749463,-0.295948 -0.433716,-0.02332 -0.596321,-0.145495 -1.146631,-0.861389 -0.611984,-0.796155 -0.724773,-1.12595 -0.449028,-1.313181 0.167076,-0.113389 0.163648,-0.175733 -0.02676,-0.524678 -0.180601,-0.330883 -0.260373,-0.410957 -0.484327,-0.486745 -0.365477,-0.123721 -0.429117,-0.199654 -0.88607,-1.060947 -0.438786,-0.827112 -0.479941,-0.976996 -0.348549,-1.269625 0.1284,-0.286166 -0.21738,-0.773703 -0.560731,-0.790799 -0.194819,-0.0097 -0.395297,-0.143337 -0.865398,-0.578039 -0.749762,-0.693056 -0.819976,-0.677199 -1.160498,0.262366 -0.143489,0.395747 -0.341693,0.762314 -0.485174,0.897043 -0.256458,0.23844 -0.346412,0.721981 -0.169889,0.898506 0.157228,0.157224 0.631518,1.441448 0.644847,1.745949 0.0068,0.157471 -0.04155,0.340639 -0.107771,0.406828 -0.08036,0.08039 -0.0548,0.319349 0.07711,0.720186 0.108558,0.329927 0.159904,0.637318 0.114123,0.683105 -0.101684,0.101685 -0.898321,0.261519 -0.961696,0.192876 -0.02488,-0.02732 -0.104368,-0.267251 -0.176018,-0.533849 z m 0.656841,0.157477 c 0.05275,-0.05277 -0.229562,-0.853942 -0.300888,-0.853936 -0.03625,0 -0.0118,0.175619 0.05454,0.390144 0.122603,0.39617 0.188919,0.521203 0.246327,0.463792 z m -0.30989,-1.664194 c 0.103368,-0.0094 0.09418,-0.140974 -0.03274,-0.468979 -0.151747,-0.392912 -0.19734,-0.449603 -0.329519,-0.412335 -0.08447,0.02388 -0.245515,0.04335 -0.35821,0.04331 -0.277608,1.52e-4 -0.293638,0.149963 -0.07891,0.737753 l 0.182286,0.499006 0.23682,-0.192691 c 0.130144,-0.106207 0.301307,-0.198777 0.380293,-0.206025 z m -0.485986,-2.058073 c 0.0051,-0.176821 -0.02026,-0.351901 -0.05728,-0.388898 -0.03685,-0.03687 -0.07104,0.107701 -0.07566,0.321597 -0.0043,0.213715 0.0212,0.388904 0.05728,0.388904 0.03599,0 0.07002,-0.144745 0.07566,-0.321603 z m 0.309813,-1.167559 c 0.0778,0.175039 0.155997,0.08877 0.307898,-0.339696 0.08852,-0.249889 0.08207,-0.366713 -0.02257,-0.409246 -0.08053,-0.03252 -0.243275,-0.119096 -0.361775,-0.191699 l -0.21543,-0.132008 -0.217645,0.550661 -0.217679,0.550655 0.333657,-0.0814 c 0.210412,-0.05144 0.355791,-0.03184 0.393476,0.05282 z m 6.838785,5.60228 c 0.06985,-0.09392 0.228707,-0.175873 0.35273,-0.182057 0.211173,-0.0105 0.214926,-0.02714 0.05754,-0.26328 -0.0924,-0.138579 -0.269042,-0.352705 -0.392355,-0.476021 -0.204001,-0.204 -0.241933,-0.206502 -0.420217,-0.02821 -0.116389,0.116382 -0.268504,0.175527 -0.374257,0.145688 -0.182679,-0.05158 -0.167077,-0.0213 0.348626,0.67729 0.214576,0.290748 0.288928,0.312868 0.427732,0.1267 z M 45.64403,42.840246 c -0.0026,-0.09013 -0.361433,-0.690481 -0.393672,-0.658236 -0.04668,0.04667 0.13488,0.434243 0.271906,0.580682 0.06703,0.07306 0.122373,0.107386 0.121655,0.07752 z m -1.053788,-1.499524 c 0.08892,-0.131845 0.227853,-0.22181 0.349422,-0.229125 0.181627,-0.0097 0.174411,-0.06076 -0.07053,-0.500504 -0.149892,-0.269348 -0.315566,-0.488643 -0.368204,-0.487294 -0.05249,0.0012 -0.207462,0.09442 -0.344488,0.206805 -0.23936,0.1968 -0.240215,0.222196 -0.03368,0.653622 0.287628,0.599996 0.297716,0.607691 0.467417,0.356429 z M 40.972808,37.55712 c 0.03642,-0.03645 0.053,-0.07993 0.03702,-0.09582 -0.01616,-0.0162 -0.07754,-0.01783 -0.136778,-0.0039 -0.05907,0.01409 -0.0754,0.05743 -0.03719,0.09569 0.03873,0.03869 0.100197,0.04047 0.13677,0.0039 z m 1.666652,0.636866 c 0.07489,-0.126115 0.191988,-0.278073 0.26039,-0.337533 0.10318,-0.08819 0.06779,-0.164652 -0.195682,-0.428143 -0.409736,-0.409736 -0.610025,-0.403364 -0.75307,0.02425 -0.09647,0.288439 -0.07848,0.340047 0.223706,0.642238 0.325467,0.325467 0.329357,0.326942 0.464656,0.09926 z m 1.09048,1.190107 c -0.04163,-0.104418 -0.151996,-0.263231 -0.244985,-0.352954 -0.153714,-0.147671 -0.155073,-0.140079 -0.02086,0.08711 0.206163,0.347138 0.359082,0.500057 0.265751,0.265746 z"
       id="path2769-6-2-0" />
  </g>
  <g
     id="layer3"
     style="display:inline">
    <text
       xml:space="preserve"
       style="font-size:14.1111px;line-height:1.25;font-family:'Blood Crow';-inkscape-font-specification:'Blood Crow';stroke-width:0.264583"
       x="3.5731983"
       y="13.592595"
       id="text9052-1"><tspan
         id="tspan9050-4"
         style="font-style:normal;font-variant:normal;font-weight:normal;font-stretch:normal;font-size:14.1111px;font-family:'Bleeding Cowboys';-inkscape-font-specification:'Bleeding Cowboys';stroke-width:0.264583"
         x="3.5731983"
         y="13.592595">12</tspan></text>
    <text
       xml:space="preserve"
       style="font-size:14.1111px;line-height:1.25;font-family:'Blood Crow';-inkscape-font-specification:'Blood Crow';stroke-width:0.264583"
       x="-60.405499"
       y="-75.571785"
       id="text9052-3-9"
       transform="scale(-1)"><tspan
         id="tspan9050-0-2"
         style="font-style:normal;font-variant:normal;font-weight:normal;font-stretch:normal;font-size:14.1111px;font-family:'Bleeding Cowboys';-inkscape-font-specification:'Bleeding Cowboys';stroke-width:0.264583"
         x="-60.405499"
         y="-75.571785">12</tspan></text>
  </g>
</svg>
