<?xml version="1.0" encoding="UTF-8" standalone="no"?>
<!-- Created with Inkscape (http://www.inkscape.org/) -->

<svg
   width="63mm"
   height="89mm"
   viewBox="0 0 63 89"
   version="1.1"
   id="svg5"
   xmlns:xlink="http://www.w3.org/1999/xlink"
   xmlns="http://www.w3.org/2000/svg"
   xmlns:svg="http://www.w3.org/2000/svg">
  <defs
     id="defs2">
    <linearGradient
       id="linearGradient66035">
      <stop
         style="stop-color:#ffeeaa;stop-opacity:1;"
         offset="0"
         id="stop66031" />
      <stop
         style="stop-color:#ffeeaa;stop-opacity:0;"
         offset="1"
         id="stop66033" />
    </linearGradient>
    <linearGradient
       xlink:href="#linearGradient66035"
       id="linearGradient66037"
       x1="-609.21545"
       y1="124.85085"
       x2="-533.06219"
       y2="235.37372"
       gradientUnits="userSpaceOnUse" />
    <linearGradient
       xlink:href="#linearGradient66035"
       id="linearGradient66272"
       gradientUnits="userSpaceOnUse"
       x1="-609.21545"
       y1="124.85085"
       x2="-533.06219"
       y2="235.37372"
       gradientTransform="translate(107.54224,19.681403)" />
    <linearGradient
       xlink:href="#linearGradient66035"
       id="linearGradient66419"
       gradientUnits="userSpaceOnUse"
       gradientTransform="translate(169.88249,19.681395)"
       x1="-609.21545"
       y1="124.85085"
       x2="-533.06219"
       y2="235.37372" />
    <linearGradient
       xlink:href="#linearGradient66035"
       id="linearGradient66886"
       gradientUnits="userSpaceOnUse"
       gradientTransform="translate(609.74704,-124.32202)"
       x1="-609.21545"
       y1="124.85085"
       x2="-533.06219"
       y2="235.37372" />
    <linearGradient
       xlink:href="#linearGradient66035"
       id="linearGradient67116"
       gradientUnits="userSpaceOnUse"
       gradientTransform="translate(761.64943,-239.23166)"
       x1="-609.21545"
       y1="124.85085"
       x2="-533.06219"
       y2="235.37372" />
    <linearGradient
       xlink:href="#linearGradient66035"
       id="linearGradient73095"
       gradientUnits="userSpaceOnUse"
       gradientTransform="translate(-18.43475,-1222.8025)"
       x1="-609.21545"
       y1="124.85085"
       x2="-533.06219"
       y2="235.37372" />
    <linearGradient
       xlink:href="#linearGradient66035"
       id="linearGradient82342"
       gradientUnits="userSpaceOnUse"
       gradientTransform="translate(704.02075,-140.75031)"
       x1="-609.21545"
       y1="124.85085"
       x2="-533.06219"
       y2="235.37372" />
    <linearGradient
       xlink:href="#linearGradient66035"
       id="linearGradient90215"
       gradientUnits="userSpaceOnUse"
       gradientTransform="translate(340.696,-366.60502)"
       x1="-609.21545"
       y1="124.85085"
       x2="-533.06219"
       y2="235.37372" />
    <linearGradient
       xlink:href="#linearGradient66035"
       id="linearGradient99476"
       gradientUnits="userSpaceOnUse"
       gradientTransform="translate(510.6307,-103.31497)"
       x1="-609.21545"
       y1="124.85085"
       x2="-533.06219"
       y2="235.37372" />
    <linearGradient
       xlink:href="#linearGradient66035"
       id="linearGradient105434"
       gradientUnits="userSpaceOnUse"
       gradientTransform="translate(512.58237,-32.383406)"
       x1="-609.21545"
       y1="124.85085"
       x2="-533.06219"
       y2="235.37372" />
    <linearGradient
       xlink:href="#linearGradient66035"
       id="linearGradient116711"
       gradientUnits="userSpaceOnUse"
       gradientTransform="translate(521.8087,-182.6408)"
       x1="-609.21545"
       y1="124.85085"
       x2="-533.06219"
       y2="235.37372" />
    <linearGradient
       xlink:href="#linearGradient66035"
       id="linearGradient12364"
       gradientUnits="userSpaceOnUse"
       gradientTransform="translate(538.94331,-187.47364)"
       x1="-609.21545"
       y1="124.85085"
       x2="-533.06219"
       y2="235.37372" />
  </defs>
  <g
     id="layer1"
     style="display:inline">
    <rect
       style="display:inline;fill:url(#linearGradient66886);fill-opacity:1;stroke:#000000;stroke-width:0.659785;stroke-miterlimit:4;stroke-dasharray:none;stroke-opacity:1"
       id="rect870-4-6-9-1"
       width="62.340214"
       height="88.340218"
       x="0.53154826"
       y="0.52885091"
       rx="3.7119057"
       ry="3.3358381" />
  </g>
  <g
     id="g1957"
     transform="translate(-66.424526,66.252968)">
    <g
       id="g1951">
      <path
         style="fill:#000000;stroke-width:0.0831423"
         d="m 97.273437,-18.564523 -0.0018,-0.750493 -0.504728,0.480283 c -0.558362,0.531316 -0.698419,0.594087 -0.569606,0.25529 0.04705,-0.123735 0.155979,-0.479199 0.242086,-0.789903 l 0.156541,-0.564916 -0.411483,0.43655 -0.411483,0.436551 0.05471,-0.820027 c 0.06244,-0.936233 0.127444,-0.908415 -0.716713,-0.306807 -0.250943,0.178852 -0.468522,0.312907 -0.483511,0.297921 -0.01505,-0.01505 0.08947,-0.258459 0.232114,-0.541043 0.288543,-0.571605 0.761336,-1.932046 0.94408,-2.716547 l 0.11913,-0.511395 -0.35059,0.365898 c -0.283959,0.296357 -0.406057,0.365896 -0.642436,0.365896 h -0.291841 l 0.444478,-0.893774 c 0.597606,-1.20169 0.870461,-2.268809 0.887551,-3.471184 0.01011,-0.705847 -0.02112,-1.003195 -0.13688,-1.302938 -0.206107,-0.534091 -0.33233,-0.625977 -0.554592,-0.403716 -0.214667,0.214668 -0.515761,0.334811 -0.839074,0.334811 -0.285372,0 -0.278811,0.02045 -0.117399,-0.365867 0.161124,-0.385588 0.02631,-0.46544 -0.384811,-0.227935 -0.294085,0.169887 -1.217669,0.392782 -1.297361,0.313087 -0.02521,-0.02521 0.108704,-0.342842 0.29759,-0.705878 0.474497,-0.912042 0.459019,-0.992343 -0.127488,-0.661341 -0.398806,0.225072 -0.577004,0.271327 -1.163991,0.302136 -0.381202,0.02 -0.693096,0.0099 -0.693096,-0.02247 0,-0.03233 0.129555,-0.216891 0.287895,-0.410126 0.307671,-0.375472 0.621846,-0.996719 0.624843,-1.235561 0.0022,-0.184559 0.032,-0.189794 -0.5989,0.105446 -0.705348,0.330074 -1.514026,0.494411 -2.433959,0.49462 -0.634201,1.67e-4 -1.097158,-0.08713 -0.953723,-0.17984 0.02157,-0.01393 0.26306,-0.137375 0.536713,-0.27434 0.493227,-0.24687 1.542795,-1.145019 1.449143,-1.240078 -0.02678,-0.02719 -0.253388,0.0209 -0.503545,0.107042 -0.669685,0.230409 -1.224245,0.284055 -1.819843,0.176043 -0.590739,-0.107109 -1.355169,-0.457607 -1.307829,-0.59963 0.01708,-0.05107 0.365588,-0.227495 0.774592,-0.392077 0.409005,-0.164584 0.986836,-0.448287 1.284069,-0.630453 l 0.540423,-0.331215 -0.540423,-0.06356 c -1.491445,-0.175437 -2.161948,-0.410038 -2.76767,-0.968371 -0.432772,-0.398918 -0.777085,-0.996978 -0.695849,-1.208673 0.0384,-0.100098 0.101762,-0.127286 0.200894,-0.08621 0.176201,0.073 1.766066,0.163911 1.766066,0.100975 0,-0.02463 -0.162135,-0.139801 -0.360305,-0.25594 -0.636001,-0.372717 -1.179749,-1.109089 -1.461155,-1.978763 -0.111626,-0.344943 -0.249993,-1.151563 -0.197546,-1.151563 0.0191,0 0.153799,0.08945 0.299365,0.198781 0.412259,0.309643 1.362767,0.758485 2.095776,0.989651 0.753398,0.237597 1.286714,0.351622 1.286714,0.275107 0,-0.02833 -0.235383,-0.285042 -0.523074,-0.570462 -0.582446,-0.577849 -1.022948,-1.345523 -1.299645,-2.264928 -0.210398,-0.699133 -0.340367,-1.682421 -0.252741,-1.912266 l 0.06341,-0.166292 0.06015,0.166292 c 0.240099,0.663795 0.70213,1.424279 1.225205,2.016632 1.106478,1.25303 1.820515,1.729271 3.55354,2.3701 1.221118,0.451538 1.179019,0.444283 1.080931,0.186289 -0.172583,-0.45392 -0.08794,-0.489654 0.279157,-0.117849 0.251844,0.255091 0.689321,0.527995 1.434201,0.894675 1.074125,0.528762 1.612243,0.867367 1.612243,1.014497 0,0.04327 -0.13396,0.226933 -0.297658,0.408144 -0.22042,0.243965 -0.283389,0.374437 -0.242673,0.502729 0.06974,0.219701 0.909756,0.783527 1.073651,0.720637 0.0677,-0.02597 0.164494,-0.208174 0.215094,-0.404873 0.368954,-1.434314 0.458375,-1.538306 1.840022,-2.139828 0.995925,-0.433593 1.305302,-0.492138 1.634653,-0.309329 0.185544,0.102975 0.179164,0.111266 -0.235325,0.305396 -0.358895,0.16809 -0.745231,0.527099 -0.745231,0.692508 0,0.02458 0.159012,-0.04622 0.353354,-0.157327 0.334995,-0.191547 0.644355,-0.264827 0.644355,-0.152653 0,0.02827 -0.112255,0.179211 -0.249427,0.335462 -0.226075,0.257484 -0.249427,0.338293 -0.249427,0.86318 0,0.401098 0.03195,0.582995 0.103919,0.591767 0.05716,0.007 0.144272,0.01685 0.193546,0.02224 0.04932,0.0052 0.211005,0.111625 0.35938,0.236464 0.21017,0.176852 0.30353,0.208893 0.42268,0.145126 0.21518,-0.115175 0.74959,-0.754995 0.74959,-0.897477 0,-0.0652 -0.11226,-0.260288 -0.24943,-0.433496 -0.13719,-0.173212 -0.24943,-0.354946 -0.24943,-0.403859 0,-0.160135 1.00018,-0.92559 1.60824,-1.2308 0.32727,-0.16427 0.83822,-0.454888 1.13545,-0.645822 0.83756,-0.538027 0.77966,-0.516412 0.71725,-0.267754 -0.0404,0.160922 -0.0235,0.220262 0.0629,0.220262 0.21851,0 1.83239,-0.593627 2.50389,-0.920986 1.26263,-0.615541 2.5871,-1.944273 3.22575,-3.236117 l 0.34936,-0.706705 0.0264,0.321358 c 0.0354,0.431314 -0.19728,1.549307 -0.46086,2.214474 -0.3022,0.762595 -0.71405,1.384804 -1.25161,1.890854 -0.25465,0.239727 -0.43908,0.45978 -0.40986,0.489005 0.0805,0.08051 1.43178,-0.279589 2.11257,-0.563002 0.33108,-0.137824 0.82631,-0.395602 1.10051,-0.572825 l 0.49855,-0.322218 -0.0473,0.266585 c -0.24337,1.370691 -0.8463,2.386593 -1.70875,2.879161 l -0.41171,0.235128 0.29476,0.05529 c 0.16209,0.03042 0.61611,0.01258 1.00888,-0.03975 0.39278,-0.05226 0.73544,-0.07372 0.76149,-0.0477 0.10014,0.100076 -0.4167,0.976792 -0.7377,1.251554 -0.63308,0.541904 -1.61202,0.878893 -2.55955,0.881111 -0.83794,0.002 -0.86722,0.08891 -0.16952,0.503387 0.33117,0.196737 0.90626,0.480346 1.27795,0.630217 0.37169,0.149868 0.67581,0.318397 0.67581,0.374506 0,0.154743 -0.68737,0.474214 -1.23747,0.575119 -0.56334,0.103335 -1.13328,0.04568 -1.82771,-0.184873 -0.26827,-0.08907 -0.50658,-0.143127 -0.52959,-0.120119 -0.0465,0.04651 0.47018,0.792011 0.80306,1.15868 0.11787,0.129825 0.37988,0.333662 0.58226,0.452954 l 0.36796,0.216891 -0.24325,0.07177 c -0.33579,0.09906 -1.82404,0.0083 -2.55166,-0.155619 -0.33085,-0.07455 -0.83789,-0.229499 -1.12675,-0.344353 -0.33201,-0.132005 -0.55428,-0.179751 -0.60425,-0.12978 -0.0869,0.08693 0.43969,0.95588 0.74064,1.222111 0.0974,0.08615 0.15699,0.18903 0.1325,0.228641 -0.0733,0.1185 -1.17964,0.08152 -1.71552,-0.05734 -0.2746,-0.07116 -0.51017,-0.117916 -0.52349,-0.103941 -0.0133,0.01393 0.10421,0.284321 0.26119,0.600723 0.18354,0.369967 0.25675,0.603937 0.20509,0.65558 -0.10032,0.100345 -0.73299,-0.05078 -1.19118,-0.284532 -0.18119,-0.09244 -0.34502,-0.152496 -0.36406,-0.133465 -0.0191,0.0191 0.022,0.170089 0.0912,0.335698 0.0692,0.165595 0.12583,0.339708 0.12583,0.386906 0,0.123242 -0.40687,0.105694 -0.88057,-0.03799 -0.22449,-0.0681 -0.43159,-0.124231 -0.46025,-0.124702 -0.11783,-0.0021 -0.39709,0.831701 -0.480735,1.435207 -0.133218,0.9611 0.09401,2.283784 0.610775,3.555574 0.1108,0.272633 0.16515,0.495694 0.12079,0.495694 -0.0443,0 -0.2288,-0.07559 -0.40988,-0.167977 -0.1811,-0.09239 -0.329257,-0.133734 -0.329257,-0.0919 0,0.04184 0.0783,0.332561 0.174017,0.646042 0.23395,0.766169 0.92684,2.079663 1.41973,2.691332 0.22091,0.274147 0.40165,0.517597 0.40165,0.541 0,0.0977 -0.86276,-0.404704 -1.16697,-0.679543 l -0.32959,-0.297768 v 0.566972 0.566972 l -0.34131,-0.328656 -0.341311,-0.328659 0.06103,0.291001 c 0.05685,0.270868 0.364951,1.257295 0.502971,1.610155 0.0549,0.14034 0.0416,0.145373 -0.13899,0.05264 -0.10981,-0.0564 -0.358689,-0.255599 -0.553034,-0.442692 l -0.353302,-0.340183 v 0.736906 c 0,0.719877 -0.004,0.733585 -0.158675,0.593292 -0.08727,-0.07898 -0.204062,-0.253145 -0.259519,-0.387021 -0.123467,-0.298074 -0.221026,-0.308124 -0.345202,-0.03557 -0.130994,0.287511 -0.218622,0.261034 -0.387979,-0.11722 l -0.145553,-0.325091 -0.18539,0.345874 c -0.101964,0.190222 -0.258288,0.439408 -0.347395,0.553727 l -0.162001,0.207859 -0.0018,-0.750493 z m 0.397231,-17.76524 c 0.140543,-0.14052 0.124163,-0.478085 -0.026,-0.535706 -0.172066,-0.06604 -0.373081,0.117602 -0.373081,0.340803 0,0.297087 0.199478,0.394508 0.399082,0.194894 z"
         id="path2152-6-5" />
      <path
         style="display:inline;fill:#000000;stroke-width:0.0831423"
         d="m 99.4136,-21.956989 -0.64894,0.376978 0.6683,0.196968 c 0.73931,0.217896 0.8637,0.307806 0.50589,0.365643 -0.13066,0.02116 -0.49299,0.104517 -0.80512,0.185304 l -0.5675,0.14689 0.5838,0.138077 0.58381,0.138077 -0.73752,0.362642 c -0.842,0.414076 -0.85043,0.343841 0.0926,0.774092 0.28037,0.127904 0.50525,0.249306 0.49977,0.269781 -0.005,0.0206 -0.26858,0.05172 -0.58462,0.0695 -0.63929,0.03592 -2.05386,0.306692 -2.82464,0.540676 l -0.50244,0.152528 0.49217,0.120671 c 0.39863,0.09774 0.51991,0.16871 0.6381,0.373422 l 0.14592,0.25274 -0.99627,0.06196 c -1.3395,0.0833 -2.40008,0.380564 -3.44991,0.966952 -0.61633,0.344176 -0.85825,0.51987 -1.05994,0.77001 -0.35948,0.445542 -0.37595,0.600795 -0.0723,0.682147 0.29324,0.07858 0.54783,0.279256 0.70949,0.559259 0.14269,0.247138 0.15712,0.231232 -0.25815,0.284596 -0.41449,0.05326 -0.41624,0.209944 -0.005,0.447232 0.29416,0.169737 0.94899,0.858133 0.91982,0.967003 -0.009,0.03443 -0.35127,0.07728 -0.7601,0.09522 -1.02711,0.04509 -1.08891,0.09865 -0.509,0.441072 0.39432,0.232843 0.52348,0.364041 0.84365,0.856979 0.20792,0.320131 0.35512,0.595289 0.32709,0.611474 -0.028,0.01616 -0.25261,-0.0038 -0.49913,-0.04426 -0.479,-0.07871 -1.1741,-0.04017 -1.38245,0.07665 -0.16083,0.09055 -0.18036,0.06718 0.39077,0.46594 0.63853,0.4458128 1.18519,1.06398 1.64534,1.8605609 0.31724,0.5491506 0.47312,0.9937316 0.32111,0.9158683 -0.0229,-0.011715 -0.2505,-0.1591291 -0.50594,-0.3276371 -0.46041,-0.3037121 -1.76301,-0.7635902 -1.79851,-0.6349556 -0.0102,0.036787 0.14479,0.2089904 0.34447,0.3825617 0.53439,0.4647597 0.85812,0.9181998 1.06238,1.4880088 0.20261,0.5651495 0.28129,1.4024143 0.13462,1.4324281 -0.0528,0.010743 -0.37981,-0.202861 -0.72684,-0.4747778 -0.34704,-0.2719168 -0.88165,-0.6304816 -1.18803,-0.7968099 l -0.55705,-0.3024126 0.21517,0.4998001 c 0.59379,1.3793478 0.72587,2.0773209 0.5452,2.881058 -0.12909,0.5742506 -0.47487,1.1714644 -0.69882,1.2069594 -0.10588,0.016794 -0.16111,-0.024485 -0.1751,-0.1308743 -0.0249,-0.1890945 -0.74109,-1.6114135 -0.79559,-1.5799455 -0.0213,0.012315 -0.04,0.2103135 -0.0415,0.4400033 -0.005,0.7371515 -0.37062,1.5762371 -0.98308,2.2547788 -0.24292,0.2691425 -0.87229,0.7922818 -0.89851,0.7468614 -0.01,-0.016541 5.7e-4,-0.1779188 0.0225,-0.3586482 0.062,-0.5118483 -0.0245,-1.5594333 -0.19083,-2.3098208 -0.17093,-0.7712603 -0.33884,-1.290138 -0.4051,-1.2518805 -0.0245,0.014165 -0.12917,0.3463687 -0.2325,0.7382264 -0.20921,0.7933375 -0.65379,1.5586605 -1.31166,2.2579896 -0.50027,0.5317765 -1.28684,1.135977 -1.52971,1.1750131 l -0.17571,0.028231 0.11393,-0.1352374 c 0.45482,-0.5398293 0.8824,-1.3202019 1.13386,-2.0693746 0.53191,-1.5847531 0.58733,-2.4412478 0.27579,-4.262506 -0.21951,-1.2832882 -0.20475,-1.243201 -0.37913,-1.0292556 -0.30682,0.3764187 -0.3801,0.3209507 -0.24164,-0.1828351 0.095,-0.3456453 0.1126,-0.8609661 0.0577,-1.6893911 -0.0791,-1.1945968 -0.055,-1.8299248 0.0725,-1.9034898 0.0375,-0.02163 0.26351,0.0025 0.50229,0.05371 0.32149,0.06891 0.46597,0.0582 0.55672,-0.04121 0.15541,-0.170212 0.22367,-1.179639 0.0873,-1.290126 -0.0563,-0.04565 -0.26253,-0.03837 -0.45818,0.01615 -1.42663,0.397637 -1.5614,0.372193 -2.77315,-0.52359 -0.873467,-0.645696 -1.078859,-0.884354 -1.085217,-1.260984 -0.0036,-0.21217 0.0068,-0.210791 0.382141,0.0511 0.325016,0.226771 0.829106,0.381847 0.972346,0.299142 0.0213,-0.01229 -0.11953,-0.114605 -0.31293,-0.227355 -0.33338,-0.194336 -0.551518,-0.42561 -0.454372,-0.481697 0.02448,-0.01414 0.211322,0.0076 0.415232,0.04827 0.33602,0.06705 0.41768,0.04687 0.87225,-0.215577 0.34736,-0.200549 0.48889,-0.31921 0.46052,-0.385881 -0.0225,-0.05304 -0.0575,-0.133367 -0.0775,-0.178731 -0.0201,-0.0453 -0.009,-0.238552 0.0251,-0.429464 0.0481,-0.270438 0.0291,-0.367311 -0.0857,-0.438614 -0.20733,-0.128764 -1.02864,-0.271667 -1.15203,-0.200426 -0.0565,0.0326 -0.16929,0.227364 -0.25071,0.432761 -0.0814,0.205416 -0.18267,0.393486 -0.225034,0.417942 -0.138681,0.08007 -1.301674,-0.403386 -1.870024,-0.777377 -0.305897,-0.201289 -0.813055,-0.498476 -1.127023,-0.660417 -0.884725,-0.456335 -0.837056,-0.417 -0.590507,-0.48728 0.159563,-0.04547 0.202503,-0.08978 0.159303,-0.164604 -0.109255,-0.189235 -1.430292,-1.290083 -2.049543,-1.70794 -1.164389,-0.785699 -2.97734,-1.268357 -4.415434,-1.175522 l -0.786705,0.0508 0.265104,-0.183542 c 0.355829,-0.246314 1.44038,-0.603804 2.148221,-0.70812 0.811527,-0.119585 1.556301,-0.07402 2.263333,0.138499 0.334934,0.10067 0.617721,0.150364 0.62842,0.110447 0.02947,-0.109971 -0.958021,-1.100164 -1.543859,-1.548039 -0.284899,-0.217811 -0.755756,-0.517804 -1.046336,-0.666657 l -0.528324,-0.270648 0.25452,-0.09233 c 1.308738,-0.474581 2.49,-0.46038 3.347801,0.04024 l 0.409482,0.238987 -0.0995,-0.282914 c -0.0547,-0.155584 -0.297161,-0.539857 -0.538865,-0.853841 -0.241648,-0.314027 -0.431563,-0.60005 -0.422054,-0.63562 0.0366,-0.136761 1.054277,-0.127523 1.452727,0.01309 0.785843,0.277312 1.567154,0.956604 2.04284,1.77608 0.420702,0.724677 0.510608,0.70658 0.520706,-0.104885 0.0048,-0.38517 -0.03714,-1.025017 -0.09319,-1.421845 -0.05606,-0.396827 -0.06216,-0.744468 -0.01357,-0.772522 0.134011,-0.07737 0.754366,0.358173 1.116802,0.784121 0.371161,0.436199 0.6062,0.958609 0.75375,1.67528 0.057,0.276863 0.12934,0.510274 0.16077,0.518698 0.0635,0.01701 0.45081,-0.803194 0.60192,-1.274811 0.0535,-0.166991 0.099,-0.495817 0.10114,-0.730729 l 0.004,-0.427108 0.18378,0.174776 c 0.25368,0.241272 0.91921,1.575515 1.14106,2.287612 0.10086,0.323799 0.22019,0.840383 0.26515,1.14797 0.0517,0.353532 0.12148,0.569896 0.18974,0.588186 0.11873,0.03179 0.60797,-0.858723 0.68806,-1.252468 0.0259,-0.127426 0.0852,-0.230473 0.13175,-0.229069 0.13928,0.0042 0.66042,0.980838 0.80811,1.514354 0.0757,0.27339 0.15296,0.500778 0.17173,0.505326 0.0187,0.0046 0.19412,-0.232409 0.38964,-0.526559 0.22863,-0.343934 0.39465,-0.52432 0.46521,-0.505403 0.13706,0.03671 0.32252,0.660178 0.34917,1.173858 0.0105,0.203135 0.0405,0.375044 0.0665,0.382018 0.0261,0.007 0.1363,-0.104097 0.24512,-0.246831 0.10881,-0.142726 0.23128,-0.278826 0.27216,-0.302425 0.10673,-0.06162 0.29497,0.299513 0.40738,0.781591 0.0533,0.228464 0.10821,0.435884 0.12213,0.460939 0.0571,0.103094 0.91882,-0.07196 1.48329,-0.301279 0.89895,-0.365178 1.93082,-1.223298 2.77384,-2.306729 0.1807,-0.232272 0.34671,-0.390871 0.36889,-0.352454 0.0221,0.03837 0.0489,0.235941 0.0595,0.438955 0.0105,0.203032 0.0488,0.352006 0.085,0.331089 0.0362,-0.02092 0.24886,-0.234091 0.47248,-0.473718 0.54655,-0.585692 1.33763,-1.842499 1.6209,-2.575189 0.12696,-0.328387 0.24743,-0.606637 0.2677,-0.618339 0.0846,-0.04885 0.0809,0.949524 -0.005,1.350397 l -0.0931,0.434318 0.49101,-0.283486 0.49101,-0.283486 -0.11397,0.459911 -0.11397,0.459912 0.22152,-0.198328 c 0.20618,-0.184624 0.90637,-0.944703 1.14295,-1.240662 0.0941,-0.117715 0.10509,-0.108713 0.11508,0.09405 0.006,0.123298 -0.042,0.438425 -0.10687,0.700284 l -0.11796,0.476058 0.63818,-0.368453 c 0.623439,-0.359938 0.637309,-0.363328 0.593149,-0.159225 -0.0247,0.115094 -0.1172,0.303294 -0.20541,0.418262 -0.19641,0.255956 -0.15633,0.345471 0.1418,0.316737 0.31448,-0.03032 0.33537,0.05881 0.0925,0.39461 l -0.20876,0.288596 0.39223,-0.01239 c 0.21572,-0.0068 0.50968,0.004 0.65324,0.02399 l 0.26101,0.03637 -0.64894,0.376979 z m -15.58376,8.538608 c -0.19197,-0.05146 -0.47612,0.131508 -0.45094,0.29037 0.0288,0.182028 0.28839,0.264296 0.48169,0.152695 0.25728,-0.148543 0.24191,-0.370009 -0.0308,-0.44306 z"
         id="path2152-6-5-02" />
    </g>
    <path
       style="display:inline;fill:#000000;stroke-width:0.0831423"
       d="m 97.488165,-23.782203 0.650947,0.373514 -0.16358,-0.67725 c -0.180947,-0.749212 -0.165277,-0.901893 0.0637,-0.620933 0.0837,0.10257 0.337,0.374682 0.563027,0.604599 l 0.410957,0.418034 -0.172317,-0.574636 -0.17232,-0.574628 0.682807,0.457386 c 0.779594,0.522156 0.722984,0.564573 0.624057,-0.467286 -0.0294,-0.306755 -0.0367,-0.562212 -0.0163,-0.567692 0.0206,-0.0056 0.179077,0.206738 0.352497,0.471534 0.35075,0.535686 1.29253,1.625354 1.88056,2.175871 l 0.38331,0.358867 -0.14158,-0.486569 c -0.11467,-0.394095 -0.11384,-0.534606 0.004,-0.739317 l 0.14592,-0.252741 0.55179,0.831818 c 0.74189,1.11839 1.52961,1.888245 2.56236,2.504233 0.60623,0.36167 0.87934,0.483324 1.19681,0.532927 0.56559,0.08855 0.70828,0.02518 0.62693,-0.278431 -0.0786,-0.293243 -0.0321,-0.614067 0.12958,-0.89407 0.14269,-0.247138 0.1217,-0.251681 0.37555,0.08127 0.25337,0.332328 0.38993,0.255496 0.3898,-0.219288 -8e-5,-0.339633 0.26867,-1.250924 0.37754,-1.280099 0.0344,-0.0092 0.24256,0.265567 0.46252,0.61066 0.5526,0.86695 0.62988,0.893694 0.63647,0.220269 0.004,-0.457915 0.0535,-0.635368 0.32034,-1.159113 0.17329,-0.340137 0.33798,-0.605192 0.36601,-0.589007 0.028,0.01617 0.12306,0.220639 0.21124,0.454383 0.17132,0.454195 0.55225,1.036898 0.7576,1.158917 0.15883,0.09401 0.14836,0.12261 0.20813,-0.571386 0.0668,-0.775888 0.32884,-1.558394 0.78863,-2.355181 0.31695,-0.549317 0.62403,-0.906603 0.6326,-0.736026 10e-4,0.02567 -0.0126,0.296504 -0.0308,0.601975 -0.0328,0.550584 0.22022,1.908605 0.34937,1.875031 0.0369,-0.0096 0.1086,-0.229892 0.15907,-0.4896 0.1353,-0.695173 0.36613,-1.202259 0.75747,-1.664057 0.38813,-0.458042 1.07388,-0.944809 1.17321,-0.832799 0.0357,0.04034 0.0142,0.430357 -0.0478,0.866861 -0.062,0.436497 -0.10519,1.078764 -0.096,1.427264 l 0.0166,0.633625 0.32525,-0.436237 c 0.89766,-1.203916 1.43608,-1.667285 2.22247,-1.912687 0.56187,-0.17534 1.25196,-0.174491 1.39467,0.0017 0.0675,0.08331 0.0593,0.15177 -0.0258,0.217081 -0.15132,0.116094 -1.02498,1.447506 -0.97048,1.478974 0.0213,0.01232 0.20214,-0.07052 0.40181,-0.184068 0.64078,-0.364433 1.55037,-0.467149 2.44423,-0.276011 0.35455,0.0758 1.12228,0.359275 1.09606,0.404698 -0.01,0.01654 -0.15437,0.08847 -0.32183,0.159872 -0.47429,0.202197 -1.33825,0.800942 -1.90495,1.320164 -0.58247,0.533665 -0.94788,0.938521 -0.88161,0.976779 0.0245,0.01417 0.36455,-0.06133 0.75557,-0.16777 0.79165,-0.215483 1.67673,-0.213139 2.61131,0.0069 0.71066,0.167355 1.6272,0.546442 1.78244,0.737254 l 0.11231,0.138052 -0.17406,-0.0311 c -0.69491,-0.123974 -1.58453,-0.104077 -2.35906,0.05274 -1.63839,0.331725 -2.40785,0.711981 -3.82933,1.892406 -1.00161,0.831752 -0.97427,0.79892 -0.7018,0.842969 0.4794,0.0775 0.468,0.168703 -0.0375,0.300684 -0.34683,0.09055 -0.80192,0.332971 -1.49191,0.794716 -0.99498,0.665834 -1.55728,0.962557 -1.6847,0.888992 -0.0375,-0.02164 -0.12955,-0.229479 -0.20463,-0.461853 -0.10107,-0.312872 -0.18259,-0.432633 -0.31404,-0.461523 -0.22512,-0.04949 -1.13344,0.396112 -1.16092,0.56949 -0.0114,0.07162 0.098,0.246548 0.24308,0.388718 1.05768,1.036677 1.10303,1.166113 0.93314,2.663419 -0.12246,1.079289 -0.22645,1.376493 -0.54944,1.570314 -0.18196,0.109204 -0.18595,0.09953 -0.14682,-0.356491 0.0339,-0.394862 -0.0839,-0.908938 -0.22712,-0.991643 -0.0213,-0.01229 -0.0395,0.160817 -0.0404,0.384674 -0.002,0.385883 -0.0928,0.690438 -0.18998,0.634351 -0.0245,-0.01413 -0.0991,-0.186818 -0.16581,-0.383736 -0.10994,-0.324533 -0.16825,-0.38516 -0.62282,-0.647603 -0.34736,-0.200549 -0.52088,-0.263785 -0.56444,-0.205886 -0.0347,0.04604 -0.0867,0.116516 -0.11604,0.156499 -0.0291,0.0401 -0.20217,0.126919 -0.38447,0.193 -0.25824,0.09359 -0.33267,0.158418 -0.33702,0.293489 -0.008,0.243939 0.27905,1.026662 0.40244,1.097903 0.0565,0.0326 0.28155,0.03292 0.50013,7.36e-4 0.2186,-0.0322 0.43211,-0.03854 0.47447,-0.01408 0.13868,0.08007 0.30149,1.328977 0.26178,2.0081774 -0.0214,0.365559 -0.0252,0.953364 -0.008,1.30624 0.0472,0.994361 0.0574,0.933411 -0.12675,0.755033 -0.11916,-0.115448 -0.179,-0.130482 -0.2222,-0.05566 -0.10925,0.189236 -0.4021,1.88371 -0.45435,2.628926 -0.0982,1.4012401 0.39024,3.2126302 1.18969,4.41164009 l 0.43734,0.65590697 -0.2915,-0.137816 c -0.39123,-0.18499997 -1.2431,-0.94550294 -1.68736,-1.50635386 -0.50933,-0.6430101 -0.84225,-1.3107871 -1.01172,-2.0293531 -0.0803,-0.3403971 -0.17865,-0.6101441 -0.21857,-0.5994511 -0.10997,0.02946 -0.47375,1.3797521 -0.56871,2.1110402 -0.0462,0.3556359 -0.0705,0.9134059 -0.0542,1.23948192 l 0.0298,0.59286597 -0.20722,-0.174256 c -1.06536,-0.89610989 -1.6437,-1.92621289 -1.63905,-2.91940099 l 0.002,-0.4741151 -0.19526,0.2276241 c -0.10739,0.125164 -0.31895,0.527277 -0.47002,0.8935911 -0.15113,0.366288 -0.30387,0.67377 -0.33943,0.68332 -0.13674,0.03669 -0.63758,-0.8492691 -0.71503,-1.2646441 -0.15276,-0.8192161 0.0449,-1.8354971 0.51671,-2.6571911 0.41724,-0.726677 0.35661,-0.79549 -0.35119,-0.398502 -0.33596,0.188433 -0.86912,0.544671 -1.18475,0.791629 -0.31564,0.246959 -0.61365,0.42607 -0.66224,0.398015 -0.13401,-0.07737 -0.067,-0.832387 0.12067,-1.35924 0.19218,-0.539534 0.52708,-1.004289 1.07396,-1.490407 0.21127,-0.187793 0.37724,-0.367147 0.36882,-0.398578 -0.017,-0.06353 -0.92099,0.01118 -1.40498,0.11613 -0.17137,0.03717 -0.4789,0.162155 -0.6834,0.277775 l -0.37181,0.210217 0.0595,-0.246546 c 0.0821,-0.340332 0.90483,-1.583815 1.4106,-2.1319924 0.22999,-0.24925 0.6177,-0.610885 0.86159,-0.803618 0.28033,-0.221527 0.43281,-0.390145 0.41452,-0.458406 -0.0318,-0.118723 -1.04766,-0.09716 -1.4287,0.03036 -0.12331,0.04127 -0.2422,0.04144 -0.26426,4.27e-4 -0.066,-0.122729 0.51922,-1.062359 0.90742,-1.457014 0.19893,-0.202231 0.3572,-0.382863 0.35176,-0.401386 -0.005,-0.01848 -0.29833,-0.05191 -0.65084,-0.07416 -0.41217,-0.02603 -0.6514,-0.07962 -0.67029,-0.150177 -0.0367,-0.137052 0.41047,-0.609399 0.842,-0.889327 0.17065,-0.110695 0.30458,-0.222548 0.29762,-0.248553 -0.007,-0.02609 -0.15831,-0.06599 -0.33633,-0.08887 -0.17801,-0.02287 -0.35711,-0.06088 -0.39798,-0.08448 -0.10673,-0.06162 0.1119,-0.405207 0.47318,-0.743601 0.17122,-0.160364 0.32338,-0.311652 0.33812,-0.336237 0.0607,-0.100994 -0.52173,-0.759741 -1.00255,-1.133937 -0.76573,-0.595922 -2.02482,-1.060485 -3.38461,-1.248836 -0.29151,-0.04036 -0.51186,-0.104823 -0.48968,-0.14324 0.0221,-0.03837 0.17986,-0.160351 0.35041,-0.270978 0.17057,-0.110642 0.28045,-0.21828 0.24422,-0.239197 -0.0362,-0.02092 -0.32716,-0.09847 -0.6465,-0.172315 -0.780484,-0.180478 -2.264448,-0.237165 -3.040602,-0.116144 -0.347877,0.05424 -0.649077,0.08904 -0.669347,0.07734 -0.0846,-0.04885 0.781857,-0.54482 1.171984,-0.670854 l 0.422667,-0.13655 -0.491017,-0.283486 -0.491007,-0.283486 0.455277,-0.131255 0.455287,-0.131262 -0.282517,-0.09267 c -0.26297,-0.08624 -1.271314,-0.312583 -1.645911,-0.369484 -0.14899,-0.02263 -0.1467,-0.03666 0.0239,-0.146689 0.10375,-0.0669 0.400697,-0.182835 0.659897,-0.257601 l 0.471257,-0.135875 -0.638177,-0.368453 c -0.623427,-0.359938 -0.633307,-0.370256 -0.434467,-0.434067 0.11205,-0.03611 0.321257,-0.05015 0.464927,-0.03123 0.319867,0.04211 0.377347,-0.03736 0.20341,-0.281176 -0.1835,-0.257196 -0.11676,-0.319848 0.295497,-0.277391 l 0.354307,0.0365 -0.206837,-0.33349 c -0.11375,-0.183411 -0.25139,-0.443389 -0.30584,-0.577712 l -0.099,-0.244225 0.650947,0.373514 z m 15.186515,9.226631 c 0.0514,0.19198 0.35195,0.346577 0.47694,0.245336 0.14322,-0.115988 0.0847,-0.381897 -0.1086,-0.493498 -0.25729,-0.148543 -0.4414,-0.0245 -0.36833,0.248167 z"
       id="path2152-6-5-3" />
  </g>
  <text
     xml:space="preserve"
     style="font-size:14.1111px;line-height:1.25;font-family:'Blood Crow';-inkscape-font-specification:'Blood Crow';stroke-width:0.264583"
     x="3.0439925"
     y="12.534268"
     id="text9052"><tspan
       id="tspan9050"
       style="font-style:normal;font-variant:normal;font-weight:normal;font-stretch:normal;font-size:14.1111px;font-family:'Bleeding Cowboys';-inkscape-font-specification:'Bleeding Cowboys';stroke-width:0.264583"
       x="3.0439925"
       y="12.534268">13</tspan></text>
  <text
     xml:space="preserve"
     style="font-size:14.1111px;line-height:1.25;font-family:'Blood Crow';-inkscape-font-specification:'Blood Crow';stroke-width:0.264583"
     x="-60.405441"
     y="-75.571785"
     id="text9052-3"
     transform="scale(-1)"><tspan
       id="tspan9050-0"
       style="font-style:normal;font-variant:normal;font-weight:normal;font-stretch:normal;font-size:14.1111px;font-family:'Bleeding Cowboys';-inkscape-font-specification:'Bleeding Cowboys';stroke-width:0.264583"
       x="-60.405441"
       y="-75.571785">13</tspan></text>
</svg>
