<?xml version="1.0" encoding="UTF-8" standalone="no"?>
<!-- Created with Inkscape (http://www.inkscape.org/) -->

<svg
   width="63mm"
   height="89mm"
   viewBox="0 0 63 89"
   version="1.1"
   id="svg5"
   xmlns:xlink="http://www.w3.org/1999/xlink"
   xmlns="http://www.w3.org/2000/svg"
   xmlns:svg="http://www.w3.org/2000/svg">
  <defs
     id="defs2">
    <linearGradient
       id="linearGradient66035">
      <stop
         style="stop-color:#ffeeaa;stop-opacity:1;"
         offset="0"
         id="stop66031" />
      <stop
         style="stop-color:#ffeeaa;stop-opacity:0;"
         offset="1"
         id="stop66033" />
    </linearGradient>
    <linearGradient
       xlink:href="#linearGradient66035"
       id="linearGradient66037"
       x1="-609.21545"
       y1="124.85085"
       x2="-533.06219"
       y2="235.37372"
       gradientUnits="userSpaceOnUse"
       gradientTransform="translate(609.74701,-124.322)" />
  </defs>
  <g
     id="layer1"
     style="display:inline">
    <rect
       style="display:inline;fill:url(#linearGradient66037);fill-opacity:1;stroke:#000000;stroke-width:0.659785;stroke-miterlimit:4;stroke-dasharray:none;stroke-opacity:1"
       id="rect870-4"
       width="62.340214"
       height="88.340218"
       x="0.53155589"
       y="0.52885294"
       rx="3.7119057"
       ry="3.3358381" />
  </g>
  <g
     id="layer2"
     style="display:inline">
    <path
       style="display:inline;fill:#000000;stroke-width:0.0812597"
       d="m 30.029088,44.696927 c -1.03745,-0.34687 -2.52987,-1.30916 -3.40652,-2.19649 -0.58035,-0.58743 -0.66462,-0.72188 -1.459,-2.32859 -0.76437,-1.54603 -1.63524,-3.45805 -1.63524,-3.5903 0,-0.0288 0.10768,0.10934 0.2391,0.30695 0.13144,0.1976 0.4308,0.54212 0.66504,0.76558 0.2343,0.22347 0.36566,0.31488 0.29194,0.20316 -1.03974,-1.57617 -1.47788,-2.79571 -1.64943,-4.59117 -0.0342,-0.35755 -0.0776,-0.57695 -0.0966,-0.48756 -0.0196,0.0894 -0.0708,0.19908 -0.1151,0.24378 -0.11422,0.11551 -0.0275,-5.07156 0.0946,-5.64755 0.16741,-0.79029 0.50487,-1.89249 0.77743,-2.53923 1.17633,-2.791224 4.08498,-4.798908 7.22822,-4.989242 2.7357,-0.165664 5.5663,1.29162 7.16563,3.689092 0.6544,0.98096 1.16122,2.28683 1.49009,3.83938 0.12207,0.57599 0.20882,5.76305 0.0946,5.64755 -0.0443,-0.0447 -0.0953,-0.1544 -0.11357,-0.24378 -0.0174,-0.0894 -0.0595,0.0934 -0.0915,0.40629 -0.15062,1.46703 -0.44958,2.58776 -0.9256,3.47028 -0.20578,0.38135 -0.20687,0.38207 -0.43703,0.26307 -0.14408,-0.0745 -0.25589,-0.2163 -0.29759,-0.37719 l -0.0667,-0.25785 -0.17722,0.41184 -0.17721,0.41185 -0.52886,0.0998 c -0.49831,0.094 -0.54537,0.12275 -0.81431,0.49711 -0.15694,0.21852 -0.34951,0.39848 -0.42778,0.3999 -0.0782,0.001 -0.21275,0.0559 -0.29898,0.12109 -0.14976,0.11337 -0.14518,0.12246 0.10593,0.21005 0.2407,0.0839 0.25796,0.11278 0.2073,0.34615 -0.0305,0.14003 -0.1055,0.32675 -0.16697,0.41491 -0.0613,0.0881 -0.11161,0.1887 -0.11161,0.22346 0,0.11799 0.43339,0.0639 0.58467,-0.073 0.19923,-0.18036 0.30731,-0.0674 0.39755,0.41562 0.0586,0.31334 0.0408,0.43514 -0.10856,0.74246 -0.15607,0.32134 -0.26584,0.41372 -0.87148,0.73367 -0.5645,0.29822 -0.74132,0.43961 -0.95444,0.7632 -0.15956,0.24214 -0.46081,0.53079 -0.77198,0.73951 -0.28071,0.18829 -0.52145,0.3508 -0.53496,0.36113 -0.0131,0.0102 0.046,0.29424 0.1321,0.63089 l 0.15672,0.61209 -0.49786,0.22542 c -0.43943,0.19895 -0.61239,0.22839 -1.47299,0.25079 -0.78013,0.0203 -1.06448,-0.005 -1.42206,-0.12405 z m 1.14819,-2.65713 c 0.35898,-0.14064 0.38982,-0.1409 0.67455,-0.006 0.53867,0.25563 0.81879,0.25871 1.06577,0.0118 0.19247,-0.19241 0.21427,-0.26666 0.18092,-0.61399 l -0.0379,-0.39511 0.39415,-0.0945 c 0.51532,-0.12361 0.55617,-0.21292 0.12991,-0.28391 -0.48262,-0.0804 -0.88395,-0.30122 -1.19866,-0.65963 l -0.26873,-0.30608 -0.30814,0.34722 -0.30809,0.34722 -0.29845,-0.33034 c -0.16414,-0.18169 -0.32459,-0.33034 -0.35653,-0.33034 -0.032,0 -0.10637,0.0902 -0.16544,0.2005 -0.15629,0.29201 -0.66918,0.60143 -1.19484,0.72081 -0.45498,0.10334 -0.45679,0.10491 -0.22177,0.19428 0.13035,0.0495 0.33781,0.11213 0.46107,0.13905 0.20883,0.0456 0.22079,0.0701 0.17439,0.36002 -0.0519,0.3246 0.10855,0.76546 0.31075,0.85337 0.16087,0.07 0.55486,0.007 0.96704,-0.15444 z m -0.17308,-3.97551 c 0,-0.0983 -0.74399,-0.5321 -0.91257,-0.5321 -0.22626,0 -0.38759,0.13888 -0.38759,0.33369 0,0.11989 0.0371,0.1273 0.27369,0.0547 0.21014,-0.0645 0.35634,-0.0548 0.62979,0.0418 0.19575,0.0692 0.36518,0.12869 0.37639,0.13222 0.0109,0.003 0.0196,-0.01 0.0196,-0.0303 z m 2.16004,-0.14498 c 0.282,0.0865 0.28688,0.0841 0.26223,-0.12915 -0.044,-0.38009 -0.6433,-0.31549 -1.04556,0.11269 l -0.18332,0.19507 0.33961,-0.1334 c 0.27173,-0.10675 0.39709,-0.11577 0.62697,-0.0452 z m 4.09695,-2.97456 v -0.79973 l -0.31926,-0.0956 c -0.2573,-0.0771 -0.3373,-0.15039 -0.41237,-0.37788 -0.0909,-0.27566 -0.0839,-0.29123 0.30164,-0.66887 0.4163,-0.40771 0.67493,-0.85882 0.69958,-1.22025 0.0196,-0.27596 -0.16326,-0.32194 -1.32736,-0.33504 l -0.85463,-0.01 -0.54596,-1.09546 -0.54595,-1.09546 0.20926,-0.56459 c 0.13036,-0.3518 0.18354,-0.60796 0.14104,-0.67969 -0.0375,-0.0633 -0.34247,-0.44748 -0.67766,-0.85369 l -0.60945,-0.73857 -0.72548,-0.24819 c -0.39901,-0.13649 -0.73836,-0.23531 -0.75407,-0.21959 -0.0153,0.0157 0.21296,0.18598 0.50824,0.37837 0.63035,0.41068 1.85574,1.75332 1.7771,1.94713 -0.0275,0.0674 -0.12709,0.33419 -0.22165,0.59291 l -0.17198,0.47041 0.54551,1.09461 c 0.30005,0.60204 0.54554,1.12639 0.54554,1.16524 0,0.0388 -0.11858,0.11976 -0.26349,0.17977 -0.53087,0.21989 -1.03429,0.79835 -1.20116,1.38015 -0.0576,0.20089 -0.0344,0.23238 0.27361,0.37042 0.2689,0.12052 0.52756,0.14978 1.28634,0.14539 l 0.94978,-0.005 0.13537,0.30007 c 0.12207,0.27049 0.17656,0.30707 0.55417,0.37114 l 0.41882,0.0711 0.0743,0.6704 c 0.041,0.36871 0.10485,0.67039 0.14213,0.67039 0.0373,0 0.0678,-0.35988 0.0678,-0.79973 z m -8.27882,-1.4315 c 0.28244,-0.13949 0.29081,-0.15581 0.21166,-0.41349 -0.15803,-0.51487 -0.63549,-1.03276 -1.23267,-1.337 -0.55807,-0.28431 -0.55866,-0.28441 -1.67912,-0.28441 -1.28346,0 -1.36372,0.032 -1.20198,0.47928 0.26053,0.7205 1.02834,1.44032 1.75301,1.64348 0.5431,0.15226 1.76389,0.10234 2.14904,-0.0879 z"
       id="path2429-3-5-9" />
    <path
       style="display:inline;fill:#000000;stroke-width:0.0812597"
       d="m 31.504258,46.827907 c 0.21833,1.0719 0.13117,2.84551 -0.19896,4.04838 -0.21855,0.79631 -0.29285,0.93651 -1.28712,2.42782 -0.95671,1.43498 -2.17714,3.14519 -2.29167,3.21131 -0.0249,0.0144 0.0409,-0.14792 0.14628,-0.36054 0.10541,-0.21263 0.25409,-0.64414 0.33049,-0.95873 0.0764,-0.31465 0.0899,-0.47411 0.03,-0.35441 -0.84513,1.68853 -1.68221,2.67774 -3.15135,3.72404 -0.29255,0.20839 -0.46086,0.35567 -0.37394,0.32743 0.0872,-0.0277 0.20781,-0.0382 0.26867,-0.0222 0.15714,0.0412 -4.37835,2.5596 -4.93822,2.74185 -0.76812,0.25017 -1.89138,0.50902 -2.58776,0.59634 -3.00543,0.37688 -6.19847,-1.13824 -7.9349197,-3.7652 -1.5113101,-2.28635 -1.6645701,-5.46636 -0.3879701,-8.05016 0.5223401,-1.05721 1.3998498,-2.14906 2.5799598,-3.21014 0.43779,-0.39372 4.88654,-3.06237 4.84363,-2.90571 -0.0166,0.0607 -0.0861,0.15974 -0.15434,0.22025 -0.0687,0.0598 0.11064,0.005 0.39761,-0.1239 1.34579,-0.60308 2.46585,-0.90454 3.46815,-0.93355 0.43315,-0.0125 0.43432,-0.0119 0.44634,0.24694 0.008,0.16203 -0.0594,0.32976 -0.17786,0.44632 l -0.18996,0.18669 0.44528,-0.0524 0.44527,-0.0525 0.35086,0.4081 c 0.33057,0.38455 0.37899,0.41093 0.83767,0.45666 0.26771,0.0267 0.51985,0.10345 0.56021,0.17052 0.04,0.0672 0.15479,0.1563 0.25436,0.19838 0.17306,0.073 0.17864,0.0645 0.12894,-0.19676 -0.0477,-0.25041 -0.0313,-0.27979 0.19613,-0.35261 0.13652,-0.0436 0.33572,-0.072 0.44281,-0.0628 0.10694,0.009 0.21922,0.002 0.24932,-0.0151 0.10218,-0.059 -0.16135,-0.40728 -0.35555,-0.46984 -0.25581,-0.0824 -0.21203,-0.23244 0.16116,-0.5521 0.24206,-0.20742 0.35644,-0.2529 0.69727,-0.27722 0.35632,-0.0255 0.49121,0.0234 1.07112,0.38789 0.54051,0.33976 0.75137,0.4222 1.13817,0.44497 0.28948,0.0171 0.69008,0.13368 1.02642,0.2988 0.30342,0.14896 0.56453,0.27619 0.58023,0.28273 0.0154,0.006 0.23182,-0.18696 0.48032,-0.42985 l 0.45172,-0.44177 0.44415,0.31845 c 0.39201,0.28108 0.50399,0.41615 0.95369,1.15025 0.40764,0.66546 0.52791,0.92437 0.6036,1.29357 z m -2.87524,0.33421 c -0.30128,-0.24057 -0.31693,-0.26715 -0.34247,-0.58118 -0.048,-0.59432 -0.18534,-0.83845 -0.52266,-0.92889 -0.26287,-0.0705 -0.33807,-0.0522 -0.6222,0.15032 l -0.32322,0.23038 -0.27891,-0.2941 c -0.36471,-0.38447 -0.46248,-0.3752 -0.31083,0.0294 0.17168,0.45816 0.18111,0.91613 0.0281,1.36789 l -0.13071,0.38576 0.45477,0.0932 0.45475,0.0932 -0.13686,0.42364 c -0.0753,0.23299 -0.12379,0.44627 -0.10782,0.47393 0.016,0.0277 0.13131,0.047 0.25636,0.043 0.33104,-0.0107 0.85545,0.27881 1.22166,0.67436 0.31699,0.34235 0.31925,0.34313 0.27914,0.0949 -0.0223,-0.13763 -0.0718,-0.34861 -0.11012,-0.46882 -0.0649,-0.20365 -0.0497,-0.22626 0.2246,-0.33104 0.30706,-0.11735 0.60863,-0.47673 0.58366,-0.6958 -0.0198,-0.17432 -0.27137,-0.48402 -0.61727,-0.76026 z m -3.35635,2.13764 c -0.0851,0.0491 -0.0888,0.91037 -0.005,1.05636 0.11313,0.19595 0.31407,0.26622 0.48278,0.16882 0.10383,-0.0599 0.0917,-0.0958 -0.0895,-0.26437 -0.16093,-0.14974 -0.22563,-0.2812 -0.2787,-0.56632 -0.0379,-0.20412 -0.0711,-0.3806 -0.0737,-0.39207 -0.003,-0.0109 -0.0185,-0.012 -0.036,-0.002 z m -1.20558,-1.79816 c -0.0661,-0.28747 -0.0706,-0.29049 -0.24296,-0.16252 -0.30717,0.22815 0.0484,0.71486 0.62037,0.84914 l 0.2606,0.0612 -0.28533,-0.22741 c -0.22832,-0.18195 -0.29881,-0.286 -0.35263,-0.52037 z m -4.62452,-2.06078 -0.69258,0.39987 0.0768,0.32428 c 0.0619,0.26138 0.0384,0.36731 -0.12107,0.54607 -0.19328,0.21655 -0.21027,0.21827 -0.73008,0.0732 -0.56124,-0.15667 -1.08123,-0.15509 -1.40656,0.004 -0.24879,0.12101 -0.19718,0.30236 0.37353,1.31705 l 0.41865,0.74513 -0.67571,1.02055 -0.67572,1.02053 -0.59358,0.10107 c -0.36986,0.063 -0.61829,0.14503 -0.65916,0.21771 -0.0361,0.0641 -0.21629,0.52032 -0.40048,1.01371 l -0.3349,0.89709 0.1478,0.75237 c 0.0813,0.4138 0.1654,0.7571 0.18687,0.76284 0.0213,0.005 0.0546,-0.27742 0.0736,-0.62933 0.0405,-0.75124 0.59055,-2.48378 0.79771,-2.51258 0.0721,-0.01 0.35296,-0.057 0.6243,-0.1045 l 0.49338,-0.0863 0.6752,-1.01973 c 0.37136,-0.56087 0.70272,-1.03564 0.73636,-1.05507 0.0336,-0.0194 0.16301,0.0428 0.28743,0.13831 0.45587,0.3498 1.20854,0.49654 1.79583,0.35016 0.20277,-0.0506 0.21844,-0.0864 0.18399,-0.42217 -0.0301,-0.29313 -0.13407,-0.53177 -0.51726,-1.18669 l -0.47922,-0.82004 0.19218,-0.26727 c 0.17322,-0.24096 0.17765,-0.30644 0.0443,-0.66549 l -0.14783,-0.39826 0.54343,-0.39955 c 0.29881,-0.21986 0.52815,-0.42599 0.50951,-0.45828 -0.0186,-0.0323 -0.34557,0.12122 -0.72649,0.34115 z m 2.8997,7.88542 c -0.26202,-0.17486 -0.28034,-0.17395 -0.46392,0.0234 -0.36688,0.39429 -0.57666,1.06673 -0.54154,1.73602 0.0328,0.62546 0.033,0.62602 0.59325,1.59637 0.64173,1.11151 0.70957,1.16501 1.01606,0.8013 0.4937,-0.58587 0.73318,-1.61073 0.54679,-2.33989 -0.13969,-0.54646 -0.79332,-1.57874 -1.15065,-1.81717 z"
       id="path2429-3-5-9-2" />
    <path
       style="display:inline;fill:#000000;stroke-width:0.0812597"
       d="m 32.892598,44.344837 c 0.81913,-0.72502 2.3987,-1.53635 3.60548,-1.85188 0.7989,-0.20889 0.95748,-0.21464 2.74612,-0.0992 1.72108,0.11105 3.81238,0.31287 3.92691,0.37899 0.0249,0.0144 -0.14853,0.0386 -0.38538,0.0536 -0.23684,0.015 -0.68489,0.10203 -0.99553,0.19315 -0.31068,0.0912 -0.45552,0.15924 -0.32191,0.15125 1.88487,-0.11235 3.1601,0.11798 4.80078,0.86714 0.32675,0.14916 0.53846,0.22127 0.47054,0.16012 -0.0676,-0.0617 -0.13701,-0.16085 -0.15357,-0.22157 -0.0429,-0.15667 4.40585,2.51197 4.84363,2.9057 0.6007,0.54013 1.3865,1.38348 1.81032,1.94289 1.82911,2.41435 2.11349,5.93715 0.70671,8.75445 -1.22439,2.45201 -3.90173,4.17475 -6.77767,4.36107 -1.17674,0.0762 -2.56107,-0.13777 -4.07005,-0.62924 -0.55986,-0.18228 -5.09536,-2.70068 -4.93822,-2.74185 0.0609,-0.016 0.18136,-0.005 0.2679,0.0235 0.0861,0.0296 -0.0511,-0.0982 -0.3061,-0.28239 -1.19518,-0.86395 -2.01628,-1.68323 -2.54255,-2.53673 -0.22737,-0.36889 -0.22745,-0.37019 -0.009,-0.51002 0.13656,-0.0875 0.31527,-0.11345 0.47546,-0.0691 l 0.25665,0.0712 -0.26805,-0.3594 -0.26807,-0.35939 0.178,-0.50791 c 0.16775,-0.47855 0.16638,-0.53368 -0.0233,-0.95376 -0.11078,-0.24518 -0.17034,-0.50193 -0.13244,-0.57042 0.0382,-0.0682 0.058,-0.2122 0.0446,-0.31947 -0.0233,-0.18638 -0.0335,-0.18696 -0.23487,-0.0133 -0.19301,0.1665 -0.22665,0.16701 -0.40342,0.006 -0.10602,-0.0964 -0.23023,-0.25474 -0.27584,-0.35205 -0.0456,-0.0971 -0.10762,-0.19101 -0.13772,-0.20839 -0.10218,-0.059 -0.27203,0.34338 -0.22911,0.54284 0.0566,0.26272 -0.0953,0.29984 -0.55872,0.13648 -0.30066,-0.10592 -0.39724,-0.18224 -0.58871,-0.46525 -0.20025,-0.29583 -0.22537,-0.43708 -0.19963,-1.12156 0.024,-0.63798 -0.0101,-0.8618 -0.18373,-1.20817 -0.12992,-0.25925 -0.22928,-0.66446 -0.25445,-1.03831 -0.0227,-0.33724 -0.0431,-0.62698 -0.0453,-0.64385 -0.002,-0.0164 -0.27781,-0.10728 -0.61241,-0.20104 l -0.60845,-0.17032 0.0537,-0.54387 c 0.0474,-0.48004 0.10841,-0.64454 0.51931,-1.40104 0.37248,-0.68577 0.53657,-0.91937 0.81846,-1.16952 z m 1.72705,2.32293 c -0.0577,0.38121 -0.0729,0.40805 -0.33208,0.58718 -0.49071,0.33869 -0.63344,0.57974 -0.5431,0.91708 0.0704,0.26289 0.1238,0.3189 0.44127,0.46368 l 0.36112,0.16473 -0.11523,0.3886 c -0.15061,0.50808 -0.0937,0.58811 0.18092,0.25446 0.31094,-0.37777 0.70284,-0.61492 1.17058,-0.70826 l 0.39944,-0.0797 -0.14663,-0.44046 -0.14666,-0.44043 0.43531,-0.0933 c 0.23942,-0.0513 0.44838,-0.11594 0.46435,-0.1436 0.016,-0.0277 -0.0249,-0.13722 -0.0909,-0.24352 -0.17474,-0.28136 -0.18626,-0.88024 -0.0268,-1.39517 0.138,-0.44569 0.13754,-0.44805 -0.0574,-0.2892 -0.10804,0.0881 -0.26601,0.23649 -0.35095,0.32978 -0.14391,0.15805 -0.1711,0.15616 -0.39898,-0.029 -0.25516,-0.20724 -0.71719,-0.28872 -0.89442,-0.15757 -0.14105,0.10432 -0.28349,0.47703 -0.34977,0.91471 z m 3.52943,1.83786 c 0.0851,0.0491 0.83281,-0.37826 0.9171,-0.52425 0.11313,-0.19595 0.0735,-0.40511 -0.0952,-0.50251 -0.10383,-0.0599 -0.12879,-0.0315 -0.18421,0.20967 -0.0492,0.21424 -0.13072,0.336 -0.3511,0.52451 -0.1578,0.13493 -0.29404,0.25191 -0.3027,0.25986 -0.008,0.008 -10e-4,0.022 0.0164,0.0321 z m -0.95446,1.94314 c -0.21591,0.20097 -0.21627,0.2064 -0.0193,0.29168 0.35117,0.15194 0.59487,-0.39937 0.42519,-0.96183 l -0.0773,-0.25629 -0.0543,0.36081 c -0.0434,0.2887 -0.0983,0.40177 -0.27434,0.56557 z m 0.52757,5.03535 0.69259,0.39986 0.24242,-0.22869 c 0.19542,-0.18427 0.29889,-0.21691 0.53344,-0.16818 0.28418,0.0591 0.29416,0.073 0.42844,0.59566 0.14493,0.56439 0.40629,1.01392 0.70697,1.21598 0.22919,0.15496 0.36044,0.0196 0.95384,-0.982 l 0.43597,-0.73514 1.22168,0.0749 1.22167,0.0749 0.38432,0.46352 c 0.23949,0.2888 0.43474,0.46293 0.51811,0.46199 0.0736,-8.2e-4 0.55876,-0.0728 1.07814,-0.16002 l 0.94435,-0.15852 0.57768,-0.50419 c 0.31771,-0.27731 0.57296,-0.52178 0.5672,-0.54325 -0.006,-0.0211 -0.26754,0.0914 -0.58179,0.25097 -0.67084,0.34056 -2.44629,0.73046 -2.57482,0.56545 -0.0446,-0.0575 -0.22587,-0.27716 -0.40265,-0.48841 l -0.3214,-0.38415 -1.22071,-0.0749 c -0.67141,-0.0412 -1.24825,-0.0907 -1.2819,-0.11017 -0.0336,-0.0194 -0.0444,-0.16257 -0.0239,-0.31807 0.075,-0.56969 -0.17425,-1.2949 -0.59466,-1.73031 -0.14518,-0.15033 -0.18405,-0.14598 -0.4576,0.0517 -0.23883,0.17262 -0.3935,0.38199 -0.76908,1.04131 l -0.47056,0.82504 -0.32756,-0.0328 c -0.29528,-0.0295 -0.35421,-6.3e-4 -0.5985,0.29436 l -0.27098,0.32716 -0.61774,-0.27086 c -0.33981,-0.14884 -0.633,-0.24439 -0.65164,-0.2121 -0.0187,0.0323 0.27777,0.23865 0.65869,0.45858 z m 5.37912,-6.45392 c -0.0204,0.31434 -0.0105,0.32975 0.25227,0.39005 0.5249,0.12057 1.21214,-0.034 1.77421,-0.39903 0.52525,-0.34115 0.52563,-0.34161 1.08586,-1.31195 0.64173,-1.11151 0.65415,-1.19702 0.18593,-1.28059 -0.75424,-0.13462 -1.76153,0.17041 -2.2998,0.69641 -0.40342,0.39421 -0.97058,1.47641 -0.9984,1.90508 z"
       id="path2429-3-5-9-7" />
  </g>
  <g
     id="layer3"
     style="display:inline">
    <text
       xml:space="preserve"
       style="font-size:14.1111px;line-height:1.25;font-family:'Blood Crow';-inkscape-font-specification:'Blood Crow';stroke-width:0.264583"
       x="4.6315317"
       y="12.534263"
       id="text9052-1"><tspan
         id="tspan9050-4"
         style="font-style:normal;font-variant:normal;font-weight:normal;font-stretch:normal;font-size:14.1111px;font-family:'Bleeding Cowboys';-inkscape-font-specification:'Bleeding Cowboys';stroke-width:0.264583"
         x="4.6315317"
         y="12.534263">13</tspan></text>
    <text
       xml:space="preserve"
       style="font-size:14.1111px;line-height:1.25;font-family:'Blood Crow';-inkscape-font-specification:'Blood Crow';stroke-width:0.264583"
       x="-58.817997"
       y="-75.571785"
       id="text9052-3-9"
       transform="scale(-1)"><tspan
         style="font-style:normal;font-variant:normal;font-weight:normal;font-stretch:normal;font-size:14.1111px;font-family:'Bleeding Cowboys';-inkscape-font-specification:'Bleeding Cowboys';stroke-width:0.264583"
         x="-58.817997"
         y="-75.571785"
         id="tspan38889">13</tspan></text>
  </g>
</svg>
