<?xml version="1.0" encoding="UTF-8" standalone="no"?>
<!-- Created with Inkscape (http://www.inkscape.org/) -->

<svg
   width="63mm"
   height="89mm"
   viewBox="0 0 63 89"
   version="1.1"
   id="svg5"
   sodipodi:docname="2-Livre.svg"
   inkscape:version="1.1.2 (1:1.1+202202050950+0a00cf5339)"
   xmlns:inkscape="http://www.inkscape.org/namespaces/inkscape"
   xmlns:sodipodi="http://sodipodi.sourceforge.net/DTD/sodipodi-0.dtd"
   xmlns:xlink="http://www.w3.org/1999/xlink"
   xmlns="http://www.w3.org/2000/svg"
   xmlns:svg="http://www.w3.org/2000/svg">
  <sodipodi:namedview
     id="namedview27"
     pagecolor="#ffffff"
     bordercolor="#666666"
     borderopacity="1.0"
     inkscape:pageshadow="2"
     inkscape:pageopacity="0.0"
     inkscape:pagecheckerboard="0"
     inkscape:document-units="mm"
     showgrid="false"
     inkscape:zoom="0.50241105"
     inkscape:cx="1023.0667"
     inkscape:cy="447.84047"
     inkscape:window-width="1920"
     inkscape:window-height="998"
     inkscape:window-x="0"
     inkscape:window-y="31"
     inkscape:window-maximized="1"
     inkscape:current-layer="svg5" />
  <defs
     id="defs2">
    <linearGradient
       id="linearGradient66035">
      <stop
         style="stop-color:#ffeeaa;stop-opacity:1;"
         offset="0"
         id="stop66031" />
      <stop
         style="stop-color:#ffeeaa;stop-opacity:0;"
         offset="1"
         id="stop66033" />
    </linearGradient>
    <linearGradient
       xlink:href="#linearGradient66035"
       id="linearGradient66037"
       x1="-609.21545"
       y1="124.85085"
       x2="-533.06219"
       y2="235.37372"
       gradientUnits="userSpaceOnUse"
       gradientTransform="translate(609.74701,-124.322)" />
    <linearGradient
       xlink:href="#linearGradient66035"
       id="linearGradient138031"
       gradientUnits="userSpaceOnUse"
       gradientTransform="translate(931.5841,56.83376)"
       x1="-609.21545"
       y1="124.85085"
       x2="-533.06219"
       y2="235.37372" />
  </defs>
  <rect
     style="display:inline;fill:url(#linearGradient66037);fill-opacity:1;stroke:#000000;stroke-width:0.659785;stroke-miterlimit:4;stroke-dasharray:none;stroke-opacity:1"
     id="rect870-4"
     width="62.340214"
     height="88.340218"
     x="0.53155589"
     y="0.52885294"
     rx="3.7119057"
     ry="3.3358381" />
  <g
     id="layer2"
     style="display:inline">
    <path
       style="fill:#000000;stroke-width:0.0442973"
       d="m 33.666315,31.246477 c -0.12378,-0.09906 -0.12429,-0.101427 -0.0388,-0.178821 0.0477,-0.04318 0.10412,-0.07528 0.12544,-0.07131 0.12658,0.02316 0.19279,-0.03312 0.34501,-0.293349 0.0933,-0.159466 0.16222,-0.294022 0.15317,-0.299004 -0.009,-0.0046 -0.0762,-0.04013 -0.14933,-0.07814 -0.0889,-0.04622 -0.13173,-0.101224 -0.12938,-0.166117 0.002,-0.05333 -0.006,-0.097 -0.0181,-0.097 -0.0119,0 -0.12885,0.08091 -0.25987,0.179864 -0.16422,0.123984 -0.24633,0.220318 -0.26427,0.310075 -0.0143,0.07159 -0.0419,0.13022 -0.0612,0.13022 -0.0193,0 -0.0696,0.01319 -0.11179,0.02943 -0.0678,0.02602 -0.0739,0.0055 -0.0531,-0.178987 0.0282,-0.250321 0.0853,-0.31943 0.54016,-0.654738 0.32031,-0.236094 0.55694,-0.327244 0.55694,-0.214524 0,0.02435 0.0153,0.04428 0.0341,0.04428 0.0747,0 0.47019,-0.365439 0.54043,-0.499451 0.0876,-0.16716 0.24933,-0.255099 0.72336,-0.393346 0.37573,-0.109583 0.48373,-0.09032 0.51066,0.09115 0.0133,0.08958 0.0309,0.09489 0.22096,0.06633 0.14303,-0.0214 0.24205,-0.06901 0.32211,-0.154714 0.12966,-0.138801 0.18175,-0.154835 0.682795,-0.210152 0.34898,-0.03856 0.55372,-0.0092 0.55372,0.08026 0,0.025 0.0615,0.04539 0.13667,0.04539 0.10167,0 0.17258,-0.04106 0.27686,-0.160213 0.0836,-0.09549 0.26992,-0.219738 0.46134,-0.307557 0.40943,-0.187853 0.41469,-0.246805 0.0554,-0.62099 -0.18633,-0.194044 -0.26579,-0.311367 -0.26579,-0.39246 0,-0.163728 -0.1373,-0.201775 -0.61616,-0.170758 -0.36087,0.02343 -0.40268,0.01817 -0.40268,-0.04982 0,-0.167465 0.0863,-0.247285 0.26734,-0.247285 0.16483,0 0.17564,-0.0083 0.17564,-0.130276 0,-0.07168 0.0203,-0.142795 0.045,-0.158101 0.072,-0.04447 0.004,-0.110302 -0.11408,-0.110302 -0.0686,0 -0.10813,-0.02537 -0.10813,-0.06938 0,-0.118301 0.0878,-0.240726 0.17278,-0.240726 0.1296,0 0.31449,0.171487 0.31449,0.291707 0,0.08875 0.0448,0.127868 0.25054,0.218889 0.22509,0.09954 0.25807,0.103982 0.32465,0.04373 0.13919,-0.125967 0.25,-0.07749 0.52872,0.231325 0.27987,0.310094 0.33385,0.472779 0.22461,0.676916 -0.0492,0.09189 -0.13569,0.732584 -0.14727,1.090881 -0.009,0.29156 -0.0904,0.382672 -0.51124,0.575129 -0.37635,0.172133 -0.50696,0.185289 -0.59476,0.05997 -0.0579,-0.08266 -0.0807,-0.08561 -0.29957,-0.03866 -0.14928,0.03201 -0.26574,0.08746 -0.31486,0.149926 -0.10185,0.129483 -0.2496,0.182567 -0.66972,0.240615 -0.467305,0.06458 -0.504595,0.06181 -0.612265,-0.04594 -0.12341,-0.123402 -0.32848,-0.09143 -0.5117,0.07971 -0.15742,0.147048 -0.96346,0.422656 -1.11797,0.382257 -0.14095,-0.0369 -0.27012,0.1002 -0.27012,0.286642 0,0.103973 -0.0731,0.281697 -0.22501,0.547175 -0.29105,0.508603 -0.42271,0.582713 -0.67564,0.38031 z m 1.05547,-1.53102 c -0.0137,-0.01365 -0.0889,0.04188 -0.16733,0.123273 l -0.14254,0.148054 0.16732,-0.123274 c 0.0921,-0.06781 0.15617,-0.134418 0.14255,-0.148053 z m 0.93607,-0.325123 c -0.0358,-0.09476 -0.034,-0.149096 0.006,-0.214552 0.0301,-0.04825 0.0482,-0.08764 0.0402,-0.08764 -0.0555,0 -0.50295,0.147842 -0.53255,0.175989 -0.0203,0.01928 -0.0105,0.07731 0.0218,0.128874 0.0471,0.07528 0.0477,0.111224 0.004,0.18181 -0.0303,0.04843 -0.055,0.09643 -0.055,0.106732 0,0.01033 0.12666,-0.02242 0.28148,-0.07279 l 0.28146,-0.09152 -0.0479,-0.126909 z m 1.820715,-0.135755 c 0.04,-0.03155 0.042,-0.06624 0.007,-0.131328 -0.026,-0.04862 -0.0371,-0.127877 -0.0245,-0.176035 0.017,-0.06476 0.006,-0.08091 -0.0439,-0.0619 -0.0368,0.01412 -0.13997,0.02593 -0.22933,0.02629 -0.22102,8.76e-4 -0.30899,0.05794 -0.23222,0.150406 0.0333,0.04022 0.046,0.115109 0.0301,0.178517 -0.0271,0.108042 -0.0248,0.108974 0.20547,0.08312 0.12809,-0.01439 0.25738,-0.04548 0.28733,-0.06901 z m -1.051135,-0.03589 c 0.0476,-0.03248 0.0162,-0.03681 -0.11073,-0.01559 -0.21976,0.03681 -0.25512,0.06246 -0.0849,0.06154 0.071,-3.79e-4 0.1591,-0.02103 0.19564,-0.04594 z m 1.792655,-0.269667 c 0.0525,-0.04862 -0.23559,0.0018 -0.33084,0.05748 -0.0413,0.02436 5e-4,0.02832 0.11074,0.0107 0.0975,-0.01568 0.1965,-0.04631 0.2201,-0.06818 z m 0.99807,-0.190252 c 0,-0.0098 0.0121,-0.04927 0.0269,-0.08783 0.0159,-0.04133 0.004,-0.07002 -0.0297,-0.07002 -0.0312,0 -0.0937,-0.03358 -0.13905,-0.07454 -0.0775,-0.07021 -0.0945,-0.06873 -0.28602,0.02436 l -0.2036,0.09892 0.0943,0.100338 c 0.0519,0.05517 0.0943,0.13428 0.0943,0.175759 0,0.06615 0.0273,0.06154 0.22149,-0.03681 0.12181,-0.06172 0.22148,-0.120229 0.22148,-0.130008 z m -0.0102,-1.30965 c 0.0305,-0.04871 0.0851,-0.08857 0.1214,-0.08857 0.0363,0 0.0661,-0.02408 0.0661,-0.05351 0,-0.05951 -0.30782,-0.389462 -0.36337,-0.389462 -0.0195,0 -0.0353,0.05877 -0.0353,0.130691 0,0.07842 -0.031,0.148082 -0.0775,0.174153 -0.0706,0.03958 -0.0659,0.05563 0.0526,0.179385 0.15367,0.160545 0.16414,0.162639 0.23614,0.04733 z m -0.58994,-0.57273 c -0.0232,-0.0226 -0.10188,-0.05342 -0.17498,-0.06836 l -0.13288,-0.02721 0.13288,0.06476 c 0.15715,0.07657 0.23597,0.09041 0.17498,0.03081 z m -5.512795,1.869335 c -1.3906,-0.155305 -1.39639,-0.155573 -1.69641,-0.07796 -0.41478,0.107322 -0.74701,0.07196 -1.15329,-0.122831 l -0.31755,-0.152242 -2.39206,-0.253024 c -1.31563,-0.13916 -2.42531,-0.266751 -2.46596,-0.283532 -0.0611,-0.02519 0.005,-0.141089 0.37653,-0.667654 0.41703,-0.58989 0.45145,-0.627051 0.4641,-0.501157 0.016,0.158626 -0.0691,0.337983 -0.31454,0.663022 -0.0972,0.128689 -0.16889,0.240163 -0.15938,0.2477 0.01,0.0074 1.05529,0.124455 2.32397,0.259805 l 2.30669,0.246095 0.2549,0.143856 c 0.32831,0.185288 0.7365,0.225512 1.1067,0.109066 0.24646,-0.0775 0.25892,-0.07685 2.04242,0.114297 0.98695,0.105754 1.79445,0.208094 1.79445,0.227422 0,0.01928 -0.0252,0.03515 -0.056,0.03515 -0.0308,0 -0.13041,0.03986 -0.22132,0.08857 -0.20765,0.11129 -0.21253,0.111096 -1.89322,-0.07657 z m 3.773255,-1.484874 c 0.31591,-0.834444 0.8101,-2.140109 1.09819,-2.901467 l 0.52381,-1.384295 h -0.15053 c -0.12101,0 -0.15054,-0.01734 -0.15054,-0.08857 0,-0.08072 0.0295,-0.08857 0.33224,-0.08857 0.18594,0 0.33222,0.01901 0.33222,0.04318 0,0.04585 -2.072175,5.636725 -2.092265,5.645074 -0.006,0.0028 -0.0954,0.06947 -0.19751,0.148423 -0.10212,0.07897 -0.20464,0.143515 -0.22783,0.143515 -0.0232,0 0.21631,-0.682737 0.532215,-1.517191 z m -1.314745,0.822433 c -0.17055,-0.05904 -0.48949,-0.156394 -0.70877,-0.216398 -1.23522,-0.338019 -2.51825,-0.320804 -3.14129,0.04216 l -0.181,0.105449 -0.66446,-0.07224 -0.66446,-0.07224 -0.2618,-0.25581 c -0.58726,-0.573818 -1.3559,-0.873764 -2.23909,-0.873764 -0.40717,0 -0.98321,0.09392 -1.34884,0.219913 -0.1439,0.04963 -0.26591,0.09014 -0.27114,0.09014 -0.006,0 0.009,-0.09468 0.0313,-0.21041 0.0224,-0.115727 0.0348,-0.348408 0.0275,-0.517072 l -0.0133,-0.306653 0.31008,-0.07943 c 1.01019,-0.258706 2.24981,-0.287592 2.92363,-0.06808 0.6229,0.202891 1.06029,0.559224 1.30453,1.062771 0.0731,0.150664 0.13337,0.250846 0.134,0.222624 0.002,-0.09554 0.38913,-0.451209 0.61621,-0.566281 0.73533,-0.372616 2.02096,-0.341009 3.50516,0.08617 0.29593,0.08515 0.55266,0.154871 0.57053,0.154871 0.0179,0 0.47944,-1.138264 1.02574,-2.529469 0.917095,-2.335454 0.995845,-2.517117 1.026735,-2.368463 0.0603,0.290286 0.22135,0.501259 0.51284,0.671841 0.0113,0.0065 -2.157275,5.566915 -2.177255,5.582433 -0.004,0.0028 -0.14632,-0.04299 -0.31687,-0.102018 z m -4.81719,-1.645945 c -0.22561,-0.381906 -0.78539,-0.78659 -1.33667,-0.966316 -0.65904,-0.214857 -1.98493,-0.191756 -2.90288,0.05056 -0.13287,0.03506 -0.24631,0.05904 -0.2521,0.05323 -0.006,-0.0055 0.31224,-0.504746 0.7067,-1.108816 l 0.71721,-1.098299 0.19934,0.02657 c 0.10964,0.01467 0.34885,0.0381 0.53157,0.05203 0.30366,0.02325 0.34599,0.01596 0.49232,-0.0846 0.2599,-0.178683 0.46101,-0.229387 0.57978,-0.146199 0.12603,0.08829 0.27479,0.08561 0.74409,-0.01319 0.60705,-0.127868 0.79755,-0.278145 0.86596,-0.683097 0.0361,-0.21363 -0.009,-0.251326 -0.30212,-0.252267 -0.1806,-5.72e-4 -0.21843,0.01485 -0.25992,0.105902 -0.0802,0.176007 -0.39252,0.179061 -0.39252,0.0037 0,-0.03072 0.0512,-0.08949 0.11372,-0.130433 0.086,-0.05637 0.12835,-0.06236 0.17385,-0.02454 0.0457,0.03792 0.11712,0.02602 0.29605,-0.04908 0.12974,-0.05443 0.24285,-0.104158 0.25135,-0.110413 0.008,-0.0065 -0.0413,-0.115699 -0.11072,-0.243216 -0.13559,-0.249121 -0.32202,-0.393863 -0.50765,-0.394131 -0.18882,-2.76e-4 -0.89174,0.516436 -0.98178,0.721689 -0.0415,0.09472 -0.0752,0.117452 -0.14291,0.09668 -0.23804,-0.07297 -0.41164,-0.107755 -0.54264,-0.108715 -0.0791,-5.81e-4 -0.14397,-0.01125 -0.14397,-0.02371 0,-0.01246 0.0913,-0.159964 0.20287,-0.327761 0.17383,-0.261419 0.23882,-0.321072 0.45405,-0.41677 0.49574,-0.220438 0.74886,-0.272637 1.31431,-0.271069 0.47319,9.23e-4 0.56806,0.01522 0.8638,0.126558 0.41652,0.156809 0.8556,0.41046 1.18511,0.684647 l 0.25456,0.211812 0.17719,-0.130607 c 0.2611,-0.192476 0.75177,-0.418846 1.03548,-0.477752 0.41692,-0.08654 1.01214,-0.02851 1.64319,0.160194 0.51604,0.154318 0.57874,0.163452 0.95239,0.13869 0.21999,-0.01458 0.443755,-0.03921 0.497255,-0.0548 0.0847,-0.02463 -0.0233,0.273154 -0.836595,2.30548 -0.75383,1.883801 -0.94766,2.329733 -1.00537,2.312952 -1.13626,-0.330409 -1.92183,-0.473398 -2.59644,-0.472632 -0.75578,8.67e-4 -1.27355,0.154106 -1.62959,0.4823 -0.10808,0.09962 -0.20493,0.181137 -0.21522,0.181137 -0.0103,0 -0.0522,-0.05665 -0.0931,-0.125838 z m -4.73458,-1.500833 c -0.19263,-0.110875 -0.20957,-0.113485 -0.28002,-0.04299 -0.0989,0.09889 -0.10043,0.09865 -0.48075,-0.07464 -0.36472,-0.16621 -0.47386,-0.283514 -0.47386,-0.509331 0,-0.12332 -0.0345,-0.181552 -0.18286,-0.308535 -0.12108,-0.103641 -0.22958,-0.157454 -0.32115,-0.15929 -0.12706,-0.0028 -0.15174,-0.0298 -0.30369,-0.334994 -0.19883,-0.399389 -0.21473,-0.604024 -0.0584,-0.750934 0.0597,-0.05609 0.17879,-0.243917 0.26473,-0.417471 0.086,-0.173563 0.17547,-0.345455 0.19896,-0.382008 0.0235,-0.03653 0.0542,-0.120902 0.0682,-0.187456 0.0386,-0.183573 0.22281,-0.255515 0.6544,-0.255515 0.39427,0 0.56577,0.06606 0.56577,0.217883 0,0.127545 0.43392,0.200613 0.62506,0.105265 0.13723,-0.06845 0.1638,-0.0655 0.63186,0.07048 0.52697,0.153101 0.60357,0.193564 0.60357,0.318831 0,0.09623 0.32673,0.20552 0.41312,0.138191 0.0286,-0.02233 0.0967,-0.05148 0.15138,-0.06486 0.14012,-0.03432 1.01789,0.07906 1.09265,0.141107 0.0942,0.07814 0.28006,0.01236 0.31077,-0.110044 0.0491,-0.195428 0.67025,-0.683992 0.86969,-0.683992 0.11581,0 0.35179,0.184366 0.35179,0.274842 0,0.0774 -0.17594,0.125358 -0.26226,0.07141 -0.0752,-0.04696 -0.12094,-0.03109 -0.3345,0.115994 -0.13606,0.09372 -0.25718,0.186211 -0.26914,0.205567 -0.012,0.01937 0.0285,0.08543 0.0899,0.146771 0.12079,0.120783 0.13932,0.203057 0.0629,0.279446 -0.032,0.03201 0.0554,0.02731 0.2547,-0.01375 0.20882,-0.04299 0.33099,-0.09428 0.39198,-0.164633 0.15656,-0.180657 0.31197,-0.06301 0.19802,0.14989 -0.0672,0.125552 -0.25204,0.206185 -0.70275,0.306588 -0.49225,0.109638 -0.46981,0.109712 -0.57361,-0.0018 -0.0817,-0.08774 -0.0951,-0.08875 -0.33914,-0.025 -0.13972,0.03644 -0.29656,0.104527 -0.34852,0.151191 -0.15237,0.136816 -0.24731,0.150304 -0.66944,0.0951 -0.46945,-0.06144 -0.617,-0.133754 -0.58749,-0.2881 0.0179,-0.09346 -0.004,-0.113143 -0.18385,-0.165988 -0.17052,-0.0501 -0.22381,-0.05019 -0.32374,-7.93e-4 -0.16309,0.08063 -0.20962,0.07648 -0.6491,-0.05831 -0.42203,-0.129455 -0.48572,-0.165711 -0.53947,-0.307067 -0.0526,-0.13821 -0.33041,-0.185473 -0.45058,-0.07667 -0.0682,0.06172 -0.17957,0.08395 -0.48122,0.09579 -0.48101,0.01891 -0.49913,0.04761 -0.29942,0.474357 0.0841,0.179772 0.14023,0.368059 0.13731,0.460814 -0.006,0.164983 0.12521,0.356176 0.24291,0.356176 0.10483,0 0.69109,0.270017 0.79705,0.36709 0.0548,0.05019 0.0997,0.127434 0.0997,0.17156 0,0.0536 0.0882,0.124732 0.2658,0.214405 0.14618,0.07381 0.26578,0.159152 0.26578,0.189689 0,0.06781 -0.2123,0.386667 -0.25631,0.384905 -0.0174,-7.01e-4 -0.12389,-0.05434 -0.23666,-0.119288 z m 0.27148,-0.166478 c 0,-0.03515 -0.36122,-0.208159 -0.385,-0.184375 -0.0121,0.01209 0.0546,0.06246 0.14826,0.111871 0.17295,0.09124 0.23674,0.110782 0.23674,0.07251 z m -0.65813,-0.451495 c 0.0313,-0.03764 -0.0156,-0.07842 -0.16725,-0.145452 -0.18158,-0.08036 -0.21568,-0.08414 -0.24732,-0.02759 -0.0202,0.03607 -0.0674,0.0963 -0.10498,0.133855 -0.0925,0.09255 -0.0479,0.147888 0.21964,0.272268 l 0.22713,0.105598 0.0147,-0.143192 c 0.008,-0.07879 0.0342,-0.166717 0.0581,-0.195474 z m -0.84814,-0.524111 c -0.0571,-0.0608 -0.12407,-0.11057 -0.14874,-0.11057 -0.0246,0 0.0122,0.0596 0.082,0.132425 0.0697,0.07279 0.13672,0.122591 0.14874,0.11057 0.012,-0.01199 -0.0249,-0.07159 -0.082,-0.132425 z m -0.28596,-0.492532 c 0.0843,0.03238 0.0816,-0.02242 -0.0106,-0.215899 -0.0538,-0.112821 -0.0949,-0.149613 -0.14396,-0.128911 -0.0377,0.01596 -0.12081,0.04142 -0.18452,0.05674 l -0.11583,0.02777 0.11102,0.256141 0.11101,0.256151 0.0841,-0.138376 c 0.053,-0.08727 0.108,-0.129224 0.14879,-0.113568 z m 4.14764,-0.412231 c -0.008,-0.05462 0.0176,-0.134879 0.0569,-0.178295 0.0669,-0.0739 0.0626,-0.08073 -0.0686,-0.106945 -0.077,-0.01541 -0.20728,-0.02795 -0.2895,-0.02795 -0.13602,0 -0.1495,0.01181 -0.1495,0.130691 0,0.07759 -0.031,0.148026 -0.0762,0.173341 -0.0781,0.04373 -0.0628,0.04862 0.34202,0.109564 0.16847,0.02537 0.20063,0.0083 0.18484,-0.100357 z m -0.89729,-0.286457 c -0.0308,-0.02925 -0.35069,-0.109703 -0.35069,-0.0882 0,0.03109 0.18974,0.09981 0.28424,0.10294 0.0467,0.0018 0.0766,-0.0046 0.0664,-0.01467 z m -0.85123,-0.148608 c -0.0143,-0.07362 0.002,-0.149908 0.0401,-0.192872 0.0573,-0.06384 0.0379,-0.07842 -0.19038,-0.143348 -0.13977,-0.03976 -0.26811,-0.05766 -0.28521,-0.03967 -0.0171,0.0179 -0.0377,0.100643 -0.0459,0.183794 -0.0142,0.145406 -0.006,0.154161 0.20668,0.229129 0.29592,0.10414 0.30185,0.103337 0.27466,-0.037 z m -2.46738,-0.05535 c 0,-0.02435 -0.009,-0.04428 -0.0196,-0.04428 -0.0108,0 -0.0318,0.01993 -0.0469,0.04428 -0.015,0.02436 -0.006,0.04428 0.0195,0.04428 0.0258,0 0.0469,-0.01993 0.0469,-0.04428 z m 0.76795,-0.343306 c -0.0171,-0.06698 -0.0287,-0.156707 -0.0257,-0.199339 0.005,-0.06384 -0.0323,-0.0775 -0.20797,-0.0775 -0.2732,0 -0.33785,0.06892 -0.24298,0.25915 0.064,0.12832 0.0872,0.139529 0.28869,0.139529 0.21701,0 0.2188,-9.23e-4 0.188,-0.121816 z m 0.76031,0.03321 c -0.0487,-0.02094 -0.13843,-0.03709 -0.19934,-0.03598 -0.10048,0.0018 -0.0984,0.0055 0.0221,0.03598 0.18446,0.04696 0.28642,0.04696 0.17719,0 z"
       id="path2769" />
    <path
       style="display:inline;fill:#000000;stroke-width:0.0442973"
       d="m 33.461485,70.016012 c -0.12378,-0.09906 -0.12429,-0.101427 -0.0388,-0.178821 0.0477,-0.04318 0.10412,-0.07528 0.12544,-0.07131 0.12658,0.02316 0.19279,-0.03312 0.34501,-0.293349 0.0933,-0.159466 0.16222,-0.294022 0.15317,-0.299004 -0.009,-0.0046 -0.0762,-0.04013 -0.14933,-0.07814 -0.0889,-0.04622 -0.13173,-0.101224 -0.12938,-0.166117 0.002,-0.05333 -0.006,-0.097 -0.0181,-0.097 -0.0119,0 -0.12885,0.08091 -0.25987,0.179864 -0.16422,0.123984 -0.24633,0.220318 -0.26427,0.310075 -0.0143,0.07159 -0.0419,0.13022 -0.0612,0.13022 -0.0193,0 -0.0696,0.01319 -0.11179,0.02943 -0.0678,0.02602 -0.0739,0.0055 -0.0531,-0.178987 0.0282,-0.250321 0.0853,-0.31943 0.54016,-0.654738 0.32031,-0.236094 0.55694,-0.327244 0.55694,-0.214524 0,0.02435 0.0153,0.04428 0.0341,0.04428 0.0747,0 0.47019,-0.365439 0.54043,-0.499451 0.0876,-0.16716 0.24933,-0.255099 0.72336,-0.393346 0.37573,-0.109583 0.48373,-0.09032 0.51066,0.09115 0.0133,0.08958 0.0309,0.09489 0.22096,0.06633 0.14303,-0.0214 0.24205,-0.06901 0.32211,-0.154714 0.12966,-0.138801 0.18175,-0.154835 0.682795,-0.210152 0.34898,-0.03856 0.55372,-0.0092 0.55372,0.08026 0,0.025 0.0615,0.04539 0.13667,0.04539 0.10167,0 0.17258,-0.04106 0.27686,-0.160213 0.0836,-0.09549 0.26992,-0.219738 0.46134,-0.307557 0.40943,-0.187853 0.41469,-0.246805 0.0554,-0.62099 -0.18633,-0.194044 -0.26579,-0.311367 -0.26579,-0.39246 0,-0.163728 -0.1373,-0.201775 -0.61616,-0.170758 -0.36087,0.02343 -0.40268,0.01817 -0.40268,-0.04982 0,-0.167465 0.0863,-0.247285 0.26734,-0.247285 0.16483,0 0.17564,-0.0083 0.17564,-0.130276 0,-0.07168 0.0203,-0.142795 0.045,-0.158101 0.072,-0.04447 0.004,-0.110302 -0.11408,-0.110302 -0.0686,0 -0.10813,-0.02537 -0.10813,-0.06938 0,-0.118301 0.0878,-0.240726 0.17278,-0.240726 0.1296,0 0.31449,0.171487 0.31449,0.291707 0,0.08875 0.0448,0.127868 0.25054,0.218889 0.22509,0.09954 0.25807,0.103982 0.32465,0.04373 0.13919,-0.125967 0.25,-0.07749 0.52872,0.231325 0.27987,0.310094 0.33385,0.472779 0.22461,0.676916 -0.0492,0.09189 -0.13569,0.732584 -0.14727,1.090881 -0.009,0.29156 -0.0904,0.382672 -0.51124,0.575129 -0.37635,0.172133 -0.50696,0.185289 -0.59476,0.05997 -0.0579,-0.08266 -0.0807,-0.08561 -0.29957,-0.03866 -0.14928,0.03201 -0.26574,0.08746 -0.31486,0.149926 -0.10185,0.129483 -0.2496,0.182567 -0.66972,0.240615 -0.467305,0.06458 -0.504595,0.06181 -0.612265,-0.04594 -0.12341,-0.123402 -0.32848,-0.09143 -0.5117,0.07971 -0.15742,0.147048 -0.96346,0.422656 -1.11797,0.382257 -0.14095,-0.0369 -0.27012,0.1002 -0.27012,0.286642 0,0.103973 -0.0731,0.281697 -0.22501,0.547175 -0.29105,0.508603 -0.42271,0.582713 -0.67564,0.38031 z m 1.05547,-1.53102 c -0.0137,-0.01365 -0.0889,0.04188 -0.16733,0.123273 l -0.14254,0.148054 0.16732,-0.123274 c 0.0921,-0.06781 0.15617,-0.134418 0.14255,-0.148053 z m 0.93607,-0.325123 c -0.0358,-0.09476 -0.034,-0.149096 0.006,-0.214552 0.0301,-0.04825 0.0482,-0.08764 0.0402,-0.08764 -0.0555,0 -0.50295,0.147842 -0.53255,0.175989 -0.0203,0.01928 -0.0105,0.07731 0.0218,0.128874 0.0471,0.07528 0.0477,0.111224 0.004,0.18181 -0.0303,0.04843 -0.055,0.09643 -0.055,0.106732 0,0.01033 0.12666,-0.02242 0.28148,-0.07279 l 0.28146,-0.09152 -0.0479,-0.126909 z m 1.820715,-0.135755 c 0.04,-0.03155 0.042,-0.06624 0.007,-0.131328 -0.026,-0.04862 -0.0371,-0.127877 -0.0245,-0.176035 0.017,-0.06476 0.006,-0.08091 -0.0439,-0.0619 -0.0368,0.01412 -0.13997,0.02593 -0.22933,0.02629 -0.22102,8.76e-4 -0.30899,0.05794 -0.23222,0.150406 0.0333,0.04022 0.046,0.115109 0.0301,0.178517 -0.0271,0.108042 -0.0248,0.108974 0.20547,0.08312 0.12809,-0.01439 0.25738,-0.04548 0.28733,-0.06901 z m -1.051135,-0.03589 c 0.0476,-0.03248 0.0162,-0.03681 -0.11073,-0.01559 -0.21976,0.03681 -0.25512,0.06246 -0.0849,0.06154 0.071,-3.79e-4 0.1591,-0.02103 0.19564,-0.04594 z m 1.792655,-0.269667 c 0.0525,-0.04862 -0.23559,0.0018 -0.33084,0.05748 -0.0413,0.02436 5e-4,0.02832 0.11074,0.0107 0.0975,-0.01568 0.1965,-0.04631 0.2201,-0.06818 z m 0.99807,-0.190252 c 0,-0.0098 0.0121,-0.04927 0.0269,-0.08783 0.0159,-0.04133 0.004,-0.07002 -0.0297,-0.07002 -0.0312,0 -0.0937,-0.03358 -0.13905,-0.07454 -0.0775,-0.07021 -0.0945,-0.06873 -0.28602,0.02436 l -0.2036,0.09892 0.0943,0.100338 c 0.0519,0.05517 0.0943,0.13428 0.0943,0.175759 0,0.06615 0.0273,0.06154 0.22149,-0.03681 0.12181,-0.06172 0.22148,-0.120229 0.22148,-0.130008 z m -0.0102,-1.30965 c 0.0305,-0.04871 0.0851,-0.08857 0.1214,-0.08857 0.0363,0 0.0661,-0.02408 0.0661,-0.05351 0,-0.05951 -0.30782,-0.389462 -0.36337,-0.389462 -0.0195,0 -0.0353,0.05877 -0.0353,0.130691 0,0.07842 -0.031,0.148082 -0.0775,0.174153 -0.0706,0.03958 -0.0659,0.05563 0.0526,0.179385 0.15367,0.160545 0.16414,0.162639 0.23614,0.04733 z m -0.58994,-0.57273 c -0.0232,-0.0226 -0.10188,-0.05342 -0.17498,-0.06836 l -0.13288,-0.02721 0.13288,0.06476 c 0.15715,0.07657 0.23597,0.09041 0.17498,0.03081 z m -5.512795,1.869335 c -1.3906,-0.155305 -1.39639,-0.155573 -1.69641,-0.07796 -0.41478,0.107322 -0.74701,0.07196 -1.15329,-0.122831 l -0.31755,-0.152242 -2.39206,-0.253024 c -1.31563,-0.13916 -2.42531,-0.266751 -2.46596,-0.283532 -0.0611,-0.02519 0.005,-0.141089 0.37653,-0.667654 0.41703,-0.58989 0.45145,-0.627051 0.4641,-0.501157 0.016,0.158626 -0.0691,0.337983 -0.31454,0.663022 -0.0972,0.128689 -0.16889,0.240163 -0.15938,0.2477 0.01,0.0074 1.05529,0.124455 2.32397,0.259805 l 2.30669,0.246095 0.2549,0.143856 c 0.32831,0.185288 0.7365,0.225512 1.1067,0.109066 0.24646,-0.0775 0.25892,-0.07685 2.04242,0.114297 0.98695,0.105754 1.79445,0.208094 1.79445,0.227422 0,0.01928 -0.0252,0.03515 -0.056,0.03515 -0.0308,0 -0.13041,0.03986 -0.22132,0.08857 -0.20765,0.11129 -0.21253,0.111096 -1.89322,-0.07657 z m 3.773255,-1.484874 c 0.31591,-0.834444 0.8101,-2.140109 1.09819,-2.901467 l 0.52381,-1.384295 h -0.15053 c -0.12101,0 -0.15054,-0.01734 -0.15054,-0.08857 0,-0.08072 0.0295,-0.08857 0.33224,-0.08857 0.18594,0 0.33222,0.01901 0.33222,0.04318 0,0.04585 -2.072175,5.636725 -2.092265,5.645074 -0.006,0.0028 -0.0954,0.06947 -0.19751,0.148423 -0.10212,0.07897 -0.20464,0.143515 -0.22783,0.143515 -0.0232,0 0.21631,-0.682737 0.532215,-1.517191 z m -1.314745,0.822433 c -0.17055,-0.05904 -0.48949,-0.156394 -0.70877,-0.216398 -1.23522,-0.338019 -2.51825,-0.320804 -3.14129,0.04216 l -0.181,0.105449 -0.66446,-0.07224 -0.66446,-0.07224 -0.2618,-0.25581 c -0.58726,-0.573818 -1.3559,-0.873764 -2.23909,-0.873764 -0.40717,0 -0.98321,0.09392 -1.34884,0.219913 -0.1439,0.04963 -0.26591,0.09014 -0.27114,0.09014 -0.006,0 0.009,-0.09468 0.0313,-0.21041 0.0224,-0.115727 0.0348,-0.348408 0.0275,-0.517072 l -0.0133,-0.306653 0.31008,-0.07943 c 1.01019,-0.258706 2.24981,-0.287592 2.92363,-0.06808 0.6229,0.202891 1.06029,0.559224 1.30453,1.062771 0.0731,0.150664 0.13337,0.250846 0.134,0.222624 0.002,-0.09554 0.38913,-0.451209 0.61621,-0.566281 0.73533,-0.372616 2.02096,-0.341009 3.50516,0.08617 0.29593,0.08515 0.55266,0.154871 0.57053,0.154871 0.0179,0 0.47944,-1.138264 1.02574,-2.529469 0.917095,-2.335454 0.995845,-2.517117 1.026735,-2.368463 0.0603,0.290286 0.22135,0.501259 0.51284,0.671841 0.0113,0.0065 -2.157275,5.566915 -2.177255,5.582433 -0.004,0.0028 -0.14632,-0.04299 -0.31687,-0.102018 z m -4.81719,-1.645945 c -0.22561,-0.381906 -0.78539,-0.78659 -1.33667,-0.966316 -0.65904,-0.214857 -1.98493,-0.191756 -2.90288,0.05056 -0.13287,0.03506 -0.24631,0.05904 -0.2521,0.05323 -0.006,-0.0055 0.31224,-0.504746 0.7067,-1.108816 l 0.71721,-1.098299 0.19934,0.02657 c 0.10964,0.01467 0.34885,0.0381 0.53157,0.05203 0.30366,0.02325 0.34599,0.01596 0.49232,-0.0846 0.2599,-0.178683 0.46101,-0.229387 0.57978,-0.146199 0.12603,0.08829 0.27479,0.08561 0.74409,-0.01319 0.60705,-0.127868 0.79755,-0.278145 0.86596,-0.683097 0.0361,-0.21363 -0.009,-0.251326 -0.30212,-0.252267 -0.1806,-5.72e-4 -0.21843,0.01485 -0.25992,0.105902 -0.0802,0.176007 -0.39252,0.179061 -0.39252,0.0037 0,-0.03072 0.0512,-0.08949 0.11372,-0.130433 0.086,-0.05637 0.12835,-0.06236 0.17385,-0.02454 0.0457,0.03792 0.11712,0.02602 0.29605,-0.04908 0.12974,-0.05443 0.24285,-0.104158 0.25135,-0.110413 0.008,-0.0065 -0.0413,-0.115699 -0.11072,-0.243216 -0.13559,-0.249121 -0.32202,-0.393863 -0.50765,-0.394131 -0.18882,-2.76e-4 -0.89174,0.516436 -0.98178,0.721689 -0.0415,0.09472 -0.0752,0.117452 -0.14291,0.09668 -0.23804,-0.07297 -0.41164,-0.107755 -0.54264,-0.108715 -0.0791,-5.81e-4 -0.14397,-0.01125 -0.14397,-0.02371 0,-0.01246 0.0913,-0.159964 0.20287,-0.327761 0.17383,-0.261419 0.23882,-0.321072 0.45405,-0.41677 0.49574,-0.220438 0.74886,-0.272637 1.31431,-0.271069 0.47319,9.23e-4 0.56806,0.01522 0.8638,0.126558 0.41652,0.156809 0.8556,0.41046 1.18511,0.684647 l 0.25456,0.211812 0.17719,-0.130607 c 0.2611,-0.192476 0.75177,-0.418846 1.03548,-0.477752 0.41692,-0.08654 1.01214,-0.02851 1.64319,0.160194 0.51604,0.154318 0.57874,0.163452 0.95239,0.13869 0.21999,-0.01458 0.443755,-0.03921 0.497255,-0.0548 0.0847,-0.02463 -0.0233,0.273154 -0.836595,2.30548 -0.75383,1.883801 -0.94766,2.329733 -1.00537,2.312952 -1.13626,-0.330409 -1.92183,-0.473398 -2.59644,-0.472632 -0.75578,8.67e-4 -1.27355,0.154106 -1.62959,0.4823 -0.10808,0.09962 -0.20493,0.181137 -0.21522,0.181137 -0.0103,0 -0.0522,-0.05665 -0.0931,-0.125838 z m -4.73458,-1.500833 c -0.19263,-0.110875 -0.20957,-0.113485 -0.28002,-0.04299 -0.0989,0.09889 -0.10043,0.09865 -0.48075,-0.07464 -0.36472,-0.16621 -0.47386,-0.283514 -0.47386,-0.509331 0,-0.12332 -0.0345,-0.181552 -0.18286,-0.308535 -0.12108,-0.103641 -0.22958,-0.157454 -0.32115,-0.15929 -0.12706,-0.0028 -0.15174,-0.0298 -0.30369,-0.334994 -0.19883,-0.399389 -0.21473,-0.604024 -0.0584,-0.750934 0.0597,-0.05609 0.17879,-0.243917 0.26473,-0.417471 0.086,-0.173563 0.17547,-0.345455 0.19896,-0.382008 0.0235,-0.03653 0.0542,-0.120902 0.0682,-0.187456 0.0386,-0.183573 0.22281,-0.255515 0.6544,-0.255515 0.39427,0 0.56577,0.06606 0.56577,0.217883 0,0.127545 0.43392,0.200613 0.62506,0.105265 0.13723,-0.06845 0.1638,-0.0655 0.63186,0.07048 0.52697,0.153101 0.60357,0.193564 0.60357,0.318831 0,0.09623 0.32673,0.20552 0.41312,0.138191 0.0286,-0.02233 0.0967,-0.05148 0.15138,-0.06486 0.14012,-0.03432 1.01789,0.07906 1.09265,0.141107 0.0942,0.07814 0.28006,0.01236 0.31077,-0.110044 0.0491,-0.195428 0.67025,-0.683992 0.86969,-0.683992 0.11581,0 0.35179,0.184366 0.35179,0.274842 0,0.0774 -0.17594,0.125358 -0.26226,0.07141 -0.0752,-0.04696 -0.12094,-0.03109 -0.3345,0.115994 -0.13606,0.09372 -0.25718,0.186211 -0.26914,0.205567 -0.012,0.01937 0.0285,0.08543 0.0899,0.146771 0.12079,0.120783 0.13932,0.203057 0.0629,0.279446 -0.032,0.03201 0.0554,0.02731 0.2547,-0.01375 0.20882,-0.04299 0.33099,-0.09428 0.39198,-0.164633 0.15656,-0.180657 0.31197,-0.06301 0.19802,0.14989 -0.0672,0.125552 -0.25204,0.206185 -0.70275,0.306588 -0.49225,0.109638 -0.46981,0.109712 -0.57361,-0.0018 -0.0817,-0.08774 -0.0951,-0.08875 -0.33914,-0.025 -0.13972,0.03644 -0.29656,0.104527 -0.34852,0.151191 -0.15237,0.136816 -0.24731,0.150304 -0.66944,0.0951 -0.46945,-0.06144 -0.617,-0.133754 -0.58749,-0.2881 0.0179,-0.09346 -0.004,-0.113143 -0.18385,-0.165988 -0.17052,-0.0501 -0.22381,-0.05019 -0.32374,-7.93e-4 -0.16309,0.08063 -0.20962,0.07648 -0.6491,-0.05831 -0.42203,-0.129455 -0.48572,-0.165711 -0.53947,-0.307067 -0.0526,-0.13821 -0.33041,-0.185473 -0.45058,-0.07667 -0.0682,0.06172 -0.17957,0.08395 -0.48122,0.09579 -0.48101,0.01891 -0.49913,0.04761 -0.29942,0.474357 0.0841,0.179772 0.14023,0.368059 0.13731,0.460814 -0.006,0.164983 0.12521,0.356176 0.24291,0.356176 0.10483,0 0.69109,0.270017 0.79705,0.36709 0.0548,0.05019 0.0997,0.127434 0.0997,0.17156 0,0.0536 0.0882,0.124732 0.2658,0.214405 0.14618,0.07381 0.26578,0.159152 0.26578,0.189689 0,0.06781 -0.2123,0.386667 -0.25631,0.384905 -0.0174,-7.01e-4 -0.12389,-0.05434 -0.23666,-0.119288 z m 0.27148,-0.166478 c 0,-0.03515 -0.36122,-0.208159 -0.385,-0.184375 -0.0121,0.01209 0.0546,0.06246 0.14826,0.111871 0.17295,0.09124 0.23674,0.110782 0.23674,0.07251 z m -0.65813,-0.451495 c 0.0313,-0.03764 -0.0156,-0.07842 -0.16725,-0.145452 -0.18158,-0.08036 -0.21568,-0.08414 -0.24732,-0.02759 -0.0202,0.03607 -0.0674,0.0963 -0.10498,0.133855 -0.0925,0.09255 -0.0479,0.147888 0.21964,0.272268 l 0.22713,0.105598 0.0147,-0.143192 c 0.008,-0.07879 0.0342,-0.166717 0.0581,-0.195474 z m -0.84814,-0.524111 c -0.0571,-0.0608 -0.12407,-0.11057 -0.14874,-0.11057 -0.0246,0 0.0122,0.0596 0.082,0.132425 0.0697,0.07279 0.13672,0.122591 0.14874,0.11057 0.012,-0.01199 -0.0249,-0.07159 -0.082,-0.132425 z m -0.28596,-0.492532 c 0.0843,0.03238 0.0816,-0.02242 -0.0106,-0.215899 -0.0538,-0.112821 -0.0949,-0.149613 -0.14396,-0.128911 -0.0377,0.01596 -0.12081,0.04142 -0.18452,0.05674 l -0.11583,0.02777 0.11102,0.256141 0.11101,0.256151 0.0841,-0.138376 c 0.053,-0.08727 0.108,-0.129224 0.14879,-0.113568 z m 4.14764,-0.412231 c -0.008,-0.05462 0.0176,-0.134879 0.0569,-0.178295 0.0669,-0.0739 0.0626,-0.08073 -0.0686,-0.106945 -0.077,-0.01541 -0.20728,-0.02795 -0.2895,-0.02795 -0.13602,0 -0.1495,0.01181 -0.1495,0.130691 0,0.07759 -0.031,0.148026 -0.0762,0.173341 -0.0781,0.04373 -0.0628,0.04862 0.34202,0.109564 0.16847,0.02537 0.20063,0.0083 0.18484,-0.100357 z m -0.89729,-0.286457 c -0.0308,-0.02925 -0.35069,-0.109703 -0.35069,-0.0882 0,0.03109 0.18974,0.09981 0.28424,0.10294 0.0467,0.0018 0.0766,-0.0046 0.0664,-0.01467 z m -0.85123,-0.148608 c -0.0143,-0.07362 0.002,-0.149908 0.0401,-0.192872 0.0573,-0.06384 0.0379,-0.07842 -0.19038,-0.143348 -0.13977,-0.03976 -0.26811,-0.05766 -0.28521,-0.03967 -0.0171,0.0179 -0.0377,0.100643 -0.0459,0.183794 -0.0142,0.145406 -0.006,0.154161 0.20668,0.229129 0.29592,0.10414 0.30185,0.103337 0.27466,-0.037 z m -2.46738,-0.05535 c 0,-0.02435 -0.009,-0.04428 -0.0196,-0.04428 -0.0108,0 -0.0318,0.01993 -0.0469,0.04428 -0.015,0.02436 -0.006,0.04428 0.0195,0.04428 0.0258,0 0.0469,-0.01993 0.0469,-0.04428 z m 0.76795,-0.343306 c -0.0171,-0.06698 -0.0287,-0.156707 -0.0257,-0.199339 0.005,-0.06384 -0.0323,-0.0775 -0.20797,-0.0775 -0.2732,0 -0.33785,0.06892 -0.24298,0.25915 0.064,0.12832 0.0872,0.139529 0.28869,0.139529 0.21701,0 0.2188,-9.23e-4 0.188,-0.121816 z m 0.76031,0.03321 c -0.0487,-0.02094 -0.13843,-0.03709 -0.19934,-0.03598 -0.10048,0.0018 -0.0984,0.0055 0.0221,0.03598 0.18446,0.04696 0.28642,0.04696 0.17719,0 z"
       id="path2769-3" />
  </g>
  <text
     xml:space="preserve"
     style="font-size:14.1111px;line-height:1.25;font-family:'Blood Crow';-inkscape-font-specification:'Blood Crow';stroke-width:0.264583"
     x="5.1606984"
     y="13.592595"
     id="text9052-1"><tspan
       id="tspan9050-4"
       style="font-style:normal;font-variant:normal;font-weight:normal;font-stretch:normal;font-size:14.1111px;font-family:'Bleeding Cowboys';-inkscape-font-specification:'Bleeding Cowboys';stroke-width:0.264583"
       x="5.1606984"
       y="13.592595">2</tspan></text>
  <text
     xml:space="preserve"
     style="font-size:14.1111px;line-height:1.25;font-family:'Blood Crow';-inkscape-font-specification:'Blood Crow';stroke-width:0.264583"
     x="-58.817997"
     y="-75.571785"
     id="text9052-3-9"
     transform="scale(-1)"><tspan
       id="tspan9050-0-2"
       style="font-style:normal;font-variant:normal;font-weight:normal;font-stretch:normal;font-size:14.1111px;font-family:'Bleeding Cowboys';-inkscape-font-specification:'Bleeding Cowboys';stroke-width:0.264583"
       x="-58.817997"
       y="-75.571785">2</tspan></text>
</svg>
