<?xml version="1.0" encoding="UTF-8" standalone="no"?>
<!-- Created with Inkscape (http://www.inkscape.org/) -->

<svg
   width="63mm"
   height="89mm"
   viewBox="0 0 63 89"
   version="1.1"
   id="svg5"
   sodipodi:docname="3-Corbeau.svg"
   inkscape:version="1.1.2 (1:1.1+202202050950+0a00cf5339)"
   xmlns:inkscape="http://www.inkscape.org/namespaces/inkscape"
   xmlns:sodipodi="http://sodipodi.sourceforge.net/DTD/sodipodi-0.dtd"
   xmlns:xlink="http://www.w3.org/1999/xlink"
   xmlns="http://www.w3.org/2000/svg"
   xmlns:svg="http://www.w3.org/2000/svg">
  <sodipodi:namedview
     id="namedview155"
     pagecolor="#ffffff"
     bordercolor="#666666"
     borderopacity="1.0"
     inkscape:pageshadow="2"
     inkscape:pageopacity="0.0"
     inkscape:pagecheckerboard="0"
     inkscape:document-units="mm"
     showgrid="false"
     inkscape:zoom="2.8420661"
     inkscape:cx="-0.3518567"
     inkscape:cy="60.695281"
     inkscape:window-width="1920"
     inkscape:window-height="1057"
     inkscape:window-x="1920"
     inkscape:window-y="0"
     inkscape:window-maximized="1"
     inkscape:current-layer="svg5" />
  <defs
     id="defs2">
    <linearGradient
       id="linearGradient66035">
      <stop
         style="stop-color:#ffeeaa;stop-opacity:1;"
         offset="0"
         id="stop66031" />
      <stop
         style="stop-color:#ffeeaa;stop-opacity:0;"
         offset="1"
         id="stop66033" />
    </linearGradient>
    <linearGradient
       xlink:href="#linearGradient66035"
       id="linearGradient66037"
       x1="-609.21545"
       y1="124.85085"
       x2="-533.06219"
       y2="235.37372"
       gradientUnits="userSpaceOnUse" />
    <linearGradient
       xlink:href="#linearGradient66035"
       id="linearGradient66272"
       gradientUnits="userSpaceOnUse"
       x1="-609.21545"
       y1="124.85085"
       x2="-533.06219"
       y2="235.37372"
       gradientTransform="translate(107.54224,19.681403)" />
    <linearGradient
       xlink:href="#linearGradient66035"
       id="linearGradient66419"
       gradientUnits="userSpaceOnUse"
       gradientTransform="translate(169.88249,19.681395)"
       x1="-609.21545"
       y1="124.85085"
       x2="-533.06219"
       y2="235.37372" />
    <linearGradient
       xlink:href="#linearGradient66035"
       id="linearGradient66886"
       gradientUnits="userSpaceOnUse"
       gradientTransform="translate(609.74704,-124.32202)"
       x1="-609.21545"
       y1="124.85085"
       x2="-533.06219"
       y2="235.37372" />
    <linearGradient
       xlink:href="#linearGradient66035"
       id="linearGradient67116"
       gradientUnits="userSpaceOnUse"
       gradientTransform="translate(761.64943,-239.23166)"
       x1="-609.21545"
       y1="124.85085"
       x2="-533.06219"
       y2="235.37372" />
    <linearGradient
       xlink:href="#linearGradient66035"
       id="linearGradient73095"
       gradientUnits="userSpaceOnUse"
       gradientTransform="translate(-18.43475,-1222.8025)"
       x1="-609.21545"
       y1="124.85085"
       x2="-533.06219"
       y2="235.37372" />
    <linearGradient
       xlink:href="#linearGradient66035"
       id="linearGradient82342"
       gradientUnits="userSpaceOnUse"
       gradientTransform="translate(704.02075,-140.75031)"
       x1="-609.21545"
       y1="124.85085"
       x2="-533.06219"
       y2="235.37372" />
    <linearGradient
       xlink:href="#linearGradient66035"
       id="linearGradient90215"
       gradientUnits="userSpaceOnUse"
       gradientTransform="translate(340.696,-366.60502)"
       x1="-609.21545"
       y1="124.85085"
       x2="-533.06219"
       y2="235.37372" />
    <linearGradient
       xlink:href="#linearGradient66035"
       id="linearGradient99476"
       gradientUnits="userSpaceOnUse"
       gradientTransform="translate(510.6307,-103.31497)"
       x1="-609.21545"
       y1="124.85085"
       x2="-533.06219"
       y2="235.37372" />
    <linearGradient
       xlink:href="#linearGradient66035"
       id="linearGradient105434"
       gradientUnits="userSpaceOnUse"
       gradientTransform="translate(512.58237,-32.383406)"
       x1="-609.21545"
       y1="124.85085"
       x2="-533.06219"
       y2="235.37372" />
    <linearGradient
       xlink:href="#linearGradient66035"
       id="linearGradient116711"
       gradientUnits="userSpaceOnUse"
       gradientTransform="translate(521.8087,-182.6408)"
       x1="-609.21545"
       y1="124.85085"
       x2="-533.06219"
       y2="235.37372" />
  </defs>
  <g
     id="g66957"
     transform="translate(439.73119,-143.94501)">
    <rect
       style="display:inline;fill:url(#linearGradient66419);fill-opacity:1;stroke:#000000;stroke-width:0.659785;stroke-miterlimit:4;stroke-dasharray:none;stroke-opacity:1"
       id="rect870-4-6-9"
       width="62.340214"
       height="88.340218"
       x="-439.33301"
       y="144.53226"
       rx="3.7119057"
       ry="3.3358381" />
    <path
       style="fill:#000000;stroke-width:0.0370034"
       d="m -408.6513,171.64161 -8e-4,-0.33401 -0.22464,0.21375 c -0.2485,0.23647 -0.31084,0.26441 -0.25351,0.11362 0.0209,-0.0551 0.0694,-0.21327 0.10774,-0.35155 l 0.0697,-0.25142 -0.18313,0.19429 -0.18314,0.19429 0.0244,-0.36496 c 0.0278,-0.41668 0.0567,-0.4043 -0.31899,-0.13655 -0.11168,0.0796 -0.20852,0.13926 -0.21519,0.13259 -0.007,-0.007 0.0398,-0.11503 0.10331,-0.2408 0.12842,-0.25439 0.33884,-0.85987 0.42017,-1.20902 l 0.053,-0.22761 -0.15603,0.16285 c -0.12638,0.1319 -0.18072,0.16285 -0.28593,0.16285 h -0.12988 l 0.19782,-0.39779 c 0.26597,-0.53482 0.3874,-1.00976 0.39501,-1.54489 0.005,-0.31414 -0.009,-0.44648 -0.0609,-0.57988 -0.0917,-0.23771 -0.14791,-0.2786 -0.24683,-0.17968 -0.0955,0.0955 -0.22954,0.14901 -0.37344,0.14901 -0.127,0 -0.12408,0.009 -0.0523,-0.16283 0.0717,-0.17161 0.0117,-0.20715 -0.17126,-0.10145 -0.13089,0.0756 -0.54194,0.17481 -0.5774,0.13935 -0.0112,-0.0112 0.0484,-0.15259 0.13244,-0.31416 0.21118,-0.40592 0.20429,-0.44166 -0.0567,-0.29434 -0.17749,0.10017 -0.2568,0.12076 -0.51805,0.13447 -0.16965,0.009 -0.30847,0.004 -0.30847,-0.01 0,-0.0144 0.0577,-0.0965 0.12813,-0.18253 0.13694,-0.16711 0.27676,-0.4436 0.2781,-0.5499 10e-4,-0.0821 0.0142,-0.0845 -0.26655,0.0469 -0.31392,0.1469 -0.67383,0.22004 -1.08326,0.22013 -0.28226,8e-5 -0.4883,-0.0388 -0.42446,-0.08 0.01,-0.006 0.11707,-0.0611 0.23887,-0.12209 0.21951,-0.10988 0.68663,-0.50961 0.64495,-0.55191 -0.0119,-0.0121 -0.11277,0.009 -0.2241,0.0476 -0.29806,0.10254 -0.54487,0.12642 -0.80995,0.0784 -0.26291,-0.0477 -0.60313,-0.20367 -0.58206,-0.26688 0.008,-0.0227 0.16271,-0.10125 0.34474,-0.17449 0.18203,-0.0733 0.4392,-0.19952 0.57149,-0.28059 l 0.24052,-0.14742 -0.24052,-0.0283 c -0.66378,-0.0781 -0.9622,-0.18249 -1.23178,-0.43098 -0.19261,-0.17754 -0.34585,-0.44372 -0.3097,-0.53793 0.0171,-0.0446 0.0453,-0.0567 0.0894,-0.0384 0.0784,0.0325 0.78601,0.073 0.78601,0.0449 0,-0.011 -0.0722,-0.0622 -0.16036,-0.11391 -0.28306,-0.16588 -0.52506,-0.49361 -0.6503,-0.88067 -0.0497,-0.15352 -0.11126,-0.51252 -0.0879,-0.51252 0.008,0 0.0684,0.0398 0.13323,0.0885 0.18349,0.13781 0.60652,0.33757 0.93275,0.44046 0.33531,0.10574 0.57267,0.15649 0.57267,0.12244 0,-0.0126 -0.10476,-0.12686 -0.2328,-0.25389 -0.25923,-0.25718 -0.45527,-0.59884 -0.57842,-1.00803 -0.0936,-0.31116 -0.15149,-0.74878 -0.11249,-0.85108 l 0.0282,-0.074 0.0268,0.074 c 0.10686,0.29543 0.31249,0.63389 0.54529,0.89752 0.49245,0.55768 0.81024,0.76964 1.58155,1.05484 0.54347,0.20097 0.52473,0.19774 0.48108,0.0829 -0.0768,-0.20202 -0.0391,-0.21792 0.12424,-0.0524 0.11208,0.11353 0.30679,0.23499 0.6383,0.39819 0.47806,0.23533 0.71755,0.38603 0.71755,0.45151 0,0.0193 -0.0596,0.101 -0.13247,0.18165 -0.0981,0.10858 -0.12613,0.16665 -0.10801,0.22375 0.031,0.0978 0.4049,0.34871 0.47784,0.32072 0.0301,-0.0116 0.0732,-0.0926 0.0957,-0.18019 0.16421,-0.63836 0.20401,-0.68464 0.81892,-0.95235 0.44325,-0.19298 0.58094,-0.21904 0.72752,-0.13767 0.0826,0.0458 0.0797,0.0495 -0.10473,0.13592 -0.15973,0.0748 -0.33167,0.23459 -0.33167,0.3082 0,0.0109 0.0708,-0.0206 0.15726,-0.07 0.14909,-0.0853 0.28678,-0.11786 0.28678,-0.0679 0,0.0126 -0.05,0.0798 -0.11101,0.1493 -0.10062,0.1146 -0.11101,0.15057 -0.11101,0.38417 0,0.17852 0.0142,0.25947 0.0462,0.26337 0.0254,0.003 0.0642,0.007 0.0861,0.01 0.022,0.002 0.0939,0.0497 0.15994,0.10525 0.0935,0.0787 0.13509,0.093 0.18812,0.0646 0.0958,-0.0513 0.33361,-0.33602 0.33361,-0.39944 0,-0.029 -0.05,-0.11584 -0.11101,-0.19293 -0.0611,-0.0771 -0.11101,-0.15797 -0.11101,-0.17974 0,-0.0713 0.44514,-0.41194 0.71577,-0.54778 0.14565,-0.0731 0.37306,-0.20245 0.50534,-0.28743 0.37277,-0.23946 0.34699,-0.22984 0.31922,-0.11917 -0.018,0.0716 -0.0104,0.098 0.028,0.098 0.0972,0 0.81553,-0.2642 1.11439,-0.40989 0.56194,-0.27396 1.15141,-0.86532 1.43565,-1.44027 l 0.15549,-0.31453 0.0118,0.14302 c 0.0158,0.19197 -0.0878,0.68954 -0.20512,0.98558 -0.13449,0.3394 -0.31779,0.61632 -0.55704,0.84155 -0.11333,0.10669 -0.19542,0.20463 -0.18241,0.21763 0.0358,0.0358 0.63723,-0.12443 0.94022,-0.25057 0.14735,-0.0613 0.36776,-0.17606 0.4898,-0.25494 l 0.22188,-0.14341 -0.0211,0.11865 c -0.10832,0.61004 -0.37665,1.06218 -0.7605,1.2814 l -0.18323,0.10465 0.13118,0.0246 c 0.0721,0.0135 0.27421,0.006 0.44902,-0.0177 0.17481,-0.0233 0.32731,-0.0328 0.33891,-0.0212 0.0446,0.0445 -0.18546,0.43473 -0.32833,0.55702 -0.28176,0.24118 -0.71744,0.39116 -1.13915,0.39214 -0.37294,8.8e-4 -0.38597,0.0396 -0.0754,0.22404 0.14739,0.0876 0.40334,0.21379 0.56877,0.28049 0.16542,0.0667 0.30077,0.1417 0.30077,0.16668 0,0.0689 -0.30592,0.21105 -0.55075,0.25596 -0.25071,0.046 -0.50438,0.0203 -0.81344,-0.0823 -0.11939,-0.0396 -0.22546,-0.0637 -0.2357,-0.0535 -0.0207,0.0207 0.20926,0.35249 0.35741,0.51568 0.0525,0.0578 0.16907,0.1485 0.25914,0.20159 l 0.16377,0.0965 -0.10826,0.0319 c -0.14945,0.0441 -0.81181,0.004 -1.13565,-0.0693 -0.14725,-0.0332 -0.37291,-0.10214 -0.50147,-0.15325 -0.14776,-0.0587 -0.24669,-0.08 -0.26893,-0.0578 -0.0387,0.0387 0.19569,0.42542 0.32963,0.54391 0.0433,0.0383 0.0699,0.0841 0.059,0.10176 -0.0326,0.0527 -0.52501,0.0363 -0.76351,-0.0255 -0.12221,-0.0317 -0.22705,-0.0525 -0.23298,-0.0463 -0.006,0.006 0.0464,0.12654 0.11624,0.26736 0.0817,0.16465 0.11427,0.26879 0.0913,0.29177 -0.0446,0.0447 -0.32623,-0.0226 -0.53015,-0.12663 -0.0806,-0.0411 -0.15355,-0.0679 -0.16202,-0.0594 -0.009,0.008 0.01,0.0757 0.0406,0.1494 0.0308,0.0737 0.056,0.15119 0.056,0.1722 0,0.0548 -0.18109,0.047 -0.39191,-0.0169 -0.0999,-0.0303 -0.19208,-0.0553 -0.20484,-0.0555 -0.0524,-9.5e-4 -0.17673,0.37016 -0.21396,0.63875 -0.0593,0.42775 0.0418,1.01643 0.27184,1.58245 0.0493,0.12134 0.0735,0.22061 0.0538,0.22061 -0.0197,0 -0.10184,-0.0336 -0.18243,-0.0748 -0.0806,-0.0411 -0.14654,-0.0595 -0.14654,-0.0409 0,0.0186 0.0349,0.14801 0.0774,0.28753 0.10412,0.34099 0.4125,0.92558 0.63187,1.19781 0.0983,0.12201 0.17876,0.23036 0.17876,0.24078 0,0.0435 -0.38399,-0.18012 -0.51938,-0.30244 l -0.14668,-0.13253 v 0.25234 0.25234 l -0.15191,-0.14627 -0.1519,-0.14628 0.0272,0.12952 c 0.0253,0.12055 0.16242,0.55957 0.22385,0.71661 0.0244,0.0625 0.0185,0.0647 -0.0619,0.0234 -0.0489,-0.0251 -0.15964,-0.11375 -0.24613,-0.19702 l -0.15724,-0.1514 v 0.32797 c 0,0.32038 -0.002,0.32648 -0.0706,0.26405 -0.0388,-0.0352 -0.0908,-0.11267 -0.1155,-0.17225 -0.055,-0.13266 -0.0984,-0.13714 -0.15364,-0.0158 -0.0583,0.12796 -0.0973,0.11617 -0.17268,-0.0522 l -0.0648,-0.14469 -0.0825,0.15394 c -0.0454,0.0847 -0.11495,0.19556 -0.15461,0.24644 l -0.0721,0.0925 -8e-4,-0.33401 z m 0.17679,-7.90661 c 0.0625,-0.0625 0.0553,-0.21278 -0.0116,-0.23842 -0.0766,-0.0294 -0.16604,0.0523 -0.16604,0.15167 0,0.13223 0.0888,0.17558 0.17761,0.0868 z"
       id="path2152-0-4" />
    <path
       style="fill:#000000;stroke-width:0.0370034"
       d="m -408.80806,216.64278 -8.1e-4,-0.33401 -0.22463,0.21375 c -0.24851,0.23647 -0.31084,0.26441 -0.25351,0.11362 0.0209,-0.0551 0.0694,-0.21327 0.10774,-0.35155 l 0.0697,-0.25143 -0.18313,0.1943 -0.18314,0.19429 0.0243,-0.36496 c 0.0278,-0.41669 0.0567,-0.4043 -0.31898,-0.13655 -0.11169,0.0796 -0.20852,0.13926 -0.21519,0.13259 -0.007,-0.007 0.0398,-0.11503 0.1033,-0.2408 0.12842,-0.2544 0.33884,-0.85987 0.42018,-1.20903 l 0.053,-0.2276 -0.15604,0.16285 c -0.12638,0.1319 -0.18072,0.16285 -0.28592,0.16285 h -0.12989 l 0.19782,-0.39779 c 0.26597,-0.53482 0.38741,-1.00976 0.39502,-1.54489 0.005,-0.31414 -0.009,-0.44648 -0.0609,-0.57988 -0.0917,-0.23771 -0.14791,-0.2786 -0.24683,-0.17968 -0.0955,0.0955 -0.22955,0.14901 -0.37344,0.14901 -0.12701,0 -0.12409,0.009 -0.0523,-0.16283 0.0717,-0.17161 0.0117,-0.20715 -0.17126,-0.10145 -0.13089,0.0756 -0.54194,0.17481 -0.57741,0.13934 -0.0112,-0.0112 0.0484,-0.15258 0.13245,-0.31416 0.21118,-0.40591 0.20429,-0.44165 -0.0567,-0.29433 -0.1775,0.10017 -0.25681,0.12075 -0.51805,0.13447 -0.16966,0.009 -0.30847,0.004 -0.30847,-0.01 0,-0.0144 0.0577,-0.0965 0.12813,-0.18253 0.13693,-0.16711 0.27676,-0.44361 0.27809,-0.5499 10e-4,-0.0821 0.0142,-0.0845 -0.26654,0.0469 -0.31393,0.1469 -0.67384,0.22004 -1.08326,0.22013 -0.28226,8e-5 -0.48831,-0.0388 -0.42447,-0.08 0.01,-0.006 0.11708,-0.0611 0.23887,-0.1221 0.21952,-0.10987 0.68664,-0.5096 0.64496,-0.55191 -0.0119,-0.0121 -0.11277,0.009 -0.22411,0.0476 -0.29805,0.10255 -0.54486,0.12643 -0.80994,0.0784 -0.26291,-0.0477 -0.60313,-0.20366 -0.58206,-0.26687 0.008,-0.0227 0.1627,-0.10125 0.34474,-0.1745 0.18203,-0.0733 0.4392,-0.19951 0.57149,-0.28059 l 0.24052,-0.14741 -0.24052,-0.0283 c -0.66379,-0.0781 -0.9622,-0.18249 -1.23179,-0.43098 -0.19261,-0.17754 -0.34585,-0.44372 -0.30969,-0.53793 0.0171,-0.0446 0.0453,-0.0567 0.0894,-0.0384 0.0784,0.0325 0.78601,0.073 0.78601,0.0449 0,-0.011 -0.0722,-0.0622 -0.16036,-0.11391 -0.28306,-0.16589 -0.52506,-0.49362 -0.6503,-0.88067 -0.0497,-0.15352 -0.11127,-0.51252 -0.0879,-0.51252 0.008,0 0.0684,0.0398 0.13323,0.0885 0.18348,0.13781 0.60651,0.33757 0.93275,0.44046 0.33531,0.10574 0.57266,0.15649 0.57266,0.12243 0,-0.0126 -0.10476,-0.12686 -0.2328,-0.25389 -0.25922,-0.25717 -0.45527,-0.59884 -0.57842,-1.00803 -0.0936,-0.31115 -0.15148,-0.74878 -0.11248,-0.85107 l 0.0282,-0.074 0.0268,0.074 c 0.10686,0.29543 0.31249,0.63389 0.54529,0.89752 0.49245,0.55768 0.81024,0.76963 1.58154,1.05484 0.54347,0.20096 0.52474,0.19773 0.48108,0.0829 -0.0768,-0.20202 -0.0391,-0.21792 0.12424,-0.0524 0.11209,0.11353 0.30679,0.23499 0.63831,0.39819 0.47805,0.23533 0.71755,0.38603 0.71755,0.45151 0,0.0193 -0.0596,0.101 -0.13248,0.18165 -0.0981,0.10858 -0.12612,0.16665 -0.108,0.22374 0.031,0.0978 0.40489,0.34872 0.47784,0.32073 0.0301,-0.0116 0.0732,-0.0926 0.0957,-0.18019 0.1642,-0.63836 0.204,-0.68464 0.81892,-0.95236 0.44325,-0.19297 0.58094,-0.21903 0.72752,-0.13767 0.0826,0.0458 0.0797,0.0495 -0.10473,0.13592 -0.15974,0.0748 -0.33168,0.23459 -0.33168,0.30821 0,0.0109 0.0708,-0.0206 0.15727,-0.07 0.14909,-0.0853 0.28677,-0.11786 0.28677,-0.0679 0,0.0126 -0.05,0.0798 -0.11101,0.1493 -0.10061,0.1146 -0.11101,0.15056 -0.11101,0.38417 0,0.17851 0.0142,0.25947 0.0463,0.26337 0.0254,0.003 0.0642,0.007 0.0861,0.01 0.022,0.002 0.0939,0.0497 0.15995,0.10524 0.0935,0.0787 0.13509,0.093 0.18812,0.0646 0.0958,-0.0513 0.33361,-0.33602 0.33361,-0.39943 0,-0.029 -0.05,-0.11584 -0.11101,-0.19293 -0.0611,-0.0771 -0.11101,-0.15797 -0.11101,-0.17974 0,-0.0713 0.44514,-0.41195 0.71576,-0.54778 0.14566,-0.0731 0.37306,-0.20246 0.50535,-0.28743 0.37276,-0.23946 0.34699,-0.22984 0.31922,-0.11917 -0.018,0.0716 -0.0104,0.098 0.028,0.098 0.0973,0 0.81552,-0.2642 1.11438,-0.4099 0.56195,-0.27395 1.15142,-0.86532 1.43565,-1.44026 l 0.15549,-0.31453 0.0118,0.14302 c 0.0158,0.19196 -0.0878,0.68954 -0.20511,0.98558 -0.1345,0.3394 -0.3178,0.61632 -0.55704,0.84154 -0.11334,0.1067 -0.19542,0.20463 -0.18241,0.21764 0.0358,0.0358 0.63722,-0.12443 0.94022,-0.25057 0.14735,-0.0613 0.36776,-0.17607 0.48979,-0.25494 l 0.22188,-0.14341 -0.0211,0.11865 c -0.10831,0.61004 -0.37665,1.06218 -0.76049,1.2814 l -0.18323,0.10465 0.13118,0.0246 c 0.0721,0.0135 0.2742,0.006 0.44901,-0.0177 0.17481,-0.0233 0.32732,-0.0328 0.33891,-0.0212 0.0446,0.0445 -0.18545,0.43473 -0.32832,0.55701 -0.28176,0.24118 -0.71745,0.39117 -1.13915,0.39215 -0.37294,8.8e-4 -0.38597,0.0396 -0.0754,0.22404 0.14739,0.0876 0.40334,0.21378 0.56876,0.28049 0.16543,0.0667 0.30078,0.1417 0.30078,0.16667 0,0.0689 -0.30592,0.21106 -0.55075,0.25597 -0.25072,0.046 -0.50438,0.0203 -0.81344,-0.0823 -0.1194,-0.0396 -0.22546,-0.0637 -0.2357,-0.0535 -0.0207,0.0207 0.20926,0.35249 0.35741,0.51568 0.0525,0.0578 0.16907,0.1485 0.25914,0.20159 l 0.16376,0.0965 -0.10826,0.0319 c -0.14944,0.0441 -0.8118,0.004 -1.13564,-0.0693 -0.14725,-0.0332 -0.37291,-0.10214 -0.50147,-0.15326 -0.14777,-0.0588 -0.24669,-0.08 -0.26893,-0.0578 -0.0387,0.0387 0.19569,0.42543 0.32963,0.54392 0.0433,0.0383 0.0699,0.0841 0.059,0.10176 -0.0326,0.0527 -0.52501,0.0363 -0.76351,-0.0255 -0.12221,-0.0317 -0.22706,-0.0525 -0.23299,-0.0463 -0.006,0.006 0.0464,0.12654 0.11625,0.26735 0.0817,0.16466 0.11427,0.26879 0.0913,0.29178 -0.0447,0.0447 -0.32623,-0.0226 -0.53015,-0.12664 -0.0806,-0.0411 -0.15356,-0.0679 -0.16203,-0.0594 -0.009,0.008 0.01,0.0757 0.0406,0.14941 0.0308,0.0737 0.056,0.15119 0.056,0.1722 0,0.0549 -0.18108,0.047 -0.39191,-0.0169 -0.0999,-0.0303 -0.19208,-0.0553 -0.20484,-0.0555 -0.0524,-9.6e-4 -0.17673,0.37015 -0.21395,0.63875 -0.0593,0.42775 0.0418,1.01642 0.27183,1.58245 0.0493,0.12134 0.0735,0.22061 0.0538,0.22061 -0.0197,0 -0.10183,-0.0336 -0.18242,-0.0748 -0.0806,-0.0411 -0.14654,-0.0595 -0.14654,-0.0409 0,0.0186 0.0349,0.14801 0.0774,0.28753 0.10412,0.34099 0.4125,0.92558 0.63186,1.19781 0.0983,0.12201 0.17876,0.23036 0.17876,0.24078 0,0.0435 -0.38398,-0.18012 -0.51937,-0.30244 l -0.14669,-0.13253 v 0.25234 0.25234 l -0.1519,-0.14628 -0.15191,-0.14627 0.0272,0.12952 c 0.0253,0.12055 0.16242,0.55957 0.22385,0.71661 0.0244,0.0625 0.0185,0.0647 -0.0619,0.0234 -0.0489,-0.0251 -0.15964,-0.11375 -0.24614,-0.19702 l -0.15724,-0.1514 v 0.32796 c 0,0.32039 -0.002,0.32649 -0.0706,0.26405 -0.0388,-0.0352 -0.0908,-0.11266 -0.1155,-0.17224 -0.055,-0.13266 -0.0984,-0.13714 -0.15363,-0.0158 -0.0583,0.12796 -0.0973,0.11617 -0.17268,-0.0522 l -0.0648,-0.14469 -0.0825,0.15394 c -0.0454,0.0847 -0.11495,0.19556 -0.15461,0.24644 l -0.0721,0.0925 -8.1e-4,-0.33402 z m 0.17679,-7.90661 c 0.0625,-0.0625 0.0553,-0.21278 -0.0116,-0.23842 -0.0766,-0.0294 -0.16605,0.0523 -0.16605,0.15167 0,0.13223 0.0888,0.17558 0.17762,0.0867 z"
       id="path2152-6-8" />
    <path
       style="fill:#000000;stroke-width:0.0370034"
       d="m -408.51804,194.06492 -8e-4,-0.33402 -0.22464,0.21376 c -0.2485,0.23647 -0.31084,0.2644 -0.25351,0.11362 0.0209,-0.0551 0.0694,-0.21328 0.10775,-0.35156 l 0.0697,-0.25142 -0.18314,0.19429 -0.18313,0.19429 0.0243,-0.36496 c 0.0278,-0.41668 0.0567,-0.4043 -0.31898,-0.13655 -0.11169,0.0796 -0.20853,0.13927 -0.2152,0.1326 -0.007,-0.007 0.0398,-0.11503 0.10331,-0.2408 0.12842,-0.2544 0.33884,-0.85988 0.42017,-1.20903 l 0.053,-0.2276 -0.15603,0.16285 c -0.12638,0.13189 -0.18072,0.16284 -0.28592,0.16284 h -0.12989 l 0.19782,-0.39778 c 0.26597,-0.53483 0.38741,-1.00976 0.39501,-1.54489 0.005,-0.31414 -0.009,-0.44648 -0.0609,-0.57989 -0.0917,-0.2377 -0.1479,-0.27859 -0.24683,-0.17967 -0.0955,0.0955 -0.22954,0.14901 -0.37343,0.14901 -0.12701,0 -0.12409,0.009 -0.0523,-0.16284 0.0717,-0.17161 0.0117,-0.20714 -0.17127,-0.10144 -0.13088,0.0756 -0.54194,0.17481 -0.5774,0.13934 -0.0112,-0.0112 0.0484,-0.15258 0.13244,-0.31416 0.21118,-0.40591 0.20429,-0.44165 -0.0567,-0.29433 -0.17749,0.10017 -0.2568,0.12075 -0.51804,0.13446 -0.16966,0.009 -0.30847,0.004 -0.30847,-0.01 0,-0.0144 0.0577,-0.0965 0.12813,-0.18254 0.13693,-0.1671 0.27676,-0.4436 0.27809,-0.5499 10e-4,-0.0821 0.0142,-0.0845 -0.26655,0.0469 -0.31392,0.14691 -0.67383,0.22005 -1.08326,0.22014 -0.28225,7e-5 -0.4883,-0.0388 -0.42446,-0.08 0.01,-0.006 0.11708,-0.0611 0.23887,-0.1221 0.21951,-0.10987 0.68664,-0.5096 0.64496,-0.55191 -0.0119,-0.0121 -0.11278,0.009 -0.22411,0.0476 -0.29805,0.10255 -0.54487,0.12642 -0.80994,0.0784 -0.26292,-0.0477 -0.60314,-0.20366 -0.58207,-0.26687 0.008,-0.0227 0.16271,-0.10125 0.34474,-0.1745 0.18204,-0.0733 0.4392,-0.19951 0.57149,-0.28059 l 0.24052,-0.14741 -0.24052,-0.0283 c -0.66378,-0.0781 -0.9622,-0.18249 -1.23178,-0.43098 -0.19261,-0.17755 -0.34585,-0.44372 -0.3097,-0.53794 0.0171,-0.0445 0.0453,-0.0566 0.0894,-0.0384 0.0784,0.0325 0.786,0.0729 0.786,0.0449 0,-0.011 -0.0722,-0.0622 -0.16036,-0.11391 -0.28306,-0.16588 -0.52506,-0.49361 -0.6503,-0.88067 -0.0497,-0.15352 -0.11126,-0.51251 -0.0879,-0.51251 0.008,0 0.0684,0.0398 0.13324,0.0885 0.18348,0.13781 0.60651,0.33757 0.93274,0.44045 0.33531,0.10575 0.57267,0.1565 0.57267,0.12244 0,-0.0126 -0.10476,-0.12686 -0.2328,-0.25389 -0.25922,-0.25717 -0.45527,-0.59884 -0.57842,-1.00803 -0.0936,-0.31115 -0.15148,-0.74878 -0.11249,-0.85107 l 0.0282,-0.074 0.0268,0.074 c 0.10686,0.29543 0.3125,0.63389 0.5453,0.89752 0.49245,0.55768 0.81024,0.76963 1.58154,1.05484 0.54347,0.20096 0.52473,0.19773 0.48108,0.0829 -0.0768,-0.20202 -0.0391,-0.21793 0.12424,-0.0524 0.11209,0.11353 0.30679,0.23499 0.63831,0.39819 0.47805,0.23533 0.71754,0.38603 0.71754,0.45151 0,0.0193 -0.0596,0.101 -0.13247,0.18165 -0.0981,0.10858 -0.12613,0.16664 -0.10801,0.22374 0.031,0.0978 0.4049,0.34872 0.47784,0.32073 0.0301,-0.0116 0.0732,-0.0926 0.0957,-0.18019 0.16421,-0.63836 0.20401,-0.68464 0.81893,-0.95236 0.44324,-0.19297 0.58093,-0.21903 0.72751,-0.13767 0.0826,0.0458 0.0797,0.0495 -0.10473,0.13592 -0.15973,0.0748 -0.33167,0.23459 -0.33167,0.30821 0,0.0109 0.0708,-0.0206 0.15726,-0.07 0.1491,-0.0853 0.28678,-0.11786 0.28678,-0.0679 0,0.0126 -0.05,0.0798 -0.11101,0.1493 -0.10062,0.1146 -0.11101,0.15056 -0.11101,0.38417 0,0.17851 0.0142,0.25947 0.0463,0.26337 0.0254,0.003 0.0642,0.007 0.0861,0.01 0.022,0.002 0.0939,0.0497 0.15994,0.10524 0.0935,0.0787 0.1351,0.093 0.18812,0.0646 0.0958,-0.0513 0.33362,-0.33602 0.33362,-0.39943 0,-0.029 -0.05,-0.11584 -0.11102,-0.19293 -0.0611,-0.0771 -0.111,-0.15797 -0.111,-0.17974 0,-0.0713 0.44514,-0.41195 0.71576,-0.54779 0.14565,-0.0731 0.37306,-0.20245 0.50534,-0.28742 0.37277,-0.23946 0.347,-0.22984 0.31922,-0.11917 -0.018,0.0716 -0.0104,0.098 0.028,0.098 0.0972,0 0.81553,-0.2642 1.11439,-0.4099 0.56194,-0.27395 1.15142,-0.86532 1.43565,-1.44027 l 0.15549,-0.31452 0.0118,0.14302 c 0.0158,0.19196 -0.0878,0.68954 -0.20511,0.98558 -0.1345,0.3394 -0.3178,0.61632 -0.55704,0.84154 -0.11334,0.10669 -0.19542,0.20463 -0.18242,0.21764 0.0358,0.0358 0.63723,-0.12444 0.94022,-0.25057 0.14736,-0.0613 0.36776,-0.17607 0.4898,-0.25494 l 0.22188,-0.14341 -0.0211,0.11865 c -0.10831,0.61004 -0.37665,1.06218 -0.7605,1.2814 l -0.18323,0.10464 0.13118,0.0246 c 0.0721,0.0135 0.27421,0.006 0.44902,-0.0177 0.17481,-0.0233 0.32732,-0.0328 0.33891,-0.0212 0.0446,0.0445 -0.18546,0.43474 -0.32832,0.55702 -0.28177,0.24118 -0.71745,0.39116 -1.13916,0.39215 -0.37294,8.8e-4 -0.38597,0.0396 -0.0754,0.22404 0.1474,0.0876 0.40334,0.21378 0.56877,0.28048 0.16543,0.0667 0.30078,0.14171 0.30078,0.16668 0,0.0689 -0.30592,0.21106 -0.55075,0.25596 -0.25072,0.046 -0.50438,0.0203 -0.81345,-0.0823 -0.11939,-0.0396 -0.22546,-0.0637 -0.23569,-0.0535 -0.0207,0.0207 0.20925,0.3525 0.3574,0.51569 0.0525,0.0578 0.16908,0.1485 0.25915,0.20159 l 0.16376,0.0965 -0.10826,0.0319 c -0.14945,0.0441 -0.81181,0.004 -1.13564,-0.0693 -0.14725,-0.0332 -0.37291,-0.10214 -0.50148,-0.15326 -0.14776,-0.0588 -0.24668,-0.08 -0.26892,-0.0578 -0.0387,0.0387 0.19569,0.42543 0.32963,0.54392 0.0433,0.0383 0.0699,0.0841 0.059,0.10175 -0.0326,0.0527 -0.52501,0.0363 -0.76352,-0.0255 -0.12221,-0.0317 -0.22705,-0.0525 -0.23298,-0.0463 -0.006,0.006 0.0464,0.12654 0.11624,0.26736 0.0817,0.16466 0.11427,0.26879 0.0913,0.29178 -0.0446,0.0447 -0.32622,-0.0226 -0.53015,-0.12664 -0.0806,-0.0411 -0.15355,-0.0679 -0.16202,-0.0594 -0.009,0.008 0.01,0.0757 0.0406,0.14941 0.0308,0.0737 0.056,0.15119 0.056,0.17219 0,0.0549 -0.18109,0.047 -0.39191,-0.0169 -0.0999,-0.0303 -0.19208,-0.0553 -0.20484,-0.0555 -0.0524,-9.5e-4 -0.17673,0.37016 -0.21395,0.63876 -0.0593,0.42775 0.0418,1.01642 0.27183,1.58245 0.0493,0.12133 0.0735,0.22061 0.0538,0.22061 -0.0197,0 -0.10183,-0.0336 -0.18243,-0.0748 -0.0806,-0.0411 -0.14654,-0.0595 -0.14654,-0.0409 0,0.0186 0.0349,0.14801 0.0774,0.28753 0.10413,0.34099 0.4125,0.92558 0.63187,1.19781 0.0983,0.12201 0.17876,0.23036 0.17876,0.24077 0,0.0435 -0.38398,-0.18011 -0.51937,-0.30243 l -0.14669,-0.13253 v 0.25234 0.25233 l -0.15191,-0.14627 -0.1519,-0.14627 0.0272,0.12951 c 0.0253,0.12056 0.16243,0.55958 0.22385,0.71662 0.0244,0.0625 0.0185,0.0647 -0.0619,0.0234 -0.0489,-0.0251 -0.15964,-0.11376 -0.24613,-0.19703 l -0.15724,-0.1514 v 0.32797 c 0,0.32039 -0.002,0.32649 -0.0706,0.26405 -0.0388,-0.0352 -0.0908,-0.11266 -0.1155,-0.17225 -0.055,-0.13266 -0.0984,-0.13713 -0.15364,-0.0158 -0.0583,0.12796 -0.0973,0.11618 -0.17267,-0.0522 l -0.0648,-0.14468 -0.0825,0.15393 c -0.0454,0.0847 -0.11496,0.19557 -0.15461,0.24644 l -0.0721,0.0925 -8.1e-4,-0.33402 z m 0.17679,-7.90661 c 0.0625,-0.0625 0.0553,-0.21278 -0.0116,-0.23843 -0.0766,-0.0294 -0.16604,0.0523 -0.16604,0.15168 0,0.13222 0.0888,0.17558 0.17761,0.0867 z"
       id="path2152-6-5-7" />
    <text
       xml:space="preserve"
       style="font-size:14.1111px;line-height:1.25;font-family:'Blood Crow';-inkscape-font-specification:'Blood Crow';stroke-width:0.264583"
       x="-435.23306"
       y="156.53767"
       id="text9052-17"><tspan
         id="tspan9050-2"
         style="font-style:normal;font-variant:normal;font-weight:normal;font-stretch:normal;font-size:14.1111px;font-family:'Bleeding Cowboys';-inkscape-font-specification:'Bleeding Cowboys';stroke-width:0.264583"
         x="-435.23306"
         y="156.53767">3</tspan></text>
    <text
       xml:space="preserve"
       style="font-size:14.1111px;line-height:1.25;font-family:'Blood Crow';-inkscape-font-specification:'Blood Crow';stroke-width:0.264583"
       x="381.57578"
       y="-219.57518"
       id="text9052-3-7"
       transform="scale(-1)"><tspan
         id="tspan9050-0-22"
         style="font-style:normal;font-variant:normal;font-weight:normal;font-stretch:normal;font-size:14.1111px;font-family:'Bleeding Cowboys';-inkscape-font-specification:'Bleeding Cowboys';stroke-width:0.264583"
         x="381.57578"
         y="-219.57518">3</tspan></text>
  </g>
</svg>
