<?xml version="1.0" encoding="UTF-8" standalone="no"?>
<!-- Created with Inkscape (http://www.inkscape.org/) -->

<svg
   width="63mm"
   height="89mm"
   viewBox="0 0 63 89"
   version="1.1"
   id="svg5"
   xmlns:xlink="http://www.w3.org/1999/xlink"
   xmlns="http://www.w3.org/2000/svg"
   xmlns:svg="http://www.w3.org/2000/svg">
  <defs
     id="defs2">
    <linearGradient
       id="linearGradient66035">
      <stop
         style="stop-color:#ffeeaa;stop-opacity:1;"
         offset="0"
         id="stop66031" />
      <stop
         style="stop-color:#ffeeaa;stop-opacity:0;"
         offset="1"
         id="stop66033" />
    </linearGradient>
    <linearGradient
       xlink:href="#linearGradient66035"
       id="linearGradient66037"
       x1="-609.21545"
       y1="124.85085"
       x2="-533.06219"
       y2="235.37372"
       gradientUnits="userSpaceOnUse"
       gradientTransform="translate(609.74701,-124.322)" />
  </defs>
  <g
     id="layer1"
     style="display:inline">
    <rect
       style="display:inline;fill:url(#linearGradient66037);fill-opacity:1;stroke:#000000;stroke-width:0.659785;stroke-miterlimit:4;stroke-dasharray:none;stroke-opacity:1"
       id="rect870-4"
       width="62.340214"
       height="88.340218"
       x="0.53155589"
       y="0.52885294"
       rx="3.7119057"
       ry="3.3358381" />
  </g>
  <g
     id="layer2"
     style="display:inline">
    <path
       style="fill:#000000;stroke-width:0.0372786"
       d="m 30.954541,72.299094 c -0.47594,-0.159133 -1.1606,-0.600592 -1.56277,-1.00766 -0.26625,-0.269491 -0.3049,-0.331171 -0.66933,-1.068264 -0.35067,-0.709253 -0.75018,-1.58641 -0.75018,-1.647079 0,-0.0132 0.0494,0.05016 0.10969,0.140816 0.0603,0.09065 0.19762,0.248701 0.30509,0.351217 0.10748,0.102517 0.16775,0.144455 0.13393,0.0932 -0.47699,-0.723082 -0.67799,-1.282557 -0.75669,-2.106241 -0.0157,-0.164025 -0.0356,-0.264678 -0.0443,-0.223672 -0.009,0.04101 -0.0325,0.09133 -0.0528,0.111837 -0.0524,0.05299 -0.0126,-2.326622 0.0434,-2.590863 0.0768,-0.36255 0.23161,-0.868195 0.35665,-1.164891 0.53965,-1.2805 1.87402,-2.201543 3.31601,-2.28886 1.25503,-0.076 2.55359,0.592542 3.2873,1.692402 0.30021,0.450023 0.53271,1.049103 0.68359,1.761349 0.056,0.264241 0.0958,2.643849 0.0434,2.590863 -0.0203,-0.0205 -0.0437,-0.07083 -0.0521,-0.111837 -0.008,-0.04101 -0.0273,0.04287 -0.042,0.186393 -0.0691,0.673012 -0.20625,1.187155 -0.42463,1.592017 -0.0944,0.174951 -0.0949,0.17528 -0.20049,0.120687 -0.0661,-0.03416 -0.11739,-0.09923 -0.13652,-0.173037 l -0.0306,-0.118293 -0.0813,0.188938 -0.0813,0.188938 -0.24262,0.04578 c -0.2286,0.04313 -0.25019,0.05631 -0.37357,0.228053 -0.072,0.10025 -0.16034,0.182807 -0.19625,0.183459 -0.0359,6.34e-4 -0.0976,0.02565 -0.13716,0.05555 -0.0687,0.05201 -0.0666,0.05618 0.0486,0.09636 0.11041,0.03849 0.11834,0.05174 0.0951,0.158803 -0.014,0.06424 -0.0484,0.149898 -0.0766,0.190341 -0.0281,0.04044 -0.0512,0.08657 -0.0512,0.102516 0,0.05413 0.19882,0.02929 0.26822,-0.03351 0.0914,-0.08274 0.14098,-0.03093 0.18238,0.19067 0.0269,0.143748 0.0187,0.199626 -0.0498,0.34061 -0.0716,0.147416 -0.12196,0.189797 -0.3998,0.336575 -0.25897,0.136814 -0.34009,0.201679 -0.43786,0.350126 -0.0732,0.111083 -0.2114,0.243505 -0.35415,0.339257 -0.12878,0.08638 -0.23922,0.160932 -0.24542,0.165673 -0.006,0.0047 0.0211,0.134982 0.0606,0.289425 l 0.0719,0.280805 -0.2284,0.103411 c -0.20159,0.09127 -0.28094,0.104777 -0.67575,0.115052 -0.35789,0.0093 -0.48834,-0.0021 -0.65238,-0.05691 z m 0.52674,-1.218983 c 0.16469,-0.06452 0.17884,-0.06464 0.30945,-0.0027 0.24713,0.117272 0.37563,0.118685 0.48894,0.0054 0.0883,-0.08827 0.0983,-0.122336 0.083,-0.281672 l -0.0174,-0.181261 0.18081,-0.04337 c 0.23641,-0.05671 0.25515,-0.09768 0.0596,-0.130245 -0.22141,-0.03687 -0.40552,-0.138189 -0.54989,-0.302612 l -0.12328,-0.140416 -0.14136,0.159289 -0.14135,0.159288 -0.13692,-0.151545 c -0.0753,-0.08335 -0.1489,-0.151546 -0.16355,-0.151546 -0.0147,0 -0.0488,0.04139 -0.0759,0.09198 -0.0717,0.133961 -0.30699,0.27591 -0.54814,0.330678 -0.20874,0.04741 -0.20957,0.04813 -0.10175,0.08913 0.0598,0.02273 0.15498,0.05144 0.21153,0.06379 0.0958,0.02093 0.10129,0.03214 0.08,0.165159 -0.0238,0.148917 0.0498,0.351165 0.14256,0.391491 0.0738,0.0321 0.25455,0.0032 0.44364,-0.07085 z m -0.0794,-1.823802 c 0,-0.04509 -0.34131,-0.244103 -0.41865,-0.244103 -0.10381,0 -0.17781,0.06371 -0.17781,0.153081 0,0.055 0.017,0.0584 0.12556,0.02508 0.0964,-0.02959 0.16347,-0.02514 0.28891,0.01919 0.0898,0.03175 0.16754,0.05904 0.17267,0.06066 0.005,0.0016 0.009,-0.0046 0.009,-0.01391 z m 0.99094,-0.06651 c 0.12937,0.0397 0.13161,0.0386 0.1203,-0.05925 -0.0202,-0.174368 -0.29512,-0.14473 -0.47966,0.0517 l -0.0841,0.08949 0.1558,-0.0612 c 0.12466,-0.04897 0.18217,-0.05311 0.28763,-0.02074 z m 1.87951,-1.364603 V 67.45831 l -0.14646,-0.04388 c -0.11804,-0.03537 -0.15474,-0.06899 -0.18918,-0.173355 -0.0417,-0.126463 -0.0385,-0.133604 0.13838,-0.306849 0.19098,-0.187041 0.30963,-0.393993 0.32094,-0.559802 0.009,-0.126599 -0.0749,-0.147692 -0.60894,-0.1537 l -0.39207,-0.0044 -0.25046,-0.502554 -0.25046,-0.502553 0.096,-0.259007 c 0.0598,-0.161392 0.0842,-0.278909 0.0647,-0.311816 -0.0172,-0.02905 -0.15711,-0.205283 -0.31088,-0.391637 l -0.27959,-0.338826 -0.33282,-0.113857 c -0.18305,-0.06262 -0.33873,-0.107954 -0.34594,-0.100739 -0.007,0.0072 0.0977,0.08532 0.23316,0.173577 0.28918,0.188405 0.85134,0.804354 0.81526,0.893264 -0.0126,0.03091 -0.0583,0.153312 -0.10168,0.272005 l -0.0789,0.215805 0.25026,0.502161 c 0.13765,0.276187 0.25027,0.516741 0.25027,0.534564 0,0.01782 -0.0544,0.05494 -0.12088,0.08247 -0.24354,0.100876 -0.47449,0.366251 -0.55104,0.633157 -0.0264,0.09216 -0.0158,0.106605 0.12552,0.169932 0.12336,0.05529 0.24202,0.06871 0.59012,0.0667 l 0.43572,-0.0025 0.0621,0.137657 c 0.056,0.124091 0.081,0.140872 0.25423,0.170267 l 0.19214,0.03261 0.0341,0.307549 c 0.0188,0.169151 0.0481,0.307547 0.0652,0.307547 0.0171,0 0.0311,-0.165098 0.0311,-0.366884 z m -3.79799,-0.656716 c 0.12957,-0.06399 0.13341,-0.07148 0.0971,-0.189692 -0.0725,-0.2362 -0.29154,-0.473788 -0.5655,-0.613359 -0.25602,-0.130429 -0.25629,-0.130475 -0.77031,-0.130475 -0.5888,0 -0.62562,0.01468 -0.55142,0.219872 0.11953,0.330537 0.47176,0.660762 0.80421,0.753961 0.24916,0.06985 0.8092,0.04695 0.98589,-0.04031 z"
       id="path2429" />
    <path
       style="display:inline;fill:#000000;stroke-width:0.0372786"
       d="m 30.954541,27.92494 c -0.47594,-0.159133 -1.1606,-0.600592 -1.56277,-1.00766 -0.26625,-0.269491 -0.3049,-0.331171 -0.66933,-1.068264 -0.35067,-0.709253 -0.75018,-1.58641 -0.75018,-1.647079 0,-0.0132 0.0494,0.05016 0.10969,0.140816 0.0603,0.09065 0.19762,0.248701 0.30509,0.351217 0.10748,0.102517 0.16775,0.144455 0.13393,0.0932 -0.47699,-0.723082 -0.67799,-1.282557 -0.75669,-2.106241 -0.0157,-0.164025 -0.0356,-0.264678 -0.0443,-0.223672 -0.009,0.04101 -0.0325,0.09133 -0.0528,0.111837 -0.0524,0.05299 -0.0126,-2.326622 0.0434,-2.590863 0.0768,-0.36255 0.23161,-0.868195 0.35665,-1.164891 0.53965,-1.2805 1.87402,-2.201543 3.31601,-2.28886 1.25503,-0.076 2.55359,0.592542 3.2873,1.692402 0.30021,0.450023 0.53271,1.049103 0.68359,1.761349 0.056,0.264241 0.0958,2.643849 0.0434,2.590863 -0.0203,-0.0205 -0.0437,-0.07083 -0.0521,-0.111837 -0.008,-0.04101 -0.0273,0.04287 -0.042,0.186393 -0.0691,0.673012 -0.20625,1.187155 -0.42463,1.592017 -0.0944,0.174951 -0.0949,0.17528 -0.20049,0.120687 -0.0661,-0.03416 -0.11739,-0.09923 -0.13652,-0.173037 l -0.0306,-0.118293 -0.0813,0.188938 -0.0813,0.188938 -0.24262,0.04578 c -0.2286,0.04313 -0.25019,0.05631 -0.37357,0.228053 -0.072,0.10025 -0.16034,0.182807 -0.19625,0.183459 -0.0359,6.34e-4 -0.0976,0.02565 -0.13716,0.05555 -0.0687,0.05201 -0.0666,0.05618 0.0486,0.09636 0.11041,0.03849 0.11834,0.05174 0.0951,0.158803 -0.014,0.06424 -0.0484,0.149898 -0.0766,0.190341 -0.0281,0.04044 -0.0512,0.08657 -0.0512,0.102516 0,0.05413 0.19882,0.02929 0.26822,-0.03351 0.0914,-0.08274 0.14098,-0.03093 0.18238,0.19067 0.0269,0.143748 0.0187,0.199626 -0.0498,0.34061 -0.0716,0.147416 -0.12196,0.189797 -0.3998,0.336575 -0.25897,0.136814 -0.34009,0.201679 -0.43786,0.350126 -0.0732,0.111083 -0.2114,0.243505 -0.35415,0.339257 -0.12878,0.08638 -0.23922,0.160932 -0.24542,0.165673 -0.006,0.0047 0.0211,0.134982 0.0606,0.289425 l 0.0719,0.280805 -0.2284,0.103411 c -0.20159,0.09127 -0.28094,0.104777 -0.67575,0.115052 -0.35789,0.0093 -0.48834,-0.0021 -0.65238,-0.05691 z m 0.52674,-1.218983 c 0.16469,-0.06452 0.17884,-0.06464 0.30945,-0.0027 0.24713,0.117272 0.37563,0.118685 0.48894,0.0054 0.0883,-0.08827 0.0983,-0.122336 0.083,-0.281672 l -0.0174,-0.181261 0.18081,-0.04337 c 0.23641,-0.05671 0.25515,-0.09768 0.0596,-0.130245 -0.22141,-0.03687 -0.40552,-0.138189 -0.54989,-0.302612 l -0.12328,-0.140416 -0.14136,0.159289 -0.14135,0.159288 -0.13692,-0.151545 c -0.0753,-0.08335 -0.1489,-0.151546 -0.16355,-0.151546 -0.0147,0 -0.0488,0.04139 -0.0759,0.09198 -0.0717,0.133961 -0.30699,0.27591 -0.54814,0.330678 -0.20874,0.04741 -0.20957,0.04813 -0.10175,0.08913 0.0598,0.02273 0.15498,0.05144 0.21153,0.06379 0.0958,0.02093 0.10129,0.03214 0.08,0.165159 -0.0238,0.148917 0.0498,0.351165 0.14256,0.391491 0.0738,0.0321 0.25455,0.0032 0.44364,-0.07085 z m -0.0794,-1.823802 c 0,-0.04509 -0.34131,-0.244103 -0.41865,-0.244103 -0.10381,0 -0.17781,0.06371 -0.17781,0.153081 0,0.055 0.017,0.0584 0.12556,0.02508 0.0964,-0.02959 0.16347,-0.02514 0.28891,0.01919 0.0898,0.03175 0.16754,0.05904 0.17267,0.06066 0.005,0.0016 0.009,-0.0046 0.009,-0.01391 z m 0.99094,-0.06651 c 0.12937,0.0397 0.13161,0.0386 0.1203,-0.05925 -0.0202,-0.174368 -0.29512,-0.14473 -0.47966,0.0517 l -0.0841,0.08949 0.1558,-0.0612 c 0.12466,-0.04897 0.18217,-0.05311 0.28763,-0.02074 z m 1.87951,-1.364603 v -0.366886 l -0.14646,-0.04388 c -0.11804,-0.03537 -0.15474,-0.06899 -0.18918,-0.173355 -0.0417,-0.126463 -0.0385,-0.133604 0.13838,-0.306849 0.19098,-0.187041 0.30963,-0.393993 0.32094,-0.559802 0.009,-0.126599 -0.0749,-0.147692 -0.60894,-0.1537 l -0.39207,-0.0044 -0.25046,-0.502554 -0.25046,-0.502553 0.096,-0.259007 c 0.0598,-0.161392 0.0842,-0.278909 0.0647,-0.311816 -0.0172,-0.02905 -0.15711,-0.205283 -0.31088,-0.391637 l -0.27959,-0.338826 -0.33282,-0.113857 c -0.18305,-0.06262 -0.33873,-0.107954 -0.34594,-0.100739 -0.007,0.0072 0.0977,0.08532 0.23316,0.173577 0.28918,0.188405 0.85134,0.804354 0.81526,0.893264 -0.0126,0.03091 -0.0583,0.153312 -0.10168,0.272005 l -0.0789,0.215805 0.25026,0.502161 c 0.13765,0.276187 0.25027,0.516741 0.25027,0.534564 0,0.01782 -0.0544,0.05494 -0.12088,0.08247 -0.24354,0.100876 -0.47449,0.366251 -0.55104,0.633157 -0.0264,0.09216 -0.0158,0.106605 0.12552,0.169932 0.12336,0.05529 0.24202,0.06871 0.59012,0.0667 l 0.43572,-0.0025 0.0621,0.137657 c 0.056,0.124091 0.081,0.140872 0.25423,0.170267 l 0.19214,0.03261 0.0341,0.307549 c 0.0188,0.169151 0.0481,0.307547 0.0652,0.307547 0.0171,0 0.0311,-0.165098 0.0311,-0.366884 z m -3.79799,-0.656716 c 0.12957,-0.06399 0.13341,-0.07148 0.0971,-0.189692 -0.0725,-0.2362 -0.29154,-0.473788 -0.5655,-0.613359 -0.25602,-0.130429 -0.25629,-0.130475 -0.77031,-0.130475 -0.5888,0 -0.62562,0.01468 -0.55142,0.219872 0.11953,0.330537 0.47176,0.660762 0.80421,0.753961 0.24916,0.06985 0.8092,0.04695 0.98589,-0.04031 z"
       id="path2429-3" />
    <path
       style="display:inline;fill:#000000;stroke-width:0.0372786"
       d="m 30.891692,50.112019 c -0.47594,-0.159133 -1.1606,-0.600592 -1.56277,-1.00766 -0.26625,-0.269491 -0.3049,-0.331171 -0.66933,-1.068264 -0.35067,-0.709253 -0.75018,-1.58641 -0.75018,-1.647079 0,-0.0132 0.0494,0.05016 0.10969,0.140816 0.0603,0.09065 0.19762,0.248701 0.30509,0.351217 0.10748,0.102517 0.16775,0.144455 0.13393,0.0932 -0.47699,-0.723082 -0.67799,-1.282557 -0.75669,-2.106241 -0.0157,-0.164025 -0.0356,-0.264678 -0.0443,-0.223672 -0.009,0.04101 -0.0325,0.09133 -0.0528,0.111837 -0.0524,0.05299 -0.0126,-2.326622 0.0434,-2.590863 0.0768,-0.36255 0.23161,-0.868195 0.35665,-1.164891 0.53965,-1.2805 1.87402,-2.201543 3.31601,-2.28886 1.25503,-0.076 2.55359,0.592542 3.2873,1.692402 0.30021,0.450023 0.53271,1.049103 0.68359,1.761349 0.056,0.264241 0.0958,2.643849 0.0434,2.590863 -0.0203,-0.0205 -0.0437,-0.07083 -0.0521,-0.111837 -0.008,-0.04101 -0.0273,0.04287 -0.042,0.186393 -0.0691,0.673012 -0.20625,1.187155 -0.42463,1.592017 -0.0944,0.174951 -0.0949,0.17528 -0.20049,0.120687 -0.0661,-0.03416 -0.11739,-0.09923 -0.13652,-0.173037 l -0.0306,-0.118293 -0.0813,0.188938 -0.0813,0.188938 -0.24262,0.04578 c -0.2286,0.04313 -0.25019,0.05631 -0.37357,0.228053 -0.072,0.10025 -0.16034,0.182807 -0.19625,0.183459 -0.0359,6.34e-4 -0.0976,0.02565 -0.13716,0.05555 -0.0687,0.05201 -0.0666,0.05618 0.0486,0.09636 0.11041,0.03849 0.11834,0.05174 0.0951,0.158803 -0.014,0.06424 -0.0484,0.149898 -0.0766,0.190341 -0.0281,0.04044 -0.0512,0.08657 -0.0512,0.102516 0,0.05413 0.19882,0.02929 0.26822,-0.03351 0.0914,-0.08274 0.14098,-0.03093 0.18238,0.19067 0.0269,0.143748 0.0187,0.199626 -0.0498,0.34061 -0.0716,0.147416 -0.12196,0.189797 -0.3998,0.336575 -0.25897,0.136814 -0.34009,0.201679 -0.43786,0.350126 -0.0732,0.111083 -0.2114,0.243505 -0.35415,0.339257 -0.12878,0.08638 -0.23922,0.160932 -0.24542,0.165673 -0.006,0.0047 0.0211,0.134982 0.0606,0.289425 l 0.0719,0.280805 -0.2284,0.103411 c -0.20159,0.09127 -0.28094,0.104777 -0.67575,0.115052 -0.35789,0.0093 -0.48834,-0.0021 -0.65238,-0.05691 z m 0.52674,-1.218983 c 0.16469,-0.06452 0.17884,-0.06464 0.30945,-0.0027 0.24713,0.117272 0.37563,0.118685 0.48894,0.0054 0.0883,-0.08827 0.0983,-0.122336 0.083,-0.281672 l -0.0174,-0.181261 0.18081,-0.04337 c 0.23641,-0.05671 0.25515,-0.09768 0.0596,-0.130245 -0.22141,-0.03687 -0.40552,-0.138189 -0.54989,-0.302612 l -0.12328,-0.140416 -0.14136,0.159289 -0.14135,0.159288 -0.13692,-0.151545 c -0.0753,-0.08335 -0.1489,-0.151546 -0.16355,-0.151546 -0.0147,0 -0.0488,0.04139 -0.0759,0.09198 -0.0717,0.133961 -0.30699,0.27591 -0.54814,0.330678 -0.20874,0.04741 -0.20957,0.04813 -0.10175,0.08913 0.0598,0.02273 0.15498,0.05144 0.21153,0.06379 0.0958,0.02093 0.10129,0.03214 0.08,0.165159 -0.0238,0.148917 0.0498,0.351165 0.14256,0.391491 0.0738,0.0321 0.25455,0.0032 0.44364,-0.07085 z m -0.0794,-1.823802 c 0,-0.04509 -0.34131,-0.244103 -0.41865,-0.244103 -0.10381,0 -0.17781,0.06371 -0.17781,0.153081 0,0.055 0.017,0.0584 0.12556,0.02508 0.0964,-0.02959 0.16347,-0.02514 0.28891,0.01919 0.0898,0.03175 0.16754,0.05904 0.17267,0.06066 0.005,0.0016 0.009,-0.0046 0.009,-0.01391 z m 0.99094,-0.06651 c 0.12937,0.0397 0.13161,0.0386 0.1203,-0.05925 -0.0202,-0.174368 -0.29512,-0.14473 -0.47966,0.0517 l -0.0841,0.08949 0.1558,-0.0612 c 0.12466,-0.04897 0.18217,-0.05311 0.28763,-0.02074 z m 1.87951,-1.364603 v -0.366886 l -0.14646,-0.04388 c -0.11804,-0.03537 -0.15474,-0.06899 -0.18918,-0.173355 -0.0417,-0.126463 -0.0385,-0.133604 0.13838,-0.306849 0.19098,-0.187041 0.30963,-0.393993 0.32094,-0.559802 0.009,-0.126599 -0.0749,-0.147692 -0.60894,-0.1537 l -0.39207,-0.0044 -0.25046,-0.502554 -0.25046,-0.502553 0.096,-0.259007 c 0.0598,-0.161392 0.0842,-0.278909 0.0647,-0.311816 -0.0172,-0.02905 -0.15711,-0.205283 -0.31088,-0.391637 l -0.27959,-0.338826 -0.33282,-0.113857 c -0.18305,-0.06262 -0.33873,-0.107954 -0.34594,-0.100739 -0.007,0.0072 0.0977,0.08532 0.23316,0.173577 0.28918,0.188405 0.85134,0.804354 0.81526,0.893264 -0.0126,0.03091 -0.0583,0.153312 -0.10168,0.272005 l -0.0789,0.215805 0.25026,0.502161 c 0.13765,0.276187 0.25027,0.516741 0.25027,0.534564 0,0.01782 -0.0544,0.05494 -0.12088,0.08247 -0.24354,0.100876 -0.47449,0.366251 -0.55104,0.633157 -0.0264,0.09216 -0.0158,0.106605 0.12552,0.169932 0.12336,0.05529 0.24202,0.06871 0.59012,0.0667 l 0.43572,-0.0025 0.0621,0.137657 c 0.056,0.124091 0.081,0.140872 0.25423,0.170267 l 0.19214,0.03261 0.0341,0.307549 c 0.0188,0.169151 0.0481,0.307547 0.0652,0.307547 0.0171,0 0.0311,-0.165098 0.0311,-0.366884 z m -3.79799,-0.656716 c 0.12957,-0.06399 0.13341,-0.07148 0.0971,-0.189692 -0.0725,-0.2362 -0.29154,-0.473788 -0.5655,-0.613359 -0.25602,-0.130429 -0.25629,-0.130475 -0.77031,-0.130475 -0.5888,0 -0.62562,0.01468 -0.55142,0.219872 0.11953,0.330537 0.47176,0.660762 0.80421,0.753961 0.24916,0.06985 0.8092,0.04695 0.98589,-0.04031 z"
       id="path2429-3-6" />
  </g>
  <g
     id="layer3"
     style="display:inline">
    <text
       xml:space="preserve"
       style="font-size:14.1111px;line-height:1.25;font-family:'Blood Crow';-inkscape-font-specification:'Blood Crow';stroke-width:0.264583"
       x="4.6315317"
       y="12.534263"
       id="text9052-1"><tspan
         id="tspan9050-4"
         style="font-style:normal;font-variant:normal;font-weight:normal;font-stretch:normal;font-size:14.1111px;font-family:'Bleeding Cowboys';-inkscape-font-specification:'Bleeding Cowboys';stroke-width:0.264583"
         x="4.6315317"
         y="12.534263">3</tspan></text>
    <text
       xml:space="preserve"
       style="font-size:14.1111px;line-height:1.25;font-family:'Blood Crow';-inkscape-font-specification:'Blood Crow';stroke-width:0.264583"
       x="-58.817997"
       y="-75.571785"
       id="text9052-3-9"
       transform="scale(-1)"><tspan
         id="tspan9050-0-2"
         style="font-style:normal;font-variant:normal;font-weight:normal;font-stretch:normal;font-size:14.1111px;font-family:'Bleeding Cowboys';-inkscape-font-specification:'Bleeding Cowboys';stroke-width:0.264583"
         x="-58.817997"
         y="-75.571785">3</tspan></text>
  </g>
</svg>
