<?xml version="1.0" encoding="UTF-8" standalone="no"?>
<!-- Created with Inkscape (http://www.inkscape.org/) -->

<svg
   width="63mm"
   height="89mm"
   viewBox="0 0 63 89"
   version="1.1"
   id="svg5"
   sodipodi:docname="4-Corbeau.svg"
   inkscape:version="1.1.2 (1:1.1+202202050950+0a00cf5339)"
   xmlns:inkscape="http://www.inkscape.org/namespaces/inkscape"
   xmlns:sodipodi="http://sodipodi.sourceforge.net/DTD/sodipodi-0.dtd"
   xmlns:xlink="http://www.w3.org/1999/xlink"
   xmlns="http://www.w3.org/2000/svg"
   xmlns:svg="http://www.w3.org/2000/svg">
  <sodipodi:namedview
     id="namedview155"
     pagecolor="#ffffff"
     bordercolor="#666666"
     borderopacity="1.0"
     inkscape:pageshadow="2"
     inkscape:pageopacity="0.0"
     inkscape:pagecheckerboard="0"
     inkscape:document-units="mm"
     showgrid="false"
     inkscape:zoom="4.0192884"
     inkscape:cx="123.15613"
     inkscape:cy="70.286074"
     inkscape:window-width="1920"
     inkscape:window-height="1057"
     inkscape:window-x="1920"
     inkscape:window-y="0"
     inkscape:window-maximized="1"
     inkscape:current-layer="svg5" />
  <defs
     id="defs2">
    <linearGradient
       id="linearGradient66035">
      <stop
         style="stop-color:#ffeeaa;stop-opacity:1;"
         offset="0"
         id="stop66031" />
      <stop
         style="stop-color:#ffeeaa;stop-opacity:0;"
         offset="1"
         id="stop66033" />
    </linearGradient>
    <linearGradient
       xlink:href="#linearGradient66035"
       id="linearGradient66037"
       x1="-609.21545"
       y1="124.85085"
       x2="-533.06219"
       y2="235.37372"
       gradientUnits="userSpaceOnUse" />
    <linearGradient
       xlink:href="#linearGradient66035"
       id="linearGradient66272"
       gradientUnits="userSpaceOnUse"
       x1="-609.21545"
       y1="124.85085"
       x2="-533.06219"
       y2="235.37372"
       gradientTransform="translate(107.54224,19.681403)" />
    <linearGradient
       xlink:href="#linearGradient66035"
       id="linearGradient66419"
       gradientUnits="userSpaceOnUse"
       gradientTransform="translate(169.88249,19.681395)"
       x1="-609.21545"
       y1="124.85085"
       x2="-533.06219"
       y2="235.37372" />
    <linearGradient
       xlink:href="#linearGradient66035"
       id="linearGradient66886"
       gradientUnits="userSpaceOnUse"
       gradientTransform="translate(609.74704,-124.32202)"
       x1="-609.21545"
       y1="124.85085"
       x2="-533.06219"
       y2="235.37372" />
    <linearGradient
       xlink:href="#linearGradient66035"
       id="linearGradient67116"
       gradientUnits="userSpaceOnUse"
       gradientTransform="translate(761.64943,-239.23166)"
       x1="-609.21545"
       y1="124.85085"
       x2="-533.06219"
       y2="235.37372" />
    <linearGradient
       xlink:href="#linearGradient66035"
       id="linearGradient73095"
       gradientUnits="userSpaceOnUse"
       gradientTransform="translate(-18.43475,-1222.8025)"
       x1="-609.21545"
       y1="124.85085"
       x2="-533.06219"
       y2="235.37372" />
    <linearGradient
       xlink:href="#linearGradient66035"
       id="linearGradient82342"
       gradientUnits="userSpaceOnUse"
       gradientTransform="translate(704.02075,-140.75031)"
       x1="-609.21545"
       y1="124.85085"
       x2="-533.06219"
       y2="235.37372" />
    <linearGradient
       xlink:href="#linearGradient66035"
       id="linearGradient90215"
       gradientUnits="userSpaceOnUse"
       gradientTransform="translate(340.696,-366.60502)"
       x1="-609.21545"
       y1="124.85085"
       x2="-533.06219"
       y2="235.37372" />
    <linearGradient
       xlink:href="#linearGradient66035"
       id="linearGradient99476"
       gradientUnits="userSpaceOnUse"
       gradientTransform="translate(510.6307,-103.31497)"
       x1="-609.21545"
       y1="124.85085"
       x2="-533.06219"
       y2="235.37372" />
    <linearGradient
       xlink:href="#linearGradient66035"
       id="linearGradient105434"
       gradientUnits="userSpaceOnUse"
       gradientTransform="translate(512.58237,-32.383406)"
       x1="-609.21545"
       y1="124.85085"
       x2="-533.06219"
       y2="235.37372" />
    <linearGradient
       xlink:href="#linearGradient66035"
       id="linearGradient116711"
       gradientUnits="userSpaceOnUse"
       gradientTransform="translate(521.8087,-182.6408)"
       x1="-609.21545"
       y1="124.85085"
       x2="-533.06219"
       y2="235.37372" />
  </defs>
  <g
     id="g67136"
     transform="translate(-152.04428,114.81383)">
    <rect
       style="display:inline;fill:url(#linearGradient67116);fill-opacity:1;stroke:#000000;stroke-width:0.659785;stroke-miterlimit:4;stroke-dasharray:none;stroke-opacity:1"
       id="rect870-4-6-9-1-7"
       width="62.340214"
       height="88.340218"
       x="152.43394"
       y="-114.38079"
       rx="3.7119057"
       ry="3.3358381" />
    <path
       style="display:inline;fill:#000000;stroke-width:0.0370034"
       d="m 168.5471,-86.742263 -8.1e-4,-0.334015 -0.22463,0.213755 c -0.24851,0.236468 -0.31084,0.264405 -0.25351,0.11362 0.0209,-0.05507 0.0694,-0.213273 0.10774,-0.351555 l 0.0697,-0.251422 -0.18313,0.194291 -0.18314,0.194292 0.0243,-0.364962 c 0.0278,-0.416681 0.0567,-0.4043 -0.31898,-0.136548 -0.11168,0.0796 -0.20852,0.139263 -0.21519,0.132593 -0.007,-0.0067 0.0398,-0.11503 0.1033,-0.240797 0.12842,-0.254399 0.33884,-0.859878 0.42018,-1.209029 l 0.053,-0.227602 -0.15604,0.162847 c -0.12638,0.131897 -0.18072,0.162846 -0.28592,0.162846 h -0.12989 l 0.19782,-0.397784 c 0.26597,-0.534825 0.38741,-1.009758 0.39502,-1.544888 0.005,-0.314145 -0.009,-0.446483 -0.0609,-0.579887 -0.0917,-0.237703 -0.14791,-0.278598 -0.24683,-0.179678 -0.0955,0.09554 -0.22955,0.149011 -0.37344,0.149011 -0.12701,0 -0.12409,0.0091 -0.0523,-0.162833 0.0717,-0.17161 0.0117,-0.207149 -0.17126,-0.101445 -0.13089,0.07561 -0.54194,0.174812 -0.57741,0.139343 -0.0112,-0.01122 0.0484,-0.152586 0.13245,-0.314159 0.21118,-0.405914 0.20429,-0.441653 -0.0567,-0.294337 -0.1775,0.100171 -0.2568,0.120757 -0.51805,0.134469 -0.16966,0.0089 -0.30847,0.0044 -0.30847,-0.01 0,-0.01439 0.0577,-0.09653 0.12813,-0.182531 0.13693,-0.167108 0.27676,-0.443601 0.27809,-0.5499 0.001,-0.08214 0.0142,-0.08447 -0.26654,0.04693 -0.31393,0.146903 -0.67384,0.220043 -1.08326,0.220136 -0.28226,7.4e-5 -0.4883,-0.03878 -0.42447,-0.08004 0.01,-0.0062 0.11708,-0.06114 0.23887,-0.122098 0.21952,-0.109872 0.68664,-0.509603 0.64496,-0.55191 -0.0119,-0.0121 -0.11277,0.0093 -0.22411,0.04764 -0.29805,0.102546 -0.54486,0.126422 -0.80994,0.07835 -0.26291,-0.04767 -0.60313,-0.203663 -0.58206,-0.266872 0.008,-0.02273 0.16271,-0.101249 0.34474,-0.174498 0.18203,-0.07325 0.4392,-0.199515 0.57149,-0.28059 l 0.24052,-0.147411 -0.24052,-0.02829 c -0.66379,-0.07808 -0.9622,-0.182492 -1.23179,-0.430984 -0.19261,-0.177543 -0.34585,-0.443716 -0.30969,-0.537933 0.0171,-0.04455 0.0453,-0.05665 0.0894,-0.03837 0.0784,0.03249 0.78601,0.07295 0.78601,0.04494 0,-0.01096 -0.0722,-0.06222 -0.16036,-0.113909 -0.28306,-0.165882 -0.52506,-0.493612 -0.6503,-0.88067 -0.0497,-0.153521 -0.11127,-0.512516 -0.0879,-0.512516 0.008,0 0.0685,0.03981 0.13323,0.08847 0.18348,0.13781 0.60652,0.337572 0.93275,0.440455 0.33531,0.105745 0.57267,0.156493 0.57267,0.122439 0,-0.01261 -0.10476,-0.126861 -0.2328,-0.25389 -0.25923,-0.257178 -0.45528,-0.59884 -0.57843,-1.008031 -0.0936,-0.311157 -0.15148,-0.74878 -0.11248,-0.851075 l 0.0282,-0.07401 0.0268,0.07401 c 0.10686,0.295429 0.31249,0.633891 0.54529,0.897524 0.49245,0.557675 0.81024,0.769631 1.58154,1.054839 0.54347,0.200962 0.52474,0.197733 0.48108,0.08291 -0.0768,-0.202022 -0.0391,-0.217926 0.12424,-0.05245 0.11209,0.113531 0.30679,0.23499 0.63831,0.398185 0.47805,0.235331 0.71755,0.386031 0.71755,0.451513 0,0.01926 -0.0596,0.100999 -0.13248,0.181649 -0.0981,0.108579 -0.12612,0.166647 -0.108,0.223745 0.031,0.09778 0.40489,0.348717 0.47784,0.320727 0.0301,-0.01156 0.0732,-0.09265 0.0957,-0.180193 0.1642,-0.638357 0.204,-0.68464 0.81892,-0.952354 0.44325,-0.192975 0.58094,-0.219031 0.72752,-0.13767 0.0826,0.04583 0.0797,0.04952 -0.10473,0.13592 -0.15973,0.07481 -0.33168,0.234591 -0.33168,0.308208 0,0.01094 0.0708,-0.02057 0.15727,-0.07002 0.14909,-0.08525 0.28677,-0.117864 0.28677,-0.06794 0,0.01258 -0.05,0.07976 -0.11101,0.149301 -0.10061,0.114596 -0.11101,0.150561 -0.11101,0.384168 0,0.178513 0.0142,0.259468 0.0463,0.263372 0.0254,0.0031 0.0642,0.0075 0.0861,0.0099 0.022,0.0023 0.0939,0.04968 0.15995,0.105241 0.0935,0.07871 0.13509,0.09297 0.18812,0.06459 0.0958,-0.05126 0.33361,-0.336019 0.33361,-0.399432 0,-0.02902 -0.05,-0.115844 -0.11101,-0.192932 -0.0611,-0.07709 -0.11101,-0.157973 -0.11101,-0.179742 0,-0.07127 0.44514,-0.411944 0.71576,-0.547781 0.14566,-0.07311 0.37306,-0.202453 0.50535,-0.28743 0.37276,-0.239455 0.34699,-0.229835 0.31922,-0.119167 -0.018,0.07162 -0.0104,0.09803 0.028,0.09803 0.0973,0 0.81552,-0.2642 1.11438,-0.409895 0.56195,-0.273953 1.15142,-0.86532 1.43565,-1.440269 l 0.15549,-0.314527 0.0118,0.143024 c 0.0158,0.191961 -0.0878,0.689536 -0.20511,0.985576 -0.1345,0.339401 -0.3178,0.616322 -0.55704,0.841545 -0.11334,0.106693 -0.19542,0.20463 -0.18241,0.217637 0.0358,0.03583 0.63723,-0.124434 0.94022,-0.25057 0.14735,-0.06134 0.36776,-0.176067 0.48979,-0.254942 l 0.22189,-0.143407 -0.0211,0.118647 c -0.10832,0.610041 -0.37666,1.062179 -0.7605,1.281402 l -0.18323,0.104646 0.13118,0.02461 c 0.0721,0.01354 0.27421,0.0056 0.44901,-0.01769 0.17481,-0.02326 0.32732,-0.03281 0.33891,-0.02123 0.0446,0.04454 -0.18545,0.434732 -0.32832,0.557018 -0.28176,0.24118 -0.71744,0.391161 -1.13915,0.392148 -0.37294,8.78e-4 -0.38597,0.03957 -0.0754,0.224038 0.14739,0.08756 0.40334,0.213783 0.56876,0.280485 0.16543,0.0667 0.30078,0.141706 0.30078,0.166678 0,0.06887 -0.30592,0.211054 -0.55075,0.255963 -0.25072,0.04599 -0.50438,0.02033 -0.81344,-0.08228 -0.1194,-0.03964 -0.22546,-0.0637 -0.2357,-0.05346 -0.0207,0.0207 0.20926,0.352493 0.35741,0.515683 0.0525,0.05778 0.16907,0.1485 0.25914,0.201592 l 0.16376,0.09653 -0.10825,0.03194 c -0.14945,0.04409 -0.81181,0.0037 -1.13565,-0.06926 -0.14725,-0.03318 -0.37291,-0.102141 -0.50147,-0.153258 -0.14777,-0.05875 -0.24669,-0.08 -0.26893,-0.05776 -0.0387,0.03869 0.19569,0.425425 0.32963,0.543914 0.0433,0.03834 0.0699,0.08413 0.059,0.101759 -0.0326,0.05274 -0.52501,0.03628 -0.76351,-0.02552 -0.12221,-0.03167 -0.22706,-0.05248 -0.23298,-0.04626 -0.006,0.0062 0.0464,0.12654 0.11624,0.267358 0.0817,0.164658 0.11427,0.268789 0.0913,0.291773 -0.0446,0.04466 -0.32623,-0.0226 -0.53015,-0.126634 -0.0806,-0.04114 -0.15356,-0.06787 -0.16203,-0.0594 -0.008,0.0085 0.01,0.0757 0.0406,0.149406 0.0308,0.0737 0.056,0.151191 0.056,0.172197 0,0.05485 -0.18108,0.04704 -0.3919,-0.01691 -0.0999,-0.03031 -0.19209,-0.05529 -0.20484,-0.0555 -0.0524,-9.52e-4 -0.17673,0.370158 -0.21396,0.638755 -0.0593,0.427748 0.0418,1.016423 0.27183,1.582447 0.0493,0.121338 0.0735,0.220614 0.0538,0.220614 -0.0197,0 -0.10183,-0.03364 -0.18242,-0.07476 -0.0806,-0.04112 -0.14654,-0.05952 -0.14654,-0.0409 0,0.01862 0.0349,0.14801 0.0774,0.287528 0.10412,0.340992 0.4125,0.925577 0.63186,1.197807 0.0983,0.122012 0.17876,0.230362 0.17876,0.240778 0,0.04348 -0.38398,-0.180118 -0.51937,-0.302438 l -0.14668,-0.132525 v 0.252337 0.252337 l -0.15191,-0.146272 -0.1519,-0.146273 0.0272,0.129513 c 0.0253,0.120553 0.16242,0.559573 0.22385,0.716617 0.0244,0.06246 0.0185,0.0647 -0.0619,0.02343 -0.0489,-0.0251 -0.15964,-0.113757 -0.24614,-0.197025 l -0.15724,-0.151402 v 0.327968 c 0,0.320389 -0.002,0.32649 -0.0706,0.264051 -0.0388,-0.03515 -0.0908,-0.112665 -0.1155,-0.172248 -0.055,-0.132661 -0.0984,-0.137134 -0.15363,-0.01583 -0.0583,0.12796 -0.0973,0.116176 -0.17268,-0.05217 l -0.0648,-0.144685 -0.0825,0.153935 c -0.0454,0.08466 -0.11495,0.195563 -0.15461,0.246442 l -0.0721,0.09251 -8.1e-4,-0.334015 z m 0.17679,-7.906614 c 0.0625,-0.06254 0.0553,-0.212777 -0.0116,-0.238422 -0.0766,-0.02939 -0.16605,0.05234 -0.16605,0.151678 0,0.132222 0.0888,0.17558 0.17762,0.08674 z"
       id="path2152-0-7" />
    <path
       style="display:inline;fill:#000000;stroke-width:0.0370034"
       d="m 168.68036,-43.169557 -8e-4,-0.334015 -0.22464,0.213755 c -0.2485,0.236468 -0.31084,0.264405 -0.25351,0.11362 0.0209,-0.05507 0.0694,-0.213273 0.10774,-0.351555 l 0.0697,-0.251422 -0.18313,0.194291 -0.18314,0.194292 0.0243,-0.364962 c 0.0278,-0.416681 0.0567,-0.4043 -0.31898,-0.136548 -0.11168,0.0796 -0.20852,0.139263 -0.21519,0.132593 -0.007,-0.0067 0.0398,-0.11503 0.10331,-0.240797 0.12842,-0.254399 0.33884,-0.859878 0.42017,-1.209029 l 0.053,-0.227602 -0.15603,0.162847 c -0.12638,0.131897 -0.18072,0.162846 -0.28593,0.162846 h -0.12988 l 0.19782,-0.397784 c 0.26597,-0.534825 0.3874,-1.009758 0.39501,-1.544888 0.004,-0.314145 -0.009,-0.446483 -0.0609,-0.579887 -0.0917,-0.237703 -0.14791,-0.278598 -0.24683,-0.179678 -0.0955,0.09554 -0.22954,0.149011 -0.37344,0.149011 -0.127,0 -0.12408,0.0091 -0.0522,-0.162833 0.0717,-0.17161 0.0117,-0.207149 -0.17126,-0.101445 -0.13089,0.07561 -0.54194,0.174812 -0.57741,0.139343 -0.0112,-0.01122 0.0484,-0.152586 0.13245,-0.314159 0.21118,-0.405914 0.20429,-0.441653 -0.0567,-0.294337 -0.17749,0.100171 -0.2568,0.120757 -0.51805,0.134469 -0.16965,0.0089 -0.30847,0.0044 -0.30847,-0.01 0,-0.01439 0.0577,-0.09653 0.12813,-0.182531 0.13694,-0.167108 0.27676,-0.443601 0.2781,-0.5499 0.001,-0.08214 0.0142,-0.08447 -0.26655,0.04693 -0.31392,0.146903 -0.67383,0.220043 -1.08326,0.220136 -0.28226,7.4e-5 -0.4883,-0.03878 -0.42446,-0.08004 0.01,-0.0062 0.11707,-0.06114 0.23887,-0.122098 0.21951,-0.109872 0.68663,-0.509603 0.64495,-0.55191 -0.0119,-0.0121 -0.11277,0.0093 -0.22411,0.04764 -0.29805,0.102546 -0.54486,0.126422 -0.80994,0.07835 -0.26291,-0.04767 -0.60313,-0.203663 -0.58206,-0.266872 0.008,-0.02273 0.16271,-0.101249 0.34474,-0.174498 0.18203,-0.07325 0.4392,-0.199515 0.57149,-0.28059 l 0.24052,-0.147411 -0.24052,-0.02829 c -0.66378,-0.07808 -0.9622,-0.182492 -1.23178,-0.430984 -0.19261,-0.177543 -0.34585,-0.443716 -0.3097,-0.537933 0.0171,-0.04455 0.0453,-0.05665 0.0894,-0.03837 0.0784,0.03249 0.78601,0.07295 0.78601,0.04494 0,-0.01096 -0.0722,-0.06222 -0.16036,-0.113909 -0.28306,-0.165882 -0.52506,-0.493612 -0.6503,-0.88067 -0.0497,-0.153521 -0.11126,-0.512516 -0.0879,-0.512516 0.008,0 0.0684,0.03981 0.13323,0.08847 0.18348,0.13781 0.60652,0.337572 0.93275,0.440455 0.33531,0.105745 0.57267,0.156493 0.57267,0.122439 0,-0.01261 -0.10476,-0.126861 -0.2328,-0.25389 -0.25923,-0.257178 -0.45528,-0.59884 -0.57842,-1.008031 -0.0936,-0.311157 -0.15149,-0.74878 -0.11249,-0.851075 l 0.0282,-0.07401 0.0268,0.07401 c 0.10686,0.295429 0.31249,0.633891 0.54529,0.897524 0.49245,0.557675 0.81024,0.769631 1.58155,1.054839 0.54347,0.200962 0.52473,0.197733 0.48108,0.08291 -0.0768,-0.202022 -0.0391,-0.217926 0.12424,-0.05245 0.11208,0.113531 0.30679,0.23499 0.6383,0.398185 0.47806,0.235331 0.71755,0.386031 0.71755,0.451513 0,0.01926 -0.0596,0.100999 -0.13248,0.181649 -0.0981,0.108579 -0.12612,0.166647 -0.108,0.223745 0.031,0.09778 0.4049,0.348717 0.47784,0.320727 0.0301,-0.01156 0.0732,-0.09265 0.0957,-0.180193 0.16421,-0.638357 0.20401,-0.68464 0.81892,-0.952354 0.44325,-0.192975 0.58094,-0.219031 0.72752,-0.13767 0.0826,0.04583 0.0797,0.04952 -0.10473,0.13592 -0.15973,0.07481 -0.33167,0.234591 -0.33167,0.308208 0,0.01094 0.0708,-0.02057 0.15726,-0.07002 0.14909,-0.08525 0.28678,-0.117864 0.28678,-0.06794 0,0.01258 -0.05,0.07976 -0.11101,0.149301 -0.10062,0.114596 -0.11101,0.150561 -0.11101,0.384168 0,0.178513 0.0142,0.259468 0.0463,0.263372 0.0254,0.0031 0.0642,0.0075 0.0861,0.0099 0.0219,0.0023 0.0939,0.04968 0.15994,0.105241 0.0935,0.07871 0.13509,0.09297 0.18812,0.06459 0.0958,-0.05126 0.33361,-0.336019 0.33361,-0.399432 0,-0.02902 -0.05,-0.115844 -0.11101,-0.192932 -0.0611,-0.07709 -0.11101,-0.157973 -0.11101,-0.179742 0,-0.07127 0.44514,-0.411944 0.71577,-0.547781 0.14565,-0.07311 0.37305,-0.202453 0.50534,-0.28743 0.37277,-0.239455 0.34699,-0.229835 0.31922,-0.119167 -0.018,0.07162 -0.0104,0.09803 0.028,0.09803 0.0973,0 0.81553,-0.2642 1.11439,-0.409895 0.56194,-0.273953 1.15141,-0.86532 1.43565,-1.440269 l 0.15549,-0.314527 0.0117,0.143024 c 0.0158,0.191961 -0.0878,0.689536 -0.20512,0.985576 -0.13449,0.339401 -0.31779,0.616322 -0.55704,0.841545 -0.11333,0.106693 -0.19542,0.20463 -0.18241,0.217637 0.0358,0.03583 0.63723,-0.124434 0.94022,-0.25057 0.14735,-0.06134 0.36776,-0.176067 0.4898,-0.254942 l 0.22188,-0.143407 -0.0211,0.118647 c -0.10832,0.610041 -0.37665,1.062179 -0.7605,1.281402 l -0.18323,0.104646 0.13118,0.02461 c 0.0721,0.01354 0.27421,0.0056 0.44902,-0.01769 0.17481,-0.02326 0.32731,-0.03281 0.3389,-0.02123 0.0446,0.04454 -0.18545,0.434732 -0.32832,0.557018 -0.28176,0.24118 -0.71744,0.391161 -1.13915,0.392148 -0.37294,8.78e-4 -0.38597,0.03957 -0.0754,0.224038 0.14739,0.08756 0.40334,0.213783 0.56877,0.280485 0.16542,0.0667 0.30077,0.141706 0.30077,0.166678 0,0.06887 -0.30592,0.211054 -0.55075,0.255963 -0.25071,0.04599 -0.50438,0.02033 -0.81344,-0.08228 -0.11939,-0.03964 -0.22546,-0.0637 -0.2357,-0.05346 -0.0207,0.0207 0.20926,0.352493 0.35741,0.515683 0.0525,0.05778 0.16907,0.1485 0.25914,0.201592 l 0.16377,0.09653 -0.10826,0.03194 c -0.14945,0.04409 -0.81181,0.0037 -1.13565,-0.06926 -0.14725,-0.03318 -0.37291,-0.102141 -0.50147,-0.153258 -0.14776,-0.05875 -0.24669,-0.08 -0.26893,-0.05776 -0.0387,0.03869 0.19569,0.425425 0.32963,0.543914 0.0433,0.03834 0.0699,0.08413 0.059,0.101759 -0.0326,0.05274 -0.52501,0.03628 -0.76351,-0.02552 -0.12221,-0.03167 -0.22705,-0.05248 -0.23298,-0.04626 -0.006,0.0062 0.0464,0.12654 0.11624,0.267358 0.0817,0.164658 0.11427,0.268789 0.0913,0.291773 -0.0447,0.04466 -0.32623,-0.0226 -0.53015,-0.126634 -0.0806,-0.04114 -0.15355,-0.06787 -0.16202,-0.0594 -0.008,0.0085 0.01,0.0757 0.0406,0.149406 0.0308,0.0737 0.056,0.151191 0.056,0.172197 0,0.05485 -0.18109,0.04704 -0.39191,-0.01691 -0.0999,-0.03031 -0.19208,-0.05529 -0.20484,-0.0555 -0.0524,-9.52e-4 -0.17673,0.370158 -0.21396,0.638755 -0.0593,0.427748 0.0418,1.016423 0.27184,1.582447 0.0493,0.121338 0.0735,0.220614 0.0538,0.220614 -0.0197,0 -0.10184,-0.03364 -0.18243,-0.07476 -0.0806,-0.04112 -0.14654,-0.05952 -0.14654,-0.0409 0,0.01862 0.0349,0.14801 0.0774,0.287528 0.10412,0.340992 0.4125,0.925577 0.63187,1.197807 0.0983,0.122012 0.17876,0.230362 0.17876,0.240778 0,0.04348 -0.38399,-0.180118 -0.51938,-0.302438 l -0.14668,-0.132525 v 0.252337 0.252337 l -0.15191,-0.146272 -0.1519,-0.146273 0.0272,0.129513 c 0.0253,0.120553 0.16242,0.559573 0.22385,0.716617 0.0244,0.06246 0.0185,0.0647 -0.0619,0.02343 -0.0489,-0.0251 -0.15964,-0.113757 -0.24613,-0.197025 l -0.15724,-0.151402 v 0.327968 c 0,0.320389 -0.002,0.32649 -0.0706,0.264051 -0.0388,-0.03515 -0.0908,-0.112665 -0.11551,-0.172248 -0.0549,-0.132661 -0.0984,-0.137134 -0.15363,-0.01583 -0.0583,0.12796 -0.0973,0.116176 -0.17268,-0.05217 l -0.0648,-0.144685 -0.0825,0.153935 c -0.0454,0.08466 -0.11495,0.195563 -0.15461,0.246442 l -0.0721,0.09251 -8e-4,-0.334015 z m 0.17679,-7.906614 c 0.0626,-0.06254 0.0553,-0.212777 -0.0116,-0.238422 -0.0766,-0.02939 -0.16604,0.05234 -0.16604,0.151678 0,0.132222 0.0888,0.17558 0.17761,0.08674 z"
       id="path2152-6-6" />
    <path
       style="display:inline;fill:#000000;stroke-width:0.0370034"
       d="m 198.65902,-43.142865 -8.1e-4,-0.334015 -0.22463,0.213755 c -0.24851,0.236468 -0.31084,0.264405 -0.25351,0.11362 0.0209,-0.05507 0.0694,-0.213273 0.10774,-0.351555 l 0.0697,-0.251422 -0.18313,0.194291 -0.18314,0.194292 0.0243,-0.364962 c 0.0278,-0.416681 0.0567,-0.4043 -0.31898,-0.136548 -0.11168,0.0796 -0.20852,0.139263 -0.21519,0.132593 -0.007,-0.0067 0.0398,-0.11503 0.1033,-0.240797 0.12842,-0.254399 0.33885,-0.859878 0.42018,-1.209029 l 0.053,-0.227602 -0.15604,0.162847 c -0.12638,0.131897 -0.18072,0.162846 -0.28592,0.162846 H 197.486 l 0.19782,-0.397784 c 0.26597,-0.534825 0.38741,-1.009758 0.39502,-1.544888 0.005,-0.314145 -0.009,-0.446483 -0.0609,-0.579887 -0.0917,-0.237703 -0.14791,-0.278598 -0.24683,-0.179678 -0.0955,0.09554 -0.22954,0.149011 -0.37344,0.149011 -0.12701,0 -0.12409,0.0091 -0.0523,-0.162833 0.0717,-0.17161 0.0117,-0.207149 -0.17126,-0.101445 -0.13089,0.07561 -0.54194,0.174812 -0.57741,0.139343 -0.0112,-0.01122 0.0484,-0.152586 0.13245,-0.314159 0.21118,-0.405914 0.20429,-0.441653 -0.0567,-0.294337 -0.17749,0.100171 -0.2568,0.120757 -0.51805,0.134469 -0.16966,0.0089 -0.30847,0.0044 -0.30847,-0.01 0,-0.01439 0.0577,-0.09653 0.12813,-0.182531 0.13693,-0.167108 0.27676,-0.443601 0.2781,-0.5499 0.001,-0.08214 0.0142,-0.08447 -0.26655,0.04693 -0.31392,0.146903 -0.67384,0.220043 -1.08326,0.220136 -0.28226,7.4e-5 -0.4883,-0.03878 -0.42447,-0.08004 0.01,-0.0062 0.11708,-0.06114 0.23887,-0.122098 0.21952,-0.109872 0.68664,-0.509603 0.64496,-0.55191 -0.0119,-0.0121 -0.11277,0.0093 -0.22411,0.04764 -0.29805,0.102546 -0.54486,0.126422 -0.80994,0.07835 -0.26291,-0.04767 -0.60313,-0.203663 -0.58206,-0.266872 0.008,-0.02273 0.16271,-0.101249 0.34474,-0.174498 0.18203,-0.07325 0.4392,-0.199515 0.57149,-0.28059 l 0.24052,-0.147411 -0.24052,-0.02829 c -0.66379,-0.07808 -0.9622,-0.182492 -1.23178,-0.430984 -0.19261,-0.177543 -0.34585,-0.443716 -0.3097,-0.537933 0.0171,-0.04455 0.0453,-0.05665 0.0894,-0.03837 0.0784,0.03249 0.78601,0.07295 0.78601,0.04494 0,-0.01096 -0.0722,-0.06222 -0.16036,-0.113909 -0.28306,-0.165882 -0.52506,-0.493612 -0.6503,-0.88067 -0.0497,-0.153521 -0.11127,-0.512516 -0.0879,-0.512516 0.008,0 0.0685,0.03981 0.13323,0.08847 0.18348,0.13781 0.60652,0.337572 0.93275,0.440455 0.33531,0.105745 0.57267,0.156493 0.57267,0.122439 0,-0.01261 -0.10476,-0.126861 -0.2328,-0.25389 -0.25923,-0.257178 -0.45528,-0.59884 -0.57842,-1.008031 -0.0936,-0.311157 -0.15149,-0.74878 -0.11249,-0.851075 l 0.0282,-0.07401 0.0268,0.07401 c 0.10686,0.295429 0.31249,0.633891 0.54529,0.897524 0.49245,0.557675 0.81024,0.769631 1.58154,1.054839 0.54348,0.200962 0.52474,0.197733 0.48108,0.08291 -0.0768,-0.202022 -0.0391,-0.217926 0.12425,-0.05245 0.11208,0.113531 0.30679,0.23499 0.6383,0.398185 0.47805,0.235331 0.71755,0.386031 0.71755,0.451513 0,0.01926 -0.0596,0.100999 -0.13248,0.181649 -0.0981,0.108579 -0.12612,0.166647 -0.108,0.223745 0.031,0.09778 0.4049,0.348717 0.47784,0.320727 0.0301,-0.01156 0.0732,-0.09265 0.0957,-0.180193 0.16421,-0.638357 0.204,-0.68464 0.81892,-0.952354 0.44325,-0.192975 0.58094,-0.219031 0.72752,-0.13767 0.0826,0.04583 0.0797,0.04952 -0.10473,0.13592 -0.15973,0.07481 -0.33168,0.234591 -0.33168,0.308208 0,0.01094 0.0708,-0.02057 0.15727,-0.07002 0.14909,-0.08525 0.28677,-0.117864 0.28677,-0.06794 0,0.01258 -0.05,0.07976 -0.11101,0.149301 -0.10061,0.114596 -0.11101,0.150561 -0.11101,0.384168 0,0.178513 0.0142,0.259468 0.0463,0.263372 0.0254,0.0031 0.0642,0.0075 0.0861,0.0099 0.022,0.0023 0.0939,0.04968 0.15995,0.105241 0.0935,0.07871 0.13509,0.09297 0.18812,0.06459 0.0958,-0.05126 0.33361,-0.336019 0.33361,-0.399432 0,-0.02902 -0.05,-0.115844 -0.11101,-0.192932 -0.0611,-0.07709 -0.11101,-0.157973 -0.11101,-0.179742 0,-0.07127 0.44514,-0.411944 0.71576,-0.547781 0.14566,-0.07311 0.37306,-0.202453 0.50535,-0.28743 0.37276,-0.239455 0.34699,-0.229835 0.31922,-0.119167 -0.018,0.07162 -0.0104,0.09803 0.028,0.09803 0.0973,0 0.81552,-0.2642 1.11438,-0.409895 0.56195,-0.273953 1.15142,-0.86532 1.43566,-1.440269 l 0.15548,-0.314527 0.0118,0.143024 c 0.0158,0.191961 -0.0878,0.689536 -0.20511,0.985576 -0.1345,0.339401 -0.3178,0.616322 -0.55704,0.841545 -0.11333,0.106693 -0.19542,0.20463 -0.18241,0.217637 0.0358,0.03583 0.63723,-0.124434 0.94022,-0.25057 0.14735,-0.06134 0.36776,-0.176067 0.48979,-0.254942 l 0.22189,-0.143407 -0.0211,0.118647 c -0.10832,0.610041 -0.37666,1.062179 -0.7605,1.281402 l -0.18323,0.104646 0.13118,0.02461 c 0.0721,0.01354 0.27421,0.0056 0.44901,-0.01769 0.17482,-0.02326 0.32732,-0.03281 0.33891,-0.02123 0.0446,0.04454 -0.18545,0.434732 -0.32832,0.557018 -0.28176,0.24118 -0.71744,0.391161 -1.13915,0.392148 -0.37294,8.78e-4 -0.38597,0.03957 -0.0754,0.224038 0.14739,0.08756 0.40334,0.213783 0.56876,0.280485 0.16543,0.0667 0.30078,0.141706 0.30078,0.166678 0,0.06887 -0.30592,0.211054 -0.55075,0.255963 -0.25072,0.04599 -0.50438,0.02033 -0.81344,-0.08228 -0.1194,-0.03964 -0.22546,-0.0637 -0.2357,-0.05346 -0.0207,0.0207 0.20926,0.352493 0.35741,0.515683 0.0525,0.05778 0.16907,0.1485 0.25914,0.201592 l 0.16377,0.09653 -0.10826,0.03194 c -0.14945,0.04409 -0.81181,0.0037 -1.13565,-0.06926 -0.14725,-0.03318 -0.37291,-0.102141 -0.50147,-0.153258 -0.14776,-0.05875 -0.24669,-0.08 -0.26893,-0.05776 -0.0387,0.03869 0.19569,0.425425 0.32963,0.543914 0.0433,0.03834 0.0699,0.08413 0.059,0.101759 -0.0326,0.05274 -0.52501,0.03628 -0.76351,-0.02552 -0.12221,-0.03167 -0.22706,-0.05248 -0.23298,-0.04626 -0.006,0.0062 0.0464,0.12654 0.11624,0.267358 0.0817,0.164658 0.11427,0.268789 0.0913,0.291773 -0.0446,0.04466 -0.32623,-0.0226 -0.53015,-0.126634 -0.0806,-0.04114 -0.15356,-0.06787 -0.16203,-0.0594 -0.008,0.0085 0.01,0.0757 0.0406,0.149406 0.0308,0.0737 0.056,0.151191 0.056,0.172197 0,0.05485 -0.18108,0.04704 -0.3919,-0.01691 -0.0999,-0.03031 -0.19209,-0.05529 -0.20484,-0.0555 -0.0524,-9.52e-4 -0.17673,0.370158 -0.21396,0.638755 -0.0593,0.427748 0.0418,1.016423 0.27183,1.582447 0.0493,0.121338 0.0735,0.220614 0.0538,0.220614 -0.0197,0 -0.10183,-0.03364 -0.18242,-0.07476 -0.0806,-0.04112 -0.14654,-0.05952 -0.14654,-0.0409 0,0.01862 0.0349,0.14801 0.0774,0.287528 0.10412,0.340992 0.4125,0.925577 0.63186,1.197807 0.0983,0.122012 0.17877,0.230362 0.17877,0.240778 0,0.04348 -0.38399,-0.180118 -0.51938,-0.302438 l -0.14668,-0.132525 v 0.252337 0.252337 l -0.15191,-0.146272 -0.1519,-0.146273 0.0272,0.129513 c 0.0253,0.120553 0.16242,0.559573 0.22385,0.716617 0.0244,0.06246 0.0185,0.0647 -0.0619,0.02343 -0.0489,-0.0251 -0.15964,-0.113757 -0.24613,-0.197025 l -0.15725,-0.151402 v 0.327968 c 0,0.320389 -0.002,0.32649 -0.0706,0.264051 -0.0388,-0.03515 -0.0908,-0.112665 -0.1155,-0.172248 -0.055,-0.132661 -0.0984,-0.137134 -0.15363,-0.01583 -0.0583,0.12796 -0.0973,0.116176 -0.17268,-0.05217 l -0.0648,-0.144685 -0.0825,0.153935 c -0.0454,0.08466 -0.11495,0.195563 -0.15461,0.246442 l -0.0721,0.09251 -8e-4,-0.334015 z m 0.17679,-7.906614 c 0.0625,-0.06254 0.0553,-0.212777 -0.0116,-0.238422 -0.0766,-0.02939 -0.16605,0.05234 -0.16605,0.151678 0,0.132222 0.0888,0.17558 0.17762,0.08674 z"
       id="path2152-6-5-73" />
    <path
       style="display:inline;fill:#000000;stroke-width:0.0370034"
       d="m 198.52575,-86.742263 -8e-4,-0.334015 -0.22463,0.213755 c -0.24851,0.236468 -0.31084,0.264405 -0.25351,0.11362 0.0209,-0.05507 0.0694,-0.213273 0.10774,-0.351555 l 0.0697,-0.251422 -0.18313,0.194291 -0.18314,0.194292 0.0243,-0.364962 c 0.0278,-0.416681 0.0567,-0.4043 -0.31898,-0.136548 -0.11169,0.0796 -0.20852,0.139263 -0.21519,0.132593 -0.007,-0.0067 0.0398,-0.11503 0.1033,-0.240797 0.12842,-0.254399 0.33884,-0.859878 0.42018,-1.209029 l 0.053,-0.227602 -0.15604,0.162847 c -0.12638,0.131897 -0.18072,0.162846 -0.28592,0.162846 h -0.12989 l 0.19782,-0.397784 c 0.26597,-0.534825 0.38741,-1.009758 0.39502,-1.544888 0.005,-0.314145 -0.009,-0.446483 -0.0609,-0.579887 -0.0917,-0.237703 -0.14791,-0.278598 -0.24683,-0.179678 -0.0955,0.09554 -0.22955,0.149011 -0.37344,0.149011 -0.12701,0 -0.12409,0.0091 -0.0523,-0.162833 0.0717,-0.17161 0.0117,-0.207149 -0.17126,-0.101445 -0.13089,0.07561 -0.54194,0.174812 -0.57741,0.139343 -0.0112,-0.01122 0.0484,-0.152586 0.13245,-0.314159 0.21118,-0.405914 0.20429,-0.441653 -0.0567,-0.294337 -0.1775,0.100171 -0.2568,0.120757 -0.51805,0.134469 -0.16966,0.0089 -0.30847,0.0044 -0.30847,-0.01 0,-0.01439 0.0577,-0.09653 0.12813,-0.182531 0.13693,-0.167108 0.27676,-0.443601 0.27809,-0.5499 0.001,-0.08214 0.0142,-0.08447 -0.26654,0.04693 -0.31393,0.146903 -0.67384,0.220043 -1.08326,0.220136 -0.28226,7.4e-5 -0.48831,-0.03878 -0.42447,-0.08004 0.01,-0.0062 0.11708,-0.06114 0.23887,-0.122098 0.21952,-0.109872 0.68664,-0.509603 0.64496,-0.55191 -0.0119,-0.0121 -0.11277,0.0093 -0.22411,0.04764 -0.29805,0.102546 -0.54486,0.126422 -0.80994,0.07835 -0.26292,-0.04767 -0.60313,-0.203663 -0.58206,-0.266872 0.008,-0.02273 0.1627,-0.101249 0.34474,-0.174498 0.18203,-0.07325 0.4392,-0.199515 0.57149,-0.28059 l 0.24052,-0.147411 -0.24052,-0.02829 c -0.66379,-0.07808 -0.9622,-0.182492 -1.23179,-0.430984 -0.19261,-0.177543 -0.34585,-0.443716 -0.30969,-0.537933 0.0171,-0.04455 0.0453,-0.05665 0.0894,-0.03837 0.0784,0.03249 0.78601,0.07295 0.78601,0.04494 0,-0.01096 -0.0722,-0.06222 -0.16036,-0.113909 -0.28306,-0.165882 -0.52506,-0.493612 -0.65031,-0.88067 -0.0497,-0.153521 -0.11126,-0.512516 -0.0879,-0.512516 0.008,0 0.0684,0.03981 0.13324,0.08847 0.18348,0.13781 0.60651,0.337572 0.93275,0.440455 0.33531,0.105745 0.57266,0.156493 0.57266,0.122439 0,-0.01261 -0.10476,-0.126861 -0.2328,-0.25389 -0.25922,-0.257178 -0.45527,-0.59884 -0.57842,-1.008031 -0.0936,-0.311157 -0.15148,-0.74878 -0.11248,-0.851075 l 0.0282,-0.07401 0.0268,0.07401 c 0.10686,0.295429 0.31249,0.633891 0.54529,0.897524 0.49245,0.557675 0.81024,0.769631 1.58154,1.054839 0.54347,0.200962 0.52474,0.197733 0.48108,0.08291 -0.0768,-0.202022 -0.0391,-0.217926 0.12424,-0.05245 0.11209,0.113531 0.30679,0.23499 0.63831,0.398185 0.47805,0.235331 0.71755,0.386031 0.71755,0.451513 0,0.01926 -0.0596,0.100999 -0.13248,0.181649 -0.0981,0.108579 -0.12612,0.166647 -0.108,0.223745 0.031,0.09778 0.40489,0.348717 0.47784,0.320727 0.0301,-0.01156 0.0732,-0.09265 0.0957,-0.180193 0.1642,-0.638357 0.204,-0.68464 0.81892,-0.952354 0.44325,-0.192975 0.58094,-0.219031 0.72752,-0.13767 0.0826,0.04583 0.0797,0.04952 -0.10474,0.13592 -0.15973,0.07481 -0.33167,0.234591 -0.33167,0.308208 0,0.01094 0.0708,-0.02057 0.15727,-0.07002 0.14909,-0.08525 0.28677,-0.117864 0.28677,-0.06794 0,0.01258 -0.05,0.07976 -0.11101,0.149301 -0.10061,0.114596 -0.11101,0.150561 -0.11101,0.384168 0,0.178513 0.0142,0.259468 0.0462,0.263372 0.0254,0.0031 0.0642,0.0075 0.0861,0.0099 0.022,0.0023 0.0939,0.04968 0.15995,0.105241 0.0935,0.07871 0.13509,0.09297 0.18812,0.06459 0.0958,-0.05126 0.33361,-0.336019 0.33361,-0.399432 0,-0.02902 -0.05,-0.115844 -0.11101,-0.192932 -0.0611,-0.07709 -0.11101,-0.157973 -0.11101,-0.179742 0,-0.07127 0.44514,-0.411944 0.71576,-0.547781 0.14566,-0.07311 0.37306,-0.202453 0.50535,-0.28743 0.37276,-0.239455 0.34699,-0.229835 0.31922,-0.119167 -0.018,0.07162 -0.0104,0.09803 0.028,0.09803 0.0972,0 0.81552,-0.2642 1.11438,-0.409895 0.56195,-0.273953 1.15142,-0.86532 1.43565,-1.440269 l 0.15549,-0.314527 0.0118,0.143024 c 0.0158,0.191961 -0.0878,0.689536 -0.20511,0.985576 -0.1345,0.339401 -0.3178,0.616322 -0.55704,0.841545 -0.11334,0.106693 -0.19542,0.20463 -0.18241,0.217637 0.0358,0.03583 0.63722,-0.124434 0.94022,-0.25057 0.14735,-0.06134 0.36776,-0.176067 0.48979,-0.254942 l 0.22188,-0.143407 -0.0211,0.118647 c -0.10831,0.610041 -0.37665,1.062179 -0.76049,1.281402 l -0.18324,0.104646 0.13119,0.02461 c 0.0721,0.01354 0.2742,0.0056 0.44901,-0.01769 0.17481,-0.02326 0.32732,-0.03281 0.33891,-0.02123 0.0446,0.04454 -0.18545,0.434732 -0.32832,0.557018 -0.28176,0.24118 -0.71745,0.391161 -1.13915,0.392148 -0.37294,8.78e-4 -0.38597,0.03957 -0.0755,0.224038 0.14739,0.08756 0.40334,0.213783 0.56876,0.280485 0.16543,0.0667 0.30078,0.141706 0.30078,0.166678 0,0.06887 -0.30592,0.211054 -0.55075,0.255963 -0.25072,0.04599 -0.50438,0.02033 -0.81344,-0.08228 -0.1194,-0.03964 -0.22546,-0.0637 -0.2357,-0.05346 -0.0207,0.0207 0.20926,0.352493 0.35741,0.515683 0.0525,0.05778 0.16907,0.1485 0.25914,0.201592 l 0.16376,0.09653 -0.10826,0.03194 c -0.14944,0.04409 -0.81181,0.0037 -1.13564,-0.06926 -0.14725,-0.03318 -0.37291,-0.102141 -0.50147,-0.153258 -0.14777,-0.05875 -0.24669,-0.08 -0.26893,-0.05776 -0.0387,0.03869 0.19569,0.425425 0.32963,0.543914 0.0433,0.03834 0.0699,0.08413 0.059,0.101759 -0.0326,0.05274 -0.52501,0.03628 -0.76351,-0.02552 -0.12221,-0.03167 -0.22706,-0.05248 -0.23299,-0.04626 -0.006,0.0062 0.0464,0.12654 0.11625,0.267358 0.0817,0.164658 0.11427,0.268789 0.0913,0.291773 -0.0446,0.04466 -0.32623,-0.0226 -0.53015,-0.126634 -0.0806,-0.04114 -0.15356,-0.06787 -0.16203,-0.0594 -0.009,0.0085 0.01,0.0757 0.0406,0.149406 0.0308,0.0737 0.056,0.151191 0.056,0.172197 0,0.05485 -0.18108,0.04704 -0.39191,-0.01691 -0.0999,-0.03031 -0.19208,-0.05529 -0.20484,-0.0555 -0.0524,-9.52e-4 -0.17673,0.370158 -0.21395,0.638755 -0.0593,0.427748 0.0418,1.016423 0.27183,1.582447 0.0493,0.121338 0.0735,0.220614 0.0538,0.220614 -0.0197,0 -0.10183,-0.03364 -0.18242,-0.07476 -0.0806,-0.04112 -0.14654,-0.05952 -0.14654,-0.0409 0,0.01862 0.0349,0.14801 0.0774,0.287528 0.10412,0.340992 0.4125,0.925577 0.63186,1.197807 0.0983,0.122012 0.17876,0.230362 0.17876,0.240778 0,0.04348 -0.38398,-0.180118 -0.51937,-0.302438 l -0.14669,-0.132525 v 0.252337 0.252337 l -0.1519,-0.146272 -0.15191,-0.146273 0.0272,0.129513 c 0.0253,0.120553 0.16243,0.559573 0.22386,0.716617 0.0244,0.06246 0.0185,0.0647 -0.0619,0.02343 -0.0489,-0.0251 -0.15964,-0.113757 -0.24614,-0.197025 l -0.15724,-0.151402 v 0.327968 c 0,0.320389 -0.002,0.32649 -0.0706,0.264051 -0.0388,-0.03515 -0.0908,-0.112665 -0.1155,-0.172248 -0.0549,-0.132661 -0.0984,-0.137134 -0.15364,-0.01583 -0.0583,0.12796 -0.0973,0.116176 -0.17267,-0.05217 l -0.0648,-0.144685 -0.0825,0.153935 c -0.0454,0.08466 -0.11495,0.195563 -0.15461,0.246442 l -0.0721,0.09251 -8.1e-4,-0.334015 z m 0.1768,-7.906614 c 0.0625,-0.06254 0.0553,-0.212777 -0.0116,-0.238422 -0.0766,-0.02939 -0.16605,0.05234 -0.16605,0.151678 0,0.132222 0.0888,0.17558 0.17762,0.08674 z"
       id="path2152-6-5-6-6" />
    <text
       xml:space="preserve"
       style="font-size:14.1111px;line-height:1.25;font-family:'Blood Crow';-inkscape-font-specification:'Blood Crow';display:inline;stroke-width:0.264583"
       x="156.53389"
       y="-102.37537"
       id="text9052-5"><tspan
         id="tspan9050-63"
         style="font-style:normal;font-variant:normal;font-weight:normal;font-stretch:normal;font-size:14.1111px;font-family:'Bleeding Cowboys';-inkscape-font-specification:'Bleeding Cowboys';stroke-width:0.264583"
         x="156.53389"
         y="-102.37537">4</tspan></text>
    <text
       xml:space="preserve"
       style="font-size:14.1111px;line-height:1.25;font-family:'Blood Crow';-inkscape-font-specification:'Blood Crow';display:inline;stroke-width:0.264583"
       x="-210.19116"
       y="39.337856"
       id="text9052-3-94"
       transform="scale(-1)"><tspan
         id="tspan9050-0-8"
         style="font-style:normal;font-variant:normal;font-weight:normal;font-stretch:normal;font-size:14.1111px;font-family:'Bleeding Cowboys';-inkscape-font-specification:'Bleeding Cowboys';stroke-width:0.264583"
         x="-210.19116"
         y="39.337856">4</tspan></text>
  </g>
</svg>
