<?xml version="1.0" encoding="UTF-8" standalone="no"?>
<!-- Created with Inkscape (http://www.inkscape.org/) -->

<svg
   width="63mm"
   height="89mm"
   viewBox="0 0 63 89"
   version="1.1"
   id="svg5"
   sodipodi:docname="5-Corbeau.svg"
   inkscape:version="1.1.2 (1:1.1+202202050950+0a00cf5339)"
   xmlns:inkscape="http://www.inkscape.org/namespaces/inkscape"
   xmlns:sodipodi="http://sodipodi.sourceforge.net/DTD/sodipodi-0.dtd"
   xmlns:xlink="http://www.w3.org/1999/xlink"
   xmlns="http://www.w3.org/2000/svg"
   xmlns:svg="http://www.w3.org/2000/svg">
  <sodipodi:namedview
     id="namedview155"
     pagecolor="#ffffff"
     bordercolor="#666666"
     borderopacity="1.0"
     inkscape:pageshadow="2"
     inkscape:pageopacity="0.0"
     inkscape:pagecheckerboard="0"
     inkscape:document-units="mm"
     showgrid="false"
     inkscape:zoom="4.0192884"
     inkscape:cx="100.76411"
     inkscape:cy="247.68066"
     inkscape:window-width="1920"
     inkscape:window-height="1057"
     inkscape:window-x="1920"
     inkscape:window-y="0"
     inkscape:window-maximized="1"
     inkscape:current-layer="svg5" />
  <defs
     id="defs2">
    <linearGradient
       id="linearGradient66035">
      <stop
         style="stop-color:#ffeeaa;stop-opacity:1;"
         offset="0"
         id="stop66031" />
      <stop
         style="stop-color:#ffeeaa;stop-opacity:0;"
         offset="1"
         id="stop66033" />
    </linearGradient>
    <linearGradient
       xlink:href="#linearGradient66035"
       id="linearGradient66037"
       x1="-609.21545"
       y1="124.85085"
       x2="-533.06219"
       y2="235.37372"
       gradientUnits="userSpaceOnUse" />
    <linearGradient
       xlink:href="#linearGradient66035"
       id="linearGradient66272"
       gradientUnits="userSpaceOnUse"
       x1="-609.21545"
       y1="124.85085"
       x2="-533.06219"
       y2="235.37372"
       gradientTransform="translate(107.54224,19.681403)" />
    <linearGradient
       xlink:href="#linearGradient66035"
       id="linearGradient66419"
       gradientUnits="userSpaceOnUse"
       gradientTransform="translate(169.88249,19.681395)"
       x1="-609.21545"
       y1="124.85085"
       x2="-533.06219"
       y2="235.37372" />
    <linearGradient
       xlink:href="#linearGradient66035"
       id="linearGradient66886"
       gradientUnits="userSpaceOnUse"
       gradientTransform="translate(609.74704,-124.32202)"
       x1="-609.21545"
       y1="124.85085"
       x2="-533.06219"
       y2="235.37372" />
    <linearGradient
       xlink:href="#linearGradient66035"
       id="linearGradient67116"
       gradientUnits="userSpaceOnUse"
       gradientTransform="translate(761.64943,-239.23166)"
       x1="-609.21545"
       y1="124.85085"
       x2="-533.06219"
       y2="235.37372" />
    <linearGradient
       xlink:href="#linearGradient66035"
       id="linearGradient73095"
       gradientUnits="userSpaceOnUse"
       gradientTransform="translate(-18.43475,-1222.8025)"
       x1="-609.21545"
       y1="124.85085"
       x2="-533.06219"
       y2="235.37372" />
    <linearGradient
       xlink:href="#linearGradient66035"
       id="linearGradient82342"
       gradientUnits="userSpaceOnUse"
       gradientTransform="translate(704.02075,-140.75031)"
       x1="-609.21545"
       y1="124.85085"
       x2="-533.06219"
       y2="235.37372" />
    <linearGradient
       xlink:href="#linearGradient66035"
       id="linearGradient90215"
       gradientUnits="userSpaceOnUse"
       gradientTransform="translate(340.696,-366.60502)"
       x1="-609.21545"
       y1="124.85085"
       x2="-533.06219"
       y2="235.37372" />
    <linearGradient
       xlink:href="#linearGradient66035"
       id="linearGradient99476"
       gradientUnits="userSpaceOnUse"
       gradientTransform="translate(510.6307,-103.31497)"
       x1="-609.21545"
       y1="124.85085"
       x2="-533.06219"
       y2="235.37372" />
    <linearGradient
       xlink:href="#linearGradient66035"
       id="linearGradient105434"
       gradientUnits="userSpaceOnUse"
       gradientTransform="translate(512.58237,-32.383406)"
       x1="-609.21545"
       y1="124.85085"
       x2="-533.06219"
       y2="235.37372" />
    <linearGradient
       xlink:href="#linearGradient66035"
       id="linearGradient116711"
       gradientUnits="userSpaceOnUse"
       gradientTransform="translate(521.8087,-182.6408)"
       x1="-609.21545"
       y1="124.85085"
       x2="-533.06219"
       y2="235.37372" />
  </defs>
  <g
     id="g73117"
     transform="translate(628.05975,1098.376)">
    <rect
       style="display:inline;fill:url(#linearGradient73095);fill-opacity:1;stroke:#000000;stroke-width:0.659785;stroke-miterlimit:4;stroke-dasharray:none;stroke-opacity:1"
       id="rect870-4-6-9-1-3"
       width="62.340214"
       height="88.340218"
       x="-627.65027"
       y="-1097.9517"
       rx="3.7119057"
       ry="3.3358381" />
    <path
       style="display:inline;fill:#000000;stroke-width:0.0370034"
       d="m -611.53708,-1070.3131 -8.1e-4,-0.334 -0.22463,0.2137 c -0.24851,0.2365 -0.31084,0.2644 -0.25351,0.1136 0.0209,-0.055 0.0694,-0.2132 0.10774,-0.3515 l 0.0697,-0.2514 -0.18313,0.1943 -0.18314,0.1942 0.0244,-0.3649 c 0.0278,-0.4167 0.0567,-0.4043 -0.31898,-0.1366 -0.11168,0.08 -0.20852,0.1393 -0.21519,0.1326 -0.007,-0.01 0.0398,-0.115 0.1033,-0.2408 0.12842,-0.2544 0.33885,-0.8598 0.42018,-1.209 l 0.053,-0.2276 -0.15604,0.1628 c -0.12638,0.1319 -0.18072,0.1629 -0.28592,0.1629 H -612.71 l 0.19782,-0.3978 c 0.26597,-0.5348 0.38741,-1.0098 0.39502,-1.5449 0.005,-0.3141 -0.009,-0.4465 -0.0609,-0.5799 -0.0917,-0.2377 -0.14791,-0.2786 -0.24683,-0.1796 -0.0955,0.096 -0.22954,0.149 -0.37344,0.149 -0.12701,0 -0.12409,0.01 -0.0522,-0.1629 0.0717,-0.1716 0.0117,-0.2071 -0.17126,-0.1014 -0.13089,0.076 -0.54194,0.1748 -0.57741,0.1393 -0.0112,-0.011 0.0484,-0.1526 0.13245,-0.3141 0.21118,-0.4059 0.20429,-0.4417 -0.0567,-0.2944 -0.17749,0.1002 -0.2568,0.1208 -0.51805,0.1345 -0.16966,0.01 -0.30847,0 -0.30847,-0.01 0,-0.014 0.0577,-0.097 0.12813,-0.1825 0.13693,-0.1671 0.27676,-0.4436 0.2781,-0.5499 0.001,-0.082 0.0142,-0.084 -0.26655,0.047 -0.31392,0.1469 -0.67384,0.22 -1.08326,0.2201 -0.28226,10e-5 -0.4883,-0.039 -0.42447,-0.08 0.01,-0.01 0.11708,-0.061 0.23887,-0.1221 0.21952,-0.1099 0.68664,-0.5096 0.64496,-0.5519 -0.0119,-0.012 -0.11277,0.01 -0.22411,0.048 -0.29805,0.1026 -0.54486,0.1265 -0.80994,0.078 -0.26291,-0.048 -0.60313,-0.2037 -0.58206,-0.2669 0.008,-0.023 0.16271,-0.1012 0.34474,-0.1745 0.18203,-0.073 0.4392,-0.1995 0.57149,-0.2806 l 0.24052,-0.1474 -0.24052,-0.028 c -0.66379,-0.078 -0.9622,-0.1825 -1.23179,-0.431 -0.1926,-0.1775 -0.34584,-0.4437 -0.30969,-0.5379 0.0171,-0.044 0.0453,-0.057 0.0894,-0.038 0.0784,0.033 0.78601,0.073 0.78601,0.045 0,-0.011 -0.0722,-0.062 -0.16036,-0.1139 -0.28306,-0.1659 -0.52506,-0.4936 -0.6503,-0.8807 -0.0497,-0.1535 -0.11127,-0.5125 -0.0879,-0.5125 0.009,0 0.0684,0.04 0.13323,0.088 0.18348,0.1379 0.60652,0.3376 0.93275,0.4405 0.33531,0.1057 0.57267,0.1565 0.57267,0.1224 0,-0.013 -0.10476,-0.1268 -0.2328,-0.2538 -0.25923,-0.2572 -0.45528,-0.5989 -0.57842,-1.0081 -0.0936,-0.3111 -0.15149,-0.7488 -0.11249,-0.8511 l 0.0282,-0.074 0.0268,0.074 c 0.10686,0.2955 0.31249,0.6339 0.54529,0.8976 0.49245,0.5576 0.81024,0.7696 1.58154,1.0548 0.54348,0.201 0.52474,0.1977 0.48108,0.083 -0.0768,-0.202 -0.0391,-0.2179 0.12425,-0.052 0.11208,0.1135 0.30679,0.235 0.6383,0.3982 0.47805,0.2353 0.71755,0.386 0.71755,0.4515 0,0.019 -0.0596,0.101 -0.13248,0.1816 -0.0981,0.1086 -0.12612,0.1667 -0.108,0.2238 0.031,0.098 0.4049,0.3487 0.47784,0.3207 0.0301,-0.012 0.0732,-0.093 0.0957,-0.1802 0.1642,-0.6384 0.204,-0.6846 0.81892,-0.9524 0.44325,-0.1929 0.58094,-0.219 0.72752,-0.1376 0.0826,0.046 0.0797,0.05 -0.10473,0.1359 -0.15973,0.075 -0.33168,0.2346 -0.33168,0.3082 0,0.011 0.0708,-0.021 0.15727,-0.07 0.14909,-0.085 0.28677,-0.1179 0.28677,-0.068 0,0.013 -0.05,0.08 -0.11101,0.1493 -0.10061,0.1146 -0.11101,0.1506 -0.11101,0.3842 0,0.1785 0.0142,0.2595 0.0462,0.2634 0.0254,0 0.0642,0.01 0.0861,0.01 0.0219,0 0.0939,0.05 0.15995,0.1052 0.0935,0.079 0.13509,0.093 0.18812,0.065 0.0958,-0.051 0.33361,-0.336 0.33361,-0.3994 0,-0.029 -0.05,-0.1159 -0.11101,-0.193 -0.0611,-0.077 -0.11101,-0.1579 -0.11101,-0.1797 0,-0.071 0.44514,-0.4119 0.71576,-0.5478 0.14566,-0.073 0.37306,-0.2024 0.50535,-0.2874 0.37276,-0.2395 0.34699,-0.2298 0.31922,-0.1192 -0.018,0.072 -0.0104,0.098 0.028,0.098 0.0972,0 0.81552,-0.2642 1.11438,-0.4099 0.56195,-0.274 1.15142,-0.8654 1.43566,-1.4403 l 0.15548,-0.3145 0.0118,0.143 c 0.0158,0.1919 -0.0878,0.6895 -0.20511,0.9856 -0.1345,0.3394 -0.3178,0.6163 -0.55704,0.8415 -0.11333,0.1067 -0.19542,0.2046 -0.18241,0.2176 0.0358,0.036 0.63723,-0.1244 0.94022,-0.2505 0.14735,-0.061 0.36776,-0.1761 0.48979,-0.255 l 0.22189,-0.1434 -0.0211,0.1187 c -0.10832,0.61 -0.37666,1.0622 -0.7605,1.2814 l -0.18323,0.1046 0.13118,0.025 c 0.0721,0.014 0.27421,0.01 0.44901,-0.018 0.17481,-0.023 0.32732,-0.033 0.33891,-0.021 0.0446,0.045 -0.18545,0.4347 -0.32832,0.557 -0.28176,0.2412 -0.71744,0.3912 -1.13915,0.3922 -0.37294,9e-4 -0.38597,0.039 -0.0755,0.224 0.14739,0.088 0.40334,0.2138 0.56876,0.2805 0.16543,0.067 0.30078,0.1417 0.30078,0.1667 0,0.069 -0.30592,0.211 -0.55075,0.2559 -0.25072,0.046 -0.50438,0.02 -0.81344,-0.082 -0.1194,-0.04 -0.22546,-0.064 -0.2357,-0.053 -0.0207,0.021 0.20926,0.3525 0.35741,0.5157 0.0525,0.058 0.16907,0.1485 0.25914,0.2016 l 0.16377,0.097 -0.10826,0.032 c -0.14945,0.044 -0.81181,0 -1.13565,-0.069 -0.14725,-0.033 -0.37291,-0.1022 -0.50147,-0.1533 -0.14776,-0.059 -0.24669,-0.08 -0.26893,-0.058 -0.0387,0.039 0.19569,0.4254 0.32963,0.5439 0.0433,0.038 0.0699,0.084 0.059,0.1017 -0.0326,0.053 -0.52501,0.036 -0.76351,-0.025 -0.12221,-0.032 -0.22706,-0.053 -0.23298,-0.046 -0.006,0.01 0.0464,0.1265 0.11624,0.2673 0.0817,0.1647 0.11427,0.2688 0.0913,0.2918 -0.0447,0.045 -0.32623,-0.023 -0.53015,-0.1266 -0.0806,-0.041 -0.15356,-0.068 -0.16203,-0.059 -0.009,0.01 0.01,0.076 0.0406,0.1494 0.0308,0.074 0.056,0.1512 0.056,0.1722 0,0.055 -0.18108,0.047 -0.3919,-0.017 -0.0999,-0.03 -0.19209,-0.055 -0.20484,-0.056 -0.0524,-10e-4 -0.17673,0.3701 -0.21396,0.6387 -0.0593,0.4278 0.0418,1.0164 0.27183,1.5825 0.0493,0.1213 0.0735,0.2206 0.0538,0.2206 -0.0197,0 -0.10183,-0.034 -0.18242,-0.075 -0.0806,-0.041 -0.14654,-0.059 -0.14654,-0.041 0,0.019 0.0349,0.148 0.0774,0.2875 0.10412,0.341 0.4125,0.9256 0.63186,1.1978 0.0983,0.1221 0.17876,0.2304 0.17876,0.2408 0,0.043 -0.38398,-0.1801 -0.51937,-0.3024 l -0.14668,-0.1325 v 0.2523 0.2523 l -0.15191,-0.1462 -0.1519,-0.1463 0.0272,0.1295 c 0.0253,0.1206 0.16242,0.5596 0.22385,0.7166 0.0244,0.062 0.0185,0.065 -0.0619,0.023 -0.0489,-0.025 -0.15964,-0.1137 -0.24613,-0.197 l -0.15725,-0.1514 v 0.328 c 0,0.3204 -0.002,0.3265 -0.0706,0.264 -0.0388,-0.035 -0.0908,-0.1126 -0.1155,-0.1722 -0.0549,-0.1327 -0.0984,-0.1371 -0.15363,-0.016 -0.0583,0.1279 -0.0973,0.1161 -0.17268,-0.052 l -0.0648,-0.1447 -0.0825,0.1539 c -0.0454,0.085 -0.11495,0.1956 -0.15461,0.2465 l -0.0721,0.092 -8e-4,-0.334 z m 0.17679,-7.9066 c 0.0625,-0.063 0.0553,-0.2128 -0.0116,-0.2385 -0.0766,-0.029 -0.16605,0.052 -0.16605,0.1517 0,0.1322 0.0888,0.1756 0.17762,0.087 z"
       id="path2152-0-90" />
    <path
       style="display:inline;fill:#000000;stroke-width:0.0370034"
       d="m -611.40382,-1026.7404 -8e-4,-0.334 -0.22464,0.2137 c -0.2485,0.2365 -0.31084,0.2644 -0.25351,0.1136 0.0209,-0.055 0.0694,-0.2132 0.10774,-0.3515 l 0.0697,-0.2514 -0.18314,0.1943 -0.18313,0.1942 0.0243,-0.3649 c 0.0278,-0.4167 0.0567,-0.4043 -0.31898,-0.1366 -0.11168,0.08 -0.20852,0.1393 -0.21519,0.1326 -0.007,-0.01 0.0398,-0.115 0.10331,-0.2408 0.12842,-0.2544 0.33884,-0.8598 0.42017,-1.209 l 0.053,-0.2276 -0.15603,0.1629 c -0.12638,0.1318 -0.18072,0.1628 -0.28593,0.1628 h -0.12988 l 0.19782,-0.3978 c 0.26597,-0.5348 0.3874,-1.0097 0.39501,-1.5449 0.005,-0.3141 -0.009,-0.4465 -0.0609,-0.5799 -0.0917,-0.2377 -0.14791,-0.2786 -0.24683,-0.1796 -0.0955,0.095 -0.22954,0.149 -0.37344,0.149 -0.127,0 -0.12408,0.01 -0.0522,-0.1629 0.0717,-0.1716 0.0117,-0.2071 -0.17126,-0.1014 -0.13089,0.076 -0.54194,0.1748 -0.5774,0.1393 -0.0112,-0.011 0.0484,-0.1525 0.13244,-0.3141 0.21118,-0.4059 0.20429,-0.4417 -0.0567,-0.2944 -0.17749,0.1002 -0.2568,0.1208 -0.51805,0.1345 -0.16965,0.01 -0.30847,0 -0.30847,-0.01 0,-0.014 0.0577,-0.097 0.12813,-0.1825 0.13694,-0.1671 0.27676,-0.4436 0.2781,-0.5499 10e-4,-0.082 0.0142,-0.084 -0.26655,0.047 -0.31392,0.1469 -0.67383,0.2201 -1.08326,0.2201 -0.28226,10e-5 -0.4883,-0.039 -0.42446,-0.08 0.01,-0.01 0.11707,-0.061 0.23887,-0.1221 0.21951,-0.1099 0.68663,-0.5096 0.64495,-0.5519 -0.0119,-0.012 -0.11277,0.01 -0.2241,0.048 -0.29806,0.1026 -0.54487,0.1265 -0.80995,0.078 -0.26291,-0.048 -0.60313,-0.2037 -0.58206,-0.2669 0.008,-0.023 0.16271,-0.1012 0.34474,-0.1745 0.18203,-0.073 0.4392,-0.1995 0.57149,-0.2806 l 0.24052,-0.1474 -0.24052,-0.028 c -0.66378,-0.078 -0.9622,-0.1825 -1.23178,-0.431 -0.19261,-0.1775 -0.34585,-0.4437 -0.3097,-0.5379 0.0171,-0.044 0.0453,-0.057 0.0894,-0.038 0.0784,0.033 0.78601,0.073 0.78601,0.045 0,-0.011 -0.0722,-0.062 -0.16036,-0.1139 -0.28306,-0.1659 -0.52506,-0.4936 -0.6503,-0.8807 -0.0497,-0.1535 -0.11126,-0.5125 -0.0879,-0.5125 0.008,0 0.0684,0.04 0.13324,0.088 0.18347,0.1378 0.60651,0.3375 0.93274,0.4404 0.33531,0.1058 0.57267,0.1565 0.57267,0.1224 0,-0.013 -0.10476,-0.1268 -0.2328,-0.2538 -0.25922,-0.2572 -0.45527,-0.5989 -0.57842,-1.0081 -0.0936,-0.3111 -0.15149,-0.7488 -0.11249,-0.851 l 0.0282,-0.074 0.0268,0.074 c 0.10686,0.2954 0.31249,0.6338 0.54529,0.8975 0.49245,0.5576 0.81024,0.7696 1.58155,1.0548 0.54347,0.201 0.52473,0.1977 0.48108,0.083 -0.0768,-0.202 -0.0391,-0.2179 0.12424,-0.052 0.11208,0.1135 0.30679,0.235 0.63831,0.3982 0.47805,0.2353 0.71754,0.386 0.71754,0.4515 0,0.019 -0.0596,0.101 -0.13247,0.1816 -0.0981,0.1086 -0.12613,0.1667 -0.10801,0.2238 0.031,0.098 0.4049,0.3487 0.47784,0.3207 0.0301,-0.012 0.0732,-0.093 0.0957,-0.1802 0.16421,-0.6384 0.20401,-0.6846 0.81892,-0.9524 0.44325,-0.1929 0.58094,-0.219 0.72752,-0.1376 0.0826,0.046 0.0797,0.05 -0.10473,0.1359 -0.15973,0.075 -0.33167,0.2346 -0.33167,0.3082 0,0.011 0.0708,-0.021 0.15726,-0.07 0.14909,-0.085 0.28678,-0.1179 0.28678,-0.068 0,0.013 -0.05,0.08 -0.11101,0.1493 -0.10062,0.1146 -0.11101,0.1506 -0.11101,0.3842 0,0.1785 0.0142,0.2595 0.0462,0.2634 0.0254,0 0.0642,0.01 0.0861,0.01 0.022,0 0.0939,0.05 0.15994,0.1052 0.0935,0.079 0.13509,0.093 0.18812,0.065 0.0958,-0.051 0.33361,-0.336 0.33361,-0.3994 0,-0.029 -0.05,-0.1159 -0.11101,-0.1929 -0.0611,-0.077 -0.11101,-0.158 -0.11101,-0.1798 0,-0.071 0.44514,-0.4119 0.71577,-0.5478 0.14565,-0.073 0.37306,-0.2024 0.50534,-0.2874 0.37277,-0.2395 0.347,-0.2298 0.31922,-0.1192 -0.018,0.072 -0.0104,0.098 0.028,0.098 0.0973,0 0.81553,-0.2642 1.11439,-0.4099 0.56194,-0.274 1.15141,-0.8654 1.43565,-1.4403 l 0.15549,-0.3145 0.0118,0.143 c 0.0158,0.192 -0.0878,0.6895 -0.20512,0.9856 -0.13449,0.3394 -0.31779,0.6163 -0.55704,0.8415 -0.11333,0.1067 -0.19542,0.2046 -0.18241,0.2177 0.0358,0.036 0.63723,-0.1245 0.94022,-0.2506 0.14735,-0.061 0.36776,-0.1761 0.4898,-0.255 l 0.22188,-0.1434 -0.0211,0.1187 c -0.10832,0.61 -0.37665,1.0622 -0.7605,1.2814 l -0.18323,0.1046 0.13118,0.025 c 0.0721,0.014 0.27421,0.01 0.44902,-0.018 0.17481,-0.023 0.32731,-0.033 0.33891,-0.021 0.0446,0.045 -0.18546,0.4348 -0.32833,0.557 -0.28176,0.2412 -0.71744,0.3912 -1.13915,0.3922 -0.37294,9e-4 -0.38597,0.04 -0.0754,0.224 0.14739,0.088 0.40334,0.2138 0.56877,0.2805 0.16542,0.067 0.30077,0.1417 0.30077,0.1667 0,0.069 -0.30592,0.211 -0.55075,0.2559 -0.25071,0.046 -0.50438,0.02 -0.81344,-0.082 -0.11939,-0.04 -0.22546,-0.064 -0.2357,-0.053 -0.0207,0.021 0.20926,0.3525 0.35741,0.5157 0.0525,0.058 0.16907,0.1485 0.25914,0.2016 l 0.16377,0.096 -0.10826,0.032 c -0.14945,0.044 -0.81181,0 -1.13564,-0.069 -0.14726,-0.033 -0.37292,-0.1021 -0.50148,-0.1533 -0.14776,-0.059 -0.24669,-0.08 -0.26892,-0.058 -0.0387,0.039 0.19568,0.4254 0.32962,0.5439 0.0433,0.038 0.0699,0.084 0.059,0.1017 -0.0326,0.053 -0.52502,0.036 -0.76352,-0.025 -0.12221,-0.032 -0.22705,-0.053 -0.23298,-0.046 -0.006,0.01 0.0464,0.1265 0.11624,0.2673 0.0817,0.1647 0.11427,0.2688 0.0913,0.2918 -0.0446,0.045 -0.32623,-0.023 -0.53015,-0.1266 -0.0806,-0.041 -0.15355,-0.068 -0.16202,-0.059 -0.008,0.01 0.01,0.076 0.0406,0.1494 0.0308,0.074 0.056,0.1512 0.056,0.1722 0,0.055 -0.18109,0.047 -0.39191,-0.017 -0.0999,-0.03 -0.19208,-0.055 -0.20484,-0.055 -0.0524,0 -0.17673,0.3701 -0.21396,0.6387 -0.0593,0.4278 0.0418,1.0164 0.27184,1.5825 0.0493,0.1213 0.0735,0.2206 0.0538,0.2206 -0.0197,0 -0.10183,-0.034 -0.18243,-0.075 -0.0806,-0.041 -0.14654,-0.06 -0.14654,-0.041 0,0.019 0.0349,0.148 0.0774,0.2875 0.10412,0.341 0.4125,0.9256 0.63187,1.1978 0.0983,0.1221 0.17876,0.2304 0.17876,0.2408 0,0.043 -0.38399,-0.1801 -0.51938,-0.3024 l -0.14668,-0.1325 v 0.2523 0.2523 l -0.15191,-0.1462 -0.1519,-0.1463 0.0272,0.1295 c 0.0253,0.1206 0.16242,0.5596 0.22385,0.7166 0.0244,0.062 0.0185,0.065 -0.0619,0.024 -0.0489,-0.025 -0.15964,-0.1138 -0.24613,-0.1971 l -0.15724,-0.1514 v 0.328 c 0,0.3204 -0.002,0.3265 -0.0706,0.264 -0.0388,-0.035 -0.0908,-0.1126 -0.1155,-0.1722 -0.0549,-0.1327 -0.0984,-0.1371 -0.15364,-0.016 -0.0583,0.1279 -0.0973,0.1161 -0.17268,-0.052 l -0.0648,-0.1447 -0.0825,0.1539 c -0.0454,0.085 -0.11495,0.1956 -0.15461,0.2465 l -0.0721,0.092 -8e-4,-0.334 z m 0.17679,-7.9066 c 0.0625,-0.063 0.0553,-0.2128 -0.0116,-0.2385 -0.0766,-0.029 -0.16604,0.052 -0.16604,0.1517 0,0.1322 0.0888,0.1756 0.17761,0.087 z"
       id="path2152-6-88" />
    <path
       style="display:inline;fill:#000000;stroke-width:0.0370034"
       d="m -596.83528,-1048.2763 -8.1e-4,-0.334 -0.22463,0.2138 c -0.2485,0.2365 -0.31084,0.2644 -0.25351,0.1136 0.0209,-0.055 0.0694,-0.2133 0.10774,-0.3515 l 0.0697,-0.2515 -0.18313,0.1943 -0.18314,0.1943 0.0244,-0.365 c 0.0278,-0.4166 0.0567,-0.4042 -0.31898,-0.1365 -0.11168,0.08 -0.20852,0.1393 -0.21519,0.1326 -0.007,-0.01 0.0398,-0.115 0.10331,-0.2408 0.12841,-0.2544 0.33884,-0.8599 0.42017,-1.209 l 0.053,-0.2276 -0.15604,0.1628 c -0.12637,0.1319 -0.18072,0.1629 -0.28592,0.1629 h -0.12989 l 0.19782,-0.3978 c 0.26598,-0.5348 0.38741,-1.0098 0.39502,-1.5449 0.005,-0.3142 -0.009,-0.4465 -0.0609,-0.5799 -0.0917,-0.2377 -0.14791,-0.2786 -0.24683,-0.1797 -0.0955,0.096 -0.22954,0.149 -0.37344,0.149 -0.12701,0 -0.12409,0.01 -0.0522,-0.1628 0.0717,-0.1716 0.0117,-0.2071 -0.17126,-0.1014 -0.13089,0.076 -0.54194,0.1748 -0.57741,0.1393 -0.0112,-0.011 0.0484,-0.1526 0.13245,-0.3142 0.21118,-0.4059 0.20429,-0.4416 -0.0567,-0.2943 -0.17749,0.1002 -0.2568,0.1208 -0.51805,0.1345 -0.16966,0.01 -0.30847,0 -0.30847,-0.01 0,-0.014 0.0577,-0.097 0.12813,-0.1826 0.13693,-0.1671 0.27676,-0.4436 0.2781,-0.5499 10e-4,-0.082 0.0142,-0.084 -0.26655,0.047 -0.31392,0.1469 -0.67384,0.22 -1.08326,0.2201 -0.28226,10e-5 -0.4883,-0.039 -0.42447,-0.08 0.01,-0.01 0.11708,-0.061 0.23887,-0.1221 0.21952,-0.1099 0.68664,-0.5096 0.64496,-0.5519 -0.0119,-0.012 -0.11277,0.01 -0.22411,0.048 -0.29805,0.1025 -0.54486,0.1264 -0.80994,0.078 -0.26291,-0.048 -0.60313,-0.2036 -0.58206,-0.2668 0.008,-0.023 0.16271,-0.1013 0.34474,-0.1745 0.18203,-0.073 0.4392,-0.1995 0.57149,-0.2806 l 0.24052,-0.1474 -0.24052,-0.028 c -0.66379,-0.078 -0.9622,-0.1825 -1.23178,-0.431 -0.19261,-0.1775 -0.34585,-0.4437 -0.3097,-0.5379 0.0171,-0.045 0.0453,-0.057 0.0894,-0.038 0.0784,0.033 0.78601,0.073 0.78601,0.045 0,-0.011 -0.0722,-0.062 -0.16036,-0.1139 -0.28306,-0.1658 -0.52506,-0.4936 -0.6503,-0.8806 -0.0497,-0.1536 -0.11127,-0.5126 -0.0879,-0.5126 0.008,0 0.0684,0.04 0.13323,0.089 0.18348,0.1378 0.60652,0.3376 0.93275,0.4405 0.33531,0.1057 0.57267,0.1565 0.57267,0.1224 0,-0.013 -0.10476,-0.1269 -0.2328,-0.2539 -0.25923,-0.2572 -0.45528,-0.5988 -0.57842,-1.008 -0.0936,-0.3112 -0.15149,-0.7488 -0.11249,-0.8511 l 0.0282,-0.074 0.0268,0.074 c 0.10686,0.2954 0.31249,0.6339 0.54529,0.8975 0.49245,0.5577 0.81024,0.7697 1.58154,1.0549 0.54348,0.2009 0.52474,0.1977 0.48108,0.083 -0.0768,-0.202 -0.0391,-0.2179 0.12425,-0.053 0.11208,0.1136 0.30679,0.235 0.6383,0.3982 0.47805,0.2354 0.71755,0.3861 0.71755,0.4515 0,0.019 -0.0596,0.101 -0.13248,0.1817 -0.0981,0.1086 -0.12612,0.1666 -0.108,0.2237 0.031,0.098 0.4049,0.3487 0.47784,0.3208 0.0301,-0.012 0.0732,-0.093 0.0957,-0.1802 0.16421,-0.6384 0.204,-0.6847 0.81892,-0.9524 0.44325,-0.193 0.58094,-0.219 0.72752,-0.1377 0.0826,0.046 0.0797,0.05 -0.10473,0.136 -0.15973,0.075 -0.33168,0.2346 -0.33168,0.3082 0,0.011 0.0708,-0.021 0.15727,-0.07 0.14909,-0.085 0.28678,-0.1178 0.28678,-0.068 0,0.013 -0.05,0.08 -0.11101,0.1493 -0.10062,0.1146 -0.11102,0.1506 -0.11102,0.3842 0,0.1785 0.0142,0.2594 0.0463,0.2633 0.0254,0 0.0642,0.01 0.0861,0.01 0.0219,0 0.0939,0.05 0.15994,0.1053 0.0935,0.079 0.13509,0.093 0.18812,0.065 0.0958,-0.051 0.33361,-0.336 0.33361,-0.3995 0,-0.029 -0.05,-0.1158 -0.11101,-0.1929 -0.0611,-0.077 -0.11101,-0.158 -0.11101,-0.1797 0,-0.071 0.44514,-0.412 0.71576,-0.5478 0.14566,-0.073 0.37306,-0.2025 0.50535,-0.2874 0.37276,-0.2395 0.34699,-0.2299 0.31922,-0.1192 -0.018,0.072 -0.0104,0.098 0.028,0.098 0.0973,0 0.81552,-0.2642 1.11438,-0.4099 0.56195,-0.2739 1.15142,-0.8653 1.43566,-1.4402 l 0.15548,-0.3146 0.0118,0.1431 c 0.0158,0.1919 -0.0878,0.6895 -0.20511,0.9855 -0.1345,0.3394 -0.31779,0.6164 -0.55704,0.8416 -0.11333,0.1067 -0.19542,0.2046 -0.18241,0.2176 0.0358,0.036 0.63723,-0.1244 0.94022,-0.2506 0.14735,-0.061 0.36776,-0.176 0.48979,-0.2549 l 0.22189,-0.1434 -0.0211,0.1186 c -0.10832,0.6101 -0.37666,1.0622 -0.7605,1.2814 l -0.18323,0.1047 0.13118,0.025 c 0.0721,0.014 0.27421,0.01 0.44902,-0.018 0.17481,-0.023 0.32731,-0.033 0.3389,-0.021 0.0446,0.044 -0.18545,0.4347 -0.32832,0.557 -0.28176,0.2412 -0.71744,0.3912 -1.13915,0.3921 -0.37294,9e-4 -0.38597,0.04 -0.0754,0.2241 0.14739,0.087 0.40334,0.2138 0.56877,0.2805 0.16542,0.067 0.30077,0.1417 0.30077,0.1666 0,0.069 -0.30592,0.2111 -0.55075,0.256 -0.25072,0.046 -0.50438,0.02 -0.81344,-0.082 -0.1194,-0.04 -0.22546,-0.064 -0.2357,-0.053 -0.0207,0.021 0.20926,0.3525 0.35741,0.5157 0.0525,0.058 0.16907,0.1485 0.25914,0.2015 l 0.16377,0.097 -0.10826,0.032 c -0.14945,0.044 -0.81181,0 -1.13565,-0.069 -0.14725,-0.033 -0.37291,-0.1022 -0.50147,-0.1533 -0.14776,-0.059 -0.24669,-0.08 -0.26893,-0.058 -0.0387,0.039 0.19569,0.4255 0.32963,0.544 0.0433,0.038 0.0699,0.084 0.059,0.1017 -0.0326,0.053 -0.52501,0.036 -0.76351,-0.025 -0.12221,-0.032 -0.22706,-0.053 -0.23298,-0.046 -0.006,0.01 0.0464,0.1266 0.11624,0.2674 0.0817,0.1646 0.11427,0.2688 0.0913,0.2918 -0.0446,0.045 -0.32623,-0.023 -0.53015,-0.1267 -0.0806,-0.041 -0.15355,-0.068 -0.16203,-0.059 -0.008,0.01 0.01,0.076 0.0406,0.1494 0.0308,0.074 0.056,0.1512 0.056,0.1722 0,0.055 -0.18108,0.047 -0.3919,-0.017 -0.0999,-0.03 -0.19209,-0.055 -0.20484,-0.055 -0.0524,-9e-4 -0.17673,0.3702 -0.21396,0.6388 -0.0593,0.4277 0.0418,1.0164 0.27183,1.5824 0.0493,0.1214 0.0735,0.2206 0.0538,0.2206 -0.0197,0 -0.10183,-0.034 -0.18242,-0.075 -0.0806,-0.041 -0.14654,-0.059 -0.14654,-0.041 0,0.019 0.0349,0.148 0.0774,0.2875 0.10412,0.341 0.4125,0.9256 0.63186,1.1978 0.0983,0.122 0.17877,0.2304 0.17877,0.2408 0,0.043 -0.38399,-0.1801 -0.51938,-0.3024 l -0.14668,-0.1326 v 0.2524 0.2523 l -0.15191,-0.1463 -0.1519,-0.1462 0.0272,0.1295 c 0.0253,0.1205 0.16242,0.5595 0.22385,0.7166 0.0244,0.062 0.0185,0.065 -0.0619,0.023 -0.0489,-0.025 -0.15964,-0.1137 -0.24613,-0.197 l -0.15724,-0.1514 v 0.328 c 0,0.3203 -0.002,0.3264 -0.0706,0.264 -0.0388,-0.035 -0.0908,-0.1127 -0.1155,-0.1722 -0.0549,-0.1327 -0.0984,-0.1372 -0.15363,-0.016 -0.0583,0.128 -0.0973,0.1162 -0.17268,-0.052 l -0.0648,-0.1447 -0.0825,0.1539 c -0.0454,0.085 -0.11495,0.1956 -0.15461,0.2465 l -0.0721,0.092 -8e-4,-0.3341 z m 0.17679,-7.9066 c 0.0625,-0.062 0.0553,-0.2127 -0.0116,-0.2384 -0.0766,-0.029 -0.16604,0.052 -0.16604,0.1517 0,0.1322 0.0888,0.1756 0.17761,0.087 z"
       id="path2152-6-1-5" />
    <path
       style="display:inline;fill:#000000;stroke-width:0.0370034"
       d="m -581.42516,-1026.7137 -8.1e-4,-0.334 -0.22463,0.2137 c -0.24851,0.2365 -0.31084,0.2644 -0.25351,0.1136 0.0209,-0.055 0.0694,-0.2132 0.10774,-0.3515 l 0.0697,-0.2514 -0.18313,0.1942 -0.18314,0.1943 0.0244,-0.3649 c 0.0278,-0.4167 0.0567,-0.4043 -0.31898,-0.1366 -0.11168,0.08 -0.20852,0.1393 -0.21519,0.1326 -0.007,-0.01 0.0398,-0.115 0.10331,-0.2408 0.12841,-0.2544 0.33884,-0.8599 0.42017,-1.209 l 0.053,-0.2276 -0.15604,0.1628 c -0.12638,0.1319 -0.18072,0.1629 -0.28592,0.1629 h -0.12989 l 0.19782,-0.3978 c 0.26598,-0.5348 0.38741,-1.0098 0.39502,-1.5449 0.005,-0.3141 -0.009,-0.4465 -0.0609,-0.5799 -0.0917,-0.2377 -0.14791,-0.2786 -0.24683,-0.1796 -0.0955,0.096 -0.22954,0.149 -0.37344,0.149 -0.12701,0 -0.12409,0.01 -0.0522,-0.1629 0.0717,-0.1716 0.0117,-0.2071 -0.17126,-0.1014 -0.13089,0.076 -0.54194,0.1748 -0.57741,0.1393 -0.0112,-0.011 0.0484,-0.1526 0.13245,-0.3141 0.21118,-0.4059 0.20429,-0.4417 -0.0567,-0.2944 -0.17749,0.1002 -0.2568,0.1208 -0.51805,0.1345 -0.16966,0.01 -0.30847,0 -0.30847,-0.01 0,-0.014 0.0577,-0.096 0.12813,-0.1825 0.13693,-0.1671 0.27676,-0.4436 0.2781,-0.5499 10e-4,-0.082 0.0142,-0.084 -0.26655,0.047 -0.31392,0.1469 -0.67383,0.22 -1.08326,0.2201 -0.28226,10e-5 -0.4883,-0.039 -0.42447,-0.08 0.01,-0.01 0.11708,-0.061 0.23887,-0.1221 0.21952,-0.1099 0.68664,-0.5096 0.64496,-0.5519 -0.0119,-0.012 -0.11277,0.01 -0.22411,0.048 -0.29805,0.1026 -0.54486,0.1264 -0.80994,0.078 -0.26291,-0.048 -0.60313,-0.2037 -0.58206,-0.2669 0.008,-0.023 0.16271,-0.1012 0.34474,-0.1745 0.18203,-0.073 0.4392,-0.1995 0.57149,-0.2806 l 0.24052,-0.1474 -0.24052,-0.028 c -0.66379,-0.078 -0.9622,-0.1825 -1.23178,-0.431 -0.19261,-0.1775 -0.34585,-0.4437 -0.3097,-0.5379 0.0171,-0.045 0.0453,-0.057 0.0894,-0.038 0.0784,0.033 0.78601,0.073 0.78601,0.045 0,-0.011 -0.0722,-0.062 -0.16036,-0.1139 -0.28306,-0.1659 -0.52506,-0.4937 -0.6503,-0.8807 -0.0497,-0.1535 -0.11127,-0.5125 -0.0879,-0.5125 0.008,0 0.0684,0.04 0.13323,0.088 0.18348,0.1379 0.60652,0.3376 0.93275,0.4405 0.33531,0.1057 0.57267,0.1565 0.57267,0.1224 0,-0.013 -0.10476,-0.1268 -0.2328,-0.2539 -0.25923,-0.2571 -0.45528,-0.5988 -0.57842,-1.008 -0.0936,-0.3111 -0.15149,-0.7488 -0.11249,-0.8511 l 0.0282,-0.074 0.0268,0.074 c 0.10686,0.2955 0.31249,0.6339 0.54529,0.8976 0.49245,0.5576 0.81024,0.7696 1.58154,1.0548 0.54348,0.201 0.52474,0.1977 0.48108,0.083 -0.0768,-0.202 -0.0391,-0.2179 0.12425,-0.052 0.11208,0.1135 0.30679,0.235 0.6383,0.3982 0.47805,0.2353 0.71755,0.386 0.71755,0.4515 0,0.019 -0.0596,0.101 -0.13248,0.1816 -0.0981,0.1086 -0.12612,0.1667 -0.108,0.2238 0.031,0.098 0.4049,0.3487 0.47784,0.3207 0.0301,-0.012 0.0732,-0.093 0.0957,-0.1802 0.16421,-0.6384 0.204,-0.6846 0.81892,-0.9524 0.44325,-0.1929 0.58094,-0.219 0.72752,-0.1376 0.0826,0.046 0.0797,0.049 -0.10473,0.1359 -0.15973,0.075 -0.33168,0.2346 -0.33168,0.3082 0,0.011 0.0708,-0.021 0.15727,-0.07 0.14909,-0.085 0.28678,-0.1179 0.28678,-0.068 0,0.013 -0.05,0.08 -0.11101,0.1493 -0.10062,0.1146 -0.11102,0.1506 -0.11102,0.3842 0,0.1785 0.0142,0.2595 0.0462,0.2634 0.0254,0 0.0642,0.01 0.0861,0.01 0.022,0 0.0939,0.05 0.15995,0.1052 0.0935,0.079 0.13509,0.093 0.18812,0.065 0.0958,-0.051 0.33361,-0.336 0.33361,-0.3994 0,-0.029 -0.05,-0.1159 -0.11101,-0.193 -0.0611,-0.077 -0.11101,-0.1579 -0.11101,-0.1797 0,-0.071 0.44514,-0.4119 0.71577,-0.5478 0.14565,-0.073 0.37305,-0.2024 0.50534,-0.2874 0.37276,-0.2395 0.34699,-0.2298 0.31922,-0.1192 -0.018,0.072 -0.0104,0.098 0.028,0.098 0.0973,0 0.81552,-0.2642 1.11438,-0.4099 0.56195,-0.274 1.15142,-0.8654 1.43566,-1.4403 l 0.15548,-0.3145 0.0118,0.143 c 0.0158,0.1919 -0.0878,0.6895 -0.20511,0.9856 -0.1345,0.3394 -0.3178,0.6163 -0.55704,0.8415 -0.11333,0.1067 -0.19542,0.2046 -0.18241,0.2176 0.0358,0.036 0.63723,-0.1244 0.94022,-0.2505 0.14735,-0.061 0.36776,-0.1761 0.48979,-0.255 l 0.22189,-0.1434 -0.0211,0.1187 c -0.10832,0.61 -0.37666,1.0622 -0.7605,1.2814 l -0.18323,0.1046 0.13118,0.025 c 0.0721,0.014 0.27421,0.01 0.44902,-0.018 0.17481,-0.023 0.32731,-0.033 0.3389,-0.021 0.0446,0.045 -0.18545,0.4347 -0.32832,0.557 -0.28176,0.2412 -0.71744,0.3912 -1.13915,0.3922 -0.37294,9e-4 -0.38597,0.04 -0.0754,0.224 0.14739,0.088 0.40334,0.2138 0.56877,0.2805 0.16542,0.067 0.30077,0.1417 0.30077,0.1667 0,0.069 -0.30592,0.211 -0.55075,0.2559 -0.25072,0.046 -0.50438,0.02 -0.81344,-0.082 -0.1194,-0.04 -0.22546,-0.064 -0.2357,-0.053 -0.0207,0.021 0.20926,0.3525 0.35741,0.5157 0.0525,0.058 0.16907,0.1485 0.25914,0.2016 l 0.16377,0.097 -0.10826,0.032 c -0.14945,0.044 -0.81181,0 -1.13565,-0.069 -0.14725,-0.033 -0.37291,-0.1022 -0.50147,-0.1533 -0.14776,-0.059 -0.24669,-0.08 -0.26893,-0.058 -0.0387,0.039 0.19569,0.4254 0.32963,0.5439 0.0433,0.038 0.0699,0.084 0.059,0.1017 -0.0326,0.053 -0.52501,0.036 -0.76351,-0.025 -0.12221,-0.032 -0.22706,-0.053 -0.23298,-0.046 -0.006,0.01 0.0464,0.1265 0.11624,0.2673 0.0817,0.1647 0.11427,0.2688 0.0913,0.2918 -0.0446,0.045 -0.32623,-0.023 -0.53015,-0.1266 -0.0806,-0.041 -0.15355,-0.068 -0.16203,-0.059 -0.008,0.01 0.01,0.076 0.0406,0.1494 0.0308,0.074 0.056,0.1512 0.056,0.1722 0,0.055 -0.18108,0.047 -0.3919,-0.017 -0.0999,-0.03 -0.19209,-0.055 -0.20484,-0.055 -0.0524,-10e-4 -0.17673,0.3701 -0.21396,0.6387 -0.0593,0.4278 0.0418,1.0164 0.27183,1.5825 0.0493,0.1213 0.0735,0.2206 0.0538,0.2206 -0.0197,0 -0.10183,-0.034 -0.18242,-0.075 -0.0806,-0.041 -0.14654,-0.059 -0.14654,-0.041 0,0.019 0.0349,0.148 0.0774,0.2875 0.10412,0.341 0.4125,0.9256 0.63186,1.1978 0.0983,0.1221 0.17877,0.2304 0.17877,0.2408 0,0.043 -0.38399,-0.1801 -0.51938,-0.3024 l -0.14668,-0.1325 v 0.2523 0.2523 l -0.15191,-0.1462 -0.1519,-0.1463 0.0272,0.1295 c 0.0253,0.1206 0.16242,0.5596 0.22385,0.7166 0.0244,0.062 0.0185,0.065 -0.0619,0.023 -0.0489,-0.025 -0.15964,-0.1137 -0.24613,-0.197 l -0.15725,-0.1514 v 0.328 c 0,0.3204 -0.002,0.3265 -0.0706,0.264 -0.0388,-0.035 -0.0908,-0.1126 -0.11551,-0.1722 -0.0549,-0.1327 -0.0984,-0.1371 -0.15363,-0.016 -0.0583,0.1279 -0.0973,0.1161 -0.17268,-0.052 l -0.0648,-0.1447 -0.0825,0.1539 c -0.0454,0.085 -0.11495,0.1956 -0.15461,0.2465 l -0.0721,0.092 -8e-4,-0.334 z m 0.17679,-7.9066 c 0.0625,-0.063 0.0553,-0.2128 -0.0116,-0.2385 -0.0766,-0.029 -0.16604,0.052 -0.16604,0.1517 0,0.1322 0.0888,0.1756 0.17761,0.087 z"
       id="path2152-6-5-0" />
    <path
       style="display:inline;fill:#000000;stroke-width:0.0370034"
       d="m -581.55842,-1070.3131 -8.1e-4,-0.334 -0.22463,0.2137 c -0.24851,0.2365 -0.31084,0.2644 -0.25351,0.1136 0.0209,-0.055 0.0694,-0.2132 0.10774,-0.3515 l 0.0697,-0.2514 -0.18313,0.1943 -0.18314,0.1942 0.0244,-0.3649 c 0.0278,-0.4167 0.0567,-0.4043 -0.31898,-0.1366 -0.11168,0.08 -0.20852,0.1393 -0.21519,0.1326 -0.007,-0.01 0.0398,-0.115 0.1033,-0.2408 0.12842,-0.2544 0.33884,-0.8598 0.42018,-1.209 l 0.053,-0.2276 -0.15604,0.1628 c -0.12638,0.1319 -0.18072,0.1629 -0.28592,0.1629 h -0.12989 l 0.19782,-0.3978 c 0.26597,-0.5348 0.38741,-1.0098 0.39502,-1.5449 0.005,-0.3141 -0.009,-0.4465 -0.0609,-0.5799 -0.0917,-0.2377 -0.14791,-0.2786 -0.24683,-0.1796 -0.0955,0.096 -0.22955,0.149 -0.37344,0.149 -0.12701,0 -0.12409,0.01 -0.0522,-0.1629 0.0717,-0.1716 0.0117,-0.2071 -0.17126,-0.1014 -0.13089,0.076 -0.54194,0.1748 -0.57741,0.1393 -0.0112,-0.011 0.0484,-0.1526 0.13245,-0.3141 0.21118,-0.4059 0.20429,-0.4417 -0.0567,-0.2944 -0.1775,0.1002 -0.2568,0.1208 -0.51805,0.1345 -0.16966,0.01 -0.30847,0 -0.30847,-0.01 0,-0.014 0.0577,-0.097 0.12813,-0.1825 0.13693,-0.1671 0.27676,-0.4436 0.27809,-0.5499 10e-4,-0.082 0.0142,-0.084 -0.26654,0.047 -0.31393,0.1469 -0.67384,0.22 -1.08326,0.2201 -0.28226,10e-5 -0.4883,-0.039 -0.42447,-0.08 0.01,-0.01 0.11708,-0.061 0.23887,-0.1221 0.21952,-0.1099 0.68664,-0.5096 0.64496,-0.5519 -0.0119,-0.012 -0.11277,0.01 -0.22411,0.048 -0.29805,0.1026 -0.54486,0.1265 -0.80994,0.078 -0.26291,-0.048 -0.60313,-0.2037 -0.58206,-0.2669 0.008,-0.023 0.1627,-0.1012 0.34474,-0.1745 0.18203,-0.073 0.4392,-0.1995 0.57149,-0.2806 l 0.24052,-0.1474 -0.24052,-0.028 c -0.66379,-0.078 -0.9622,-0.1825 -1.23179,-0.431 -0.19261,-0.1775 -0.34585,-0.4437 -0.30969,-0.5379 0.0171,-0.044 0.0453,-0.057 0.0894,-0.038 0.0784,0.033 0.78601,0.073 0.78601,0.045 0,-0.011 -0.0722,-0.062 -0.16036,-0.1139 -0.28306,-0.1659 -0.52506,-0.4936 -0.6503,-0.8807 -0.0497,-0.1535 -0.11127,-0.5125 -0.0879,-0.5125 0.009,0 0.0684,0.04 0.13323,0.088 0.18348,0.1379 0.60651,0.3376 0.93275,0.4405 0.33531,0.1057 0.57266,0.1565 0.57266,0.1224 0,-0.013 -0.10475,-0.1268 -0.2328,-0.2538 -0.25922,-0.2572 -0.45527,-0.5989 -0.57842,-1.0081 -0.0936,-0.3111 -0.15148,-0.7488 -0.11248,-0.8511 l 0.0282,-0.074 0.0268,0.074 c 0.10686,0.2955 0.31249,0.6339 0.54529,0.8976 0.49245,0.5576 0.81024,0.7696 1.58154,1.0548 0.54347,0.201 0.52474,0.1977 0.48108,0.083 -0.0768,-0.202 -0.0391,-0.2179 0.12424,-0.052 0.11209,0.1135 0.30679,0.235 0.63831,0.3982 0.47805,0.2353 0.71755,0.386 0.71755,0.4515 0,0.019 -0.0596,0.101 -0.13248,0.1816 -0.0981,0.1086 -0.12612,0.1667 -0.108,0.2238 0.031,0.098 0.40489,0.3487 0.47784,0.3207 0.0301,-0.012 0.0732,-0.093 0.0957,-0.1802 0.1642,-0.6384 0.204,-0.6846 0.81892,-0.9524 0.44325,-0.1929 0.58094,-0.219 0.72752,-0.1376 0.0826,0.046 0.0797,0.05 -0.10473,0.1359 -0.15973,0.075 -0.33168,0.2346 -0.33168,0.3082 0,0.011 0.0708,-0.021 0.15727,-0.07 0.14909,-0.085 0.28677,-0.1179 0.28677,-0.068 0,0.013 -0.05,0.08 -0.11101,0.1493 -0.10061,0.1146 -0.11101,0.1506 -0.11101,0.3842 0,0.1785 0.0142,0.2595 0.0462,0.2634 0.0254,0 0.0642,0.01 0.0861,0.01 0.0219,0 0.0939,0.05 0.15995,0.1052 0.0935,0.079 0.13509,0.093 0.18812,0.065 0.0958,-0.051 0.33361,-0.336 0.33361,-0.3994 0,-0.029 -0.05,-0.1159 -0.11101,-0.193 -0.0611,-0.077 -0.11101,-0.1579 -0.11101,-0.1797 0,-0.071 0.44514,-0.4119 0.71576,-0.5478 0.14566,-0.073 0.37306,-0.2024 0.50535,-0.2874 0.37276,-0.2395 0.34699,-0.2298 0.31922,-0.1192 -0.018,0.072 -0.0104,0.098 0.028,0.098 0.0972,0 0.81552,-0.2642 1.11438,-0.4099 0.56195,-0.274 1.15142,-0.8654 1.43565,-1.4403 l 0.15549,-0.3145 0.0118,0.143 c 0.0158,0.1919 -0.0878,0.6895 -0.20511,0.9856 -0.1345,0.3394 -0.3178,0.6163 -0.55704,0.8415 -0.11334,0.1067 -0.19542,0.2046 -0.18241,0.2176 0.0358,0.036 0.63722,-0.1244 0.94022,-0.2505 0.14735,-0.061 0.36776,-0.1761 0.48979,-0.255 l 0.22188,-0.1434 -0.0211,0.1187 c -0.10831,0.61 -0.37665,1.0622 -0.76049,1.2814 l -0.18323,0.1046 0.13118,0.025 c 0.0721,0.014 0.27421,0.01 0.44901,-0.018 0.17481,-0.023 0.32732,-0.033 0.33891,-0.021 0.0446,0.045 -0.18545,0.4347 -0.32832,0.557 -0.28176,0.2412 -0.71745,0.3912 -1.13915,0.3922 -0.37294,9e-4 -0.38597,0.039 -0.0755,0.224 0.14739,0.088 0.40334,0.2138 0.56876,0.2805 0.16543,0.067 0.30078,0.1417 0.30078,0.1667 0,0.069 -0.30592,0.211 -0.55075,0.2559 -0.25072,0.046 -0.50438,0.02 -0.81344,-0.082 -0.1194,-0.04 -0.22546,-0.064 -0.2357,-0.053 -0.0207,0.021 0.20926,0.3525 0.35741,0.5157 0.0525,0.058 0.16907,0.1485 0.25914,0.2016 l 0.16376,0.097 -0.10825,0.032 c -0.14945,0.044 -0.81181,0 -1.13565,-0.069 -0.14725,-0.033 -0.37291,-0.1022 -0.50147,-0.1533 -0.14777,-0.059 -0.24669,-0.08 -0.26893,-0.058 -0.0387,0.039 0.19569,0.4254 0.32963,0.5439 0.0433,0.038 0.0699,0.084 0.059,0.1017 -0.0326,0.053 -0.52501,0.036 -0.76351,-0.025 -0.12221,-0.032 -0.22706,-0.053 -0.23299,-0.046 -0.006,0.01 0.0464,0.1265 0.11625,0.2673 0.0817,0.1647 0.11427,0.2688 0.0913,0.2918 -0.0447,0.045 -0.32623,-0.023 -0.53015,-0.1266 -0.0806,-0.041 -0.15356,-0.068 -0.16203,-0.059 -0.009,0.01 0.01,0.076 0.0406,0.1494 0.0308,0.074 0.056,0.1512 0.056,0.1722 0,0.055 -0.18108,0.047 -0.39191,-0.017 -0.0999,-0.03 -0.19208,-0.055 -0.20484,-0.056 -0.0524,-10e-4 -0.17673,0.3701 -0.21395,0.6387 -0.0593,0.4278 0.0418,1.0164 0.27183,1.5825 0.0493,0.1213 0.0735,0.2206 0.0538,0.2206 -0.0197,0 -0.10183,-0.034 -0.18242,-0.075 -0.0806,-0.041 -0.14654,-0.059 -0.14654,-0.041 0,0.019 0.0349,0.148 0.0774,0.2875 0.10412,0.341 0.4125,0.9256 0.63186,1.1978 0.0983,0.1221 0.17876,0.2304 0.17876,0.2408 0,0.043 -0.38398,-0.1801 -0.51937,-0.3024 l -0.14669,-0.1325 v 0.2523 0.2523 l -0.1519,-0.1462 -0.15191,-0.1463 0.0272,0.1295 c 0.0253,0.1206 0.16243,0.5596 0.22386,0.7166 0.0244,0.062 0.0185,0.065 -0.0619,0.023 -0.0489,-0.025 -0.15964,-0.1137 -0.24614,-0.197 l -0.15724,-0.1514 v 0.328 c 0,0.3204 -0.002,0.3265 -0.0706,0.264 -0.0388,-0.035 -0.0908,-0.1126 -0.1155,-0.1722 -0.055,-0.1327 -0.0984,-0.1371 -0.15363,-0.016 -0.0583,0.1279 -0.0973,0.1161 -0.17268,-0.052 l -0.0648,-0.1447 -0.0825,0.1539 c -0.0454,0.085 -0.11495,0.1956 -0.15461,0.2465 l -0.0721,0.092 -8.1e-4,-0.334 z m 0.17679,-7.9066 c 0.0625,-0.063 0.0553,-0.2128 -0.0116,-0.2385 -0.0766,-0.029 -0.16605,0.052 -0.16605,0.1517 0,0.1322 0.0888,0.1756 0.17762,0.087 z"
       id="path2152-6-5-6-9" />
    <text
       xml:space="preserve"
       style="font-size:14.1111px;line-height:1.25;font-family:'Blood Crow';-inkscape-font-specification:'Blood Crow';display:inline;stroke-width:0.264583"
       x="-623.55029"
       y="-1085.9463"
       id="text9052-63"><tspan
         id="tspan9050-8"
         style="font-style:normal;font-variant:normal;font-weight:normal;font-stretch:normal;font-size:14.1111px;font-family:'Bleeding Cowboys';-inkscape-font-specification:'Bleeding Cowboys';stroke-width:0.264583"
         x="-623.55029"
         y="-1085.9463">5</tspan></text>
    <text
       xml:space="preserve"
       style="font-size:14.1111px;line-height:1.25;font-family:'Blood Crow';-inkscape-font-specification:'Blood Crow';display:inline;stroke-width:0.264583"
       x="569.89301"
       y="1022.9087"
       id="text9052-3-5"
       transform="scale(-1)"><tspan
         id="tspan9050-0-6"
         style="font-style:normal;font-variant:normal;font-weight:normal;font-stretch:normal;font-size:14.1111px;font-family:'Bleeding Cowboys';-inkscape-font-specification:'Bleeding Cowboys';stroke-width:0.264583"
         x="569.89301"
         y="1022.9087">5</tspan></text>
  </g>
</svg>
