<?xml version="1.0" encoding="UTF-8" standalone="no"?>
<!-- Created with Inkscape (http://www.inkscape.org/) -->

<svg
   width="63mm"
   height="89mm"
   viewBox="0 0 63 89"
   version="1.1"
   id="svg5"
   sodipodi:docname="8-Corbeau.svg"
   inkscape:version="1.1.2 (1:1.1+202202050950+0a00cf5339)"
   xmlns:inkscape="http://www.inkscape.org/namespaces/inkscape"
   xmlns:sodipodi="http://sodipodi.sourceforge.net/DTD/sodipodi-0.dtd"
   xmlns:xlink="http://www.w3.org/1999/xlink"
   xmlns="http://www.w3.org/2000/svg"
   xmlns:svg="http://www.w3.org/2000/svg">
  <sodipodi:namedview
     id="namedview155"
     pagecolor="#ffffff"
     bordercolor="#666666"
     borderopacity="1.0"
     inkscape:pageshadow="2"
     inkscape:pageopacity="0.0"
     inkscape:pagecheckerboard="0"
     inkscape:document-units="mm"
     showgrid="false"
     inkscape:zoom="0.50241105"
     inkscape:cx="469.73489"
     inkscape:cy="74.640078"
     inkscape:window-width="1920"
     inkscape:window-height="1057"
     inkscape:window-x="1920"
     inkscape:window-y="0"
     inkscape:window-maximized="1"
     inkscape:current-layer="svg5" />
  <defs
     id="defs2">
    <linearGradient
       id="linearGradient66035">
      <stop
         style="stop-color:#ffeeaa;stop-opacity:1;"
         offset="0"
         id="stop66031" />
      <stop
         style="stop-color:#ffeeaa;stop-opacity:0;"
         offset="1"
         id="stop66033" />
    </linearGradient>
    <linearGradient
       xlink:href="#linearGradient66035"
       id="linearGradient66037"
       x1="-609.21545"
       y1="124.85085"
       x2="-533.06219"
       y2="235.37372"
       gradientUnits="userSpaceOnUse" />
    <linearGradient
       xlink:href="#linearGradient66035"
       id="linearGradient66272"
       gradientUnits="userSpaceOnUse"
       x1="-609.21545"
       y1="124.85085"
       x2="-533.06219"
       y2="235.37372"
       gradientTransform="translate(107.54224,19.681403)" />
    <linearGradient
       xlink:href="#linearGradient66035"
       id="linearGradient66419"
       gradientUnits="userSpaceOnUse"
       gradientTransform="translate(169.88249,19.681395)"
       x1="-609.21545"
       y1="124.85085"
       x2="-533.06219"
       y2="235.37372" />
    <linearGradient
       xlink:href="#linearGradient66035"
       id="linearGradient66886"
       gradientUnits="userSpaceOnUse"
       gradientTransform="translate(609.74704,-124.32202)"
       x1="-609.21545"
       y1="124.85085"
       x2="-533.06219"
       y2="235.37372" />
    <linearGradient
       xlink:href="#linearGradient66035"
       id="linearGradient67116"
       gradientUnits="userSpaceOnUse"
       gradientTransform="translate(761.64943,-239.23166)"
       x1="-609.21545"
       y1="124.85085"
       x2="-533.06219"
       y2="235.37372" />
    <linearGradient
       xlink:href="#linearGradient66035"
       id="linearGradient73095"
       gradientUnits="userSpaceOnUse"
       gradientTransform="translate(-18.43475,-1222.8025)"
       x1="-609.21545"
       y1="124.85085"
       x2="-533.06219"
       y2="235.37372" />
    <linearGradient
       xlink:href="#linearGradient66035"
       id="linearGradient82342"
       gradientUnits="userSpaceOnUse"
       gradientTransform="translate(704.02075,-140.75031)"
       x1="-609.21545"
       y1="124.85085"
       x2="-533.06219"
       y2="235.37372" />
    <linearGradient
       xlink:href="#linearGradient66035"
       id="linearGradient90215"
       gradientUnits="userSpaceOnUse"
       gradientTransform="translate(340.696,-366.60502)"
       x1="-609.21545"
       y1="124.85085"
       x2="-533.06219"
       y2="235.37372" />
    <linearGradient
       xlink:href="#linearGradient66035"
       id="linearGradient99476"
       gradientUnits="userSpaceOnUse"
       gradientTransform="translate(510.6307,-103.31497)"
       x1="-609.21545"
       y1="124.85085"
       x2="-533.06219"
       y2="235.37372" />
    <linearGradient
       xlink:href="#linearGradient66035"
       id="linearGradient105434"
       gradientUnits="userSpaceOnUse"
       gradientTransform="translate(512.58237,-32.383406)"
       x1="-609.21545"
       y1="124.85085"
       x2="-533.06219"
       y2="235.37372" />
    <linearGradient
       xlink:href="#linearGradient66035"
       id="linearGradient116711"
       gradientUnits="userSpaceOnUse"
       gradientTransform="translate(521.8087,-182.6408)"
       x1="-609.21545"
       y1="124.85085"
       x2="-533.06219"
       y2="235.37372" />
  </defs>
  <g
     id="g99504"
     transform="translate(99.021665,-21.133181)">
    <rect
       style="display:inline;fill:url(#linearGradient99476);fill-opacity:1;stroke:#000000;stroke-width:0.659785;stroke-miterlimit:4;stroke-dasharray:none;stroke-opacity:1"
       id="rect870-4-6-9-1-96"
       width="62.340214"
       height="88.340218"
       x="-98.584785"
       y="21.535906"
       rx="3.7119057"
       ry="3.3358381" />
    <path
       style="display:inline;fill:#000000;stroke-width:0.0370034"
       d="m -82.47163,49.174432 -8.04e-4,-0.334015 -0.224635,0.213755 c -0.248504,0.236468 -0.310838,0.264405 -0.253509,0.11362 0.02094,-0.05507 0.06942,-0.213273 0.107743,-0.351555 l 0.06967,-0.251422 -0.183135,0.194291 -0.183135,0.194292 0.02435,-0.364962 c 0.02779,-0.416681 0.05672,-0.4043 -0.318981,-0.136548 -0.111685,0.0796 -0.208521,0.139263 -0.215192,0.132593 -0.0067,-0.0067 0.03982,-0.11503 0.103305,-0.240797 0.128419,-0.254399 0.338841,-0.859878 0.420173,-1.209029 l 0.05302,-0.227602 -0.156034,0.162847 c -0.126379,0.131897 -0.18072,0.162846 -0.285923,0.162846 h -0.129887 l 0.19782,-0.397784 c 0.265971,-0.534825 0.387408,-1.009758 0.395014,-1.544888 0.0045,-0.314145 -0.0094,-0.446483 -0.06092,-0.579887 -0.09173,-0.237703 -0.147907,-0.278598 -0.246827,-0.179678 -0.09554,0.09554 -0.229545,0.149011 -0.373439,0.149011 -0.127008,0 -0.124088,0.0091 -0.05225,-0.162833 0.07171,-0.17161 0.01171,-0.207149 -0.171264,-0.101445 -0.130886,0.07561 -0.541937,0.174812 -0.577405,0.139343 -0.01122,-0.01122 0.04838,-0.152586 0.132446,-0.314159 0.21118,-0.405914 0.204291,-0.441653 -0.05674,-0.294337 -0.177493,0.100171 -0.256802,0.120757 -0.518047,0.134469 -0.169658,0.0089 -0.30847,0.0044 -0.30847,-0.01 0,-0.01439 0.05766,-0.09653 0.128131,-0.182531 0.136932,-0.167108 0.276759,-0.443601 0.278093,-0.5499 0.001,-0.08214 0.01424,-0.08447 -0.266547,0.04693 -0.313923,0.146903 -0.673834,0.220043 -1.08326,0.220136 -0.282258,7.4e-5 -0.488302,-0.03878 -0.424465,-0.08004 0.0096,-0.0062 0.117078,-0.06114 0.23887,-0.122098 0.219516,-0.109872 0.686638,-0.509603 0.644957,-0.55191 -0.01192,-0.0121 -0.112773,0.0093 -0.224108,0.04764 -0.298051,0.102546 -0.544864,0.126422 -0.809941,0.07835 -0.262915,-0.04767 -0.603133,-0.203663 -0.582064,-0.266872 0.0076,-0.02273 0.162709,-0.101249 0.344741,-0.174498 0.182032,-0.07325 0.439202,-0.199515 0.571489,-0.28059 l 0.240521,-0.147411 -0.240521,-0.02829 c -0.663784,-0.07808 -0.962199,-0.182492 -1.231782,-0.430984 -0.19261,-0.177543 -0.34585,-0.443716 -0.309695,-0.537933 0.01709,-0.04455 0.04529,-0.05665 0.08941,-0.03837 0.07842,0.03249 0.786007,0.07295 0.786007,0.04494 0,-0.01096 -0.07216,-0.06222 -0.160358,-0.113909 -0.283059,-0.165882 -0.52506,-0.493612 -0.650303,-0.88067 -0.04968,-0.153521 -0.111262,-0.512516 -0.08792,-0.512516 0.0085,0 0.06845,0.03981 0.133236,0.08847 0.18348,0.13781 0.606514,0.337572 0.932748,0.440455 0.335308,0.105745 0.572666,0.156493 0.572666,0.122439 0,-0.01261 -0.10476,-0.126861 -0.2328,-0.25389 -0.259224,-0.257178 -0.455274,-0.59884 -0.578421,-1.008031 -0.09364,-0.311157 -0.151484,-0.74878 -0.112485,-0.851075 l 0.02822,-0.07401 0.02677,0.07401 c 0.106859,0.295429 0.312491,0.633891 0.545291,0.897524 0.49245,0.557675 0.81024,0.769631 1.581542,1.054839 0.543472,0.200962 0.524735,0.197733 0.48108,0.08291 -0.07681,-0.202022 -0.03914,-0.217926 0.124242,-0.05245 0.112086,0.113531 0.30679,0.23499 0.638307,0.398185 0.478051,0.235331 0.717546,0.386031 0.717546,0.451513 0,0.01926 -0.05962,0.100999 -0.132476,0.181649 -0.0981,0.108579 -0.126125,0.166647 -0.108004,0.223745 0.03104,0.09778 0.404897,0.348717 0.47784,0.320727 0.03013,-0.01156 0.07321,-0.09265 0.09573,-0.180193 0.164207,-0.638357 0.204005,-0.68464 0.818922,-0.952354 0.443247,-0.192975 0.580939,-0.219031 0.72752,-0.13767 0.08258,0.04583 0.07974,0.04952 -0.104734,0.13592 -0.15973,0.07481 -0.331673,0.234591 -0.331673,0.308208 0,0.01094 0.07077,-0.02057 0.157264,-0.07002 0.149093,-0.08525 0.286777,-0.117864 0.286777,-0.06794 0,0.01258 -0.04996,0.07976 -0.11101,0.149301 -0.100617,0.114596 -0.11101,0.150561 -0.11101,0.384168 0,0.178513 0.01422,0.259468 0.04625,0.263372 0.02544,0.0031 0.06421,0.0075 0.08614,0.0099 0.02195,0.0023 0.09391,0.04968 0.159945,0.105241 0.09354,0.07871 0.135091,0.09297 0.188118,0.06459 0.09577,-0.05126 0.333613,-0.336019 0.333613,-0.399432 0,-0.02902 -0.04996,-0.115844 -0.111011,-0.192932 -0.06106,-0.07709 -0.11101,-0.157973 -0.11101,-0.179742 0,-0.07127 0.445142,-0.411944 0.715765,-0.547781 0.145654,-0.07311 0.373058,-0.202453 0.505345,-0.28743 0.372764,-0.239455 0.346993,-0.229835 0.319219,-0.119167 -0.01799,0.07162 -0.01044,0.09803 0.02801,0.09803 0.09725,0 0.815525,-0.2642 1.114385,-0.409895 0.561945,-0.273953 1.151417,-0.86532 1.435652,-1.440269 l 0.155488,-0.314527 0.01175,0.143024 c 0.01577,0.191961 -0.0878,0.689536 -0.205111,0.985576 -0.134499,0.339401 -0.317798,0.616322 -0.557041,0.841545 -0.113336,0.106693 -0.195421,0.20463 -0.182414,0.217637 0.03584,0.03583 0.637229,-0.124434 0.94022,-0.25057 0.147354,-0.06134 0.367762,-0.176067 0.489797,-0.254942 l 0.221882,-0.143407 -0.02107,0.118647 c -0.108314,0.610041 -0.376652,1.062179 -0.760498,1.281402 l -0.183232,0.104646 0.131183,0.02461 c 0.07214,0.01354 0.274207,0.0056 0.449015,-0.01769 0.174811,-0.02326 0.327317,-0.03281 0.338908,-0.02123 0.04457,0.04454 -0.185455,0.434732 -0.328321,0.557018 -0.281761,0.24118 -0.717445,0.391161 -1.139154,0.392148 -0.372938,8.78e-4 -0.385967,0.03957 -0.07545,0.224038 0.147393,0.08756 0.403341,0.213783 0.568767,0.280485 0.165427,0.0667 0.300776,0.141706 0.300776,0.166678 0,0.06887 -0.305919,0.211054 -0.55075,0.255963 -0.250717,0.04599 -0.504378,0.02033 -0.813441,-0.08228 -0.119396,-0.03964 -0.22546,-0.0637 -0.235698,-0.05346 -0.02071,0.0207 0.209257,0.352493 0.357408,0.515683 0.05246,0.05778 0.169072,0.1485 0.259141,0.201592 l 0.163765,0.09653 -0.108259,0.03194 c -0.149449,0.04409 -0.81181,0.0037 -1.135644,-0.06926 -0.147252,-0.03318 -0.372913,-0.102141 -0.501474,-0.153258 -0.147763,-0.05875 -0.246687,-0.08 -0.268926,-0.05776 -0.03869,0.03869 0.195689,0.425425 0.32963,0.543914 0.04333,0.03834 0.06987,0.08413 0.05897,0.101759 -0.0326,0.05274 -0.525012,0.03628 -0.763515,-0.02552 -0.12221,-0.03167 -0.227054,-0.05248 -0.232981,-0.04626 -0.0059,0.0062 0.04638,0.12654 0.116242,0.267358 0.08169,0.164658 0.11427,0.268789 0.09128,0.291773 -0.04465,0.04466 -0.326226,-0.0226 -0.530149,-0.126634 -0.08064,-0.04114 -0.153555,-0.06787 -0.162026,-0.0594 -0.0085,0.0085 0.0098,0.0757 0.04058,0.149406 0.0308,0.0737 0.056,0.151191 0.056,0.172197 0,0.05485 -0.181084,0.04704 -0.391907,-0.01691 -0.09991,-0.03031 -0.192083,-0.05529 -0.20484,-0.0555 -0.05244,-9.52e-4 -0.17673,0.370158 -0.213956,0.638755 -0.05929,0.427748 0.04184,1.016423 0.271833,1.582447 0.04931,0.121338 0.0735,0.220614 0.05376,0.220614 -0.01972,0 -0.101831,-0.03364 -0.182424,-0.07476 -0.0806,-0.04112 -0.146539,-0.05952 -0.146539,-0.0409 0,0.01862 0.03485,0.14801 0.07745,0.287528 0.104121,0.340992 0.412499,0.925577 0.631863,1.197807 0.09832,0.122012 0.178762,0.230362 0.178762,0.240778 0,0.04348 -0.383983,-0.180118 -0.519374,-0.302438 l -0.146685,-0.132525 v 0.252337 0.252337 l -0.151905,-0.146272 -0.151905,-0.146273 0.02716,0.129513 c 0.0253,0.120553 0.162425,0.559573 0.223852,0.716617 0.02441,0.06246 0.01852,0.0647 -0.06186,0.02343 -0.04887,-0.0251 -0.159638,-0.113757 -0.246133,-0.197025 l -0.157241,-0.151402 v 0.327968 c 0,0.320389 -0.0018,0.32649 -0.07062,0.264051 -0.03884,-0.03515 -0.09082,-0.112665 -0.115502,-0.172248 -0.05495,-0.132661 -0.09837,-0.137134 -0.153636,-0.01583 -0.0583,0.12796 -0.0973,0.116176 -0.172674,-0.05217 l -0.06478,-0.144685 -0.08251,0.153935 c -0.04538,0.08466 -0.114954,0.195563 -0.154612,0.246442 l -0.0721,0.09251 -8.05e-4,-0.334015 z m 0.176792,-7.906614 c 0.06255,-0.06254 0.05526,-0.212777 -0.01157,-0.238422 -0.07658,-0.02939 -0.166044,0.05234 -0.166044,0.151678 0,0.132222 0.08878,0.17558 0.177616,0.08674 z"
       id="path2152-0-43" />
    <path
       style="display:inline;fill:#000000;stroke-width:0.0370034"
       d="m -82.338367,92.747138 -8.04e-4,-0.334015 -0.224635,0.213755 c -0.248504,0.236468 -0.310838,0.264405 -0.253509,0.11362 0.02094,-0.05507 0.06942,-0.213273 0.107743,-0.351555 l 0.06967,-0.251422 -0.183135,0.194291 -0.183135,0.194292 0.02435,-0.364962 c 0.02779,-0.416681 0.05672,-0.4043 -0.318981,-0.136548 -0.111685,0.0796 -0.208521,0.139263 -0.215192,0.132593 -0.0067,-0.0067 0.03982,-0.11503 0.103305,-0.240797 0.128419,-0.254399 0.338841,-0.859878 0.420173,-1.209029 l 0.05302,-0.227602 -0.156034,0.162847 c -0.126379,0.131897 -0.18072,0.162846 -0.285923,0.162846 h -0.129887 l 0.19782,-0.397784 c 0.265971,-0.534825 0.387408,-1.009758 0.395014,-1.544888 0.0045,-0.314145 -0.0094,-0.446483 -0.06092,-0.579887 -0.09173,-0.237703 -0.147907,-0.278598 -0.246827,-0.179678 -0.09554,0.09554 -0.229545,0.149011 -0.373439,0.149011 -0.127008,0 -0.124088,0.0091 -0.05225,-0.162833 0.07171,-0.17161 0.01171,-0.207149 -0.171264,-0.101445 -0.130886,0.07561 -0.541937,0.174812 -0.577405,0.139343 -0.01122,-0.01122 0.04838,-0.152586 0.132446,-0.314159 0.21118,-0.405914 0.204291,-0.441653 -0.05674,-0.294337 -0.177493,0.100171 -0.256802,0.120757 -0.518047,0.134469 -0.169658,0.0089 -0.30847,0.0044 -0.30847,-0.01 0,-0.01439 0.05766,-0.09653 0.128131,-0.182531 0.136932,-0.167108 0.276759,-0.443601 0.278093,-0.5499 0.001,-0.08214 0.01424,-0.08447 -0.266547,0.04693 -0.313923,0.146903 -0.673834,0.220043 -1.08326,0.220136 -0.282258,7.4e-5 -0.488302,-0.03878 -0.424465,-0.08004 0.0096,-0.0062 0.117078,-0.06114 0.23887,-0.122098 0.219516,-0.109872 0.686638,-0.509603 0.644957,-0.55191 -0.01192,-0.0121 -0.112773,0.0093 -0.224108,0.04764 -0.298051,0.102546 -0.544864,0.126422 -0.809941,0.07835 -0.262915,-0.04767 -0.603133,-0.203663 -0.582064,-0.266872 0.0076,-0.02273 0.162709,-0.101249 0.344741,-0.174498 0.182032,-0.07325 0.439202,-0.199515 0.571489,-0.28059 l 0.240521,-0.147411 -0.240521,-0.02829 c -0.663784,-0.07808 -0.962199,-0.182492 -1.231782,-0.430984 -0.19261,-0.177543 -0.34585,-0.443716 -0.309695,-0.537933 0.01709,-0.04455 0.04529,-0.05665 0.08941,-0.03837 0.07842,0.03249 0.786007,0.07295 0.786007,0.04494 0,-0.01096 -0.07216,-0.06222 -0.160358,-0.113909 -0.283059,-0.165882 -0.52506,-0.493612 -0.650303,-0.88067 -0.04968,-0.153521 -0.111262,-0.512516 -0.08792,-0.512516 0.0085,0 0.06845,0.03981 0.133236,0.08847 0.18348,0.13781 0.606514,0.337572 0.932748,0.440455 0.335308,0.105745 0.572666,0.156493 0.572666,0.122439 0,-0.01261 -0.10476,-0.126861 -0.2328,-0.25389 -0.259224,-0.257178 -0.455274,-0.59884 -0.578421,-1.008031 -0.09364,-0.311157 -0.151484,-0.74878 -0.112485,-0.851075 l 0.02822,-0.07401 0.02677,0.07401 c 0.106859,0.295429 0.312491,0.633891 0.545291,0.897524 0.49245,0.557675 0.81024,0.769631 1.581542,1.054839 0.543472,0.200962 0.524735,0.197733 0.48108,0.08291 -0.07681,-0.202022 -0.03914,-0.217926 0.124242,-0.05245 0.112086,0.113531 0.30679,0.23499 0.638307,0.398185 0.478051,0.235331 0.717546,0.386031 0.717546,0.451513 0,0.01926 -0.05962,0.100999 -0.132476,0.181649 -0.0981,0.108579 -0.126125,0.166647 -0.108004,0.223745 0.03104,0.09778 0.404897,0.348717 0.47784,0.320727 0.03013,-0.01156 0.07321,-0.09265 0.09573,-0.180193 0.164207,-0.638357 0.204005,-0.68464 0.818922,-0.952354 0.443247,-0.192975 0.580939,-0.219031 0.72752,-0.13767 0.08258,0.04583 0.07974,0.04952 -0.104734,0.13592 -0.15973,0.07481 -0.331673,0.234591 -0.331673,0.308208 0,0.01094 0.07077,-0.02057 0.157264,-0.07002 0.149093,-0.08525 0.286777,-0.117864 0.286777,-0.06794 0,0.01258 -0.04996,0.07976 -0.11101,0.149301 -0.100617,0.114596 -0.11101,0.150561 -0.11101,0.384168 0,0.178513 0.01422,0.259468 0.04625,0.263372 0.02544,0.0031 0.06421,0.0075 0.08614,0.0099 0.02195,0.0023 0.09391,0.04968 0.159945,0.105241 0.09354,0.07871 0.135091,0.09297 0.188118,0.06459 0.09577,-0.05126 0.333613,-0.336019 0.333613,-0.399432 0,-0.02902 -0.04996,-0.115844 -0.111011,-0.192932 -0.06106,-0.07709 -0.11101,-0.157973 -0.11101,-0.179742 0,-0.07127 0.445142,-0.411944 0.715765,-0.547781 0.145654,-0.07311 0.373058,-0.202453 0.505345,-0.28743 0.372764,-0.239455 0.346993,-0.229835 0.319219,-0.119167 -0.01799,0.07162 -0.01044,0.09803 0.02801,0.09803 0.09725,0 0.815525,-0.2642 1.114385,-0.409895 0.561945,-0.273953 1.151417,-0.86532 1.435652,-1.440269 l 0.155488,-0.314527 0.01175,0.143024 c 0.01577,0.191961 -0.0878,0.689536 -0.205111,0.985576 -0.134499,0.339401 -0.317798,0.616322 -0.557041,0.841545 -0.113336,0.106693 -0.195421,0.20463 -0.182414,0.217637 0.03584,0.03583 0.637229,-0.124434 0.94022,-0.25057 0.147354,-0.06134 0.367762,-0.176067 0.489797,-0.254942 l 0.221882,-0.143407 -0.02107,0.118647 c -0.108314,0.610041 -0.376652,1.062179 -0.760498,1.281402 l -0.183232,0.104646 0.131183,0.02461 c 0.07214,0.01354 0.274207,0.0056 0.449015,-0.01769 0.174811,-0.02326 0.327317,-0.03281 0.338908,-0.02123 0.04457,0.04454 -0.185455,0.434732 -0.328321,0.557018 -0.281761,0.24118 -0.717445,0.391161 -1.139154,0.392148 -0.372938,8.78e-4 -0.385967,0.03957 -0.07545,0.224038 0.147393,0.08756 0.403341,0.213783 0.568767,0.280485 0.165427,0.0667 0.300776,0.141706 0.300776,0.166678 0,0.06887 -0.305919,0.211054 -0.55075,0.255963 -0.250717,0.04599 -0.504378,0.02033 -0.813441,-0.08228 -0.119396,-0.03964 -0.22546,-0.0637 -0.235698,-0.05346 -0.02071,0.0207 0.209257,0.352493 0.357408,0.515683 0.05246,0.05778 0.169072,0.1485 0.259141,0.201592 l 0.163765,0.09653 -0.108259,0.03194 c -0.149449,0.04409 -0.81181,0.0037 -1.135644,-0.06926 -0.147252,-0.03318 -0.372913,-0.102141 -0.501474,-0.153258 -0.147763,-0.05875 -0.246687,-0.08 -0.268926,-0.05776 -0.03869,0.03869 0.195689,0.425425 0.32963,0.543914 0.04333,0.03834 0.06987,0.08413 0.05897,0.101759 -0.0326,0.05274 -0.525012,0.03628 -0.763515,-0.02552 -0.12221,-0.03167 -0.227054,-0.05248 -0.232981,-0.04626 -0.0059,0.0062 0.04638,0.12654 0.116242,0.267358 0.08169,0.164658 0.11427,0.268789 0.09128,0.291773 -0.04465,0.04466 -0.326226,-0.0226 -0.530149,-0.126634 -0.08064,-0.04114 -0.153555,-0.06787 -0.162026,-0.0594 -0.0085,0.0085 0.0098,0.0757 0.04058,0.149406 0.0308,0.0737 0.056,0.151191 0.056,0.172197 0,0.05485 -0.181084,0.04704 -0.391907,-0.01691 -0.09991,-0.03031 -0.192083,-0.05529 -0.20484,-0.0555 -0.05244,-9.52e-4 -0.17673,0.370158 -0.213956,0.638755 -0.05929,0.427748 0.04184,1.016423 0.271833,1.582447 0.04931,0.121338 0.0735,0.220614 0.05376,0.220614 -0.01972,0 -0.101831,-0.03364 -0.182424,-0.07476 -0.0806,-0.04112 -0.146539,-0.05952 -0.146539,-0.0409 0,0.01862 0.03485,0.14801 0.07745,0.287528 0.104121,0.340992 0.412499,0.925577 0.631863,1.197807 0.09832,0.122012 0.178762,0.230362 0.178762,0.240778 0,0.04348 -0.383983,-0.180118 -0.519374,-0.302438 l -0.146685,-0.132525 v 0.252337 0.252337 l -0.151905,-0.146272 -0.151905,-0.146273 0.02716,0.129513 c 0.0253,0.120553 0.162425,0.559573 0.223852,0.716617 0.02441,0.06246 0.01852,0.0647 -0.06186,0.02343 -0.04887,-0.0251 -0.159638,-0.113757 -0.246133,-0.197025 L -81.4511,92.381182 v 0.327968 c 0,0.320389 -0.0018,0.32649 -0.07062,0.264051 -0.03884,-0.03515 -0.09082,-0.112665 -0.115502,-0.172248 -0.05495,-0.132661 -0.09837,-0.137134 -0.153636,-0.01583 -0.0583,0.12796 -0.0973,0.116176 -0.172674,-0.05217 l -0.06478,-0.144685 -0.08251,0.153935 c -0.04538,0.08466 -0.114954,0.195563 -0.154612,0.246442 l -0.0721,0.09251 -8.05e-4,-0.334015 z m 0.176792,-7.906614 c 0.06255,-0.06254 0.05526,-0.212777 -0.01157,-0.238422 -0.07658,-0.02939 -0.166044,0.05234 -0.166044,0.151678 0,0.132222 0.08878,0.17558 0.177616,0.08674 z"
       id="path2152-6-3" />
    <path
       style="display:inline;fill:#000000;stroke-width:0.0370034"
       d="m -52.423986,71.211301 -8.04e-4,-0.334015 -0.224635,0.213755 c -0.248504,0.236468 -0.310838,0.264405 -0.253509,0.11362 0.02094,-0.05507 0.06942,-0.213273 0.107743,-0.351555 l 0.06967,-0.251422 -0.183135,0.194291 -0.183135,0.194292 0.02435,-0.364962 c 0.02779,-0.416681 0.05672,-0.4043 -0.318981,-0.136548 -0.111685,0.0796 -0.208521,0.139263 -0.215192,0.132593 -0.0067,-0.0067 0.03982,-0.11503 0.103305,-0.240797 0.128419,-0.254399 0.338841,-0.859878 0.420173,-1.209029 l 0.05302,-0.227602 -0.156034,0.162847 c -0.126379,0.131897 -0.18072,0.162846 -0.285923,0.162846 h -0.129887 l 0.19782,-0.397784 c 0.265971,-0.534825 0.387408,-1.009758 0.395014,-1.544888 0.0045,-0.314145 -0.0094,-0.446483 -0.06092,-0.579887 -0.09173,-0.237703 -0.147907,-0.278598 -0.246827,-0.179678 -0.09554,0.09554 -0.229545,0.149011 -0.373439,0.149011 -0.127008,0 -0.124088,0.0091 -0.05225,-0.162833 0.07171,-0.17161 0.01171,-0.207149 -0.171264,-0.101445 -0.130886,0.07561 -0.541937,0.174812 -0.577405,0.139343 -0.01122,-0.01122 0.04838,-0.152586 0.132446,-0.314159 0.21118,-0.405914 0.204291,-0.441653 -0.05674,-0.294337 -0.177493,0.100171 -0.256802,0.120757 -0.518047,0.134469 -0.169658,0.0089 -0.30847,0.0044 -0.30847,-0.01 0,-0.01439 0.05766,-0.09653 0.128131,-0.182531 0.136932,-0.167108 0.276759,-0.443601 0.278093,-0.5499 10e-4,-0.08214 0.01424,-0.08447 -0.266547,0.04693 -0.313923,0.146903 -0.673834,0.220043 -1.08326,0.220136 -0.282258,7.4e-5 -0.488302,-0.03878 -0.424465,-0.08004 0.0096,-0.0062 0.117078,-0.06114 0.23887,-0.122098 0.219516,-0.109872 0.686638,-0.509603 0.644957,-0.55191 -0.01192,-0.0121 -0.112773,0.0093 -0.224108,0.04764 -0.298051,0.102546 -0.544864,0.126422 -0.809941,0.07835 -0.262915,-0.04767 -0.603133,-0.203663 -0.582064,-0.266872 0.0076,-0.02273 0.162709,-0.101249 0.344741,-0.174498 0.182032,-0.07325 0.439202,-0.199515 0.571489,-0.28059 l 0.240521,-0.147411 -0.240521,-0.02829 c -0.663784,-0.07808 -0.962199,-0.182492 -1.231782,-0.430984 -0.19261,-0.177543 -0.34585,-0.443716 -0.309695,-0.537933 0.01709,-0.04455 0.04529,-0.05665 0.08941,-0.03837 0.07842,0.03249 0.786007,0.07295 0.786007,0.04494 0,-0.01096 -0.07216,-0.06222 -0.160358,-0.113909 -0.283059,-0.165882 -0.52506,-0.493612 -0.650303,-0.88067 -0.04968,-0.153521 -0.111262,-0.512516 -0.08792,-0.512516 0.0085,0 0.06845,0.03981 0.133236,0.08847 0.18348,0.13781 0.606514,0.337572 0.932748,0.440455 0.335308,0.105745 0.572666,0.156493 0.572666,0.122439 0,-0.01261 -0.10476,-0.126861 -0.2328,-0.25389 -0.259224,-0.257178 -0.455274,-0.59884 -0.578421,-1.008031 -0.09364,-0.311157 -0.151484,-0.74878 -0.112485,-0.851075 l 0.02822,-0.07401 0.02677,0.07401 c 0.106859,0.295429 0.312491,0.633891 0.545291,0.897524 0.49245,0.557675 0.81024,0.769631 1.581542,1.054839 0.543472,0.200962 0.524735,0.197733 0.48108,0.08291 -0.07681,-0.202022 -0.03914,-0.217926 0.124242,-0.05245 0.112086,0.113531 0.30679,0.23499 0.638307,0.398185 0.478051,0.235331 0.717546,0.386031 0.717546,0.451513 0,0.01926 -0.05962,0.100999 -0.132476,0.181649 -0.0981,0.108579 -0.126125,0.166647 -0.108004,0.223745 0.03104,0.09778 0.404897,0.348717 0.47784,0.320727 0.03013,-0.01156 0.07321,-0.09265 0.09573,-0.180193 0.164207,-0.638357 0.204005,-0.68464 0.818922,-0.952354 0.443247,-0.192975 0.580939,-0.219031 0.72752,-0.13767 0.08258,0.04583 0.07974,0.04952 -0.104734,0.13592 -0.15973,0.07481 -0.331673,0.234591 -0.331673,0.308208 0,0.01094 0.07077,-0.02057 0.157264,-0.07002 0.149093,-0.08525 0.286777,-0.117864 0.286777,-0.06794 0,0.01258 -0.04996,0.07976 -0.11101,0.149301 -0.100617,0.114596 -0.11101,0.150561 -0.11101,0.384168 0,0.178513 0.01422,0.259468 0.04625,0.263372 0.02544,0.0031 0.06421,0.0075 0.08614,0.0099 0.02195,0.0023 0.09391,0.04968 0.159945,0.105241 0.09354,0.07871 0.135091,0.09297 0.188118,0.06459 0.09577,-0.05126 0.333613,-0.336019 0.333613,-0.399432 0,-0.02902 -0.04996,-0.115844 -0.111011,-0.192932 -0.06106,-0.07709 -0.11101,-0.157973 -0.11101,-0.179742 0,-0.07127 0.445142,-0.411944 0.715765,-0.547781 0.145654,-0.07311 0.373058,-0.202453 0.505345,-0.28743 0.372764,-0.239455 0.346993,-0.229835 0.319219,-0.119167 -0.01799,0.07162 -0.01044,0.09803 0.02801,0.09803 0.09725,0 0.815525,-0.2642 1.114385,-0.409895 0.561945,-0.273953 1.151417,-0.86532 1.435652,-1.440269 l 0.155488,-0.314527 0.01175,0.143024 c 0.01577,0.191961 -0.0878,0.689536 -0.205111,0.985576 -0.134499,0.339401 -0.317798,0.616322 -0.557041,0.841545 -0.113336,0.106693 -0.195421,0.20463 -0.182414,0.217637 0.03584,0.03583 0.637229,-0.124434 0.94022,-0.25057 0.147354,-0.06134 0.367762,-0.176067 0.489797,-0.254942 l 0.221882,-0.143407 -0.02107,0.118647 c -0.108314,0.610041 -0.376652,1.062179 -0.760498,1.281402 l -0.183232,0.104646 0.131183,0.02461 c 0.07214,0.01354 0.274207,0.0056 0.449015,-0.01769 0.174811,-0.02326 0.327317,-0.03281 0.338908,-0.02123 0.04457,0.04454 -0.185455,0.434732 -0.328321,0.557018 -0.281761,0.24118 -0.717445,0.391161 -1.139154,0.392148 -0.372938,8.78e-4 -0.385967,0.03957 -0.07545,0.224038 0.147393,0.08756 0.403341,0.213783 0.568767,0.280485 0.165427,0.0667 0.300776,0.141706 0.300776,0.166678 0,0.06887 -0.305919,0.211054 -0.55075,0.255963 -0.250717,0.04599 -0.504378,0.02033 -0.813441,-0.08228 -0.119396,-0.03964 -0.22546,-0.0637 -0.235698,-0.05346 -0.02071,0.0207 0.209257,0.352493 0.357408,0.515683 0.05246,0.05778 0.169072,0.1485 0.259141,0.201592 l 0.163765,0.09653 -0.108259,0.03194 c -0.149449,0.04409 -0.81181,0.0037 -1.135644,-0.06926 -0.147252,-0.03318 -0.372913,-0.102141 -0.501474,-0.153258 -0.147763,-0.05875 -0.246687,-0.08 -0.268926,-0.05776 -0.03869,0.03869 0.195689,0.425425 0.32963,0.543914 0.04333,0.03834 0.06987,0.08413 0.05897,0.101759 -0.0326,0.05274 -0.525012,0.03628 -0.763515,-0.02552 -0.12221,-0.03167 -0.227054,-0.05248 -0.232981,-0.04626 -0.0059,0.0062 0.04638,0.12654 0.116242,0.267358 0.08169,0.164658 0.11427,0.268789 0.09128,0.291773 -0.04465,0.04466 -0.326226,-0.0226 -0.530149,-0.126634 -0.08064,-0.04114 -0.153555,-0.06787 -0.162026,-0.0594 -0.0085,0.0085 0.0098,0.0757 0.04058,0.149406 0.0308,0.0737 0.056,0.151191 0.056,0.172197 0,0.05485 -0.181084,0.04704 -0.391907,-0.01691 -0.09991,-0.03031 -0.192083,-0.05529 -0.20484,-0.0555 -0.05244,-9.52e-4 -0.17673,0.370158 -0.213956,0.638755 -0.05929,0.427748 0.04184,1.016423 0.271833,1.582447 0.04931,0.121338 0.0735,0.220614 0.05376,0.220614 -0.01972,0 -0.101831,-0.03364 -0.182424,-0.07476 -0.0806,-0.04112 -0.146539,-0.05952 -0.146539,-0.0409 0,0.01862 0.03485,0.14801 0.07745,0.287528 0.104121,0.340992 0.412499,0.925577 0.631863,1.197807 0.09832,0.122012 0.178762,0.230362 0.178762,0.240778 0,0.04348 -0.383983,-0.180118 -0.519374,-0.302438 l -0.146685,-0.132525 v 0.252337 0.252337 l -0.151905,-0.146272 -0.151905,-0.146273 0.02716,0.129513 c 0.0253,0.120553 0.162425,0.559573 0.223852,0.716617 0.02441,0.06246 0.01852,0.0647 -0.06186,0.02343 -0.04887,-0.0251 -0.159638,-0.113757 -0.246133,-0.197025 l -0.157241,-0.151402 v 0.327968 c 0,0.320389 -0.0018,0.32649 -0.07062,0.264051 -0.03884,-0.03515 -0.09082,-0.112665 -0.115502,-0.172248 -0.05495,-0.132661 -0.09837,-0.137134 -0.153636,-0.01583 -0.0583,0.12796 -0.0973,0.116176 -0.172674,-0.05217 l -0.06478,-0.144685 -0.08251,0.153935 c -0.04538,0.08466 -0.114954,0.195563 -0.154612,0.246442 l -0.0721,0.09251 -8.05e-4,-0.334015 z m 0.176792,-7.906614 c 0.06255,-0.06254 0.05526,-0.212777 -0.01157,-0.238422 -0.07658,-0.02939 -0.166044,0.05234 -0.166044,0.151678 0,0.132222 0.08878,0.17558 0.177616,0.08674 z"
       id="path2152-6-1-3" />
    <path
       style="display:inline;fill:#000000;stroke-width:0.0370034"
       d="m -82.67469,71.292229 -8.04e-4,-0.334015 -0.224635,0.213755 c -0.248504,0.236468 -0.310838,0.264405 -0.253509,0.11362 0.02094,-0.05507 0.06942,-0.213273 0.107743,-0.351555 l 0.06967,-0.251422 -0.183135,0.194291 -0.183135,0.194292 0.02435,-0.364962 c 0.02779,-0.416681 0.05672,-0.4043 -0.318981,-0.136548 -0.111685,0.0796 -0.208521,0.139263 -0.215192,0.132593 -0.0067,-0.0067 0.03982,-0.11503 0.103305,-0.240797 0.128419,-0.254399 0.338841,-0.859878 0.420173,-1.209029 l 0.05302,-0.227602 -0.156034,0.162847 c -0.126379,0.131897 -0.18072,0.162846 -0.285923,0.162846 h -0.129887 l 0.19782,-0.397784 c 0.265971,-0.534825 0.387408,-1.009758 0.395014,-1.544888 0.0045,-0.314145 -0.0094,-0.446483 -0.06092,-0.579887 -0.09173,-0.237703 -0.147907,-0.278598 -0.246827,-0.179678 -0.09554,0.09554 -0.229545,0.149011 -0.373439,0.149011 -0.127008,0 -0.124088,0.0091 -0.05225,-0.162833 0.07171,-0.17161 0.01171,-0.207149 -0.171264,-0.101445 -0.130886,0.07561 -0.541937,0.174812 -0.577405,0.139343 -0.01122,-0.01122 0.04838,-0.152586 0.132446,-0.314159 0.21118,-0.405914 0.204291,-0.441653 -0.05674,-0.294337 -0.177493,0.100171 -0.256802,0.120757 -0.518047,0.134469 -0.169658,0.0089 -0.30847,0.0044 -0.30847,-0.01 0,-0.01439 0.05766,-0.09653 0.128131,-0.182531 0.136932,-0.167108 0.276759,-0.443601 0.278093,-0.5499 0.001,-0.08214 0.01424,-0.08447 -0.266547,0.04693 -0.313923,0.146903 -0.673834,0.220043 -1.08326,0.220136 -0.282258,7.4e-5 -0.488302,-0.03878 -0.424465,-0.08004 0.0096,-0.0062 0.117078,-0.06114 0.23887,-0.122098 0.219516,-0.109872 0.686638,-0.509603 0.644957,-0.55191 -0.01192,-0.0121 -0.112773,0.0093 -0.224108,0.04764 -0.298051,0.102546 -0.544864,0.126422 -0.809941,0.07835 -0.262915,-0.04767 -0.603133,-0.203663 -0.582064,-0.266872 0.0076,-0.02273 0.162709,-0.101249 0.344741,-0.174498 0.182032,-0.07325 0.439202,-0.199515 0.571489,-0.28059 l 0.240521,-0.147411 -0.240521,-0.02829 c -0.663784,-0.07808 -0.962199,-0.182492 -1.231782,-0.430984 -0.19261,-0.177543 -0.34585,-0.443716 -0.309695,-0.537933 0.01709,-0.04455 0.04529,-0.05665 0.08941,-0.03837 0.07842,0.03249 0.786007,0.07295 0.786007,0.04494 0,-0.01096 -0.07216,-0.06222 -0.160358,-0.113909 -0.283059,-0.165882 -0.52506,-0.493612 -0.650303,-0.88067 -0.04968,-0.153521 -0.111262,-0.512516 -0.08792,-0.512516 0.0085,0 0.06845,0.03981 0.133236,0.08847 0.18348,0.13781 0.606514,0.337572 0.932748,0.440455 0.335308,0.105745 0.572666,0.156493 0.572666,0.122439 0,-0.01261 -0.10476,-0.126861 -0.2328,-0.25389 -0.259224,-0.257178 -0.455274,-0.59884 -0.578421,-1.008031 -0.09364,-0.311157 -0.151484,-0.74878 -0.112485,-0.851075 l 0.02822,-0.07401 0.02677,0.07401 c 0.106859,0.295429 0.312491,0.633891 0.545291,0.897524 0.49245,0.557675 0.81024,0.769631 1.581542,1.054839 0.543472,0.200962 0.524735,0.197733 0.48108,0.08291 -0.07681,-0.202022 -0.03914,-0.217926 0.124242,-0.05245 0.112086,0.113531 0.30679,0.23499 0.638307,0.398185 0.478051,0.235331 0.717546,0.386031 0.717546,0.451513 0,0.01926 -0.05962,0.100999 -0.132476,0.181649 -0.0981,0.108579 -0.126125,0.166647 -0.108004,0.223745 0.03104,0.09778 0.404897,0.348717 0.47784,0.320727 0.03013,-0.01156 0.07321,-0.09265 0.09573,-0.180193 0.164207,-0.638357 0.204005,-0.68464 0.818922,-0.952354 0.443247,-0.192975 0.580939,-0.219031 0.72752,-0.13767 0.08258,0.04583 0.07974,0.04952 -0.104734,0.13592 -0.15973,0.07481 -0.331673,0.234591 -0.331673,0.308208 0,0.01094 0.07077,-0.02057 0.157264,-0.07002 0.149093,-0.08525 0.286777,-0.117864 0.286777,-0.06794 0,0.01258 -0.04996,0.07976 -0.11101,0.149301 -0.100617,0.114596 -0.11101,0.150561 -0.11101,0.384168 0,0.178513 0.01422,0.259468 0.04625,0.263372 0.02544,0.0031 0.06421,0.0075 0.08614,0.0099 0.02195,0.0023 0.09391,0.04968 0.159945,0.105241 0.09354,0.07871 0.135091,0.09297 0.188118,0.06459 0.09577,-0.05126 0.333613,-0.336019 0.333613,-0.399432 0,-0.02902 -0.04996,-0.115844 -0.111011,-0.192932 -0.06106,-0.07709 -0.11101,-0.157973 -0.11101,-0.179742 0,-0.07127 0.445142,-0.411944 0.715765,-0.547781 0.145654,-0.07311 0.373058,-0.202453 0.505345,-0.28743 0.372764,-0.239455 0.346993,-0.229835 0.319219,-0.119167 -0.01799,0.07162 -0.01044,0.09803 0.02801,0.09803 0.09725,0 0.815525,-0.2642 1.114385,-0.409895 0.561945,-0.273953 1.151417,-0.86532 1.435652,-1.440269 l 0.155488,-0.314527 0.01175,0.143024 c 0.01577,0.191961 -0.0878,0.689536 -0.205111,0.985576 -0.134499,0.339401 -0.317798,0.616322 -0.557041,0.841545 -0.113336,0.106693 -0.195421,0.20463 -0.182414,0.217637 0.03584,0.03583 0.637229,-0.124434 0.94022,-0.25057 0.147354,-0.06134 0.367762,-0.176067 0.489797,-0.254942 l 0.221882,-0.143407 -0.02107,0.118647 c -0.108314,0.610041 -0.376652,1.062179 -0.760498,1.281402 l -0.183232,0.104646 0.131183,0.02461 c 0.07214,0.01354 0.274207,0.0056 0.449015,-0.01769 0.174811,-0.02326 0.327317,-0.03281 0.338908,-0.02123 0.04457,0.04454 -0.185455,0.434732 -0.328321,0.557018 -0.281761,0.24118 -0.717445,0.391161 -1.139154,0.392148 -0.372938,8.78e-4 -0.385967,0.03957 -0.07545,0.224038 0.147393,0.08756 0.403341,0.213783 0.568767,0.280485 0.165427,0.0667 0.300776,0.141706 0.300776,0.166678 0,0.06887 -0.305919,0.211054 -0.55075,0.255963 -0.250717,0.04599 -0.504378,0.02033 -0.813441,-0.08228 -0.119396,-0.03964 -0.22546,-0.0637 -0.235698,-0.05346 -0.02071,0.0207 0.209257,0.352493 0.357408,0.515683 0.05246,0.05778 0.169072,0.1485 0.259141,0.201592 l 0.163765,0.09653 -0.108259,0.03194 c -0.149449,0.04409 -0.81181,0.0037 -1.135644,-0.06926 -0.147252,-0.03318 -0.372913,-0.102141 -0.501474,-0.153258 -0.147763,-0.05875 -0.246687,-0.08 -0.268926,-0.05776 -0.03869,0.03869 0.195689,0.425425 0.32963,0.543914 0.04333,0.03834 0.06987,0.08413 0.05897,0.101759 -0.0326,0.05274 -0.525012,0.03628 -0.763515,-0.02552 -0.12221,-0.03167 -0.227054,-0.05248 -0.232981,-0.04626 -0.0059,0.0062 0.04638,0.12654 0.116242,0.267358 0.08169,0.164658 0.11427,0.268789 0.09128,0.291773 -0.04465,0.04466 -0.326226,-0.0226 -0.530149,-0.126634 -0.08064,-0.04114 -0.153555,-0.06787 -0.162026,-0.0594 -0.0085,0.0085 0.0098,0.0757 0.04058,0.149406 0.0308,0.0737 0.056,0.151191 0.056,0.172197 0,0.05485 -0.181084,0.04704 -0.391907,-0.01691 -0.09991,-0.03031 -0.192083,-0.05529 -0.20484,-0.0555 -0.05244,-9.52e-4 -0.17673,0.370158 -0.213956,0.638755 -0.05929,0.427748 0.04184,1.016423 0.271833,1.582447 0.04931,0.121338 0.0735,0.220614 0.05376,0.220614 -0.01972,0 -0.101831,-0.03364 -0.182424,-0.07476 -0.0806,-0.04112 -0.146539,-0.05952 -0.146539,-0.0409 0,0.01862 0.03485,0.14801 0.07745,0.287528 0.104121,0.340992 0.412499,0.925577 0.631863,1.197807 0.09832,0.122012 0.178762,0.230362 0.178762,0.240778 0,0.04348 -0.383983,-0.180118 -0.519374,-0.302438 l -0.146685,-0.132525 v 0.252337 0.252337 l -0.151905,-0.146272 -0.151905,-0.146273 0.02716,0.129513 c 0.0253,0.120553 0.162425,0.559573 0.223852,0.716617 0.02441,0.06246 0.01852,0.0647 -0.06186,0.02343 -0.04887,-0.0251 -0.159638,-0.113757 -0.246133,-0.197025 l -0.157241,-0.151402 v 0.327968 c 0,0.320389 -0.0018,0.32649 -0.07062,0.264051 -0.03884,-0.03515 -0.09082,-0.112665 -0.115502,-0.172248 -0.05495,-0.132661 -0.09837,-0.137134 -0.153636,-0.01583 -0.0583,0.12796 -0.0973,0.116176 -0.172674,-0.05217 l -0.06478,-0.144685 -0.08251,0.153935 c -0.04538,0.08466 -0.114954,0.195563 -0.154612,0.246442 l -0.0721,0.09251 -8.05e-4,-0.334015 z m 0.176792,-7.906614 c 0.06255,-0.06254 0.05526,-0.212777 -0.01157,-0.238422 -0.07658,-0.02939 -0.166044,0.05234 -0.166044,0.151678 0,0.132222 0.08878,0.17558 0.177616,0.08674 z"
       id="path2152-6-1-1-8" />
    <path
       style="display:inline;fill:#000000;stroke-width:0.0370034"
       d="m -67.903092,60.288555 -8.04e-4,-0.334015 -0.224635,0.213755 c -0.248504,0.236468 -0.310838,0.264405 -0.253509,0.11362 0.02094,-0.05507 0.06942,-0.213273 0.107743,-0.351555 l 0.06967,-0.251422 -0.183135,0.194291 -0.183135,0.194292 0.02435,-0.364962 c 0.02779,-0.416681 0.05672,-0.4043 -0.318981,-0.136548 -0.111685,0.0796 -0.208521,0.139263 -0.215192,0.132593 -0.0067,-0.0067 0.03982,-0.11503 0.103305,-0.240797 0.128419,-0.254399 0.338841,-0.859878 0.420173,-1.209029 l 0.05302,-0.227602 -0.156034,0.162847 c -0.126379,0.131897 -0.18072,0.162846 -0.285923,0.162846 h -0.129887 l 0.19782,-0.397784 c 0.265971,-0.534825 0.387408,-1.009758 0.395014,-1.544888 0.0045,-0.314145 -0.0094,-0.446483 -0.06092,-0.579887 -0.09173,-0.237703 -0.147907,-0.278598 -0.246827,-0.179678 -0.09554,0.09554 -0.229545,0.149011 -0.373439,0.149011 -0.127008,0 -0.124088,0.0091 -0.05225,-0.162833 0.07171,-0.17161 0.01171,-0.207149 -0.171264,-0.101445 -0.130886,0.07561 -0.541937,0.174812 -0.577405,0.139343 -0.01122,-0.01122 0.04838,-0.152586 0.132446,-0.314159 0.21118,-0.405914 0.204291,-0.441653 -0.05674,-0.294337 -0.177493,0.100171 -0.256802,0.120757 -0.518047,0.134469 -0.169658,0.0089 -0.30847,0.0044 -0.30847,-0.01 0,-0.01439 0.05766,-0.09653 0.128131,-0.182531 0.136932,-0.167108 0.276759,-0.443601 0.278093,-0.5499 10e-4,-0.08214 0.01424,-0.08447 -0.266547,0.04693 -0.313923,0.146903 -0.673834,0.220043 -1.08326,0.220136 -0.282258,7.4e-5 -0.488302,-0.03878 -0.424465,-0.08004 0.0096,-0.0062 0.117078,-0.06114 0.23887,-0.122098 0.219516,-0.109872 0.686638,-0.509603 0.644957,-0.55191 -0.01192,-0.0121 -0.112773,0.0093 -0.224108,0.04764 -0.298051,0.102546 -0.544864,0.126422 -0.809941,0.07835 -0.262915,-0.04767 -0.603133,-0.203663 -0.582064,-0.266872 0.0076,-0.02273 0.162709,-0.101249 0.344741,-0.174498 0.182032,-0.07325 0.439202,-0.199515 0.571489,-0.28059 l 0.240521,-0.147411 -0.240521,-0.02829 c -0.663784,-0.07808 -0.962199,-0.182492 -1.231782,-0.430984 -0.19261,-0.177543 -0.34585,-0.443716 -0.309695,-0.537933 0.01709,-0.04455 0.04529,-0.05665 0.08941,-0.03837 0.07842,0.03249 0.786007,0.07295 0.786007,0.04494 0,-0.01096 -0.07216,-0.06222 -0.160358,-0.113909 -0.283059,-0.165882 -0.52506,-0.493612 -0.650303,-0.88067 -0.04968,-0.153521 -0.111262,-0.512516 -0.08792,-0.512516 0.0085,0 0.06845,0.03981 0.133236,0.08847 0.18348,0.13781 0.606514,0.337572 0.932748,0.440455 0.335308,0.105745 0.572666,0.156493 0.572666,0.122439 0,-0.01261 -0.10476,-0.126861 -0.2328,-0.25389 -0.259224,-0.257178 -0.455274,-0.59884 -0.578421,-1.008031 -0.09364,-0.311157 -0.151484,-0.74878 -0.112485,-0.851075 l 0.02822,-0.07401 0.02677,0.07401 c 0.106859,0.295429 0.312491,0.633891 0.545291,0.897524 0.49245,0.557675 0.81024,0.769631 1.581542,1.054839 0.543472,0.200962 0.524735,0.197733 0.48108,0.08291 -0.07681,-0.202022 -0.03914,-0.217926 0.124242,-0.05245 0.112086,0.113531 0.30679,0.23499 0.638307,0.398185 0.478051,0.235331 0.717546,0.386031 0.717546,0.451513 0,0.01926 -0.05962,0.100999 -0.132476,0.181649 -0.0981,0.108579 -0.126125,0.166647 -0.108004,0.223745 0.03104,0.09778 0.404897,0.348717 0.47784,0.320727 0.03013,-0.01156 0.07321,-0.09265 0.09573,-0.180193 0.164207,-0.638357 0.204005,-0.68464 0.818922,-0.952354 0.443247,-0.192975 0.580939,-0.219031 0.72752,-0.13767 0.08258,0.04583 0.07974,0.04952 -0.104734,0.13592 -0.15973,0.07481 -0.331673,0.234591 -0.331673,0.308208 0,0.01094 0.07077,-0.02057 0.157264,-0.07002 0.149093,-0.08525 0.286777,-0.117864 0.286777,-0.06794 0,0.01258 -0.04996,0.07976 -0.11101,0.149301 -0.100617,0.114596 -0.11101,0.150561 -0.11101,0.384168 0,0.178513 0.01422,0.259468 0.04625,0.263372 0.02544,0.0031 0.06421,0.0075 0.08614,0.0099 0.02195,0.0023 0.09391,0.04968 0.159945,0.105241 0.09354,0.07871 0.135091,0.09297 0.188118,0.06459 0.09577,-0.05126 0.333613,-0.336019 0.333613,-0.399432 0,-0.02902 -0.04996,-0.115844 -0.111011,-0.192932 -0.06106,-0.07709 -0.11101,-0.157973 -0.11101,-0.179742 0,-0.07127 0.445142,-0.411944 0.715765,-0.547781 0.145654,-0.07311 0.373058,-0.202453 0.505345,-0.28743 0.372764,-0.239455 0.346993,-0.229835 0.319219,-0.119167 -0.01799,0.07162 -0.01044,0.09803 0.02801,0.09803 0.09725,0 0.815525,-0.2642 1.114385,-0.409895 0.561945,-0.273953 1.151417,-0.86532 1.435652,-1.440269 l 0.155488,-0.314527 0.01175,0.143024 c 0.01577,0.191961 -0.0878,0.689536 -0.205111,0.985576 -0.134499,0.339401 -0.317798,0.616322 -0.557041,0.841545 -0.113336,0.106693 -0.195421,0.20463 -0.182414,0.217637 0.03584,0.03583 0.637229,-0.124434 0.94022,-0.25057 0.147354,-0.06134 0.367762,-0.176067 0.489797,-0.254942 l 0.221882,-0.143407 -0.02107,0.118647 c -0.108314,0.610041 -0.376652,1.062179 -0.760498,1.281402 l -0.183232,0.104646 0.131183,0.02461 c 0.07214,0.01354 0.274207,0.0056 0.449015,-0.01769 0.174811,-0.02326 0.327317,-0.03281 0.338908,-0.02123 0.04457,0.04454 -0.185455,0.434732 -0.328321,0.557018 -0.281761,0.24118 -0.717445,0.391161 -1.139154,0.392148 -0.372938,8.78e-4 -0.385967,0.03957 -0.07545,0.224038 0.147393,0.08756 0.403341,0.213783 0.568767,0.280485 0.165427,0.0667 0.300776,0.141706 0.300776,0.166678 0,0.06887 -0.305919,0.211054 -0.55075,0.255963 -0.250717,0.04599 -0.504378,0.02033 -0.813441,-0.08228 -0.119396,-0.03964 -0.22546,-0.0637 -0.235698,-0.05346 -0.02071,0.0207 0.209257,0.352493 0.357408,0.515683 0.05246,0.05778 0.169072,0.1485 0.259141,0.201592 l 0.163765,0.09653 -0.108259,0.03194 c -0.149449,0.04409 -0.81181,0.0037 -1.135644,-0.06926 -0.147252,-0.03318 -0.372913,-0.102141 -0.501474,-0.153258 -0.147763,-0.05875 -0.246687,-0.08 -0.268926,-0.05776 -0.03869,0.03869 0.195689,0.425425 0.32963,0.543914 0.04333,0.03834 0.06987,0.08413 0.05897,0.101759 -0.0326,0.05274 -0.525012,0.03628 -0.763515,-0.02552 -0.12221,-0.03167 -0.227054,-0.05248 -0.232981,-0.04626 -0.0059,0.0062 0.04638,0.12654 0.116242,0.267358 0.08169,0.164658 0.11427,0.268789 0.09128,0.291773 -0.04465,0.04466 -0.326226,-0.0226 -0.530149,-0.126634 -0.08064,-0.04114 -0.153555,-0.06787 -0.162026,-0.0594 -0.0085,0.0085 0.0098,0.0757 0.04058,0.149406 0.0308,0.0737 0.056,0.151191 0.056,0.172197 0,0.05485 -0.181084,0.04704 -0.391907,-0.01691 -0.09991,-0.03031 -0.192083,-0.05529 -0.20484,-0.0555 -0.05244,-9.52e-4 -0.17673,0.370158 -0.213956,0.638755 -0.05929,0.427748 0.04184,1.016423 0.271833,1.582447 0.04931,0.121338 0.0735,0.220614 0.05376,0.220614 -0.01972,0 -0.101831,-0.03364 -0.182424,-0.07476 -0.0806,-0.04112 -0.146539,-0.05952 -0.146539,-0.0409 0,0.01862 0.03485,0.14801 0.07745,0.287528 0.104121,0.340992 0.412499,0.925577 0.631863,1.197807 0.09832,0.122012 0.178762,0.230362 0.178762,0.240778 0,0.04348 -0.383983,-0.180118 -0.519374,-0.302438 l -0.146685,-0.132525 v 0.252337 0.252337 l -0.151905,-0.146272 -0.151905,-0.146273 0.02716,0.129513 c 0.0253,0.120553 0.162425,0.559573 0.223852,0.716617 0.02441,0.06246 0.01852,0.0647 -0.06186,0.02343 -0.04887,-0.0251 -0.159638,-0.113757 -0.246133,-0.197025 l -0.157241,-0.151402 v 0.327968 c 0,0.320389 -0.0018,0.32649 -0.07062,0.264051 -0.03884,-0.03515 -0.09082,-0.112665 -0.115502,-0.172248 -0.05495,-0.132661 -0.09837,-0.137134 -0.153636,-0.01583 -0.0583,0.12796 -0.0973,0.116176 -0.172674,-0.05217 l -0.06478,-0.144685 -0.08251,0.153935 c -0.04538,0.08466 -0.114954,0.195563 -0.154612,0.246442 l -0.0721,0.09251 -8.05e-4,-0.334015 z m 0.176792,-7.906614 c 0.06255,-0.06254 0.05526,-0.212777 -0.01157,-0.238422 -0.07658,-0.02939 -0.166044,0.05234 -0.166044,0.151678 0,0.132222 0.08878,0.17558 0.177616,0.08674 z"
       id="path2152-6-1-1-17-6" />
    <path
       style="display:inline;fill:#000000;stroke-width:0.0370034"
       d="m -67.903092,81.984402 -8.04e-4,-0.334015 -0.224635,0.213755 c -0.248504,0.236468 -0.310838,0.264405 -0.253509,0.11362 0.02094,-0.05507 0.06942,-0.213273 0.107743,-0.351555 l 0.06967,-0.251422 -0.183135,0.194291 -0.183135,0.194292 0.02435,-0.364962 c 0.02779,-0.416681 0.05672,-0.4043 -0.318981,-0.136548 -0.111685,0.0796 -0.208521,0.139263 -0.215192,0.132593 -0.0067,-0.0067 0.03982,-0.11503 0.103305,-0.240797 0.128419,-0.254399 0.338841,-0.859878 0.420173,-1.209029 l 0.05302,-0.227602 -0.156034,0.162847 c -0.126379,0.131897 -0.18072,0.162846 -0.285923,0.162846 h -0.129887 l 0.19782,-0.397784 c 0.265971,-0.534825 0.387408,-1.009758 0.395014,-1.544888 0.0045,-0.314145 -0.0094,-0.446483 -0.06092,-0.579887 -0.09173,-0.237703 -0.147907,-0.278598 -0.246827,-0.179678 -0.09554,0.09554 -0.229545,0.149011 -0.373439,0.149011 -0.127008,0 -0.124088,0.0091 -0.05225,-0.162833 0.07171,-0.17161 0.01171,-0.207149 -0.171264,-0.101445 -0.130886,0.07561 -0.541937,0.174812 -0.577405,0.139343 -0.01122,-0.01122 0.04838,-0.152586 0.132446,-0.314159 0.21118,-0.405914 0.204291,-0.441653 -0.05674,-0.294337 -0.177493,0.100171 -0.256802,0.120757 -0.518047,0.134469 -0.169658,0.0089 -0.30847,0.0044 -0.30847,-0.01 0,-0.01439 0.05766,-0.09653 0.128131,-0.182531 0.136932,-0.167108 0.276759,-0.443601 0.278093,-0.5499 10e-4,-0.08214 0.01424,-0.08447 -0.266547,0.04693 -0.313923,0.146903 -0.673834,0.220043 -1.08326,0.220136 -0.282258,7.4e-5 -0.488302,-0.03878 -0.424465,-0.08004 0.0096,-0.0062 0.117078,-0.06114 0.23887,-0.122098 0.219516,-0.109872 0.686638,-0.509603 0.644957,-0.55191 -0.01192,-0.0121 -0.112773,0.0093 -0.224108,0.04764 -0.298051,0.102546 -0.544864,0.126422 -0.809941,0.07835 -0.262915,-0.04767 -0.603133,-0.203663 -0.582064,-0.266872 0.0076,-0.02273 0.162709,-0.101249 0.344741,-0.174498 0.182032,-0.07325 0.439202,-0.199515 0.571489,-0.28059 l 0.240521,-0.147411 -0.240521,-0.02829 c -0.663784,-0.07808 -0.962199,-0.182492 -1.231782,-0.430984 -0.19261,-0.177543 -0.34585,-0.443716 -0.309695,-0.537933 0.01709,-0.04455 0.04529,-0.05665 0.08941,-0.03837 0.07842,0.03249 0.786007,0.07295 0.786007,0.04494 0,-0.01096 -0.07216,-0.06222 -0.160358,-0.113909 -0.283059,-0.165882 -0.52506,-0.493612 -0.650303,-0.88067 -0.04968,-0.153521 -0.111262,-0.512516 -0.08792,-0.512516 0.0085,0 0.06845,0.03981 0.133236,0.08847 0.18348,0.13781 0.606514,0.337572 0.932748,0.440455 0.335308,0.105745 0.572666,0.156493 0.572666,0.122439 0,-0.01261 -0.10476,-0.126861 -0.2328,-0.25389 -0.259224,-0.257178 -0.455274,-0.59884 -0.578421,-1.008031 -0.09364,-0.311157 -0.151484,-0.74878 -0.112485,-0.851075 l 0.02822,-0.07401 0.02677,0.07401 c 0.106859,0.295429 0.312491,0.633891 0.545291,0.897524 0.49245,0.557675 0.81024,0.769631 1.581542,1.054839 0.543472,0.200962 0.524735,0.197733 0.48108,0.08291 -0.07681,-0.202022 -0.03914,-0.217926 0.124242,-0.05245 0.112086,0.113531 0.30679,0.23499 0.638307,0.398185 0.478051,0.235331 0.717546,0.386031 0.717546,0.451513 0,0.01926 -0.05962,0.100999 -0.132476,0.181649 -0.0981,0.108579 -0.126125,0.166647 -0.108004,0.223745 0.03104,0.09778 0.404897,0.348717 0.47784,0.320727 0.03013,-0.01156 0.07321,-0.09265 0.09573,-0.180193 0.164207,-0.638357 0.204005,-0.68464 0.818922,-0.952354 0.443247,-0.192975 0.580939,-0.219031 0.72752,-0.13767 0.08258,0.04583 0.07974,0.04952 -0.104734,0.13592 -0.15973,0.07481 -0.331673,0.234591 -0.331673,0.308208 0,0.01094 0.07077,-0.02057 0.157264,-0.07002 0.149093,-0.08525 0.286777,-0.117864 0.286777,-0.06794 0,0.01258 -0.04996,0.07976 -0.11101,0.149301 -0.100617,0.114596 -0.11101,0.150561 -0.11101,0.384168 0,0.178513 0.01422,0.259468 0.04625,0.263372 0.02544,0.0031 0.06421,0.0075 0.08614,0.0099 0.02195,0.0023 0.09391,0.04968 0.159945,0.105241 0.09354,0.07871 0.135091,0.09297 0.188118,0.06459 0.09577,-0.05126 0.333613,-0.336019 0.333613,-0.399432 0,-0.02902 -0.04996,-0.115844 -0.111011,-0.192932 -0.06106,-0.07709 -0.11101,-0.157973 -0.11101,-0.179742 0,-0.07127 0.445142,-0.411944 0.715765,-0.547781 0.145654,-0.07311 0.373058,-0.202453 0.505345,-0.28743 0.372764,-0.239455 0.346993,-0.229835 0.319219,-0.119167 -0.01799,0.07162 -0.01044,0.09803 0.02801,0.09803 0.09725,0 0.815525,-0.2642 1.114385,-0.409895 0.561945,-0.273953 1.151417,-0.86532 1.435652,-1.440269 l 0.155488,-0.314527 0.01175,0.143024 c 0.01577,0.191961 -0.0878,0.689536 -0.205111,0.985576 -0.134499,0.339401 -0.317798,0.616322 -0.557041,0.841545 -0.113336,0.106693 -0.195421,0.20463 -0.182414,0.217637 0.03584,0.03583 0.637229,-0.124434 0.94022,-0.25057 0.147354,-0.06134 0.367762,-0.176067 0.489797,-0.254942 l 0.221882,-0.143407 -0.02107,0.118647 c -0.108314,0.610041 -0.376652,1.062179 -0.760498,1.281402 l -0.183232,0.104646 0.131183,0.02461 c 0.07214,0.01354 0.274207,0.0056 0.449015,-0.01769 0.174811,-0.02326 0.327317,-0.03281 0.338908,-0.02123 0.04457,0.04454 -0.185455,0.434732 -0.328321,0.557018 -0.281761,0.24118 -0.717445,0.391161 -1.139154,0.392148 -0.372938,8.78e-4 -0.385967,0.03957 -0.07545,0.224038 0.147393,0.08756 0.403341,0.213783 0.568767,0.280485 0.165427,0.0667 0.300776,0.141706 0.300776,0.166678 0,0.06887 -0.305919,0.211054 -0.55075,0.255963 -0.250717,0.04599 -0.504378,0.02033 -0.813441,-0.08228 -0.119396,-0.03964 -0.22546,-0.0637 -0.235698,-0.05346 -0.02071,0.0207 0.209257,0.352493 0.357408,0.515683 0.05246,0.05778 0.169072,0.1485 0.259141,0.201592 l 0.163765,0.09653 -0.108259,0.03194 c -0.149449,0.04409 -0.81181,0.0037 -1.135644,-0.06926 -0.147252,-0.03318 -0.372913,-0.102141 -0.501474,-0.153258 -0.147763,-0.05875 -0.246687,-0.08 -0.268926,-0.05776 -0.03869,0.03869 0.195689,0.425425 0.32963,0.543914 0.04333,0.03834 0.06987,0.08413 0.05897,0.101759 -0.0326,0.05274 -0.525012,0.03628 -0.763515,-0.02552 -0.12221,-0.03167 -0.227054,-0.05248 -0.232981,-0.04626 -0.0059,0.0062 0.04638,0.12654 0.116242,0.267358 0.08169,0.164658 0.11427,0.268789 0.09128,0.291773 -0.04465,0.04466 -0.326226,-0.0226 -0.530149,-0.126634 -0.08064,-0.04114 -0.153555,-0.06787 -0.162026,-0.0594 -0.0085,0.0085 0.0098,0.0757 0.04058,0.149406 0.0308,0.0737 0.056,0.151191 0.056,0.172197 0,0.05485 -0.181084,0.04704 -0.391907,-0.01691 -0.09991,-0.03031 -0.192083,-0.05529 -0.20484,-0.0555 -0.05244,-9.52e-4 -0.17673,0.370158 -0.213956,0.638755 -0.05929,0.427748 0.04184,1.016423 0.271833,1.582447 0.04931,0.121338 0.0735,0.220614 0.05376,0.220614 -0.01972,0 -0.101831,-0.03364 -0.182424,-0.07476 -0.0806,-0.04112 -0.146539,-0.05952 -0.146539,-0.0409 0,0.01862 0.03485,0.14801 0.07745,0.287528 0.104121,0.340992 0.412499,0.925577 0.631863,1.197807 0.09832,0.122012 0.178762,0.230362 0.178762,0.240778 0,0.04348 -0.383983,-0.180118 -0.519374,-0.302438 l -0.146685,-0.132525 v 0.252337 0.252337 l -0.151905,-0.146272 -0.151905,-0.146273 0.02716,0.129513 c 0.0253,0.120553 0.162425,0.559573 0.223852,0.716617 0.02441,0.06246 0.01852,0.0647 -0.06186,0.02343 -0.04887,-0.0251 -0.159638,-0.113757 -0.246133,-0.197025 l -0.157241,-0.151402 v 0.327968 c 0,0.320389 -0.0018,0.32649 -0.07062,0.264051 -0.03884,-0.03515 -0.09082,-0.112665 -0.115502,-0.172248 -0.05495,-0.132661 -0.09837,-0.137134 -0.153636,-0.01583 -0.0583,0.12796 -0.0973,0.116176 -0.172674,-0.05217 l -0.06478,-0.144685 -0.08251,0.153935 c -0.04538,0.08466 -0.114954,0.195563 -0.154612,0.246442 l -0.0721,0.09251 -8.05e-4,-0.334015 z m 0.176792,-7.906614 c 0.06255,-0.06254 0.05526,-0.212777 -0.01157,-0.238422 -0.07658,-0.02939 -0.166044,0.05234 -0.166044,0.151678 0,0.132222 0.08878,0.17558 0.177616,0.08674 z"
       id="path2152-6-1-1-17-3-0" />
    <path
       style="display:inline;fill:#000000;stroke-width:0.0370034"
       d="m -52.35971,92.77383 -8.03e-4,-0.334015 -0.224635,0.213755 c -0.248505,0.236468 -0.310839,0.264405 -0.253509,0.11362 0.02094,-0.05507 0.06942,-0.213273 0.107743,-0.351555 l 0.06967,-0.251422 -0.183135,0.194291 -0.183135,0.194292 0.02435,-0.364962 c 0.02779,-0.416681 0.05672,-0.4043 -0.318981,-0.136548 -0.111685,0.0796 -0.208521,0.139263 -0.215192,0.132593 -0.0067,-0.0067 0.03982,-0.11503 0.103305,-0.240797 0.128419,-0.254399 0.338841,-0.859878 0.420173,-1.209029 l 0.05302,-0.227602 -0.156034,0.162847 c -0.126379,0.131897 -0.18072,0.162846 -0.285923,0.162846 h -0.129887 l 0.19782,-0.397784 c 0.265971,-0.534825 0.387408,-1.009758 0.395014,-1.544888 0.0045,-0.314145 -0.0094,-0.446483 -0.06092,-0.579887 -0.09173,-0.237703 -0.147907,-0.278598 -0.246827,-0.179678 -0.09554,0.09554 -0.229545,0.149011 -0.373439,0.149011 -0.127008,0 -0.124088,0.0091 -0.05225,-0.162833 0.07171,-0.17161 0.01171,-0.207149 -0.171264,-0.101445 -0.130886,0.07561 -0.541937,0.174812 -0.577405,0.139343 -0.01122,-0.01122 0.04838,-0.152586 0.132446,-0.314159 0.21118,-0.405914 0.204291,-0.441653 -0.05674,-0.294337 -0.177493,0.100171 -0.256802,0.120757 -0.518047,0.134469 -0.169658,0.0089 -0.30847,0.0044 -0.30847,-0.01 0,-0.01439 0.05766,-0.09653 0.128131,-0.182531 0.136932,-0.167108 0.276759,-0.443601 0.278093,-0.5499 10e-4,-0.08214 0.01424,-0.08447 -0.266547,0.04693 -0.313923,0.146903 -0.673834,0.220043 -1.08326,0.220136 -0.282258,7.4e-5 -0.488302,-0.03878 -0.424465,-0.08004 0.0096,-0.0062 0.117078,-0.06114 0.23887,-0.122098 0.219516,-0.109872 0.686638,-0.509603 0.644957,-0.55191 -0.01192,-0.0121 -0.112773,0.0093 -0.224108,0.04764 -0.298051,0.102546 -0.544864,0.126422 -0.809941,0.07835 -0.262915,-0.04767 -0.603133,-0.203663 -0.582064,-0.266872 0.0076,-0.02273 0.162709,-0.101249 0.344741,-0.174498 0.182032,-0.07325 0.439202,-0.199515 0.571489,-0.28059 l 0.240521,-0.147411 -0.240521,-0.02829 c -0.663784,-0.07808 -0.962199,-0.182492 -1.231782,-0.430984 -0.19261,-0.177543 -0.34585,-0.443716 -0.309695,-0.537933 0.01709,-0.04455 0.04529,-0.05665 0.08941,-0.03837 0.07842,0.03249 0.786007,0.07295 0.786007,0.04494 0,-0.01096 -0.07216,-0.06222 -0.160358,-0.113909 -0.283059,-0.165882 -0.52506,-0.493612 -0.650303,-0.88067 -0.04968,-0.153521 -0.111262,-0.512516 -0.08792,-0.512516 0.0085,0 0.06845,0.03981 0.133236,0.08847 0.18348,0.13781 0.606514,0.337572 0.932748,0.440455 0.335308,0.105745 0.572666,0.156493 0.572666,0.122439 0,-0.01261 -0.10476,-0.126861 -0.2328,-0.25389 -0.259224,-0.257178 -0.455274,-0.59884 -0.578421,-1.008031 -0.09364,-0.311157 -0.151484,-0.74878 -0.112485,-0.851075 l 0.02822,-0.07401 0.02677,0.07401 c 0.106859,0.295429 0.312491,0.633891 0.545291,0.897524 0.49245,0.557675 0.81024,0.769631 1.581542,1.054839 0.543472,0.200962 0.524735,0.197733 0.48108,0.08291 -0.07681,-0.202022 -0.03914,-0.217926 0.124242,-0.05245 0.112086,0.113531 0.30679,0.23499 0.638307,0.398185 0.478051,0.235331 0.717546,0.386031 0.717546,0.451513 0,0.01926 -0.05962,0.100999 -0.132476,0.181649 -0.0981,0.108579 -0.126125,0.166647 -0.108004,0.223745 0.03104,0.09778 0.404897,0.348717 0.47784,0.320727 0.03013,-0.01156 0.07321,-0.09265 0.09573,-0.180193 0.164207,-0.638357 0.204005,-0.68464 0.818922,-0.952354 0.443247,-0.192975 0.580939,-0.219031 0.72752,-0.13767 0.08258,0.04583 0.07974,0.04952 -0.104734,0.13592 -0.15973,0.07481 -0.331673,0.234591 -0.331673,0.308208 0,0.01094 0.07077,-0.02057 0.157264,-0.07002 0.149093,-0.08525 0.286777,-0.117864 0.286777,-0.06794 0,0.01258 -0.04996,0.07976 -0.11101,0.149301 -0.100617,0.114596 -0.11101,0.150561 -0.11101,0.384168 0,0.178513 0.01422,0.259468 0.04625,0.263372 0.02544,0.0031 0.06421,0.0075 0.08614,0.0099 0.02195,0.0023 0.09391,0.04968 0.159945,0.105241 0.09354,0.07871 0.135091,0.09297 0.188118,0.06459 0.09577,-0.05126 0.333613,-0.336019 0.333613,-0.399432 0,-0.02902 -0.04996,-0.115844 -0.11101,-0.192932 -0.06106,-0.07709 -0.11101,-0.157973 -0.11101,-0.179742 0,-0.07127 0.445141,-0.411944 0.715764,-0.547781 0.145654,-0.07311 0.373058,-0.202453 0.505345,-0.28743 0.372764,-0.239455 0.346993,-0.229835 0.319219,-0.119167 -0.01799,0.07162 -0.01044,0.09803 0.02801,0.09803 0.09725,0 0.815525,-0.2642 1.114385,-0.409895 0.561945,-0.273953 1.151417,-0.86532 1.435652,-1.440269 l 0.155488,-0.314527 0.01175,0.143024 c 0.01577,0.191961 -0.0878,0.689536 -0.205111,0.985576 -0.134499,0.339401 -0.317798,0.616322 -0.557041,0.841545 -0.113336,0.106693 -0.195421,0.20463 -0.182414,0.217637 0.03584,0.03583 0.637229,-0.124434 0.94022,-0.25057 0.147354,-0.06134 0.367762,-0.176067 0.489797,-0.254942 l 0.221882,-0.143407 -0.02107,0.118647 c -0.108314,0.610041 -0.376652,1.062179 -0.760498,1.281402 l -0.183232,0.104646 0.131183,0.02461 c 0.07214,0.01354 0.274207,0.0056 0.449015,-0.01769 0.174811,-0.02326 0.327317,-0.03281 0.338908,-0.02123 0.04457,0.04454 -0.185455,0.434732 -0.328321,0.557018 -0.281761,0.24118 -0.717445,0.391161 -1.139154,0.392148 -0.372938,8.78e-4 -0.385967,0.03957 -0.07545,0.224038 0.147393,0.08756 0.403341,0.213783 0.568767,0.280485 0.165427,0.0667 0.300776,0.141706 0.300776,0.166678 0,0.06887 -0.305919,0.211054 -0.55075,0.255963 -0.250717,0.04599 -0.504378,0.02033 -0.813441,-0.08228 -0.119396,-0.03964 -0.22546,-0.0637 -0.235698,-0.05346 -0.02071,0.0207 0.209257,0.352493 0.357408,0.515683 0.05246,0.05778 0.169072,0.1485 0.259141,0.201592 l 0.163765,0.09653 -0.108259,0.03194 c -0.149448,0.04409 -0.81181,0.0037 -1.135644,-0.06926 -0.147252,-0.03318 -0.372912,-0.102141 -0.501474,-0.153258 -0.147763,-0.05875 -0.246687,-0.08 -0.268926,-0.05776 -0.03869,0.03869 0.195689,0.425425 0.32963,0.543914 0.04333,0.03834 0.06987,0.08413 0.05897,0.101759 -0.0326,0.05274 -0.525011,0.03628 -0.763514,-0.02552 -0.122211,-0.03167 -0.227055,-0.05248 -0.232982,-0.04626 -0.0059,0.0062 0.04638,0.12654 0.116242,0.267358 0.08169,0.164658 0.11427,0.268789 0.09128,0.291773 -0.04465,0.04466 -0.326226,-0.0226 -0.530149,-0.126634 -0.08064,-0.04114 -0.153555,-0.06787 -0.162026,-0.0594 -0.0085,0.0085 0.0098,0.0757 0.04058,0.149406 0.0308,0.0737 0.056,0.151191 0.056,0.172197 0,0.05485 -0.181084,0.04704 -0.391907,-0.01691 -0.09991,-0.03031 -0.192083,-0.05529 -0.20484,-0.0555 -0.05244,-9.52e-4 -0.17673,0.370158 -0.213956,0.638755 -0.05929,0.427748 0.04184,1.016423 0.271833,1.582447 0.04931,0.121338 0.0735,0.220614 0.05376,0.220614 -0.01972,0 -0.101831,-0.03364 -0.182424,-0.07476 -0.0806,-0.04112 -0.146539,-0.05952 -0.146539,-0.0409 0,0.01862 0.03485,0.14801 0.07745,0.287528 0.104121,0.340992 0.412499,0.925577 0.631863,1.197807 0.09832,0.122012 0.178762,0.230362 0.178762,0.240778 0,0.04348 -0.383983,-0.180118 -0.519374,-0.302438 l -0.146686,-0.132525 v 0.252337 0.252337 l -0.151905,-0.146272 -0.151905,-0.146273 0.02716,0.129513 c 0.0253,0.120553 0.162425,0.559573 0.223853,0.716617 0.02441,0.06246 0.01852,0.0647 -0.06186,0.02343 -0.04887,-0.0251 -0.159638,-0.113757 -0.246133,-0.197025 l -0.157241,-0.151402 v 0.327968 c 0,0.320389 -0.0018,0.32649 -0.07062,0.264051 -0.03884,-0.03515 -0.09082,-0.112665 -0.115502,-0.172248 -0.05495,-0.132661 -0.09837,-0.137134 -0.153636,-0.01583 -0.0583,0.12796 -0.0973,0.116176 -0.172674,-0.05217 l -0.06478,-0.144685 -0.08251,0.153935 c -0.04538,0.08466 -0.114954,0.195563 -0.154612,0.246442 l -0.0721,0.09251 -8.05e-4,-0.334015 z m 0.176792,-7.906614 c 0.06255,-0.06254 0.05526,-0.212777 -0.01157,-0.238422 -0.07658,-0.02939 -0.166044,0.05234 -0.166044,0.151678 0,0.132222 0.08878,0.17558 0.177616,0.08674 z"
       id="path2152-6-5-4" />
    <path
       style="display:inline;fill:#000000;stroke-width:0.0370034"
       d="m -52.492972,49.174432 -8.03e-4,-0.334015 -0.224635,0.213755 c -0.248505,0.236468 -0.310839,0.264405 -0.253509,0.11362 0.02094,-0.05507 0.06942,-0.213273 0.107743,-0.351555 l 0.06967,-0.251422 -0.183135,0.194291 -0.183135,0.194292 0.02435,-0.364962 c 0.02779,-0.416681 0.05672,-0.4043 -0.318981,-0.136548 -0.111685,0.0796 -0.208521,0.139263 -0.215192,0.132593 -0.0067,-0.0067 0.03982,-0.11503 0.103305,-0.240797 0.128419,-0.254399 0.338841,-0.859878 0.420173,-1.209029 l 0.05302,-0.227602 -0.156034,0.162847 c -0.126379,0.131897 -0.18072,0.162846 -0.285923,0.162846 h -0.129887 l 0.19782,-0.397784 c 0.265971,-0.534825 0.387408,-1.009758 0.395014,-1.544888 0.0045,-0.314145 -0.0094,-0.446483 -0.06092,-0.579887 -0.09173,-0.237703 -0.147907,-0.278598 -0.246827,-0.179678 -0.09554,0.09554 -0.229545,0.149011 -0.373439,0.149011 -0.127008,0 -0.124088,0.0091 -0.05225,-0.162833 0.07171,-0.17161 0.01171,-0.207149 -0.171264,-0.101445 -0.130886,0.07561 -0.541937,0.174812 -0.577405,0.139343 -0.01122,-0.01122 0.04838,-0.152586 0.132446,-0.314159 0.21118,-0.405914 0.204291,-0.441653 -0.05674,-0.294337 -0.177493,0.100171 -0.256802,0.120757 -0.518047,0.134469 -0.169658,0.0089 -0.30847,0.0044 -0.30847,-0.01 0,-0.01439 0.05766,-0.09653 0.128131,-0.182531 0.136932,-0.167108 0.276759,-0.443601 0.278093,-0.5499 10e-4,-0.08214 0.01424,-0.08447 -0.266547,0.04693 -0.313923,0.146903 -0.673834,0.220043 -1.08326,0.220136 -0.282258,7.4e-5 -0.488302,-0.03878 -0.424465,-0.08004 0.0096,-0.0062 0.117078,-0.06114 0.23887,-0.122098 0.219516,-0.109872 0.686638,-0.509603 0.644957,-0.55191 -0.01192,-0.0121 -0.112773,0.0093 -0.224108,0.04764 -0.298051,0.102546 -0.544864,0.126422 -0.809941,0.07835 -0.262915,-0.04767 -0.603133,-0.203663 -0.582064,-0.266872 0.0076,-0.02273 0.162709,-0.101249 0.344741,-0.174498 0.182032,-0.07325 0.439202,-0.199515 0.571489,-0.28059 l 0.240521,-0.147411 -0.240521,-0.02829 c -0.663784,-0.07808 -0.962199,-0.182492 -1.231782,-0.430984 -0.19261,-0.177543 -0.34585,-0.443716 -0.309695,-0.537933 0.01709,-0.04455 0.04529,-0.05665 0.08941,-0.03837 0.07842,0.03249 0.786007,0.07295 0.786007,0.04494 0,-0.01096 -0.07216,-0.06222 -0.160358,-0.113909 -0.283059,-0.165882 -0.52506,-0.493612 -0.650303,-0.88067 -0.04968,-0.153521 -0.111262,-0.512516 -0.08792,-0.512516 0.0085,0 0.06845,0.03981 0.133236,0.08847 0.18348,0.13781 0.606514,0.337572 0.932748,0.440455 0.335308,0.105745 0.572666,0.156493 0.572666,0.122439 0,-0.01261 -0.10476,-0.126861 -0.2328,-0.25389 -0.259224,-0.257178 -0.455274,-0.59884 -0.578421,-1.008031 -0.09364,-0.311157 -0.151484,-0.74878 -0.112485,-0.851075 l 0.02822,-0.07401 0.02677,0.07401 c 0.106859,0.295429 0.312491,0.633891 0.545291,0.897524 0.49245,0.557675 0.81024,0.769631 1.581542,1.054839 0.543472,0.200962 0.524735,0.197733 0.48108,0.08291 -0.07681,-0.202022 -0.03914,-0.217926 0.124242,-0.05245 0.112086,0.113531 0.30679,0.23499 0.638307,0.398185 0.478051,0.235331 0.717546,0.386031 0.717546,0.451513 0,0.01926 -0.05962,0.100999 -0.132476,0.181649 -0.0981,0.108579 -0.126125,0.166647 -0.108004,0.223745 0.03104,0.09778 0.404897,0.348717 0.47784,0.320727 0.03013,-0.01156 0.07321,-0.09265 0.09573,-0.180193 0.164207,-0.638357 0.204005,-0.68464 0.818922,-0.952354 0.443247,-0.192975 0.580939,-0.219031 0.72752,-0.13767 0.08258,0.04583 0.07974,0.04952 -0.104734,0.13592 -0.15973,0.07481 -0.331673,0.234591 -0.331673,0.308208 0,0.01094 0.07077,-0.02057 0.157264,-0.07002 0.149093,-0.08525 0.286777,-0.117864 0.286777,-0.06794 0,0.01258 -0.04996,0.07976 -0.11101,0.149301 -0.100617,0.114596 -0.11101,0.150561 -0.11101,0.384168 0,0.178513 0.01422,0.259468 0.04625,0.263372 0.02544,0.0031 0.06421,0.0075 0.08614,0.0099 0.02195,0.0023 0.09391,0.04968 0.159945,0.105241 0.09354,0.07871 0.135091,0.09297 0.188118,0.06459 0.09577,-0.05126 0.333613,-0.336019 0.333613,-0.399432 0,-0.02902 -0.04996,-0.115844 -0.11101,-0.192932 -0.06106,-0.07709 -0.11101,-0.157973 -0.11101,-0.179742 0,-0.07127 0.445141,-0.411944 0.715764,-0.547781 0.145654,-0.07311 0.373058,-0.202453 0.505345,-0.28743 0.372764,-0.239455 0.346993,-0.229835 0.319219,-0.119167 -0.01799,0.07162 -0.01044,0.09803 0.02801,0.09803 0.09725,0 0.815525,-0.2642 1.114385,-0.409895 0.561945,-0.273953 1.151417,-0.86532 1.435652,-1.440269 l 0.155488,-0.314527 0.01175,0.143024 c 0.01577,0.191961 -0.0878,0.689536 -0.205111,0.985576 -0.134499,0.339401 -0.317798,0.616322 -0.557041,0.841545 -0.113336,0.106693 -0.195421,0.20463 -0.182414,0.217637 0.03584,0.03583 0.637229,-0.124434 0.94022,-0.25057 0.147354,-0.06134 0.367762,-0.176067 0.489797,-0.254942 l 0.221882,-0.143407 -0.02107,0.118647 c -0.108314,0.610041 -0.376652,1.062179 -0.760498,1.281402 l -0.183232,0.104646 0.131183,0.02461 c 0.07214,0.01354 0.274207,0.0056 0.449015,-0.01769 0.174811,-0.02326 0.327317,-0.03281 0.338908,-0.02123 0.04457,0.04454 -0.185455,0.434732 -0.328321,0.557018 -0.281761,0.24118 -0.717445,0.391161 -1.139154,0.392148 -0.372938,8.78e-4 -0.385967,0.03957 -0.07545,0.224038 0.147393,0.08756 0.403341,0.213783 0.568767,0.280485 0.165427,0.0667 0.300776,0.141706 0.300776,0.166678 0,0.06887 -0.305919,0.211054 -0.55075,0.255963 -0.250717,0.04599 -0.504378,0.02033 -0.813441,-0.08228 -0.119396,-0.03964 -0.22546,-0.0637 -0.235698,-0.05346 -0.02071,0.0207 0.209257,0.352493 0.357408,0.515683 0.05246,0.05778 0.169072,0.1485 0.259141,0.201592 l 0.163765,0.09653 -0.108259,0.03194 c -0.149448,0.04409 -0.81181,0.0037 -1.135644,-0.06926 -0.147252,-0.03318 -0.372912,-0.102141 -0.501474,-0.153258 -0.147763,-0.05875 -0.246687,-0.08 -0.268926,-0.05776 -0.03869,0.03869 0.195689,0.425425 0.32963,0.543914 0.04333,0.03834 0.06987,0.08413 0.05897,0.101759 -0.0326,0.05274 -0.525011,0.03628 -0.763514,-0.02552 -0.122211,-0.03167 -0.227055,-0.05248 -0.232982,-0.04626 -0.0059,0.0062 0.04638,0.12654 0.116242,0.267358 0.08169,0.164658 0.11427,0.268789 0.09128,0.291773 -0.04465,0.04466 -0.326226,-0.0226 -0.530149,-0.126634 -0.08064,-0.04114 -0.153555,-0.06787 -0.162026,-0.0594 -0.0085,0.0085 0.0098,0.0757 0.04058,0.149406 0.0308,0.0737 0.056,0.151191 0.056,0.172197 0,0.05485 -0.181084,0.04704 -0.391907,-0.01691 -0.09991,-0.03031 -0.192083,-0.05529 -0.20484,-0.0555 -0.05244,-9.52e-4 -0.17673,0.370158 -0.213956,0.638755 -0.05929,0.427748 0.04184,1.016423 0.271833,1.582447 0.04931,0.121338 0.0735,0.220614 0.05376,0.220614 -0.01972,0 -0.101831,-0.03364 -0.182424,-0.07476 -0.0806,-0.04112 -0.146539,-0.05952 -0.146539,-0.0409 0,0.01862 0.03485,0.14801 0.07745,0.287528 0.104121,0.340992 0.412499,0.925577 0.631863,1.197807 0.09832,0.122012 0.178762,0.230362 0.178762,0.240778 0,0.04348 -0.383983,-0.180118 -0.519374,-0.302438 l -0.146686,-0.132525 v 0.252337 0.252337 l -0.151905,-0.146272 -0.151905,-0.146273 0.02716,0.129513 c 0.0253,0.120553 0.162425,0.559573 0.223853,0.716617 0.02441,0.06246 0.01852,0.0647 -0.06186,0.02343 -0.04887,-0.0251 -0.159638,-0.113757 -0.246133,-0.197025 l -0.157241,-0.151402 v 0.327968 c 0,0.320389 -0.0018,0.32649 -0.07062,0.264051 -0.03884,-0.03515 -0.09082,-0.112665 -0.115502,-0.172248 -0.05495,-0.132661 -0.09837,-0.137134 -0.153636,-0.01583 -0.0583,0.12796 -0.0973,0.116176 -0.172674,-0.05217 l -0.06478,-0.144685 -0.08251,0.153935 c -0.04538,0.08466 -0.114954,0.195563 -0.154612,0.246442 l -0.0721,0.09251 -8.05e-4,-0.334015 z m 0.176792,-7.906614 c 0.06255,-0.06254 0.05526,-0.212777 -0.01157,-0.238422 -0.07658,-0.02939 -0.166044,0.05234 -0.166044,0.151678 0,0.132222 0.08878,0.17558 0.177616,0.08674 z"
       id="path2152-6-5-6-88" />
    <text
       xml:space="preserve"
       style="font-size:14.1111px;line-height:1.25;font-family:'Blood Crow';-inkscape-font-specification:'Blood Crow';display:inline;stroke-width:0.264583"
       x="-94.484848"
       y="33.541325"
       id="text9052-8"><tspan
         id="tspan9050-9"
         style="font-style:normal;font-variant:normal;font-weight:normal;font-stretch:normal;font-size:14.1111px;font-family:'Bleeding Cowboys';-inkscape-font-specification:'Bleeding Cowboys';stroke-width:0.264583"
         x="-94.484848"
         y="33.541325">8</tspan></text>
    <text
       xml:space="preserve"
       style="font-size:14.1111px;line-height:1.25;font-family:'Blood Crow';-inkscape-font-specification:'Blood Crow';display:inline;stroke-width:0.264583"
       x="40.827564"
       y="-96.578842"
       id="text9052-3-77"
       transform="scale(-1)"><tspan
         id="tspan9050-0-64"
         style="font-style:normal;font-variant:normal;font-weight:normal;font-stretch:normal;font-size:14.1111px;font-family:'Bleeding Cowboys';-inkscape-font-specification:'Bleeding Cowboys';stroke-width:0.264583"
         x="40.827564"
         y="-96.578842">8</tspan></text>
  </g>
</svg>
