<?xml version="1.0" encoding="UTF-8" standalone="no"?>
<!-- Created with Inkscape (http://www.inkscape.org/) -->

<svg
   width="63mm"
   height="89mm"
   viewBox="0 0 63 89"
   version="1.1"
   id="svg5"
   sodipodi:docname="9-Bélier.svg"
   inkscape:version="1.1.2 (1:1.1+202202050950+0a00cf5339)"
   xmlns:inkscape="http://www.inkscape.org/namespaces/inkscape"
   xmlns:sodipodi="http://sodipodi.sourceforge.net/DTD/sodipodi-0.dtd"
   xmlns:xlink="http://www.w3.org/1999/xlink"
   xmlns="http://www.w3.org/2000/svg"
   xmlns:svg="http://www.w3.org/2000/svg">
  <sodipodi:namedview
     id="namedview169"
     pagecolor="#ffffff"
     bordercolor="#666666"
     borderopacity="1.0"
     inkscape:pageshadow="2"
     inkscape:pageopacity="0.0"
     inkscape:pagecheckerboard="0"
     inkscape:document-units="mm"
     showgrid="false"
     inkscape:zoom="0.17762913"
     inkscape:cx="-906.38287"
     inkscape:cy="540.4519"
     inkscape:window-width="1920"
     inkscape:window-height="998"
     inkscape:window-x="0"
     inkscape:window-y="31"
     inkscape:window-maximized="1"
     inkscape:current-layer="svg5" />
  <defs
     id="defs2">
    <linearGradient
       id="linearGradient66035">
      <stop
         style="stop-color:#ffeeaa;stop-opacity:1;"
         offset="0"
         id="stop66031" />
      <stop
         style="stop-color:#ffeeaa;stop-opacity:0;"
         offset="1"
         id="stop66033" />
    </linearGradient>
    <linearGradient
       xlink:href="#linearGradient66035"
       id="linearGradient66037"
       x1="-609.21545"
       y1="124.85085"
       x2="-533.06219"
       y2="235.37372"
       gradientUnits="userSpaceOnUse"
       gradientTransform="translate(609.74701,-124.322)" />
    <linearGradient
       xlink:href="#linearGradient66035"
       id="linearGradient66272"
       gradientUnits="userSpaceOnUse"
       x1="-609.21545"
       y1="124.85085"
       x2="-533.06219"
       y2="235.37372"
       gradientTransform="translate(28.205327,-3.083649)" />
    <linearGradient
       xlink:href="#linearGradient66035"
       id="linearGradient66419"
       gradientUnits="userSpaceOnUse"
       gradientTransform="translate(90.545577,-3.083657)"
       x1="-609.21545"
       y1="124.85085"
       x2="-533.06219"
       y2="235.37372" />
    <linearGradient
       xlink:href="#linearGradient66035"
       id="linearGradient66886"
       gradientUnits="userSpaceOnUse"
       gradientTransform="translate(806.17471,63.04555)"
       x1="-609.21545"
       y1="124.85085"
       x2="-533.06219"
       y2="235.37372" />
    <linearGradient
       xlink:href="#linearGradient66035"
       id="linearGradient67116"
       gradientUnits="userSpaceOnUse"
       gradientTransform="translate(152.88577,-3.08367)"
       x1="-609.21545"
       y1="124.85085"
       x2="-533.06219"
       y2="235.37372" />
    <linearGradient
       xlink:href="#linearGradient66035"
       id="linearGradient73095"
       gradientUnits="userSpaceOnUse"
       gradientTransform="translate(215.22601,-3.0836)"
       x1="-609.21545"
       y1="124.85085"
       x2="-533.06219"
       y2="235.37372" />
    <linearGradient
       xlink:href="#linearGradient66035"
       id="linearGradient82342"
       gradientUnits="userSpaceOnUse"
       gradientTransform="translate(-34.13484,85.25655)"
       x1="-609.21545"
       y1="124.85085"
       x2="-533.06219"
       y2="235.37372" />
    <linearGradient
       xlink:href="#linearGradient66035"
       id="linearGradient90215"
       gradientUnits="userSpaceOnUse"
       gradientTransform="translate(28.20537,85.25655)"
       x1="-609.21545"
       y1="124.85085"
       x2="-533.06219"
       y2="235.37372" />
    <linearGradient
       xlink:href="#linearGradient66035"
       id="linearGradient99476"
       gradientUnits="userSpaceOnUse"
       gradientTransform="translate(90.54556,85.25654)"
       x1="-609.21545"
       y1="124.85085"
       x2="-533.06219"
       y2="235.37372" />
    <linearGradient
       xlink:href="#linearGradient66035"
       id="linearGradient105434"
       gradientUnits="userSpaceOnUse"
       gradientTransform="translate(152.88578,85.256544)"
       x1="-609.21545"
       y1="124.85085"
       x2="-533.06219"
       y2="235.37372" />
    <linearGradient
       xlink:href="#linearGradient66035"
       id="linearGradient116711"
       gradientUnits="userSpaceOnUse"
       gradientTransform="translate(215.22599,85.25654)"
       x1="-609.21545"
       y1="124.85085"
       x2="-533.06219"
       y2="235.37372" />
    <linearGradient
       xlink:href="#linearGradient66035"
       id="linearGradient12364"
       gradientUnits="userSpaceOnUse"
       gradientTransform="translate(-34.13485,173.59677)"
       x1="-609.21545"
       y1="124.85085"
       x2="-533.06219"
       y2="235.37372" />
  </defs>
  <rect
     style="display:inline;fill:url(#linearGradient66037);fill-opacity:1;stroke:#000000;stroke-width:0.659785;stroke-miterlimit:4;stroke-dasharray:none;stroke-opacity:1"
     id="rect870-4"
     width="62.340214"
     height="88.340218"
     x="0.53155589"
     y="0.52885294"
     rx="3.7119057"
     ry="3.3358381" />
  <path
     style="display:inline;fill:#000000;stroke-width:0.035639"
     d="m 16.784578,24.30455 c -0.21658,-0.261127 -0.323229,-0.481669 -0.387239,-0.800702 -0.091,-0.453754 -0.27331,-0.853936 -0.48597,-1.066884 -0.095,-0.09516 -0.21498,-0.260356 -0.26654,-0.367104 -0.08192,-0.169587 -0.09612,-0.252566 -0.112481,-0.657392 -0.01199,-0.29672 -0.04207,-0.540191 -0.08367,-0.677139 -0.03572,-0.117609 -0.0653,-0.319572 -0.06572,-0.448806 -5.09e-4,-0.190063 -0.0155,-0.251367 -0.0779,-0.320751 -0.04243,-0.04718 -0.138653,-0.156575 -0.213836,-0.243103 -0.07518,-0.08653 -0.256975,-0.252272 -0.403986,-0.36832 -0.147012,-0.116048 -0.279526,-0.232639 -0.294481,-0.259091 -0.02957,-0.05235 0.094,-0.159696 0.183887,-0.159696 0.03877,0 0.03333,-0.02007 -0.02175,-0.08019 -0.235482,-0.257018 -0.342813,-0.690656 -0.346228,-1.398828 -0.0025,-0.499562 0.003,-0.543295 0.0801,-0.667544 0.05868,-0.09438 0.123307,-0.145135 0.222743,-0.174926 0.07704,-0.02308 0.14007,-0.05306 0.14007,-0.06662 0,-0.01356 -0.04715,-0.08972 -0.10475,-0.169253 -0.0722,-0.09968 -0.179954,-0.181616 -0.346802,-0.26373 -0.206544,-0.101649 -0.278759,-0.118896 -0.492203,-0.117555 -0.207387,0.0013 -0.282798,0.01938 -0.441131,0.105782 -0.231864,0.126517 -0.404114,0.320597 -0.537324,0.605426 -0.190863,0.408086 -0.318139,1.204075 -0.347605,2.173975 -0.03862,1.271638 0.173063,2.097811 0.662379,2.584952 0.292113,0.290819 0.483442,0.373513 0.859019,0.371276 0.285654,-0.0017 0.327179,-0.01245 0.728081,-0.188486 0.23383,-0.102676 0.447574,-0.182052 0.474992,-0.176391 0.07678,0.01585 -0.128607,0.277102 -0.339668,0.432037 -0.630285,0.462671 -1.27917,0.478045 -2.047259,0.04851 -0.702731,-0.392989 -1.448646,-1.724758 -1.721897,-3.074291 -0.07357,-0.363347 -0.08792,-0.53599 -0.08792,-1.05767 0,-0.719581 0.0517,-1.081535 0.231117,-1.618247 0.388163,-1.161128 1.231142,-2.208702 2.143927,-2.664262 0.852673,-0.425557 1.647364,-0.262728 2.670406,0.547159 0.1747,0.138299 0.35188,0.251452 0.39375,0.251452 0.0419,0 0.0948,0.02249 0.11759,0.04999 0.111429,0.134258 0.78217,0.120935 0.96104,-0.01909 0.0468,-0.0366 0.111619,-0.06654 0.14416,-0.06654 0.0325,0 0.18675,-0.114179 0.342669,-0.25373 0.82225,-0.735901 1.68861,-1.056881 2.33474,-0.865001 0.27274,0.08099 0.76162,0.333376 1.0154,0.524192 0.51508,0.387297 1.10639,1.131873 1.38581,1.745022 0.14501,0.318203 0.31275,0.827986 0.40127,1.219507 0.0528,0.233735 0.0643,0.442452 0.0636,1.158266 -0.001,0.768803 -0.0103,0.914952 -0.0795,1.222903 -0.21535,0.958191 -0.64851,1.897976 -1.14322,2.480331 -0.21628,0.254609 -0.621459,0.515221 -0.974329,0.626692 -0.67541,0.213363 -1.34153,0.04261 -1.80802,-0.463471 -0.14659,-0.159029 -0.17991,-0.231283 -0.10665,-0.231283 0.0216,0 0.23415,0.08344 0.47222,0.185414 0.398811,0.170834 0.455301,0.185546 0.71847,0.187103 0.25273,0.0015 0.31308,-0.0118 0.523801,-0.115444 0.82148,-0.404028 1.146719,-1.715858 0.90062,-3.632632 -0.16659,-1.297513 -0.3924,-1.817316 -0.896641,-2.06402 -0.35104,-0.171747 -0.806819,-0.109472 -1.112259,0.151971 -0.12231,0.10469 -0.253551,0.282859 -0.253551,0.344203 0,0.0077 0.0633,0.03293 0.14076,0.05612 0.21664,0.0649 0.291429,0.19963 0.334299,0.602185 0.0655,0.615019 -0.0495,1.288411 -0.27748,1.624293 l -0.0844,0.124383 0.10379,0.04299 c 0.0571,0.02364 0.10379,0.06989 0.10379,0.102769 0,0.03288 -0.13674,0.168488 -0.303851,0.301358 -0.16713,0.13287 -0.36952,0.32855 -0.44977,0.434844 -0.0802,0.106294 -0.16003,0.193263 -0.17728,0.193263 -0.0172,0 -0.0314,0.109698 -0.0314,0.243772 0,0.134074 -0.0321,0.369184 -0.0713,0.522465 -0.0504,0.197099 -0.0713,0.395351 -0.0713,0.677149 0,0.371212 -0.007,0.413049 -0.10666,0.611909 -0.0587,0.1174 -0.184,0.292853 -0.27853,0.389895 -0.2098,0.215396 -0.37736,0.595156 -0.47354,1.073295 -0.0665,0.330597 -0.16697,0.525901 -0.42571,0.827561 -0.10531,0.122789 -0.14899,0.04365 -0.12957,-0.234785 0.008,-0.12038 0.005,-0.232646 -0.007,-0.249475 -0.0326,-0.04467 -0.18211,-0.04289 -0.18604,0.002 -0.002,0.02114 -0.006,0.149293 -0.009,0.284745 -0.003,0.135451 -0.0216,0.250476 -0.0412,0.255613 -0.0196,0.0051 -0.0781,-0.04192 -0.13009,-0.104532 z m -0.34721,-2.266879 c -0.0439,-0.196291 -0.118749,-0.453026 -0.16649,-0.570526 -0.0857,-0.211012 -0.107309,-0.369641 -0.0652,-0.479434 0.0237,-0.06186 0.36057,-0.34148 0.41136,-0.34148 0.0174,0 0.0214,0.04074 0.009,0.09053 -0.0152,0.0608 -0.002,0.112587 0.0381,0.15769 0.0382,0.04214 0.0567,0.111307 0.0499,0.185669 -0.006,0.06518 0.0262,0.275743 0.0716,0.467915 0.15992,0.678235 0.37551,0.690763 0.52731,0.03064 0.03,-0.13062 0.0589,-0.322761 0.064,-0.426981 0.005,-0.104219 0.0276,-0.207661 0.0498,-0.229871 0.0222,-0.02221 0.0404,-0.0933 0.0404,-0.157989 0,-0.06468 0.0164,-0.117609 0.0364,-0.117609 0.02,0 0.12426,0.08511 0.23165,0.189122 0.227869,0.220708 0.238209,0.278995 0.10762,0.606676 -0.15069,0.378084 -0.28041,1.021789 -0.20591,1.021789 0.0635,0 0.34663,-0.418962 0.48848,-0.722772 0.244,-0.522589 0.247589,-0.550087 0.121459,-0.929731 -0.12753,-0.383869 -0.16128,-0.617812 -0.11024,-0.764214 0.0366,-0.104972 0.0325,-0.10995 -0.280529,-0.343724 -0.206511,-0.154218 -0.317651,-0.261075 -0.317651,-0.305424 0,-0.06356 0.009,-0.06221 0.12971,0.01981 0.0713,0.04841 0.14216,0.08802 0.15738,0.08802 0.0152,0 0.0805,-0.06816 0.14502,-0.151465 0.7477,-0.965093 0.99402,-1.213957 1.24782,-1.260703 0.28273,-0.05208 0.43168,-0.2588 0.43168,-0.599148 0,-0.414222 -0.16112,-0.734908 -0.44095,-0.877667 -0.1207,-0.06158 -0.13277,-0.07869 -0.0964,-0.136854 0.0483,-0.0774 0.10027,-0.0019 -0.58146,-0.845287 -0.4405,-0.544966 -0.59049,-0.708224 -0.89461,-0.97376 -0.10634,-0.09285 -0.1747,-0.07718 -0.0943,0.02162 0.0444,0.05461 0.0422,0.05792 -0.0217,0.0316 -0.22567,-0.09306 -0.33679,-0.104923 -0.45495,-0.04857 -0.1053,0.05022 -0.12957,0.05063 -0.21897,0.0038 -0.0979,-0.05132 -0.22697,-0.03853 -0.41938,0.04157 -0.0485,0.02019 -0.056,0.0092 -0.04,-0.05812 0.0308,-0.12932 -0.48915,0.395815 -0.74706,0.754512 -0.1198,0.166612 -0.324565,0.439606 -0.455042,0.606654 -0.266803,0.341594 -0.32726,0.441001 -0.31226,0.513421 0.0057,0.02756 -0.05734,0.09933 -0.140116,0.159494 -0.386161,0.280694 -0.476059,1.011377 -0.159669,1.29771 0.03923,0.03551 0.154009,0.08637 0.255045,0.113023 0.106026,0.02797 0.252392,0.104748 0.346161,0.181584 0.170569,0.139771 0.587991,0.614879 0.878151,0.999518 0.0942,0.124891 0.18419,0.227075 0.19995,0.227075 0.0158,0 0.087,-0.03961 0.15836,-0.08802 0.12386,-0.08405 0.12971,-0.08482 0.12971,-0.01701 0,0.04785 -0.0978,0.142825 -0.29965,0.291115 l -0.29964,0.220097 0.0182,0.251306 c 0.0155,0.214616 0.002,0.301272 -0.0924,0.59356 -0.0608,0.188241 -0.11055,0.369312 -0.11055,0.402379 0,0.132577 0.33532,0.840598 0.50614,1.068689 0.2415,0.322474 0.27995,0.280628 0.17482,-0.190231 z"
     id="path2639-6" />
  <path
     style="display:inline;fill:#000000;stroke-width:0.035639"
     d="m 31.165777,50.656779 c -0.21658,-0.261127 -0.323229,-0.481669 -0.387239,-0.800702 -0.091,-0.453754 -0.27331,-0.853936 -0.48597,-1.066884 -0.095,-0.09516 -0.21498,-0.260356 -0.26654,-0.367104 -0.08192,-0.169587 -0.09612,-0.252566 -0.112481,-0.657392 -0.01199,-0.29672 -0.04207,-0.540191 -0.08367,-0.677139 -0.03572,-0.117609 -0.0653,-0.319572 -0.06572,-0.448806 -5.09e-4,-0.190063 -0.0155,-0.251367 -0.0779,-0.320751 -0.04243,-0.04718 -0.138653,-0.156575 -0.213836,-0.243103 -0.07518,-0.08653 -0.256975,-0.252272 -0.403986,-0.36832 -0.147012,-0.116048 -0.279526,-0.232639 -0.294481,-0.259091 -0.02957,-0.05235 0.094,-0.159696 0.183887,-0.159696 0.03877,0 0.03333,-0.02007 -0.02175,-0.08019 -0.235482,-0.257018 -0.342813,-0.690656 -0.346228,-1.398828 -0.0025,-0.499562 0.003,-0.543295 0.0801,-0.667544 0.05868,-0.09438 0.123307,-0.145135 0.222743,-0.174926 0.07704,-0.02308 0.14007,-0.05306 0.14007,-0.06662 0,-0.01356 -0.04715,-0.08972 -0.10475,-0.169253 -0.0722,-0.09968 -0.179954,-0.181616 -0.346802,-0.26373 -0.206544,-0.101649 -0.278759,-0.118896 -0.492203,-0.117555 -0.207387,0.0013 -0.282798,0.01938 -0.441131,0.105782 -0.231864,0.126517 -0.404114,0.320597 -0.537324,0.605426 -0.190863,0.408086 -0.318139,1.204075 -0.347605,2.173975 -0.03862,1.271638 0.173063,2.097811 0.662379,2.584952 0.292113,0.290819 0.483442,0.373513 0.859019,0.371276 0.285654,-0.0017 0.327179,-0.01245 0.728081,-0.188486 0.23383,-0.102676 0.447574,-0.182052 0.474992,-0.176391 0.07678,0.01585 -0.128607,0.277102 -0.339668,0.432037 -0.630285,0.462671 -1.27917,0.478045 -2.047259,0.04851 -0.702731,-0.392989 -1.448646,-1.724758 -1.721897,-3.074291 -0.07357,-0.363347 -0.08792,-0.53599 -0.08792,-1.05767 0,-0.719581 0.0517,-1.081535 0.231117,-1.618247 0.388163,-1.161128 1.231142,-2.208702 2.143927,-2.664262 0.852673,-0.425557 1.647364,-0.262728 2.670406,0.547159 0.1747,0.138299 0.35188,0.251452 0.39375,0.251452 0.0419,0 0.0948,0.02249 0.11759,0.04999 0.111429,0.134258 0.78217,0.120935 0.96104,-0.01909 0.0468,-0.0366 0.111619,-0.06654 0.14416,-0.06654 0.0325,0 0.18675,-0.114179 0.342669,-0.25373 0.82225,-0.735901 1.68861,-1.056881 2.33474,-0.865001 0.27274,0.08099 0.76162,0.333376 1.0154,0.524192 0.51508,0.387297 1.10639,1.131873 1.38581,1.745022 0.14501,0.318203 0.31275,0.827986 0.40127,1.219507 0.0528,0.233735 0.0643,0.442452 0.0636,1.158266 -10e-4,0.768803 -0.0103,0.914952 -0.0795,1.222903 -0.21535,0.958191 -0.64851,1.897976 -1.14322,2.480331 -0.21628,0.254609 -0.621459,0.515221 -0.974329,0.626692 -0.67541,0.213363 -1.34153,0.04261 -1.80802,-0.463471 -0.14659,-0.159029 -0.17991,-0.231283 -0.10665,-0.231283 0.0216,0 0.23415,0.08344 0.47222,0.185414 0.398811,0.170834 0.455301,0.185546 0.71847,0.187103 0.25273,0.0015 0.31308,-0.0118 0.523801,-0.115444 0.82148,-0.404028 1.146719,-1.715858 0.90062,-3.632632 -0.16659,-1.297513 -0.3924,-1.817316 -0.896641,-2.06402 -0.35104,-0.171747 -0.806819,-0.109472 -1.112259,0.151971 -0.12231,0.10469 -0.253551,0.282859 -0.253551,0.344203 0,0.0077 0.0633,0.03293 0.14076,0.05612 0.21664,0.0649 0.291429,0.19963 0.334299,0.602185 0.0655,0.615019 -0.0495,1.288411 -0.27748,1.624293 l -0.0844,0.124383 0.10379,0.04299 c 0.0571,0.02364 0.10379,0.06989 0.10379,0.102769 0,0.03288 -0.13674,0.168488 -0.303851,0.301358 -0.16713,0.13287 -0.36952,0.32855 -0.44977,0.434844 -0.0802,0.106294 -0.16003,0.193263 -0.17728,0.193263 -0.0172,0 -0.0314,0.109698 -0.0314,0.243772 0,0.134074 -0.0321,0.369184 -0.0713,0.522465 -0.0504,0.197099 -0.0713,0.395351 -0.0713,0.677149 0,0.371212 -0.007,0.413049 -0.10666,0.611909 -0.0587,0.1174 -0.184,0.292853 -0.27853,0.389895 -0.2098,0.215396 -0.37736,0.595156 -0.47354,1.073295 -0.0665,0.330597 -0.16697,0.525901 -0.42571,0.827561 -0.10531,0.122789 -0.14899,0.04365 -0.12957,-0.234785 0.008,-0.12038 0.005,-0.232646 -0.007,-0.249475 -0.0326,-0.04467 -0.18211,-0.04289 -0.18604,0.002 -0.002,0.02114 -0.006,0.149293 -0.009,0.284745 -0.003,0.135451 -0.0216,0.250476 -0.0412,0.255613 -0.0196,0.0051 -0.0781,-0.04192 -0.13009,-0.104532 z M 30.818567,48.3899 c -0.0439,-0.196291 -0.118749,-0.453026 -0.16649,-0.570526 -0.0857,-0.211012 -0.107309,-0.369641 -0.0652,-0.479434 0.0237,-0.06186 0.36057,-0.34148 0.41136,-0.34148 0.0174,0 0.0214,0.04074 0.009,0.09053 -0.0152,0.0608 -0.002,0.112587 0.0381,0.15769 0.0382,0.04214 0.0567,0.111307 0.0499,0.185669 -0.006,0.06518 0.0262,0.275743 0.0716,0.467915 0.15992,0.678235 0.37551,0.690763 0.52731,0.03064 0.03,-0.13062 0.0589,-0.322761 0.064,-0.426981 0.005,-0.104219 0.0276,-0.207661 0.0498,-0.229871 0.0222,-0.02221 0.0404,-0.0933 0.0404,-0.157989 0,-0.06468 0.0164,-0.117609 0.0364,-0.117609 0.02,0 0.12426,0.08511 0.23165,0.189122 0.227869,0.220708 0.238209,0.278995 0.10762,0.606676 -0.15069,0.378084 -0.28041,1.021789 -0.20591,1.021789 0.0635,0 0.34663,-0.418962 0.48848,-0.722772 0.244,-0.522589 0.247589,-0.550087 0.121459,-0.929731 -0.12753,-0.383869 -0.16128,-0.617812 -0.11024,-0.764214 0.0366,-0.104972 0.0325,-0.10995 -0.280529,-0.343724 -0.206511,-0.154218 -0.317651,-0.261075 -0.317651,-0.305424 0,-0.06356 0.009,-0.06221 0.12971,0.01981 0.0713,0.04841 0.14216,0.08802 0.15738,0.08802 0.0152,0 0.0805,-0.06816 0.14502,-0.151465 0.7477,-0.965093 0.99402,-1.213957 1.24782,-1.260703 0.28273,-0.05208 0.43168,-0.2588 0.43168,-0.599148 0,-0.414222 -0.16112,-0.734908 -0.44095,-0.877667 -0.1207,-0.06158 -0.13277,-0.07869 -0.0964,-0.136854 0.0483,-0.0774 0.10027,-0.0019 -0.58146,-0.845287 -0.4405,-0.544966 -0.59049,-0.708224 -0.89461,-0.97376 -0.10634,-0.09285 -0.1747,-0.07718 -0.0943,0.02162 0.0444,0.05461 0.0422,0.05792 -0.0217,0.0316 -0.22567,-0.09306 -0.33679,-0.104923 -0.45495,-0.04857 -0.1053,0.05022 -0.12957,0.05063 -0.21897,0.0038 -0.0979,-0.05132 -0.22697,-0.03853 -0.41938,0.04157 -0.0485,0.02019 -0.056,0.0092 -0.04,-0.05812 0.0308,-0.12932 -0.48915,0.395815 -0.74706,0.754512 -0.1198,0.166612 -0.324565,0.439606 -0.455042,0.606654 -0.266803,0.341594 -0.32726,0.441001 -0.31226,0.513421 0.0057,0.02756 -0.05734,0.09933 -0.140116,0.159494 -0.386161,0.280694 -0.476059,1.011377 -0.159669,1.29771 0.03923,0.03551 0.154009,0.08637 0.255045,0.113023 0.106026,0.02797 0.252392,0.104748 0.346161,0.181584 0.170569,0.139771 0.587991,0.614879 0.878151,0.999518 0.0942,0.124891 0.18419,0.227075 0.19995,0.227075 0.0158,0 0.087,-0.03961 0.15836,-0.08802 0.12386,-0.08405 0.12971,-0.08482 0.12971,-0.01701 0,0.04785 -0.0978,0.142825 -0.29965,0.291115 l -0.29964,0.220097 0.0182,0.251306 c 0.0155,0.214616 0.002,0.301272 -0.0924,0.59356 -0.0608,0.188241 -0.11055,0.369312 -0.11055,0.402379 0,0.132577 0.33532,0.840598 0.50614,1.068689 0.2415,0.322474 0.27995,0.280628 0.17482,-0.190231 z"
     id="path2639-6-2" />
  <path
     style="display:inline;fill:#000000;stroke-width:0.035639"
     d="m 46.824632,40.871161 c -0.21658,-0.261127 -0.323229,-0.481669 -0.387239,-0.800702 -0.091,-0.453754 -0.27331,-0.853936 -0.48597,-1.066884 -0.095,-0.09516 -0.21498,-0.260356 -0.26654,-0.367104 -0.08192,-0.169587 -0.09612,-0.252566 -0.112481,-0.657392 -0.01199,-0.29672 -0.04207,-0.540191 -0.08367,-0.677139 -0.03572,-0.117609 -0.0653,-0.319572 -0.06572,-0.448806 -5.09e-4,-0.190063 -0.0155,-0.251367 -0.0779,-0.320751 -0.04243,-0.04718 -0.138653,-0.156575 -0.213836,-0.243103 -0.07518,-0.08653 -0.256975,-0.252272 -0.403986,-0.36832 -0.147012,-0.116048 -0.279526,-0.232639 -0.294481,-0.259091 -0.02957,-0.05235 0.094,-0.159696 0.183887,-0.159696 0.03877,0 0.03333,-0.02007 -0.02175,-0.08019 -0.235482,-0.257018 -0.342813,-0.690656 -0.346228,-1.398828 -0.0025,-0.499562 0.003,-0.543295 0.0801,-0.667544 0.05868,-0.09438 0.123307,-0.145135 0.222743,-0.174926 0.07704,-0.02308 0.14007,-0.05306 0.14007,-0.06662 0,-0.01356 -0.04715,-0.08972 -0.10475,-0.169253 -0.0722,-0.09968 -0.179954,-0.181616 -0.346802,-0.26373 -0.206544,-0.101649 -0.278759,-0.118896 -0.492203,-0.117555 -0.207387,0.0013 -0.282798,0.01938 -0.441131,0.105782 -0.231864,0.126517 -0.404114,0.320597 -0.537324,0.605426 -0.190863,0.408086 -0.318139,1.204075 -0.347605,2.173975 -0.03862,1.271638 0.173063,2.097811 0.662379,2.584952 0.292113,0.290819 0.483442,0.373513 0.859019,0.371276 0.285654,-0.0017 0.327179,-0.01245 0.728081,-0.188486 0.23383,-0.102676 0.447574,-0.182052 0.474992,-0.176391 0.07678,0.01585 -0.128607,0.277102 -0.339668,0.432037 -0.630285,0.462671 -1.27917,0.478045 -2.047259,0.04851 -0.702731,-0.392989 -1.448646,-1.724758 -1.721897,-3.074291 -0.07357,-0.363347 -0.08792,-0.53599 -0.08792,-1.05767 0,-0.719581 0.0517,-1.081535 0.231117,-1.618247 0.388163,-1.161128 1.231142,-2.208702 2.143927,-2.664262 0.852673,-0.425557 1.647364,-0.262728 2.670406,0.547159 0.1747,0.138299 0.35188,0.251452 0.39375,0.251452 0.0419,0 0.0948,0.02249 0.11759,0.04999 0.11143,0.134258 0.78217,0.120935 0.96104,-0.01909 0.0468,-0.0366 0.11162,-0.06654 0.14416,-0.06654 0.0325,0 0.18675,-0.114179 0.34267,-0.25373 0.82225,-0.735901 1.68861,-1.056881 2.33474,-0.865001 0.27274,0.08099 0.76162,0.333376 1.0154,0.524192 0.51508,0.387297 1.10639,1.131873 1.38581,1.745022 0.14501,0.318203 0.31275,0.827986 0.40127,1.219507 0.0528,0.233735 0.0643,0.442452 0.0636,1.158266 -10e-4,0.768803 -0.0103,0.914952 -0.0795,1.222903 -0.21535,0.958191 -0.64851,1.897976 -1.14322,2.480331 -0.21628,0.254609 -0.62146,0.515221 -0.97433,0.626692 -0.67541,0.213363 -1.34153,0.04261 -1.80802,-0.463471 -0.14659,-0.159029 -0.17991,-0.231283 -0.10665,-0.231283 0.0216,0 0.23415,0.08344 0.47222,0.185414 0.398811,0.170834 0.455301,0.185546 0.71847,0.187103 0.25273,0.0015 0.31308,-0.0118 0.523801,-0.115444 0.82148,-0.404028 1.146719,-1.715858 0.90062,-3.632632 -0.16659,-1.297513 -0.3924,-1.817316 -0.896641,-2.06402 -0.35104,-0.171747 -0.806819,-0.109472 -1.112259,0.151971 -0.12231,0.10469 -0.253551,0.282859 -0.253551,0.344203 0,0.0077 0.0633,0.03293 0.14076,0.05612 0.216641,0.0649 0.291429,0.19963 0.334299,0.602185 0.0655,0.615019 -0.0495,1.288411 -0.277479,1.624293 l -0.0844,0.124383 0.103789,0.04299 c 0.0571,0.02364 0.10379,0.06989 0.10379,0.102769 0,0.03288 -0.13674,0.168488 -0.30385,0.301358 -0.16713,0.13287 -0.36952,0.32855 -0.44977,0.434844 -0.0802,0.106294 -0.16003,0.193263 -0.17728,0.193263 -0.0172,0 -0.0314,0.109698 -0.0314,0.243772 0,0.134074 -0.0321,0.369184 -0.0713,0.522465 -0.0504,0.197099 -0.0713,0.395351 -0.0713,0.677149 0,0.371212 -0.007,0.413049 -0.10666,0.611909 -0.0587,0.1174 -0.184,0.292853 -0.27853,0.389895 -0.2098,0.215396 -0.37736,0.595156 -0.47354,1.073295 -0.0665,0.330597 -0.16697,0.525901 -0.42571,0.827561 -0.10531,0.122789 -0.14899,0.04365 -0.12957,-0.234785 0.008,-0.12038 0.005,-0.232646 -0.007,-0.249475 -0.0326,-0.04467 -0.18211,-0.04289 -0.18604,0.002 -0.002,0.02114 -0.006,0.149293 -0.009,0.284745 -0.003,0.135451 -0.0216,0.250476 -0.0412,0.255613 -0.0196,0.0051 -0.0781,-0.04192 -0.13009,-0.104532 z m -0.34721,-2.266879 c -0.0439,-0.196291 -0.118749,-0.453026 -0.16649,-0.570526 -0.0857,-0.211012 -0.107309,-0.369641 -0.0652,-0.479434 0.0237,-0.06186 0.36057,-0.34148 0.41136,-0.34148 0.0174,0 0.0214,0.04074 0.009,0.09053 -0.0152,0.0608 -0.002,0.112587 0.0381,0.15769 0.0382,0.04214 0.0567,0.111307 0.0499,0.185669 -0.006,0.06518 0.0262,0.275743 0.0716,0.467915 0.15992,0.678235 0.37551,0.690763 0.52731,0.03064 0.03,-0.13062 0.0589,-0.322761 0.064,-0.426981 0.005,-0.104219 0.0276,-0.207661 0.0498,-0.229871 0.0222,-0.02221 0.0404,-0.0933 0.0404,-0.157989 0,-0.06468 0.0164,-0.117609 0.0364,-0.117609 0.02,0 0.12426,0.08511 0.23165,0.189122 0.227869,0.220708 0.238209,0.278995 0.10762,0.606676 -0.15069,0.378084 -0.28041,1.021789 -0.20591,1.021789 0.0635,0 0.346629,-0.418962 0.48848,-0.722772 0.244,-0.522589 0.247589,-0.550087 0.121459,-0.929731 -0.12753,-0.383869 -0.16128,-0.617812 -0.11024,-0.764214 0.0366,-0.104972 0.0325,-0.10995 -0.280529,-0.343724 -0.206511,-0.154218 -0.317651,-0.261075 -0.317651,-0.305424 0,-0.06356 0.009,-0.06221 0.12971,0.01981 0.0713,0.04841 0.14216,0.08802 0.15738,0.08802 0.0152,0 0.0805,-0.06816 0.14502,-0.151465 0.7477,-0.965093 0.99402,-1.213957 1.24782,-1.260703 0.28273,-0.05208 0.43168,-0.2588 0.43168,-0.599148 0,-0.414222 -0.16112,-0.734908 -0.44095,-0.877667 -0.1207,-0.06158 -0.13277,-0.07869 -0.0964,-0.136854 0.0483,-0.0774 0.10027,-0.0019 -0.58146,-0.845287 -0.4405,-0.544966 -0.59049,-0.708224 -0.89461,-0.97376 -0.10634,-0.09285 -0.1747,-0.07718 -0.0943,0.02162 0.0444,0.05461 0.0422,0.05792 -0.0217,0.0316 -0.22567,-0.09306 -0.33679,-0.104923 -0.45495,-0.04857 -0.1053,0.05022 -0.12957,0.05063 -0.21897,0.0038 -0.0979,-0.05132 -0.22697,-0.03853 -0.41938,0.04157 -0.0485,0.02019 -0.056,0.0092 -0.04,-0.05812 0.0308,-0.12932 -0.48915,0.395815 -0.74706,0.754512 -0.1198,0.166612 -0.324565,0.439606 -0.455042,0.606654 -0.266803,0.341594 -0.32726,0.441001 -0.31226,0.513421 0.0057,0.02756 -0.05734,0.09933 -0.140116,0.159494 -0.386161,0.280694 -0.476059,1.011377 -0.159669,1.29771 0.03923,0.03551 0.154009,0.08637 0.255045,0.113023 0.106026,0.02797 0.252392,0.104748 0.346161,0.181584 0.170569,0.139771 0.587991,0.614879 0.878151,0.999518 0.0942,0.124891 0.18419,0.227075 0.19995,0.227075 0.0158,0 0.087,-0.03961 0.15836,-0.08802 0.12386,-0.08405 0.12971,-0.08482 0.12971,-0.01701 0,0.04785 -0.0978,0.142825 -0.29965,0.291115 l -0.29964,0.220097 0.0182,0.251306 c 0.0155,0.214616 0.002,0.301272 -0.0924,0.59356 -0.0608,0.188241 -0.11055,0.369312 -0.11055,0.402379 0,0.132577 0.33532,0.840598 0.50614,1.068689 0.2415,0.322474 0.27995,0.280628 0.17482,-0.190231 z"
     id="path2639-6-9" />
  <path
     style="display:inline;fill:#000000;stroke-width:0.035639"
     d="m 16.784577,41.753107 c -0.21658,-0.261127 -0.323229,-0.481669 -0.387239,-0.800702 -0.091,-0.453754 -0.27331,-0.853936 -0.48597,-1.066884 -0.095,-0.09516 -0.21498,-0.260356 -0.26654,-0.367104 -0.08192,-0.169587 -0.09612,-0.252566 -0.112481,-0.657392 -0.01199,-0.29672 -0.04207,-0.540191 -0.08367,-0.677139 -0.03572,-0.117609 -0.0653,-0.319572 -0.06572,-0.448806 -5.09e-4,-0.190063 -0.0155,-0.251367 -0.0779,-0.320751 -0.04243,-0.04718 -0.138653,-0.156575 -0.213836,-0.243103 -0.07518,-0.08653 -0.256975,-0.252272 -0.403986,-0.36832 -0.147012,-0.116048 -0.279526,-0.232639 -0.294481,-0.259091 -0.02957,-0.05235 0.094,-0.159696 0.183887,-0.159696 0.03877,0 0.03333,-0.02007 -0.02175,-0.08019 -0.235482,-0.257018 -0.342813,-0.690656 -0.346228,-1.398828 -0.0025,-0.499562 0.003,-0.543295 0.0801,-0.667544 0.05868,-0.09438 0.123307,-0.145135 0.222743,-0.174926 0.07704,-0.02308 0.14007,-0.05306 0.14007,-0.06662 0,-0.01356 -0.04715,-0.08972 -0.10475,-0.169253 -0.0722,-0.09968 -0.179954,-0.181616 -0.346802,-0.26373 -0.206544,-0.101649 -0.278759,-0.118896 -0.492203,-0.117555 -0.207387,0.0013 -0.282798,0.01938 -0.441131,0.105782 -0.231864,0.126517 -0.404114,0.320597 -0.537324,0.605426 -0.190863,0.408086 -0.318139,1.204075 -0.347605,2.173975 -0.03862,1.271638 0.173063,2.097811 0.662379,2.584952 0.292113,0.290819 0.483442,0.373513 0.859019,0.371276 0.285654,-0.0017 0.327179,-0.01245 0.728081,-0.188486 0.23383,-0.102676 0.447574,-0.182052 0.474992,-0.176391 0.07678,0.01585 -0.128607,0.277102 -0.339668,0.432037 -0.630285,0.462671 -1.27917,0.478045 -2.047259,0.04851 -0.702731,-0.392989 -1.448646,-1.724758 -1.721897,-3.074291 -0.07357,-0.363347 -0.08792,-0.53599 -0.08792,-1.05767 0,-0.719581 0.0517,-1.081535 0.231117,-1.618247 0.388163,-1.161128 1.231142,-2.208702 2.143927,-2.664262 0.852673,-0.425557 1.647364,-0.262728 2.670406,0.547159 0.1747,0.138299 0.35188,0.251452 0.39375,0.251452 0.0419,0 0.0948,0.02249 0.11759,0.04999 0.11143,0.134258 0.78217,0.120935 0.96104,-0.01909 0.0468,-0.0366 0.11162,-0.06654 0.14416,-0.06654 0.0325,0 0.18675,-0.114179 0.34267,-0.25373 0.82225,-0.735901 1.68861,-1.056881 2.33474,-0.865001 0.27274,0.08099 0.76162,0.333376 1.0154,0.524192 0.51508,0.387297 1.10639,1.131873 1.38581,1.745022 0.14501,0.318203 0.31275,0.827986 0.40127,1.219507 0.0528,0.233735 0.0643,0.442452 0.0636,1.158266 -0.001,0.768803 -0.0103,0.914952 -0.0795,1.222903 -0.21535,0.958191 -0.64851,1.897976 -1.14322,2.480331 -0.21628,0.254609 -0.62146,0.515221 -0.97433,0.626692 -0.67541,0.213363 -1.34153,0.04261 -1.80802,-0.463471 -0.14659,-0.159029 -0.17991,-0.231283 -0.10665,-0.231283 0.0216,0 0.23415,0.08344 0.47222,0.185414 0.398811,0.170834 0.455301,0.185546 0.71847,0.187103 0.25273,0.0015 0.31308,-0.0118 0.523801,-0.115444 0.82148,-0.404028 1.146719,-1.715858 0.90062,-3.632632 -0.16659,-1.297513 -0.3924,-1.817316 -0.896641,-2.06402 -0.35104,-0.171747 -0.806819,-0.109472 -1.112259,0.151971 -0.12231,0.10469 -0.253551,0.282859 -0.253551,0.344203 0,0.0077 0.0633,0.03293 0.14076,0.05612 0.216641,0.0649 0.291429,0.19963 0.334299,0.602185 0.0655,0.615019 -0.0495,1.288411 -0.277479,1.624293 l -0.0844,0.124383 0.103789,0.04299 c 0.0571,0.02364 0.10379,0.06989 0.10379,0.102769 0,0.03288 -0.13674,0.168488 -0.30385,0.301358 -0.16713,0.13287 -0.36952,0.32855 -0.44977,0.434844 -0.0802,0.106294 -0.16003,0.193263 -0.17728,0.193263 -0.0172,0 -0.0314,0.109698 -0.0314,0.243772 0,0.134074 -0.0321,0.369184 -0.0713,0.522465 -0.0504,0.197099 -0.0713,0.395351 -0.0713,0.677149 0,0.371212 -0.007,0.413049 -0.10666,0.611909 -0.0587,0.1174 -0.184,0.292853 -0.27853,0.389895 -0.2098,0.215396 -0.37736,0.595156 -0.47354,1.073295 -0.0665,0.330597 -0.16697,0.525901 -0.42571,0.827561 -0.10531,0.122789 -0.14899,0.04365 -0.12957,-0.234785 0.008,-0.12038 0.005,-0.232646 -0.007,-0.249475 -0.0326,-0.04467 -0.18211,-0.04289 -0.18604,0.002 -0.002,0.02114 -0.006,0.149293 -0.009,0.284745 -0.003,0.135451 -0.0216,0.250476 -0.0412,0.255613 -0.0196,0.0051 -0.0781,-0.04192 -0.13009,-0.104532 z m -0.34721,-2.266879 c -0.0439,-0.196291 -0.118749,-0.453026 -0.16649,-0.570526 -0.0857,-0.211012 -0.107309,-0.369641 -0.0652,-0.479434 0.0237,-0.06186 0.36057,-0.34148 0.41136,-0.34148 0.0174,0 0.0214,0.04074 0.009,0.09053 -0.0152,0.0608 -0.002,0.112587 0.0381,0.15769 0.0382,0.04214 0.0567,0.111307 0.0499,0.185669 -0.006,0.06518 0.0262,0.275743 0.0716,0.467915 0.15992,0.678235 0.37551,0.690763 0.52731,0.03064 0.03,-0.13062 0.0589,-0.322761 0.064,-0.426981 0.005,-0.104219 0.0276,-0.207661 0.0498,-0.229871 0.0222,-0.02221 0.0404,-0.0933 0.0404,-0.157989 0,-0.06468 0.0164,-0.117609 0.0364,-0.117609 0.02,0 0.12426,0.08511 0.23165,0.189122 0.227869,0.220708 0.238209,0.278995 0.10762,0.606676 -0.15069,0.378084 -0.28041,1.021789 -0.20591,1.021789 0.0635,0 0.34663,-0.418962 0.48848,-0.722772 0.244,-0.522589 0.247589,-0.550087 0.121459,-0.929731 -0.12753,-0.383869 -0.16128,-0.617812 -0.11024,-0.764214 0.0366,-0.104972 0.0325,-0.10995 -0.280529,-0.343724 -0.206511,-0.154218 -0.317651,-0.261075 -0.317651,-0.305424 0,-0.06356 0.009,-0.06221 0.12971,0.01981 0.0713,0.04841 0.14216,0.08802 0.15738,0.08802 0.0152,0 0.0805,-0.06816 0.14502,-0.151465 0.7477,-0.965093 0.99402,-1.213957 1.24782,-1.260703 0.28273,-0.05208 0.43168,-0.2588 0.43168,-0.599148 0,-0.414222 -0.16112,-0.734908 -0.44095,-0.877667 -0.1207,-0.06158 -0.13277,-0.07869 -0.0964,-0.136854 0.0483,-0.0774 0.10027,-0.0019 -0.58146,-0.845287 -0.4405,-0.544966 -0.59049,-0.708224 -0.89461,-0.97376 -0.10634,-0.09285 -0.1747,-0.07718 -0.0943,0.02162 0.0444,0.05461 0.0422,0.05792 -0.0217,0.0316 -0.22567,-0.09306 -0.33679,-0.104923 -0.45495,-0.04857 -0.1053,0.05022 -0.12957,0.05063 -0.21897,0.0038 -0.0979,-0.05132 -0.22697,-0.03853 -0.41938,0.04157 -0.0485,0.02019 -0.056,0.0092 -0.04,-0.05812 0.0308,-0.12932 -0.48915,0.395815 -0.74706,0.754512 -0.1198,0.166612 -0.324565,0.439606 -0.455042,0.606654 -0.266803,0.341594 -0.32726,0.441001 -0.31226,0.513421 0.0057,0.02756 -0.05734,0.09933 -0.140116,0.159494 -0.386161,0.280694 -0.476059,1.011377 -0.159669,1.29771 0.03923,0.03551 0.154009,0.08637 0.255045,0.113023 0.106026,0.02797 0.252392,0.104748 0.346161,0.181584 0.170569,0.139771 0.587991,0.614879 0.878151,0.999518 0.0942,0.124891 0.18419,0.227075 0.19995,0.227075 0.0158,0 0.087,-0.03961 0.15836,-0.08802 0.12386,-0.08405 0.12971,-0.08482 0.12971,-0.01701 0,0.04785 -0.0978,0.142825 -0.29965,0.291115 l -0.29964,0.220097 0.0182,0.251306 c 0.0155,0.214616 0.002,0.301272 -0.0924,0.59356 -0.0608,0.188241 -0.11055,0.369312 -0.11055,0.402379 0,0.132577 0.33532,0.840598 0.50614,1.068689 0.2415,0.322474 0.27995,0.280628 0.17482,-0.190231 z"
     id="path2639-6-9-1" />
  <path
     style="display:inline;fill:#000000;stroke-width:0.035639"
     d="m 16.784577,59.201663 c -0.21658,-0.261127 -0.323229,-0.481669 -0.387239,-0.800702 -0.091,-0.453754 -0.27331,-0.853936 -0.485969,-1.066884 -0.095,-0.09516 -0.21498,-0.260356 -0.26654,-0.367104 -0.08192,-0.169587 -0.09612,-0.252566 -0.112481,-0.657392 -0.01199,-0.29672 -0.04207,-0.540191 -0.08367,-0.677139 -0.03572,-0.117609 -0.0653,-0.319572 -0.06572,-0.448806 -5.09e-4,-0.190063 -0.0155,-0.251367 -0.0779,-0.320751 -0.04243,-0.04718 -0.138653,-0.156575 -0.213836,-0.243103 -0.07518,-0.08653 -0.256975,-0.252272 -0.403986,-0.36832 -0.147012,-0.116048 -0.279526,-0.232639 -0.294481,-0.259091 -0.02957,-0.05235 0.094,-0.159696 0.183887,-0.159696 0.03877,0 0.03333,-0.02007 -0.02175,-0.08019 -0.235482,-0.257018 -0.342813,-0.690656 -0.346228,-1.398828 -0.0025,-0.499562 0.003,-0.543295 0.0801,-0.667544 0.05868,-0.09438 0.123307,-0.145135 0.222743,-0.174926 0.07704,-0.02308 0.14007,-0.05306 0.14007,-0.06662 0,-0.01356 -0.04715,-0.08972 -0.10475,-0.169253 -0.0722,-0.09968 -0.179954,-0.181616 -0.346802,-0.26373 -0.206544,-0.101649 -0.278759,-0.118896 -0.492203,-0.117555 -0.207387,0.0013 -0.282798,0.01938 -0.441131,0.105782 -0.231864,0.126517 -0.404114,0.320597 -0.537324,0.605426 -0.190863,0.408086 -0.318139,1.204075 -0.347605,2.173975 -0.03862,1.271638 0.173063,2.097811 0.662379,2.584952 0.292113,0.290819 0.483442,0.373513 0.859019,0.371276 0.285654,-0.0017 0.327179,-0.01245 0.728081,-0.188486 0.23383,-0.102676 0.447574,-0.182052 0.474992,-0.176391 0.07678,0.01585 -0.128607,0.277102 -0.339668,0.432037 -0.630285,0.462671 -1.27917,0.478045 -2.047259,0.04851 -0.702731,-0.392989 -1.448646,-1.724758 -1.721897,-3.074291 -0.07357,-0.363347 -0.08792,-0.53599 -0.08792,-1.05767 0,-0.719581 0.0517,-1.081535 0.231117,-1.618247 0.388163,-1.161128 1.231142,-2.208702 2.143926,-2.664262 0.852673,-0.425557 1.647364,-0.262728 2.670406,0.547159 0.1747,0.138299 0.35188,0.251452 0.39375,0.251452 0.0419,0 0.0948,0.02249 0.11759,0.04999 0.11143,0.134258 0.78217,0.120935 0.96104,-0.01909 0.0468,-0.0366 0.11162,-0.06654 0.14416,-0.06654 0.0325,0 0.18675,-0.114179 0.34267,-0.25373 0.82225,-0.735901 1.68861,-1.056881 2.33474,-0.865001 0.27274,0.08099 0.76162,0.333376 1.0154,0.524192 0.51508,0.387297 1.10639,1.131873 1.38581,1.745022 0.14501,0.318203 0.31275,0.827986 0.40127,1.219507 0.0528,0.233735 0.0643,0.442452 0.0636,1.158266 -0.001,0.768803 -0.0103,0.914952 -0.0795,1.222903 -0.21535,0.958191 -0.64851,1.897976 -1.14322,2.480331 -0.21628,0.254609 -0.62146,0.515221 -0.97433,0.626692 -0.67541,0.213363 -1.34153,0.04261 -1.80802,-0.463471 -0.14659,-0.159029 -0.17991,-0.231283 -0.106649,-0.231283 0.0216,0 0.234149,0.08344 0.47222,0.185414 0.39881,0.170834 0.4553,0.185546 0.71847,0.187103 0.252729,0.0015 0.313079,-0.0118 0.5238,-0.115444 0.821481,-0.404028 1.14672,-1.715858 0.90062,-3.632632 -0.16659,-1.297513 -0.392399,-1.817316 -0.89664,-2.06402 -0.351041,-0.171747 -0.80682,-0.109472 -1.11226,0.151971 -0.12231,0.10469 -0.253551,0.282859 -0.253551,0.344203 0,0.0077 0.0633,0.03293 0.14076,0.05612 0.216641,0.0649 0.29143,0.19963 0.3343,0.602185 0.0655,0.615019 -0.0495,1.288411 -0.27748,1.624293 l -0.0844,0.124383 0.10379,0.04299 c 0.0571,0.02364 0.10379,0.06989 0.10379,0.102769 0,0.03288 -0.13674,0.168488 -0.30385,0.301358 -0.16713,0.13287 -0.36952,0.32855 -0.44977,0.434844 -0.0802,0.106294 -0.16003,0.193263 -0.17728,0.193263 -0.0172,0 -0.0314,0.109698 -0.0314,0.243772 0,0.134074 -0.0321,0.369184 -0.0713,0.522465 -0.0504,0.197099 -0.0713,0.395351 -0.0713,0.677149 0,0.371212 -0.007,0.413049 -0.10666,0.611909 -0.0587,0.1174 -0.184,0.292853 -0.27853,0.389895 -0.2098,0.215396 -0.37736,0.595156 -0.47354,1.073295 -0.0665,0.330597 -0.16697,0.525901 -0.42571,0.827561 -0.10531,0.122789 -0.14899,0.04365 -0.12957,-0.234785 0.008,-0.12038 0.005,-0.232646 -0.007,-0.249475 -0.0326,-0.04467 -0.18211,-0.04289 -0.18604,0.002 -0.002,0.02114 -0.006,0.149293 -0.009,0.284745 -0.003,0.135451 -0.0216,0.250476 -0.0412,0.255613 -0.0196,0.0051 -0.0781,-0.04192 -0.13009,-0.104532 z m -0.34721,-2.266879 c -0.0439,-0.196291 -0.118749,-0.453026 -0.16649,-0.570526 -0.0857,-0.211012 -0.107309,-0.369641 -0.0652,-0.479434 0.0237,-0.06186 0.36057,-0.34148 0.41136,-0.34148 0.0174,0 0.0214,0.04074 0.009,0.09053 -0.0152,0.0608 -0.002,0.112587 0.0381,0.15769 0.0382,0.04214 0.0567,0.111307 0.0499,0.185669 -0.006,0.06518 0.0262,0.275743 0.0716,0.467915 0.15992,0.678235 0.37551,0.690763 0.52731,0.03064 0.03,-0.13062 0.0589,-0.322761 0.064,-0.426981 0.005,-0.104219 0.0276,-0.207661 0.0498,-0.229871 0.0222,-0.02221 0.0404,-0.0933 0.0404,-0.157989 0,-0.06468 0.0164,-0.117609 0.0364,-0.117609 0.02,0 0.12426,0.08511 0.23165,0.189122 0.227869,0.220708 0.238209,0.278995 0.10762,0.606676 -0.15069,0.378084 -0.28041,1.021789 -0.20591,1.021789 0.0635,0 0.34663,-0.418962 0.48848,-0.722772 0.244,-0.522589 0.247589,-0.550087 0.121459,-0.929731 -0.12753,-0.383869 -0.16128,-0.617812 -0.11024,-0.764214 0.0366,-0.104972 0.0325,-0.10995 -0.280529,-0.343724 -0.206511,-0.154218 -0.317651,-0.261075 -0.317651,-0.305424 0,-0.06356 0.009,-0.06221 0.12971,0.01981 0.0713,0.04841 0.14216,0.08802 0.15738,0.08802 0.0152,0 0.0805,-0.06816 0.14502,-0.151465 0.7477,-0.965093 0.99402,-1.213957 1.24782,-1.260703 0.28273,-0.05208 0.43168,-0.2588 0.43168,-0.599148 0,-0.414222 -0.16112,-0.734908 -0.44095,-0.877667 -0.1207,-0.06158 -0.13277,-0.07869 -0.0964,-0.136854 0.0483,-0.0774 0.10027,-0.0019 -0.58146,-0.845287 -0.4405,-0.544966 -0.59049,-0.708224 -0.89461,-0.97376 -0.10634,-0.09285 -0.1747,-0.07718 -0.0943,0.02162 0.0444,0.05461 0.0422,0.05792 -0.0217,0.0316 -0.22567,-0.09306 -0.33679,-0.104923 -0.45495,-0.04857 -0.1053,0.05022 -0.12957,0.05063 -0.21897,0.0038 -0.0979,-0.05132 -0.22697,-0.03853 -0.41938,0.04157 -0.0485,0.02019 -0.056,0.0092 -0.04,-0.05812 0.0308,-0.12932 -0.489149,0.395815 -0.74706,0.754512 -0.1198,0.166612 -0.324565,0.439606 -0.455042,0.606654 -0.266803,0.341594 -0.32726,0.441001 -0.31226,0.513421 0.0057,0.02756 -0.05734,0.09933 -0.140116,0.159494 -0.386161,0.280694 -0.476059,1.011377 -0.159669,1.29771 0.03923,0.03551 0.154009,0.08637 0.255045,0.113023 0.106026,0.02797 0.252392,0.104748 0.346161,0.181584 0.17057,0.139771 0.587992,0.614879 0.878151,0.999518 0.0942,0.124891 0.18419,0.227075 0.19995,0.227075 0.0158,0 0.087,-0.03961 0.15836,-0.08802 0.12386,-0.08405 0.12971,-0.08482 0.12971,-0.01701 0,0.04785 -0.0978,0.142825 -0.29965,0.291115 l -0.29964,0.220097 0.0182,0.251306 c 0.0155,0.214616 0.002,0.301272 -0.0924,0.59356 -0.0608,0.188241 -0.11055,0.369312 -0.11055,0.402379 0,0.132577 0.33532,0.840598 0.50614,1.068689 0.2415,0.322474 0.27995,0.280628 0.17482,-0.190231 z"
     id="path2639-6-56" />
  <path
     style="display:inline;fill:#000000;stroke-width:0.035639"
     d="m 46.824633,58.496109 c -0.21658,-0.261127 -0.32323,-0.481669 -0.38724,-0.800702 -0.091,-0.453754 -0.27331,-0.853936 -0.48597,-1.066884 -0.095,-0.09516 -0.21498,-0.260356 -0.26654,-0.367104 -0.08192,-0.169587 -0.09612,-0.252566 -0.112481,-0.657392 -0.01199,-0.29672 -0.04207,-0.540191 -0.08367,-0.677139 -0.03572,-0.117609 -0.0653,-0.319572 -0.06572,-0.448806 -5.09e-4,-0.190063 -0.0155,-0.251367 -0.0779,-0.320751 -0.04243,-0.04718 -0.138653,-0.156575 -0.213836,-0.243103 -0.07518,-0.08653 -0.256975,-0.252272 -0.403986,-0.36832 -0.147012,-0.116048 -0.279526,-0.232639 -0.294481,-0.259091 -0.02957,-0.05235 0.094,-0.159696 0.183887,-0.159696 0.03877,0 0.03333,-0.02007 -0.02175,-0.08019 -0.235482,-0.257018 -0.342813,-0.690656 -0.346228,-1.398828 -0.0025,-0.499562 0.003,-0.543295 0.0801,-0.667544 0.05868,-0.09438 0.123307,-0.145135 0.222743,-0.174926 0.07704,-0.02308 0.14007,-0.05306 0.14007,-0.06662 0,-0.01356 -0.04715,-0.08972 -0.10475,-0.169253 -0.0722,-0.09968 -0.179954,-0.181616 -0.346802,-0.26373 -0.206544,-0.101649 -0.278759,-0.118896 -0.492203,-0.117555 -0.207387,0.0013 -0.282798,0.01938 -0.441131,0.105782 -0.231863,0.126517 -0.404114,0.320597 -0.537324,0.605426 -0.190863,0.408086 -0.318139,1.204075 -0.347605,2.173975 -0.03862,1.271638 0.173063,2.097811 0.662379,2.584952 0.292113,0.290819 0.483443,0.373513 0.85902,0.371276 0.285654,-0.0017 0.327179,-0.01245 0.728081,-0.188486 0.23383,-0.102676 0.447574,-0.182052 0.474992,-0.176391 0.07678,0.01585 -0.128607,0.277102 -0.339668,0.432037 -0.630286,0.462671 -1.27917,0.478045 -2.04726,0.04851 -0.70273,-0.392989 -1.448646,-1.724758 -1.721897,-3.074291 -0.07357,-0.363347 -0.08792,-0.53599 -0.08792,-1.05767 0,-0.719581 0.0517,-1.081535 0.231117,-1.618247 0.388163,-1.161128 1.231142,-2.208702 2.143927,-2.664262 0.852673,-0.425557 1.647364,-0.262728 2.670406,0.547159 0.1747,0.138299 0.35188,0.251452 0.39375,0.251452 0.0419,0 0.0948,0.02249 0.11759,0.04999 0.11143,0.134258 0.78217,0.120935 0.96104,-0.01909 0.0468,-0.0366 0.11162,-0.06654 0.14416,-0.06654 0.0325,0 0.18675,-0.114179 0.34267,-0.25373 0.82225,-0.735901 1.68861,-1.056881 2.33474,-0.865001 0.27274,0.08099 0.76162,0.333376 1.0154,0.524192 0.51508,0.387297 1.10639,1.131873 1.38581,1.745022 0.14501,0.318203 0.31275,0.827986 0.40127,1.219507 0.0528,0.233735 0.0643,0.442452 0.0636,1.158266 -10e-4,0.768803 -0.0103,0.914952 -0.0795,1.222903 -0.21535,0.958191 -0.64851,1.897976 -1.14322,2.480331 -0.21628,0.254609 -0.62146,0.515221 -0.97433,0.626692 -0.67541,0.213363 -1.34153,0.04261 -1.80802,-0.463471 -0.14659,-0.159029 -0.17991,-0.231283 -0.10665,-0.231283 0.0216,0 0.23415,0.08344 0.47222,0.185414 0.39881,0.170834 0.4553,0.185546 0.71847,0.187103 0.25273,0.0015 0.31308,-0.0118 0.5238,-0.115444 0.82148,-0.404028 1.14672,-1.715858 0.90062,-3.632632 -0.16659,-1.297513 -0.3924,-1.817316 -0.89664,-2.06402 -0.35104,-0.171747 -0.80682,-0.109472 -1.11226,0.151971 -0.12231,0.10469 -0.25355,0.282859 -0.25355,0.344203 0,0.0077 0.0633,0.03293 0.14076,0.05612 0.21664,0.0649 0.29143,0.19963 0.3343,0.602185 0.0655,0.615019 -0.0495,1.288411 -0.27748,1.624293 l -0.0844,0.124383 0.10379,0.04299 c 0.0571,0.02364 0.10379,0.06989 0.10379,0.102769 0,0.03288 -0.13674,0.168488 -0.30385,0.301358 -0.16713,0.13287 -0.36952,0.32855 -0.44977,0.434844 -0.0802,0.106294 -0.16003,0.193263 -0.17728,0.193263 -0.0172,0 -0.0314,0.109698 -0.0314,0.243772 0,0.134074 -0.0321,0.369184 -0.0713,0.522465 -0.0504,0.197099 -0.0713,0.395351 -0.0713,0.677149 0,0.371212 -0.007,0.413049 -0.10666,0.611909 -0.0587,0.1174 -0.184,0.292853 -0.27853,0.389895 -0.2098,0.215396 -0.37736,0.595156 -0.47354,1.073295 -0.0665,0.330597 -0.16697,0.525901 -0.42571,0.827561 -0.10531,0.122789 -0.14899,0.04365 -0.12957,-0.234785 0.008,-0.12038 0.005,-0.232646 -0.007,-0.249475 -0.0326,-0.04467 -0.18211,-0.04289 -0.18604,0.002 -0.002,0.02114 -0.006,0.149293 -0.009,0.284745 -0.003,0.135451 -0.0216,0.250476 -0.0412,0.255613 -0.0196,0.0051 -0.0781,-0.04192 -0.13009,-0.104532 z m -0.34721,-2.266879 c -0.0439,-0.196291 -0.11875,-0.453026 -0.16649,-0.570526 -0.0857,-0.211012 -0.10731,-0.369641 -0.0652,-0.479434 0.0237,-0.06186 0.36057,-0.34148 0.41136,-0.34148 0.0174,0 0.0214,0.04074 0.009,0.09053 -0.0152,0.0608 -0.002,0.112587 0.0381,0.15769 0.0382,0.04214 0.0567,0.111307 0.0499,0.185669 -0.006,0.06518 0.0262,0.275743 0.0716,0.467915 0.15992,0.678235 0.37551,0.690763 0.52731,0.03064 0.03,-0.13062 0.0589,-0.322761 0.064,-0.426981 0.005,-0.104219 0.0276,-0.207661 0.0498,-0.229871 0.0222,-0.02221 0.0404,-0.0933 0.0404,-0.157989 0,-0.06468 0.0164,-0.117609 0.0364,-0.117609 0.02,0 0.12426,0.08511 0.23165,0.189122 0.22787,0.220708 0.23821,0.278995 0.10762,0.606676 -0.15069,0.378084 -0.28041,1.021789 -0.20591,1.021789 0.0635,0 0.34663,-0.418962 0.48848,-0.722772 0.244,-0.522589 0.24759,-0.550087 0.12146,-0.929731 -0.12753,-0.383869 -0.16128,-0.617812 -0.11024,-0.764214 0.0366,-0.104972 0.0325,-0.10995 -0.28053,-0.343724 -0.20651,-0.154218 -0.31765,-0.261075 -0.31765,-0.305424 0,-0.06356 0.009,-0.06221 0.12971,0.01981 0.0713,0.04841 0.14216,0.08802 0.15738,0.08802 0.0152,0 0.0805,-0.06816 0.14502,-0.151465 0.7477,-0.965093 0.99402,-1.213957 1.24782,-1.260703 0.28273,-0.05208 0.43168,-0.2588 0.43168,-0.599148 0,-0.414222 -0.16112,-0.734908 -0.44095,-0.877667 -0.1207,-0.06158 -0.13277,-0.07869 -0.0964,-0.136854 0.0483,-0.0774 0.10027,-0.0019 -0.58146,-0.845287 -0.4405,-0.544966 -0.59049,-0.708224 -0.89461,-0.97376 -0.10634,-0.09285 -0.1747,-0.07718 -0.0943,0.02162 0.0444,0.05461 0.0422,0.05792 -0.0217,0.0316 -0.22567,-0.09306 -0.33679,-0.104923 -0.45495,-0.04857 -0.1053,0.05022 -0.12957,0.05063 -0.21897,0.0038 -0.0979,-0.05132 -0.22697,-0.03853 -0.41938,0.04157 -0.0485,0.02019 -0.056,0.0092 -0.04,-0.05812 0.0308,-0.12932 -0.48915,0.395815 -0.74706,0.754512 -0.1198,0.166612 -0.324565,0.439606 -0.455042,0.606654 -0.266803,0.341594 -0.32726,0.441001 -0.31226,0.513421 0.0057,0.02756 -0.05734,0.09933 -0.140116,0.159494 -0.386161,0.280694 -0.476059,1.011377 -0.159669,1.29771 0.03923,0.03551 0.154009,0.08637 0.255045,0.113023 0.106026,0.02797 0.252392,0.104748 0.346161,0.181584 0.170569,0.139771 0.587991,0.614879 0.878151,0.999518 0.0942,0.124891 0.18419,0.227075 0.19995,0.227075 0.0158,0 0.087,-0.03961 0.15836,-0.08802 0.12386,-0.08405 0.12971,-0.08482 0.12971,-0.01701 0,0.04785 -0.0978,0.142825 -0.29965,0.291115 l -0.29964,0.220097 0.0182,0.251306 c 0.0155,0.214616 0.002,0.301272 -0.0924,0.59356 -0.0608,0.188241 -0.11055,0.369312 -0.11055,0.402379 0,0.132577 0.33532,0.840598 0.50614,1.068689 0.2415,0.322474 0.27995,0.280628 0.17482,-0.190231 z"
     id="path2639-6-56-2" />
  <path
     style="display:inline;fill:#000000;stroke-width:0.035639"
     d="m 46.824633,23.246216 c -0.21658,-0.261127 -0.32323,-0.481669 -0.38724,-0.800702 -0.091,-0.453754 -0.27331,-0.853936 -0.48597,-1.066884 -0.095,-0.09516 -0.21498,-0.260356 -0.26654,-0.367104 -0.08192,-0.169587 -0.09612,-0.252566 -0.112481,-0.657392 -0.01199,-0.29672 -0.04207,-0.540191 -0.08367,-0.677139 -0.03572,-0.117609 -0.0653,-0.319572 -0.06572,-0.448806 -5.09e-4,-0.190063 -0.0155,-0.251367 -0.0779,-0.320751 -0.04243,-0.04718 -0.138653,-0.156575 -0.213836,-0.243103 -0.07518,-0.08653 -0.256975,-0.252272 -0.403986,-0.36832 -0.147012,-0.116048 -0.279526,-0.232639 -0.294481,-0.259091 -0.02957,-0.05235 0.094,-0.159696 0.183887,-0.159696 0.03877,0 0.03333,-0.02007 -0.02175,-0.08019 -0.235482,-0.257018 -0.342813,-0.690656 -0.346228,-1.398828 -0.0025,-0.499562 0.003,-0.543295 0.0801,-0.667544 0.05868,-0.09438 0.123307,-0.145135 0.222743,-0.174926 0.07704,-0.02308 0.14007,-0.05306 0.14007,-0.06662 0,-0.01356 -0.04715,-0.08972 -0.10475,-0.169253 -0.0722,-0.09968 -0.179954,-0.181616 -0.346802,-0.26373 -0.206544,-0.101649 -0.278759,-0.118896 -0.492203,-0.117555 -0.207387,0.0013 -0.282798,0.01938 -0.441131,0.105782 -0.231863,0.126517 -0.404114,0.320597 -0.537324,0.605426 -0.190863,0.408086 -0.318139,1.204075 -0.347605,2.173975 -0.03862,1.271638 0.173063,2.097811 0.662379,2.584952 0.292113,0.290819 0.483443,0.373513 0.85902,0.371276 0.285654,-0.0017 0.327179,-0.01245 0.728081,-0.188486 0.23383,-0.102676 0.447574,-0.182052 0.474992,-0.176391 0.07678,0.01585 -0.128607,0.277102 -0.339668,0.432037 -0.630286,0.462671 -1.27917,0.478045 -2.04726,0.04851 -0.70273,-0.392989 -1.448646,-1.724758 -1.721897,-3.074291 -0.07357,-0.363347 -0.08792,-0.53599 -0.08792,-1.05767 0,-0.719581 0.0517,-1.081535 0.231117,-1.618247 0.388163,-1.161128 1.231142,-2.208702 2.143927,-2.664262 0.852673,-0.425557 1.647364,-0.262728 2.670406,0.547159 0.1747,0.138299 0.35188,0.251452 0.39375,0.251452 0.0419,0 0.0948,0.02249 0.11759,0.04999 0.11143,0.134258 0.78217,0.120935 0.96104,-0.01909 0.0468,-0.0366 0.11162,-0.06654 0.14416,-0.06654 0.0325,0 0.18675,-0.114179 0.34267,-0.25373 0.82225,-0.735901 1.68861,-1.056881 2.33474,-0.865001 0.27274,0.08099 0.76162,0.333376 1.0154,0.524192 0.51508,0.387297 1.10639,1.131873 1.38581,1.745022 0.14501,0.318203 0.31275,0.827986 0.40127,1.219507 0.0528,0.233735 0.0643,0.442452 0.0636,1.158266 -10e-4,0.768803 -0.0103,0.914952 -0.0795,1.222903 -0.21535,0.958191 -0.64851,1.897976 -1.14322,2.480331 -0.21628,0.254609 -0.62146,0.515221 -0.97433,0.626692 -0.67541,0.213363 -1.34153,0.04261 -1.80802,-0.463471 -0.14659,-0.159029 -0.17991,-0.231283 -0.10665,-0.231283 0.0216,0 0.23415,0.08344 0.47222,0.185414 0.39881,0.170834 0.4553,0.185546 0.71847,0.187103 0.25273,0.0015 0.31308,-0.0118 0.5238,-0.115444 0.82148,-0.404028 1.14672,-1.715858 0.90062,-3.632632 -0.16659,-1.297513 -0.3924,-1.817316 -0.89664,-2.06402 -0.35104,-0.171747 -0.80682,-0.109472 -1.11226,0.151971 -0.12231,0.10469 -0.25355,0.282859 -0.25355,0.344203 0,0.0077 0.0633,0.03293 0.14076,0.05612 0.21664,0.0649 0.29143,0.19963 0.3343,0.602185 0.0655,0.615019 -0.0495,1.288411 -0.27748,1.624293 l -0.0844,0.124383 0.10379,0.04299 c 0.0571,0.02364 0.10379,0.06989 0.10379,0.102769 0,0.03288 -0.13674,0.168488 -0.30385,0.301358 -0.16713,0.13287 -0.36952,0.32855 -0.44977,0.434844 -0.0802,0.106294 -0.16003,0.193263 -0.17728,0.193263 -0.0172,0 -0.0314,0.109698 -0.0314,0.243772 0,0.134074 -0.0321,0.369184 -0.0713,0.522465 -0.0504,0.197099 -0.0713,0.395351 -0.0713,0.677149 0,0.371212 -0.007,0.413049 -0.10666,0.611909 -0.0587,0.1174 -0.184,0.292853 -0.27853,0.389895 -0.2098,0.215396 -0.37736,0.595156 -0.47354,1.073295 -0.0665,0.330597 -0.16697,0.525901 -0.42571,0.827561 -0.10531,0.122789 -0.14899,0.04365 -0.12957,-0.234785 0.008,-0.12038 0.005,-0.232646 -0.007,-0.249475 -0.0326,-0.04467 -0.18211,-0.04289 -0.18604,0.002 -0.002,0.02114 -0.006,0.149293 -0.009,0.284745 -0.003,0.135451 -0.0216,0.250476 -0.0412,0.255613 -0.0196,0.0051 -0.0781,-0.04192 -0.13009,-0.104532 z m -0.34721,-2.266879 c -0.0439,-0.196291 -0.11875,-0.453026 -0.16649,-0.570526 -0.0857,-0.211012 -0.10731,-0.369641 -0.0652,-0.479434 0.0237,-0.06186 0.36057,-0.34148 0.41136,-0.34148 0.0174,0 0.0214,0.04074 0.009,0.09053 -0.0152,0.0608 -0.002,0.112587 0.0381,0.15769 0.0382,0.04214 0.0567,0.111307 0.0499,0.185669 -0.006,0.06518 0.0262,0.275743 0.0716,0.467915 0.15992,0.678235 0.37551,0.690763 0.52731,0.03064 0.03,-0.13062 0.0589,-0.322761 0.064,-0.426981 0.005,-0.104219 0.0276,-0.207661 0.0498,-0.229871 0.0222,-0.02221 0.0404,-0.0933 0.0404,-0.157989 0,-0.06468 0.0164,-0.117609 0.0364,-0.117609 0.02,0 0.12426,0.08511 0.23165,0.189122 0.22787,0.220708 0.23821,0.278995 0.10762,0.606676 -0.15069,0.378084 -0.28041,1.021789 -0.20591,1.021789 0.0635,0 0.34663,-0.418962 0.48848,-0.722772 0.244,-0.522589 0.24759,-0.550087 0.12146,-0.929731 -0.12753,-0.383869 -0.16128,-0.617812 -0.11024,-0.764214 0.0366,-0.104972 0.0325,-0.10995 -0.28053,-0.343724 -0.20651,-0.154218 -0.31765,-0.261075 -0.31765,-0.305424 0,-0.06356 0.009,-0.06221 0.12971,0.01981 0.0713,0.04841 0.14216,0.08802 0.15738,0.08802 0.0152,0 0.0805,-0.06816 0.14502,-0.151465 0.7477,-0.965093 0.99402,-1.213957 1.24782,-1.260703 0.28273,-0.05208 0.43168,-0.2588 0.43168,-0.599148 0,-0.414222 -0.16112,-0.734908 -0.44095,-0.877667 -0.1207,-0.06158 -0.13277,-0.07869 -0.0964,-0.136854 0.0483,-0.0774 0.10027,-0.0019 -0.58146,-0.845287 -0.4405,-0.544966 -0.59049,-0.708224 -0.89461,-0.97376 -0.10634,-0.09285 -0.1747,-0.07718 -0.0943,0.02162 0.0444,0.05461 0.0422,0.05792 -0.0217,0.0316 -0.22567,-0.09306 -0.33679,-0.104923 -0.45495,-0.04857 -0.1053,0.05022 -0.12957,0.05063 -0.21897,0.0038 -0.0979,-0.05132 -0.22697,-0.03853 -0.41938,0.04157 -0.0485,0.02019 -0.056,0.0092 -0.04,-0.05812 0.0308,-0.12932 -0.48915,0.395815 -0.74706,0.754512 -0.1198,0.166612 -0.324565,0.439606 -0.455042,0.606654 -0.266803,0.341594 -0.32726,0.441001 -0.31226,0.513421 0.0057,0.02756 -0.05734,0.09933 -0.140116,0.159494 -0.386161,0.280694 -0.476059,1.011377 -0.159669,1.29771 0.03923,0.03551 0.154009,0.08637 0.255045,0.113023 0.106026,0.02797 0.252392,0.104748 0.346161,0.181584 0.170569,0.139771 0.587991,0.614879 0.878151,0.999518 0.0942,0.124891 0.18419,0.227075 0.19995,0.227075 0.0158,0 0.087,-0.03961 0.15836,-0.08802 0.12386,-0.08405 0.12971,-0.08482 0.12971,-0.01701 0,0.04785 -0.0978,0.142825 -0.29965,0.291115 l -0.29964,0.220097 0.0182,0.251306 c 0.0155,0.214616 0.002,0.301272 -0.0924,0.59356 -0.0608,0.188241 -0.11055,0.369312 -0.11055,0.402379 0,0.132577 0.33532,0.840598 0.50614,1.068689 0.2415,0.322474 0.27995,0.280628 0.17482,-0.190231 z"
     id="path2639-6-3" />
  <path
     style="display:inline;fill:#000000;stroke-width:0.035639"
     d="m 16.784578,76.650227 c -0.21658,-0.261127 -0.323229,-0.481669 -0.387239,-0.800702 -0.091,-0.453754 -0.27331,-0.853936 -0.48597,-1.066884 -0.095,-0.09516 -0.21498,-0.260356 -0.26654,-0.367104 -0.08192,-0.169587 -0.09612,-0.252566 -0.112481,-0.657392 -0.01199,-0.29672 -0.04207,-0.540191 -0.08367,-0.677139 -0.03572,-0.117609 -0.0653,-0.319572 -0.06572,-0.448806 -5.09e-4,-0.190063 -0.0155,-0.251367 -0.0779,-0.320751 -0.04243,-0.04718 -0.138653,-0.156575 -0.213836,-0.243103 -0.07518,-0.08653 -0.256975,-0.252272 -0.403986,-0.36832 -0.147012,-0.116048 -0.279526,-0.232639 -0.294481,-0.259091 -0.02957,-0.05235 0.094,-0.159696 0.183887,-0.159696 0.03877,0 0.03333,-0.02007 -0.02175,-0.08019 -0.235482,-0.257018 -0.342813,-0.690656 -0.346228,-1.398828 -0.0025,-0.499562 0.003,-0.543295 0.0801,-0.667544 0.05868,-0.09438 0.123307,-0.145135 0.222743,-0.174926 0.07704,-0.02308 0.14007,-0.05306 0.14007,-0.06662 0,-0.01356 -0.04715,-0.08972 -0.10475,-0.169253 -0.0722,-0.09968 -0.179954,-0.181616 -0.346802,-0.26373 -0.206544,-0.101649 -0.278759,-0.118896 -0.492203,-0.117555 -0.207387,0.0013 -0.282798,0.01938 -0.441131,0.105782 -0.231863,0.126517 -0.404114,0.320597 -0.537324,0.605426 -0.190863,0.408086 -0.318139,1.204075 -0.347605,2.173975 -0.03862,1.271638 0.173063,2.097811 0.662379,2.584952 0.292113,0.290819 0.483443,0.373513 0.85902,0.371276 0.285654,-0.0017 0.327179,-0.01245 0.728081,-0.188486 0.23383,-0.102676 0.447574,-0.182052 0.474992,-0.176391 0.07678,0.01585 -0.128607,0.277102 -0.339668,0.432037 -0.630286,0.462671 -1.27917,0.478045 -2.04726,0.04851 -0.70273,-0.392989 -1.448646,-1.724758 -1.721897,-3.074291 -0.07357,-0.363347 -0.08792,-0.53599 -0.08792,-1.05767 0,-0.719581 0.0517,-1.081535 0.231117,-1.618247 0.388163,-1.161128 1.231142,-2.208702 2.143927,-2.664262 0.852672,-0.425557 1.647364,-0.262728 2.670406,0.547159 0.174699,0.138299 0.351879,0.251452 0.393749,0.251452 0.0419,0 0.0948,0.02249 0.11759,0.04999 0.11143,0.134258 0.78217,0.120935 0.96104,-0.01909 0.0468,-0.0366 0.11162,-0.06654 0.14416,-0.06654 0.0325,0 0.18675,-0.114179 0.34267,-0.25373 0.82225,-0.735901 1.68861,-1.056881 2.33474,-0.865001 0.27274,0.08099 0.76162,0.333376 1.0154,0.524192 0.51508,0.387297 1.10639,1.131873 1.38581,1.745022 0.14501,0.318203 0.31275,0.827986 0.40127,1.219507 0.0528,0.233735 0.0643,0.442452 0.0636,1.158266 -0.001,0.768803 -0.0103,0.914952 -0.0795,1.222903 -0.21535,0.958191 -0.64851,1.897976 -1.14322,2.480331 -0.21628,0.254609 -0.62146,0.515221 -0.97433,0.626692 -0.67541,0.213363 -1.34153,0.04261 -1.80802,-0.463471 -0.14659,-0.159029 -0.17991,-0.231283 -0.10665,-0.231283 0.0216,0 0.23415,0.08344 0.47222,0.185414 0.398811,0.170834 0.455301,0.185546 0.71847,0.187103 0.25273,0.0015 0.31308,-0.0118 0.523801,-0.115444 0.82148,-0.404028 1.146719,-1.715858 0.90062,-3.632632 -0.16659,-1.297513 -0.3924,-1.817316 -0.896641,-2.06402 -0.35104,-0.171747 -0.806819,-0.109472 -1.112259,0.151971 -0.12231,0.10469 -0.253551,0.282859 -0.253551,0.344203 0,0.0077 0.0633,0.03293 0.14076,0.05612 0.216641,0.0649 0.29143,0.19963 0.3343,0.602185 0.0655,0.615019 -0.0495,1.288411 -0.27748,1.624293 l -0.0844,0.124383 0.10379,0.04299 c 0.0571,0.02364 0.10379,0.06989 0.10379,0.102769 0,0.03288 -0.13674,0.168488 -0.30385,0.301358 -0.16713,0.13287 -0.36952,0.32855 -0.44977,0.434844 -0.0802,0.106294 -0.16003,0.193263 -0.17728,0.193263 -0.0172,0 -0.0314,0.109698 -0.0314,0.243772 0,0.134074 -0.0321,0.369184 -0.0713,0.522465 -0.0504,0.197099 -0.0713,0.395351 -0.0713,0.677149 0,0.371212 -0.007,0.413049 -0.10666,0.611909 -0.0587,0.1174 -0.184,0.292853 -0.27853,0.389895 -0.2098,0.215396 -0.37736,0.595156 -0.47354,1.073295 -0.0665,0.330597 -0.16697,0.525901 -0.42571,0.827561 -0.10531,0.122789 -0.14899,0.04365 -0.12957,-0.234785 0.008,-0.12038 0.005,-0.232646 -0.007,-0.249475 -0.0326,-0.04467 -0.18211,-0.04289 -0.18604,0.002 -0.002,0.02114 -0.006,0.149293 -0.009,0.284745 -0.003,0.135451 -0.0216,0.250476 -0.0412,0.255613 -0.0196,0.0051 -0.0781,-0.04192 -0.13009,-0.104532 z m -0.34721,-2.266879 c -0.0439,-0.196291 -0.118749,-0.453026 -0.16649,-0.570526 -0.0857,-0.211012 -0.107309,-0.369641 -0.0652,-0.479434 0.0237,-0.06186 0.36057,-0.34148 0.41136,-0.34148 0.0174,0 0.0214,0.04074 0.009,0.09053 -0.0152,0.0608 -0.002,0.112587 0.0381,0.15769 0.0382,0.04214 0.0567,0.111307 0.0499,0.185669 -0.006,0.06518 0.0262,0.275743 0.0716,0.467915 0.15992,0.678235 0.37551,0.690763 0.52731,0.03064 0.03,-0.13062 0.0589,-0.322761 0.064,-0.426981 0.005,-0.104219 0.0276,-0.207661 0.0498,-0.229871 0.0222,-0.02221 0.0404,-0.0933 0.0404,-0.157989 0,-0.06468 0.0164,-0.117609 0.0364,-0.117609 0.02,0 0.12426,0.08511 0.23165,0.189122 0.227869,0.220708 0.238209,0.278995 0.10762,0.606676 -0.15069,0.378084 -0.28041,1.021789 -0.20591,1.021789 0.0635,0 0.34663,-0.418962 0.48848,-0.722772 0.244,-0.522589 0.247589,-0.550087 0.121459,-0.929731 -0.12753,-0.383869 -0.16128,-0.617812 -0.11024,-0.764214 0.0366,-0.104972 0.0325,-0.10995 -0.280529,-0.343724 -0.206511,-0.154218 -0.317651,-0.261075 -0.317651,-0.305424 0,-0.06356 0.009,-0.06221 0.12971,0.01981 0.0713,0.04841 0.14216,0.08802 0.15738,0.08802 0.0152,0 0.0805,-0.06816 0.14502,-0.151465 0.7477,-0.965093 0.99402,-1.213957 1.24782,-1.260703 0.28273,-0.05208 0.43168,-0.2588 0.43168,-0.599148 0,-0.414222 -0.16112,-0.734908 -0.44095,-0.877667 -0.1207,-0.06158 -0.13277,-0.07869 -0.0964,-0.136854 0.0483,-0.0774 0.10027,-0.0019 -0.58146,-0.845287 -0.4405,-0.544966 -0.59049,-0.708224 -0.89461,-0.97376 -0.10634,-0.09285 -0.1747,-0.07718 -0.0943,0.02162 0.0444,0.05461 0.0422,0.05792 -0.0217,0.0316 -0.22567,-0.09306 -0.33679,-0.104923 -0.45495,-0.04857 -0.1053,0.05022 -0.12957,0.05063 -0.21897,0.0038 -0.0979,-0.05132 -0.22697,-0.03853 -0.41938,0.04157 -0.0485,0.02019 -0.056,0.0092 -0.04,-0.05812 0.0308,-0.12932 -0.48915,0.395815 -0.74706,0.754512 -0.1198,0.166612 -0.324565,0.439606 -0.455042,0.606654 -0.266803,0.341594 -0.32726,0.441001 -0.31226,0.513421 0.0057,0.02756 -0.05734,0.09933 -0.140116,0.159494 -0.386161,0.280694 -0.476059,1.011377 -0.159669,1.29771 0.03923,0.03551 0.154009,0.08637 0.255045,0.113023 0.106026,0.02797 0.252392,0.104748 0.346161,0.181584 0.170569,0.139771 0.587991,0.614879 0.878151,0.999518 0.0942,0.124891 0.18419,0.227075 0.19995,0.227075 0.0158,0 0.087,-0.03961 0.15836,-0.08802 0.12386,-0.08405 0.12971,-0.08482 0.12971,-0.01701 0,0.04785 -0.0978,0.142825 -0.29965,0.291115 l -0.29964,0.220097 0.0182,0.251306 c 0.0155,0.214616 0.002,0.301272 -0.0924,0.59356 -0.0608,0.188241 -0.11055,0.369312 -0.11055,0.402379 0,0.132577 0.33532,0.840598 0.50614,1.068689 0.2415,0.322474 0.27995,0.280628 0.17482,-0.190231 z"
     id="path2639-6-5" />
  <path
     style="display:inline;fill:#000000;stroke-width:0.035639"
     d="m 46.824633,76.121054 c -0.21658,-0.261127 -0.32323,-0.481669 -0.38724,-0.800702 -0.091,-0.453754 -0.27331,-0.853936 -0.48597,-1.066884 -0.095,-0.09516 -0.21498,-0.260356 -0.26654,-0.367104 -0.08192,-0.169587 -0.09612,-0.252566 -0.112481,-0.657392 -0.01199,-0.29672 -0.04207,-0.540191 -0.08367,-0.677139 -0.03572,-0.117609 -0.0653,-0.319572 -0.06572,-0.448806 -5.09e-4,-0.190063 -0.0155,-0.251367 -0.0779,-0.320751 -0.04243,-0.04718 -0.138653,-0.156575 -0.213836,-0.243103 -0.07518,-0.08653 -0.256975,-0.252272 -0.403986,-0.36832 -0.147012,-0.116048 -0.279526,-0.232639 -0.294481,-0.259091 -0.02957,-0.05235 0.094,-0.159696 0.183887,-0.159696 0.03877,0 0.03333,-0.02007 -0.02175,-0.08019 -0.235482,-0.257018 -0.342813,-0.690656 -0.346228,-1.398828 -0.0025,-0.499562 0.003,-0.543295 0.0801,-0.667544 0.05868,-0.09438 0.123307,-0.145135 0.222743,-0.174926 0.07704,-0.02308 0.14007,-0.05306 0.14007,-0.06662 0,-0.01356 -0.04715,-0.08972 -0.10475,-0.169253 -0.0722,-0.09968 -0.179954,-0.181616 -0.346802,-0.26373 -0.206544,-0.101649 -0.278759,-0.118896 -0.492203,-0.117555 -0.207387,0.0013 -0.282798,0.01938 -0.441131,0.105782 -0.231863,0.126517 -0.404114,0.320597 -0.537324,0.605426 -0.190863,0.408086 -0.318139,1.204075 -0.347605,2.173975 -0.03862,1.271638 0.173063,2.097811 0.662379,2.584952 0.292113,0.290819 0.483443,0.373513 0.85902,0.371276 0.285654,-0.0017 0.327179,-0.01245 0.728081,-0.188486 0.23383,-0.102676 0.447574,-0.182052 0.474992,-0.176391 0.07678,0.01585 -0.128607,0.277102 -0.339668,0.432037 -0.630286,0.462671 -1.27917,0.478045 -2.04726,0.04851 -0.70273,-0.392989 -1.448646,-1.724758 -1.721897,-3.074291 -0.07357,-0.363347 -0.08792,-0.53599 -0.08792,-1.05767 0,-0.719581 0.0517,-1.081535 0.231117,-1.618247 0.388163,-1.161128 1.231142,-2.208702 2.143927,-2.664262 0.852673,-0.425557 1.647364,-0.262728 2.670406,0.547159 0.1747,0.138299 0.35188,0.251452 0.39375,0.251452 0.0419,0 0.0948,0.02249 0.11759,0.04999 0.11143,0.134258 0.78217,0.120935 0.96104,-0.01909 0.0468,-0.0366 0.11162,-0.06654 0.14416,-0.06654 0.0325,0 0.18675,-0.114179 0.34267,-0.25373 0.82225,-0.735901 1.68861,-1.056881 2.33474,-0.865001 0.27274,0.08099 0.76162,0.333376 1.0154,0.524192 0.51508,0.387297 1.10639,1.131873 1.38581,1.745022 0.14501,0.318203 0.31275,0.827986 0.40127,1.219507 0.0528,0.233735 0.0643,0.442452 0.0636,1.158266 -10e-4,0.768803 -0.0103,0.914952 -0.0795,1.222903 -0.21535,0.958191 -0.64851,1.897976 -1.14322,2.480331 -0.21628,0.254609 -0.62146,0.515221 -0.97433,0.626692 -0.67541,0.213363 -1.34153,0.04261 -1.80802,-0.463471 -0.14659,-0.159029 -0.17991,-0.231283 -0.10665,-0.231283 0.0216,0 0.23415,0.08344 0.47222,0.185414 0.39881,0.170834 0.4553,0.185546 0.71847,0.187103 0.25273,0.0015 0.31308,-0.0118 0.5238,-0.115444 0.82148,-0.404028 1.14672,-1.715858 0.90062,-3.632632 -0.16659,-1.297513 -0.3924,-1.817316 -0.89664,-2.06402 -0.35104,-0.171747 -0.80682,-0.109472 -1.11226,0.151971 -0.12231,0.10469 -0.25355,0.282859 -0.25355,0.344203 0,0.0077 0.0633,0.03293 0.14076,0.05612 0.21664,0.0649 0.29143,0.19963 0.3343,0.602185 0.0655,0.615019 -0.0495,1.288411 -0.27748,1.624293 l -0.0844,0.124383 0.10379,0.04299 c 0.0571,0.02364 0.10379,0.06989 0.10379,0.102769 0,0.03288 -0.13674,0.168488 -0.30385,0.301358 -0.16713,0.13287 -0.36952,0.32855 -0.44977,0.434844 -0.0802,0.106294 -0.16003,0.193263 -0.17728,0.193263 -0.0172,0 -0.0314,0.109698 -0.0314,0.243772 0,0.134074 -0.0321,0.369184 -0.0713,0.522465 -0.0504,0.197099 -0.0713,0.395351 -0.0713,0.677149 0,0.371212 -0.007,0.413049 -0.10666,0.611909 -0.0587,0.1174 -0.184,0.292853 -0.27853,0.389895 -0.2098,0.215396 -0.37736,0.595156 -0.47354,1.073295 -0.0665,0.330597 -0.16697,0.525901 -0.42571,0.827561 -0.10531,0.122789 -0.14899,0.04365 -0.12957,-0.234785 0.008,-0.12038 0.005,-0.232646 -0.007,-0.249475 -0.0326,-0.04467 -0.18211,-0.04289 -0.18604,0.002 -0.002,0.02114 -0.006,0.149293 -0.009,0.284745 -0.003,0.135451 -0.0216,0.250476 -0.0412,0.255613 -0.0196,0.0051 -0.0781,-0.04192 -0.13009,-0.104532 z m -0.34721,-2.266879 c -0.0439,-0.196291 -0.11875,-0.453026 -0.16649,-0.570526 -0.0857,-0.211012 -0.10731,-0.369641 -0.0652,-0.479434 0.0237,-0.06186 0.36057,-0.34148 0.41136,-0.34148 0.0174,0 0.0214,0.04074 0.009,0.09053 -0.0152,0.0608 -0.002,0.112587 0.0381,0.15769 0.0382,0.04214 0.0567,0.111307 0.0499,0.185669 -0.006,0.06518 0.0262,0.275743 0.0716,0.467915 0.15992,0.678235 0.37551,0.690763 0.52731,0.03064 0.03,-0.13062 0.0589,-0.322761 0.064,-0.426981 0.005,-0.104219 0.0276,-0.207661 0.0498,-0.229871 0.0222,-0.02221 0.0404,-0.0933 0.0404,-0.157989 0,-0.06468 0.0164,-0.117609 0.0364,-0.117609 0.02,0 0.12426,0.08511 0.23165,0.189122 0.22787,0.220708 0.23821,0.278995 0.10762,0.606676 -0.15069,0.378084 -0.28041,1.021789 -0.20591,1.021789 0.0635,0 0.34663,-0.418962 0.48848,-0.722772 0.244,-0.522589 0.24759,-0.550087 0.12146,-0.929731 -0.12753,-0.383869 -0.16128,-0.617812 -0.11024,-0.764214 0.0366,-0.104972 0.0325,-0.10995 -0.28053,-0.343724 -0.20651,-0.154218 -0.31765,-0.261075 -0.31765,-0.305424 0,-0.06356 0.009,-0.06221 0.12971,0.01981 0.0713,0.04841 0.14216,0.08802 0.15738,0.08802 0.0152,0 0.0805,-0.06816 0.14502,-0.151465 0.7477,-0.965093 0.99402,-1.213957 1.24782,-1.260703 0.28273,-0.05208 0.43168,-0.2588 0.43168,-0.599148 0,-0.414222 -0.16112,-0.734908 -0.44095,-0.877667 -0.1207,-0.06158 -0.13277,-0.07869 -0.0964,-0.136854 0.0483,-0.0774 0.10027,-0.0019 -0.58146,-0.845287 -0.4405,-0.544966 -0.59049,-0.708224 -0.89461,-0.97376 -0.10634,-0.09285 -0.1747,-0.07718 -0.0943,0.02162 0.0444,0.05461 0.0422,0.05792 -0.0217,0.0316 -0.22567,-0.09306 -0.33679,-0.104923 -0.45495,-0.04857 -0.1053,0.05022 -0.12957,0.05063 -0.21897,0.0038 -0.0979,-0.05132 -0.22697,-0.03853 -0.41938,0.04157 -0.0485,0.02019 -0.056,0.0092 -0.04,-0.05812 0.0308,-0.12932 -0.48915,0.395815 -0.74706,0.754512 -0.1198,0.166612 -0.324565,0.439606 -0.455042,0.606654 -0.266803,0.341594 -0.32726,0.441001 -0.31226,0.513421 0.0057,0.02756 -0.05734,0.09933 -0.140116,0.159494 -0.386161,0.280694 -0.476059,1.011377 -0.159669,1.29771 0.03923,0.03551 0.154009,0.08637 0.255045,0.113023 0.106026,0.02797 0.252392,0.104748 0.346161,0.181584 0.170569,0.139771 0.587991,0.614879 0.878151,0.999518 0.0942,0.124891 0.18419,0.227075 0.19995,0.227075 0.0158,0 0.087,-0.03961 0.15836,-0.08802 0.12386,-0.08405 0.12971,-0.08482 0.12971,-0.01701 0,0.04785 -0.0978,0.142825 -0.29965,0.291115 l -0.29964,0.220097 0.0182,0.251306 c 0.0155,0.214616 0.002,0.301272 -0.0924,0.59356 -0.0608,0.188241 -0.11055,0.369312 -0.11055,0.402379 0,0.132577 0.33532,0.840598 0.50614,1.068689 0.2415,0.322474 0.27995,0.280628 0.17482,-0.190231 z"
     id="path2639-7" />
  <text
     xml:space="preserve"
     style="font-size:14.1111px;line-height:1.25;font-family:'Blood Crow';-inkscape-font-specification:'Blood Crow';stroke-width:0.264583"
     x="4.6315317"
     y="12.534263"
     id="text9052-1"><tspan
       id="tspan9050-4"
       style="font-style:normal;font-variant:normal;font-weight:normal;font-stretch:normal;font-size:14.1111px;font-family:'Bleeding Cowboys';-inkscape-font-specification:'Bleeding Cowboys';stroke-width:0.264583"
       x="4.6315317"
       y="12.534263">9</tspan></text>
  <text
     xml:space="preserve"
     style="font-size:14.1111px;line-height:1.25;font-family:'Blood Crow';-inkscape-font-specification:'Blood Crow';stroke-width:0.264583"
     x="-58.28883"
     y="-75.571785"
     id="text9052-3-9"
     transform="scale(-1)"><tspan
       id="tspan9050-0-2"
       style="font-style:normal;font-variant:normal;font-weight:normal;font-stretch:normal;font-size:14.1111px;font-family:'Bleeding Cowboys';-inkscape-font-specification:'Bleeding Cowboys';stroke-width:0.264583"
       x="-58.28883"
       y="-75.571785">9</tspan></text>
</svg>
