<?xml version="1.0" encoding="UTF-8" standalone="no"?>
<!-- Created with Inkscape (http://www.inkscape.org/) -->

<svg
   width="63mm"
   height="89mm"
   viewBox="0 0 63 89"
   version="1.1"
   id="svg5"
   sodipodi:docname="9-Corbeau.svg"
   inkscape:version="1.1.2 (1:1.1+202202050950+0a00cf5339)"
   xmlns:inkscape="http://www.inkscape.org/namespaces/inkscape"
   xmlns:sodipodi="http://sodipodi.sourceforge.net/DTD/sodipodi-0.dtd"
   xmlns:xlink="http://www.w3.org/1999/xlink"
   xmlns="http://www.w3.org/2000/svg"
   xmlns:svg="http://www.w3.org/2000/svg">
  <sodipodi:namedview
     id="namedview155"
     pagecolor="#ffffff"
     bordercolor="#666666"
     borderopacity="1.0"
     inkscape:pageshadow="2"
     inkscape:pageopacity="0.0"
     inkscape:pagecheckerboard="0"
     inkscape:document-units="mm"
     showgrid="false"
     inkscape:zoom="0.71051652"
     inkscape:cx="638.97177"
     inkscape:cy="104.8533"
     inkscape:window-width="1920"
     inkscape:window-height="1057"
     inkscape:window-x="1920"
     inkscape:window-y="0"
     inkscape:window-maximized="1"
     inkscape:current-layer="svg5" />
  <defs
     id="defs2">
    <linearGradient
       id="linearGradient66035">
      <stop
         style="stop-color:#ffeeaa;stop-opacity:1;"
         offset="0"
         id="stop66031" />
      <stop
         style="stop-color:#ffeeaa;stop-opacity:0;"
         offset="1"
         id="stop66033" />
    </linearGradient>
    <linearGradient
       xlink:href="#linearGradient66035"
       id="linearGradient66037"
       x1="-609.21545"
       y1="124.85085"
       x2="-533.06219"
       y2="235.37372"
       gradientUnits="userSpaceOnUse" />
    <linearGradient
       xlink:href="#linearGradient66035"
       id="linearGradient66272"
       gradientUnits="userSpaceOnUse"
       x1="-609.21545"
       y1="124.85085"
       x2="-533.06219"
       y2="235.37372"
       gradientTransform="translate(107.54224,19.681403)" />
    <linearGradient
       xlink:href="#linearGradient66035"
       id="linearGradient66419"
       gradientUnits="userSpaceOnUse"
       gradientTransform="translate(169.88249,19.681395)"
       x1="-609.21545"
       y1="124.85085"
       x2="-533.06219"
       y2="235.37372" />
    <linearGradient
       xlink:href="#linearGradient66035"
       id="linearGradient66886"
       gradientUnits="userSpaceOnUse"
       gradientTransform="translate(609.74704,-124.32202)"
       x1="-609.21545"
       y1="124.85085"
       x2="-533.06219"
       y2="235.37372" />
    <linearGradient
       xlink:href="#linearGradient66035"
       id="linearGradient67116"
       gradientUnits="userSpaceOnUse"
       gradientTransform="translate(761.64943,-239.23166)"
       x1="-609.21545"
       y1="124.85085"
       x2="-533.06219"
       y2="235.37372" />
    <linearGradient
       xlink:href="#linearGradient66035"
       id="linearGradient73095"
       gradientUnits="userSpaceOnUse"
       gradientTransform="translate(-18.43475,-1222.8025)"
       x1="-609.21545"
       y1="124.85085"
       x2="-533.06219"
       y2="235.37372" />
    <linearGradient
       xlink:href="#linearGradient66035"
       id="linearGradient82342"
       gradientUnits="userSpaceOnUse"
       gradientTransform="translate(704.02075,-140.75031)"
       x1="-609.21545"
       y1="124.85085"
       x2="-533.06219"
       y2="235.37372" />
    <linearGradient
       xlink:href="#linearGradient66035"
       id="linearGradient90215"
       gradientUnits="userSpaceOnUse"
       gradientTransform="translate(340.696,-366.60502)"
       x1="-609.21545"
       y1="124.85085"
       x2="-533.06219"
       y2="235.37372" />
    <linearGradient
       xlink:href="#linearGradient66035"
       id="linearGradient99476"
       gradientUnits="userSpaceOnUse"
       gradientTransform="translate(510.6307,-103.31497)"
       x1="-609.21545"
       y1="124.85085"
       x2="-533.06219"
       y2="235.37372" />
    <linearGradient
       xlink:href="#linearGradient66035"
       id="linearGradient105434"
       gradientUnits="userSpaceOnUse"
       gradientTransform="translate(512.58237,-32.383406)"
       x1="-609.21545"
       y1="124.85085"
       x2="-533.06219"
       y2="235.37372" />
    <linearGradient
       xlink:href="#linearGradient66035"
       id="linearGradient116711"
       gradientUnits="userSpaceOnUse"
       gradientTransform="translate(521.8087,-182.6408)"
       x1="-609.21545"
       y1="124.85085"
       x2="-533.06219"
       y2="235.37372" />
  </defs>
  <g
     id="g105464"
     transform="translate(97.032013,-92.071232)">
    <rect
       style="display:inline;fill:url(#linearGradient105434);fill-opacity:1;stroke:#000000;stroke-width:0.659785;stroke-miterlimit:4;stroke-dasharray:none;stroke-opacity:1"
       id="rect870-4-6-9-1-0"
       width="62.340214"
       height="88.340218"
       x="-96.633125"
       y="92.467468"
       rx="3.7119057"
       ry="3.3358381" />
    <path
       style="display:inline;fill:#000000;stroke-width:0.0370034"
       d="m -80.554865,116.93099 -8.04e-4,-0.33402 -0.224635,0.21376 c -0.248504,0.23647 -0.310838,0.2644 -0.253509,0.11362 0.02094,-0.0551 0.06942,-0.21327 0.107743,-0.35156 l 0.06967,-0.25142 -0.183135,0.19429 -0.183135,0.19429 0.02435,-0.36496 c 0.02779,-0.41668 0.05672,-0.4043 -0.318981,-0.13655 -0.111685,0.0796 -0.208521,0.13927 -0.215192,0.1326 -0.0067,-0.007 0.03982,-0.11503 0.103305,-0.2408 0.128419,-0.2544 0.338841,-0.85988 0.420173,-1.20903 l 0.05302,-0.2276 -0.156034,0.16285 c -0.126379,0.13189 -0.18072,0.16284 -0.285923,0.16284 h -0.129887 l 0.19782,-0.39778 c 0.265971,-0.53483 0.387408,-1.00976 0.395014,-1.54489 0.0045,-0.31414 -0.0094,-0.44648 -0.06092,-0.57989 -0.09173,-0.2377 -0.147907,-0.27859 -0.246827,-0.17967 -0.09554,0.0955 -0.229545,0.14901 -0.373439,0.14901 -0.127008,0 -0.124088,0.009 -0.05225,-0.16284 0.07171,-0.17161 0.01171,-0.20715 -0.171264,-0.10144 -0.130886,0.0756 -0.541937,0.17481 -0.577405,0.13934 -0.01122,-0.0112 0.04838,-0.15258 0.132446,-0.31416 0.21118,-0.40591 0.204291,-0.44165 -0.05674,-0.29433 -0.177493,0.10017 -0.256802,0.12075 -0.518047,0.13446 -0.169658,0.009 -0.30847,0.004 -0.30847,-0.01 0,-0.0144 0.05766,-0.0965 0.128131,-0.18253 0.136932,-0.1671 0.276759,-0.4436 0.278093,-0.5499 0.001,-0.0821 0.01424,-0.0845 -0.266547,0.0469 -0.313923,0.14691 -0.673834,0.22005 -1.08326,0.22014 -0.282258,7e-5 -0.488302,-0.0388 -0.424465,-0.08 0.0096,-0.006 0.117078,-0.0611 0.23887,-0.1221 0.219516,-0.10987 0.686638,-0.5096 0.644957,-0.55191 -0.01192,-0.0121 -0.112773,0.009 -0.224108,0.0476 -0.298051,0.10255 -0.544864,0.12642 -0.809941,0.0784 -0.262915,-0.0477 -0.603133,-0.20366 -0.582064,-0.26687 0.0076,-0.0227 0.162709,-0.10125 0.344741,-0.1745 0.182032,-0.0733 0.439202,-0.19951 0.571489,-0.28059 l 0.240521,-0.14741 -0.240521,-0.0283 c -0.663784,-0.0781 -0.962199,-0.18249 -1.231782,-0.43098 -0.19261,-0.17755 -0.34585,-0.44372 -0.309695,-0.53794 0.01709,-0.0446 0.04529,-0.0566 0.08941,-0.0384 0.07842,0.0325 0.786007,0.073 0.786007,0.0449 0,-0.011 -0.07216,-0.0622 -0.160358,-0.11391 -0.283059,-0.16588 -0.52506,-0.49361 -0.650303,-0.88067 -0.04968,-0.15352 -0.111262,-0.51251 -0.08792,-0.51251 0.0085,0 0.06845,0.0398 0.133236,0.0885 0.18348,0.13781 0.606514,0.33757 0.932748,0.44045 0.335308,0.10575 0.572666,0.1565 0.572666,0.12244 0,-0.0126 -0.10476,-0.12686 -0.2328,-0.25389 -0.259224,-0.25718 -0.455274,-0.59884 -0.578421,-1.00803 -0.09364,-0.31116 -0.151484,-0.74878 -0.112485,-0.85107 l 0.02822,-0.074 0.02677,0.074 c 0.106859,0.29543 0.312491,0.63389 0.545291,0.89752 0.49245,0.55768 0.81024,0.76963 1.581542,1.05484 0.543472,0.20096 0.524735,0.19773 0.481081,0.0829 -0.07681,-0.20202 -0.03914,-0.21793 0.124242,-0.0524 0.112086,0.11353 0.30679,0.23499 0.638307,0.39819 0.478051,0.23533 0.717546,0.38603 0.717546,0.45151 0,0.0193 -0.05962,0.101 -0.132476,0.18165 -0.0981,0.10858 -0.126125,0.16664 -0.108004,0.22374 0.03104,0.0978 0.404896,0.34872 0.477839,0.32073 0.03013,-0.0116 0.07321,-0.0927 0.09573,-0.18019 0.164208,-0.63836 0.204005,-0.68464 0.818922,-0.95236 0.443247,-0.19297 0.58094,-0.21903 0.72752,-0.13767 0.08258,0.0458 0.07974,0.0495 -0.104734,0.13592 -0.15973,0.0748 -0.331673,0.23459 -0.331673,0.30821 0,0.0109 0.07077,-0.0206 0.157265,-0.07 0.149093,-0.0853 0.286777,-0.11786 0.286777,-0.0679 0,0.0126 -0.04996,0.0798 -0.11101,0.1493 -0.100617,0.1146 -0.11101,0.15056 -0.11101,0.38417 0,0.17851 0.01422,0.25947 0.04625,0.26337 0.02544,0.003 0.06421,0.007 0.08614,0.01 0.02195,0.002 0.09391,0.0497 0.159945,0.10524 0.09354,0.0787 0.135091,0.093 0.188118,0.0646 0.09577,-0.0513 0.333613,-0.33602 0.333613,-0.39943 0,-0.029 -0.04996,-0.11584 -0.111012,-0.19293 -0.06106,-0.0771 -0.11101,-0.15797 -0.11101,-0.17974 0,-0.0713 0.445143,-0.41195 0.715766,-0.54779 0.145654,-0.0731 0.373058,-0.20245 0.505344,-0.28743 0.372764,-0.23945 0.346994,-0.22983 0.319219,-0.11916 -0.01799,0.0716 -0.01044,0.098 0.02801,0.098 0.09725,0 0.815525,-0.2642 1.114385,-0.4099 0.561945,-0.27395 1.151417,-0.86532 1.435652,-1.44027 l 0.155488,-0.31452 0.01175,0.14302 c 0.01577,0.19196 -0.0878,0.68954 -0.205111,0.98558 -0.134499,0.3394 -0.317798,0.61632 -0.557041,0.84154 -0.113336,0.10669 -0.195421,0.20463 -0.182414,0.21764 0.03584,0.0358 0.637229,-0.12443 0.94022,-0.25057 0.147354,-0.0613 0.367762,-0.17607 0.489797,-0.25494 l 0.221882,-0.14341 -0.02107,0.11865 c -0.108314,0.61004 -0.376652,1.06218 -0.760498,1.2814 l -0.183232,0.10464 0.131183,0.0246 c 0.07214,0.0135 0.274207,0.006 0.449015,-0.0177 0.174811,-0.0233 0.327317,-0.0328 0.338908,-0.0212 0.04457,0.0446 -0.185455,0.43474 -0.328321,0.55702 -0.281761,0.24118 -0.717445,0.39116 -1.139154,0.39215 -0.372938,8.8e-4 -0.385967,0.0396 -0.07545,0.22404 0.147393,0.0876 0.403341,0.21378 0.568767,0.28048 0.165427,0.0667 0.300776,0.14171 0.300776,0.16668 0,0.0689 -0.305919,0.21106 -0.55075,0.25596 -0.250717,0.046 -0.504378,0.0203 -0.813441,-0.0823 -0.119396,-0.0396 -0.22546,-0.0637 -0.235698,-0.0535 -0.02071,0.0207 0.209257,0.3525 0.357408,0.51569 0.05246,0.0578 0.169072,0.1485 0.259141,0.20159 l 0.163765,0.0965 -0.108259,0.0319 c -0.149449,0.0441 -0.81181,0.004 -1.135644,-0.0693 -0.147252,-0.0332 -0.372913,-0.10214 -0.501474,-0.15326 -0.147763,-0.0588 -0.246687,-0.08 -0.268926,-0.0578 -0.03869,0.0387 0.195689,0.42543 0.32963,0.54392 0.04333,0.0383 0.06987,0.0841 0.05897,0.10175 -0.0326,0.0527 -0.525012,0.0363 -0.763515,-0.0255 -0.12221,-0.0317 -0.227054,-0.0525 -0.232981,-0.0463 -0.0059,0.006 0.04638,0.12654 0.116242,0.26736 0.08169,0.16466 0.11427,0.26879 0.09128,0.29178 -0.04465,0.0447 -0.326226,-0.0226 -0.530149,-0.12664 -0.08064,-0.0411 -0.153555,-0.0679 -0.162026,-0.0594 -0.0085,0.008 0.0098,0.0757 0.04058,0.14941 0.0308,0.0737 0.056,0.15119 0.056,0.17219 0,0.0549 -0.181084,0.047 -0.391907,-0.0169 -0.09991,-0.0303 -0.192083,-0.0553 -0.20484,-0.0555 -0.05244,-9.5e-4 -0.17673,0.37016 -0.213956,0.63876 -0.05929,0.42775 0.04184,1.01642 0.271833,1.58245 0.04931,0.12134 0.0735,0.22061 0.05376,0.22061 -0.01972,0 -0.101831,-0.0336 -0.182424,-0.0748 -0.0806,-0.0411 -0.146539,-0.0595 -0.146539,-0.0409 0,0.0186 0.03485,0.14801 0.07745,0.28753 0.104121,0.34099 0.412499,0.92558 0.631863,1.19781 0.09832,0.12201 0.178762,0.23036 0.178762,0.24077 0,0.0435 -0.383983,-0.18011 -0.519374,-0.30243 l -0.146685,-0.13253 v 0.25234 0.25233 l -0.151905,-0.14627 -0.151905,-0.14627 0.02716,0.12951 c 0.0253,0.12056 0.162425,0.55958 0.223852,0.71662 0.02441,0.0625 0.01852,0.0647 -0.06186,0.0234 -0.04887,-0.0251 -0.159638,-0.11376 -0.246133,-0.19703 l -0.157241,-0.1514 v 0.32797 c 0,0.32039 -0.0018,0.32649 -0.07062,0.26405 -0.03884,-0.0352 -0.09082,-0.11266 -0.115502,-0.17225 -0.05495,-0.13266 -0.09837,-0.13713 -0.153636,-0.0158 -0.0583,0.12796 -0.0973,0.11618 -0.172674,-0.0522 l -0.06478,-0.14468 -0.08251,0.15393 c -0.04538,0.0847 -0.114954,0.19557 -0.154612,0.24645 l -0.0721,0.0925 -8.05e-4,-0.33402 z m 0.176792,-7.90661 c 0.06255,-0.0625 0.05526,-0.21278 -0.01157,-0.23843 -0.07658,-0.0294 -0.166044,0.0523 -0.166044,0.15168 0,0.13222 0.08878,0.17558 0.177616,0.0867 z"
       id="path2152-0-92" />
    <path
       style="display:inline;fill:#000000;stroke-width:0.0370034"
       d="m -80.554864,166.8537 -8.04e-4,-0.33402 -0.224635,0.21376 c -0.248504,0.23647 -0.310838,0.2644 -0.253509,0.11362 0.02094,-0.0551 0.06942,-0.21327 0.107743,-0.35156 l 0.06967,-0.25142 -0.183135,0.19429 -0.183135,0.1943 0.02435,-0.36497 c 0.02779,-0.41668 0.05672,-0.4043 -0.318982,-0.13655 -0.111684,0.0796 -0.20852,0.13927 -0.215192,0.1326 -0.0067,-0.007 0.03982,-0.11503 0.103306,-0.2408 0.128418,-0.2544 0.33884,-0.85988 0.420172,-1.20903 l 0.05302,-0.2276 -0.156034,0.16285 c -0.126379,0.13189 -0.18072,0.16284 -0.285923,0.16284 h -0.129887 l 0.19782,-0.39778 c 0.265971,-0.53483 0.387408,-1.00976 0.395014,-1.54489 0.0045,-0.31414 -0.0094,-0.44648 -0.06092,-0.57989 -0.09173,-0.2377 -0.147907,-0.27859 -0.246827,-0.17967 -0.09554,0.0955 -0.229545,0.14901 -0.373439,0.14901 -0.127008,0 -0.124088,0.009 -0.05225,-0.16284 0.07171,-0.17161 0.01171,-0.20714 -0.171264,-0.10144 -0.130886,0.0756 -0.541937,0.17481 -0.577405,0.13934 -0.01122,-0.0112 0.04838,-0.15258 0.132446,-0.31416 0.21118,-0.40591 0.204291,-0.44165 -0.05674,-0.29433 -0.177493,0.10017 -0.256802,0.12075 -0.518047,0.13446 -0.169658,0.009 -0.30847,0.004 -0.30847,-0.01 0,-0.0144 0.05766,-0.0965 0.128131,-0.18253 0.136932,-0.1671 0.276759,-0.4436 0.278093,-0.5499 0.001,-0.0821 0.01424,-0.0845 -0.266547,0.0469 -0.313923,0.14691 -0.673834,0.22005 -1.08326,0.22014 -0.282258,7e-5 -0.488302,-0.0388 -0.424465,-0.08 0.0096,-0.006 0.117078,-0.0611 0.23887,-0.1221 0.219516,-0.10987 0.686638,-0.5096 0.644957,-0.55191 -0.01192,-0.0121 -0.112773,0.009 -0.224108,0.0476 -0.29805,0.10255 -0.544864,0.12642 -0.809941,0.0784 -0.262914,-0.0477 -0.603133,-0.20366 -0.582064,-0.26687 0.0076,-0.0227 0.162709,-0.10125 0.344741,-0.1745 0.182032,-0.0733 0.439202,-0.19951 0.571489,-0.28059 l 0.240521,-0.14741 -0.240521,-0.0283 c -0.663784,-0.0781 -0.962199,-0.18249 -1.231781,-0.43098 -0.19261,-0.17755 -0.345851,-0.44372 -0.309695,-0.53794 0.01709,-0.0445 0.04529,-0.0566 0.08941,-0.0384 0.07842,0.0325 0.786007,0.0729 0.786007,0.0449 0,-0.011 -0.07216,-0.0622 -0.160358,-0.11391 -0.283059,-0.16588 -0.52506,-0.49361 -0.650303,-0.88067 -0.04968,-0.15352 -0.111262,-0.51251 -0.08792,-0.51251 0.0085,0 0.06845,0.0398 0.133236,0.0885 0.18348,0.13781 0.606514,0.33757 0.932748,0.44045 0.335308,0.10575 0.572666,0.1565 0.572666,0.12244 0,-0.0126 -0.10476,-0.12686 -0.2328,-0.25389 -0.259224,-0.25718 -0.455274,-0.59884 -0.578421,-1.00803 -0.09364,-0.31116 -0.151484,-0.74878 -0.112485,-0.85107 l 0.02822,-0.074 0.02677,0.074 c 0.106859,0.29543 0.312491,0.63389 0.545291,0.89752 0.49245,0.55768 0.81024,0.76963 1.581542,1.05484 0.543472,0.20096 0.524735,0.19773 0.48108,0.0829 -0.07681,-0.20202 -0.03914,-0.21793 0.124242,-0.0525 0.112086,0.11353 0.30679,0.23499 0.638307,0.39818 0.478051,0.23534 0.717546,0.38604 0.717546,0.45152 0,0.0193 -0.05962,0.101 -0.132476,0.18165 -0.0981,0.10858 -0.126125,0.16664 -0.108004,0.22374 0.03104,0.0978 0.404897,0.34872 0.477839,0.32073 0.03013,-0.0116 0.07321,-0.0927 0.09573,-0.18019 0.164208,-0.63836 0.204005,-0.68464 0.818922,-0.95236 0.443247,-0.19297 0.58094,-0.21903 0.72752,-0.13767 0.08258,0.0458 0.07974,0.0495 -0.104734,0.13592 -0.15973,0.0748 -0.331673,0.23459 -0.331673,0.30821 0,0.0109 0.07077,-0.0206 0.157265,-0.07 0.149093,-0.0852 0.286777,-0.11786 0.286777,-0.0679 0,0.0126 -0.04996,0.0798 -0.11101,0.1493 -0.100617,0.1146 -0.11101,0.15056 -0.11101,0.38417 0,0.17851 0.01422,0.25947 0.04625,0.26337 0.02544,0.003 0.06421,0.007 0.08614,0.01 0.02195,0.002 0.09391,0.0497 0.159945,0.10524 0.09354,0.0787 0.135091,0.093 0.188118,0.0646 0.09577,-0.0513 0.333613,-0.33602 0.333613,-0.39943 0,-0.029 -0.04996,-0.11584 -0.111012,-0.19293 -0.06106,-0.0771 -0.11101,-0.15798 -0.11101,-0.17974 0,-0.0713 0.445143,-0.41195 0.715766,-0.54779 0.145654,-0.0731 0.373058,-0.20245 0.505344,-0.28743 0.372764,-0.23945 0.346994,-0.22983 0.319219,-0.11916 -0.01799,0.0716 -0.01044,0.098 0.02801,0.098 0.09725,0 0.815525,-0.2642 1.114385,-0.4099 0.561945,-0.27395 1.151417,-0.86532 1.435652,-1.44027 l 0.155488,-0.31452 0.01175,0.14302 c 0.01577,0.19196 -0.0878,0.68954 -0.205111,0.98558 -0.134499,0.3394 -0.317798,0.61632 -0.557041,0.84154 -0.113336,0.10669 -0.195421,0.20463 -0.182414,0.21764 0.03584,0.0358 0.637229,-0.12444 0.94022,-0.25057 0.147354,-0.0613 0.367762,-0.17607 0.489797,-0.25494 l 0.221882,-0.14341 -0.02107,0.11865 c -0.108314,0.61004 -0.376652,1.06218 -0.760498,1.2814 l -0.183232,0.10464 0.131183,0.0246 c 0.07214,0.0135 0.274207,0.006 0.449015,-0.0177 0.174811,-0.0233 0.327317,-0.0328 0.338908,-0.0212 0.04457,0.0445 -0.185455,0.43474 -0.328321,0.55702 -0.281761,0.24118 -0.717445,0.39116 -1.139154,0.39215 -0.372938,8.8e-4 -0.385967,0.0396 -0.07545,0.22404 0.147393,0.0876 0.403341,0.21378 0.568767,0.28048 0.165427,0.0667 0.300776,0.14171 0.300776,0.16668 0,0.0689 -0.305919,0.21106 -0.55075,0.25596 -0.250717,0.046 -0.504378,0.0203 -0.813441,-0.0823 -0.119396,-0.0396 -0.22546,-0.0637 -0.235698,-0.0535 -0.02071,0.0207 0.209257,0.3525 0.357408,0.51569 0.05246,0.0578 0.169072,0.1485 0.259141,0.20159 l 0.163765,0.0965 -0.108259,0.0319 c -0.149449,0.0441 -0.81181,0.004 -1.135644,-0.0693 -0.147252,-0.0332 -0.372913,-0.10214 -0.501474,-0.15326 -0.147763,-0.0588 -0.246687,-0.08 -0.268926,-0.0578 -0.03869,0.0387 0.195689,0.42543 0.32963,0.54392 0.04333,0.0383 0.06987,0.0841 0.05897,0.10175 -0.0326,0.0527 -0.525012,0.0363 -0.763515,-0.0255 -0.12221,-0.0317 -0.227054,-0.0525 -0.232981,-0.0463 -0.0059,0.006 0.04638,0.12654 0.116242,0.26736 0.08169,0.16466 0.11427,0.26879 0.09128,0.29178 -0.04465,0.0447 -0.326226,-0.0226 -0.530149,-0.12664 -0.08064,-0.0411 -0.153555,-0.0679 -0.162026,-0.0594 -0.0085,0.008 0.0098,0.0757 0.04058,0.14941 0.0308,0.0737 0.056,0.15119 0.056,0.17219 0,0.0549 -0.181084,0.047 -0.391907,-0.0169 -0.09991,-0.0303 -0.192083,-0.0553 -0.20484,-0.0555 -0.05244,-9.5e-4 -0.17673,0.37016 -0.213956,0.63876 -0.05929,0.42775 0.04184,1.01642 0.271833,1.58245 0.04931,0.12133 0.0735,0.22061 0.05376,0.22061 -0.01972,0 -0.101831,-0.0336 -0.182424,-0.0748 -0.0806,-0.0411 -0.146539,-0.0595 -0.146539,-0.0409 0,0.0186 0.03485,0.14801 0.07745,0.28753 0.104121,0.34099 0.412499,0.92558 0.631863,1.19781 0.09832,0.12201 0.178762,0.23036 0.178762,0.24077 0,0.0435 -0.383983,-0.18011 -0.519374,-0.30243 l -0.146685,-0.13253 v 0.25234 0.25233 l -0.151905,-0.14627 -0.151905,-0.14627 0.02716,0.12951 c 0.0253,0.12056 0.162425,0.55958 0.223852,0.71662 0.02441,0.0625 0.01852,0.0647 -0.06186,0.0234 -0.04887,-0.0251 -0.159638,-0.11376 -0.246133,-0.19703 l -0.157241,-0.1514 v 0.32797 c 0,0.32039 -0.0018,0.32649 -0.07062,0.26405 -0.03884,-0.0351 -0.09082,-0.11266 -0.115502,-0.17225 -0.05495,-0.13266 -0.09837,-0.13713 -0.153636,-0.0158 -0.0583,0.12796 -0.0973,0.11618 -0.172674,-0.0522 l -0.06478,-0.14468 -0.08251,0.15393 c -0.04538,0.0847 -0.114954,0.19557 -0.154612,0.24645 l -0.0721,0.0925 -8.05e-4,-0.33402 z m 0.176792,-7.90661 c 0.06255,-0.0626 0.05526,-0.21278 -0.01157,-0.23843 -0.07658,-0.0294 -0.166044,0.0523 -0.166044,0.15168 0,0.13222 0.08878,0.17558 0.177616,0.0867 z"
       id="path2152-6-54" />
    <path
       style="display:inline;fill:#000000;stroke-width:0.0370034"
       d="m -50.474676,133.75718 -8.04e-4,-0.33402 -0.224635,0.21376 c -0.248504,0.23646 -0.310838,0.2644 -0.253509,0.11362 0.02094,-0.0551 0.06942,-0.21328 0.107743,-0.35156 l 0.06967,-0.25142 -0.183135,0.19429 -0.183135,0.19429 0.02435,-0.36496 c 0.02779,-0.41668 0.05672,-0.4043 -0.318981,-0.13655 -0.111685,0.0796 -0.208521,0.13927 -0.215192,0.13259 -0.0067,-0.007 0.03982,-0.11503 0.103305,-0.24079 0.128419,-0.2544 0.338841,-0.85988 0.420173,-1.20903 l 0.05302,-0.2276 -0.156034,0.16284 c -0.126379,0.1319 -0.18072,0.16285 -0.285923,0.16285 h -0.129887 l 0.19782,-0.39778 c 0.265971,-0.53483 0.387408,-1.00976 0.395014,-1.54489 0.0045,-0.31415 -0.0094,-0.44649 -0.06092,-0.57989 -0.09173,-0.2377 -0.147907,-0.2786 -0.246827,-0.17968 -0.09554,0.0955 -0.229545,0.14901 -0.373439,0.14901 -0.127008,0 -0.124088,0.009 -0.05225,-0.16283 0.07171,-0.17161 0.01171,-0.20715 -0.171264,-0.10144 -0.130886,0.0756 -0.541937,0.17481 -0.577405,0.13934 -0.01122,-0.0112 0.04838,-0.15259 0.132446,-0.31416 0.21118,-0.40591 0.204291,-0.44165 -0.05674,-0.29434 -0.177493,0.10017 -0.256802,0.12076 -0.518047,0.13447 -0.169658,0.009 -0.30847,0.004 -0.30847,-0.01 0,-0.0144 0.05766,-0.0965 0.128131,-0.18253 0.136932,-0.16711 0.276759,-0.4436 0.278093,-0.5499 10e-4,-0.0821 0.01424,-0.0845 -0.266547,0.0469 -0.313923,0.1469 -0.673834,0.22004 -1.08326,0.22014 -0.282258,7e-5 -0.488302,-0.0388 -0.424465,-0.08 0.0096,-0.006 0.117078,-0.0611 0.23887,-0.1221 0.219516,-0.10987 0.686638,-0.5096 0.644957,-0.55191 -0.01192,-0.0121 -0.112773,0.009 -0.224108,0.0476 -0.298051,0.10255 -0.544864,0.12642 -0.809941,0.0784 -0.262915,-0.0477 -0.603133,-0.20366 -0.582064,-0.26687 0.0076,-0.0227 0.162709,-0.10125 0.344741,-0.1745 0.182032,-0.0733 0.439202,-0.19952 0.571489,-0.28059 l 0.240521,-0.14741 -0.240521,-0.0283 c -0.663784,-0.0781 -0.962199,-0.18249 -1.231782,-0.43099 -0.19261,-0.17754 -0.34585,-0.44371 -0.309695,-0.53793 0.01709,-0.0445 0.04529,-0.0566 0.08941,-0.0384 0.07842,0.0325 0.786007,0.073 0.786007,0.0449 0,-0.011 -0.07216,-0.0622 -0.160358,-0.11391 -0.283059,-0.16588 -0.52506,-0.49361 -0.650303,-0.88067 -0.04968,-0.15352 -0.111262,-0.51251 -0.08792,-0.51251 0.0085,0 0.06845,0.0398 0.133236,0.0885 0.18348,0.13781 0.606514,0.33757 0.932748,0.44045 0.335308,0.10575 0.572666,0.15649 0.572666,0.12244 0,-0.0126 -0.10476,-0.12686 -0.2328,-0.25389 -0.259224,-0.25718 -0.455274,-0.59884 -0.578421,-1.00803 -0.09364,-0.31116 -0.151484,-0.74878 -0.112485,-0.85108 l 0.02822,-0.074 0.02677,0.074 c 0.106859,0.29543 0.312491,0.6339 0.545291,0.89753 0.49245,0.55767 0.81024,0.76963 1.581542,1.05484 0.543472,0.20096 0.524735,0.19773 0.48108,0.0829 -0.07681,-0.20202 -0.03914,-0.21793 0.124242,-0.0524 0.112086,0.11353 0.30679,0.23499 0.638307,0.39818 0.478051,0.23533 0.717546,0.38603 0.717546,0.45152 0,0.0193 -0.05962,0.10099 -0.132476,0.18164 -0.0981,0.10858 -0.126125,0.16665 -0.108004,0.22375 0.03104,0.0978 0.404897,0.34872 0.47784,0.32073 0.03013,-0.0116 0.07321,-0.0926 0.09573,-0.1802 0.164207,-0.63835 0.204005,-0.68464 0.818922,-0.95235 0.443247,-0.19298 0.580939,-0.21903 0.72752,-0.13767 0.08258,0.0458 0.07974,0.0495 -0.104734,0.13592 -0.15973,0.0748 -0.331673,0.23459 -0.331673,0.30821 0,0.0109 0.07077,-0.0206 0.157264,-0.07 0.149093,-0.0853 0.286777,-0.11787 0.286777,-0.0679 0,0.0126 -0.04996,0.0798 -0.11101,0.1493 -0.100617,0.11459 -0.11101,0.15056 -0.11101,0.38417 0,0.17851 0.01422,0.25946 0.04625,0.26337 0.02544,0.003 0.06421,0.008 0.08614,0.01 0.02195,0.002 0.09391,0.0497 0.159945,0.10524 0.09354,0.0787 0.135091,0.093 0.188118,0.0646 0.09577,-0.0513 0.333613,-0.33602 0.333613,-0.39943 0,-0.029 -0.04996,-0.11585 -0.111011,-0.19293 -0.06106,-0.0771 -0.11101,-0.15798 -0.11101,-0.17975 0,-0.0713 0.445142,-0.41194 0.715765,-0.54778 0.145654,-0.0731 0.373058,-0.20245 0.505345,-0.28743 0.372764,-0.23945 0.346993,-0.22983 0.319219,-0.11916 -0.01799,0.0716 -0.01044,0.098 0.02801,0.098 0.09725,0 0.815525,-0.2642 1.114385,-0.4099 0.561945,-0.27395 1.151417,-0.86532 1.435652,-1.44027 l 0.155488,-0.31453 0.01175,0.14303 c 0.01577,0.19196 -0.0878,0.68953 -0.205111,0.98557 -0.134499,0.33941 -0.317798,0.61633 -0.557041,0.84155 -0.113336,0.10669 -0.195421,0.20463 -0.182414,0.21764 0.03584,0.0358 0.637229,-0.12444 0.94022,-0.25057 0.147354,-0.0613 0.367762,-0.17607 0.489797,-0.25495 l 0.221882,-0.1434 -0.02107,0.11864 c -0.108314,0.61005 -0.376652,1.06218 -0.760498,1.28141 l -0.183232,0.10464 0.131183,0.0246 c 0.07214,0.0135 0.274207,0.006 0.449015,-0.0177 0.174811,-0.0233 0.327317,-0.0328 0.338908,-0.0212 0.04457,0.0445 -0.185455,0.43473 -0.328321,0.55702 -0.281761,0.24118 -0.717445,0.39116 -1.139154,0.39215 -0.372938,8.8e-4 -0.385967,0.0396 -0.07545,0.22404 0.147393,0.0876 0.403341,0.21378 0.568767,0.28048 0.165427,0.0667 0.300776,0.14171 0.300776,0.16668 0,0.0689 -0.305919,0.21105 -0.55075,0.25596 -0.250717,0.046 -0.504378,0.0203 -0.813441,-0.0823 -0.119396,-0.0396 -0.22546,-0.0637 -0.235698,-0.0535 -0.02071,0.0207 0.209257,0.3525 0.357408,0.51569 0.05246,0.0578 0.169072,0.1485 0.259141,0.20159 l 0.163765,0.0965 -0.108259,0.0319 c -0.149449,0.0441 -0.81181,0.004 -1.135644,-0.0693 -0.147252,-0.0332 -0.372913,-0.10214 -0.501474,-0.15326 -0.147763,-0.0588 -0.246687,-0.08 -0.268926,-0.0578 -0.03869,0.0387 0.195689,0.42542 0.32963,0.54391 0.04333,0.0383 0.06987,0.0841 0.05897,0.10176 -0.0326,0.0527 -0.525012,0.0363 -0.763515,-0.0255 -0.12221,-0.0317 -0.227054,-0.0525 -0.232981,-0.0463 -0.0059,0.006 0.04638,0.12654 0.116242,0.26736 0.08169,0.16466 0.11427,0.26879 0.09128,0.29177 -0.04465,0.0447 -0.326226,-0.0226 -0.530149,-0.12663 -0.08064,-0.0411 -0.153555,-0.0679 -0.162026,-0.0594 -0.0085,0.008 0.0098,0.0757 0.04058,0.14941 0.0308,0.0737 0.056,0.15119 0.056,0.17219 0,0.0549 -0.181084,0.047 -0.391907,-0.0169 -0.09991,-0.0303 -0.192083,-0.0553 -0.20484,-0.0555 -0.05244,-9.5e-4 -0.17673,0.37016 -0.213956,0.63876 -0.05929,0.42775 0.04184,1.01642 0.271833,1.58244 0.04931,0.12134 0.0735,0.22062 0.05376,0.22062 -0.01972,0 -0.101831,-0.0336 -0.182424,-0.0748 -0.0806,-0.0411 -0.146539,-0.0595 -0.146539,-0.0409 0,0.0186 0.03485,0.14801 0.07745,0.28753 0.104121,0.34099 0.412499,0.92557 0.631863,1.1978 0.09832,0.12202 0.178762,0.23037 0.178762,0.24078 0,0.0435 -0.383983,-0.18012 -0.519374,-0.30244 l -0.146685,-0.13252 v 0.25234 0.25233 l -0.151905,-0.14627 -0.151905,-0.14627 0.02716,0.12951 c 0.0253,0.12055 0.162425,0.55957 0.223852,0.71662 0.02441,0.0625 0.01852,0.0647 -0.06186,0.0234 -0.04887,-0.0251 -0.159638,-0.11376 -0.246133,-0.19703 l -0.157241,-0.1514 v 0.32797 c 0,0.32039 -0.0018,0.32649 -0.07062,0.26405 -0.03884,-0.0351 -0.09082,-0.11267 -0.115502,-0.17225 -0.05495,-0.13266 -0.09837,-0.13713 -0.153636,-0.0158 -0.0583,0.12796 -0.0973,0.11618 -0.172674,-0.0522 l -0.06478,-0.14468 -0.08251,0.15393 c -0.04538,0.0847 -0.114954,0.19556 -0.154612,0.24644 l -0.0721,0.0925 -8.05e-4,-0.33401 z m 0.176792,-7.90662 c 0.06255,-0.0625 0.05526,-0.21277 -0.01157,-0.23842 -0.07658,-0.0294 -0.166044,0.0523 -0.166044,0.15168 0,0.13222 0.08878,0.17558 0.177616,0.0867 z"
       id="path2152-6-1-0" />
    <path
       style="display:inline;fill:#000000;stroke-width:0.0370034"
       d="m -80.554865,133.57189 -8.04e-4,-0.33401 -0.224635,0.21375 c -0.248504,0.23647 -0.310838,0.26441 -0.253509,0.11362 0.02094,-0.0551 0.06942,-0.21327 0.107743,-0.35155 l 0.06967,-0.25143 -0.183135,0.1943 -0.183135,0.19429 0.02435,-0.36496 c 0.02779,-0.41669 0.05672,-0.4043 -0.318981,-0.13655 -0.111685,0.0796 -0.208521,0.13926 -0.215192,0.13259 -0.0067,-0.007 0.03982,-0.11503 0.103305,-0.2408 0.128419,-0.2544 0.338841,-0.85987 0.420173,-1.20903 l 0.05302,-0.2276 -0.156034,0.16285 c -0.126379,0.1319 -0.18072,0.16285 -0.285923,0.16285 h -0.129887 l 0.19782,-0.39779 c 0.265971,-0.53482 0.387408,-1.00976 0.395014,-1.54489 0.0045,-0.31414 -0.0094,-0.44648 -0.06092,-0.57988 -0.09173,-0.23771 -0.147907,-0.2786 -0.246827,-0.17968 -0.09554,0.0955 -0.229545,0.14901 -0.373439,0.14901 -0.127008,0 -0.124088,0.009 -0.05225,-0.16283 0.07171,-0.17161 0.01171,-0.20715 -0.171264,-0.10145 -0.130886,0.0756 -0.541937,0.17481 -0.577405,0.13934 -0.01122,-0.0112 0.04838,-0.15258 0.132446,-0.31415 0.21118,-0.40592 0.204291,-0.44166 -0.05674,-0.29434 -0.177493,0.10017 -0.256802,0.12076 -0.518047,0.13447 -0.169658,0.009 -0.30847,0.004 -0.30847,-0.01 0,-0.0144 0.05766,-0.0965 0.128131,-0.18253 0.136932,-0.16711 0.276759,-0.4436 0.278093,-0.5499 0.001,-0.0821 0.01424,-0.0845 -0.266547,0.0469 -0.313923,0.1469 -0.673833,0.22004 -1.083259,0.22013 -0.282259,8e-5 -0.488303,-0.0388 -0.424465,-0.08 0.0096,-0.006 0.117078,-0.0611 0.23887,-0.12209 0.219516,-0.10988 0.686638,-0.50961 0.644957,-0.55191 -0.01192,-0.0121 -0.112773,0.009 -0.224108,0.0476 -0.298051,0.10254 -0.544864,0.12642 -0.809941,0.0784 -0.262915,-0.0477 -0.603133,-0.20367 -0.582064,-0.26688 0.0076,-0.0227 0.162709,-0.10125 0.344741,-0.17449 0.182032,-0.0733 0.439202,-0.19952 0.571489,-0.28059 l 0.24052,-0.14742 -0.240521,-0.0283 c -0.663784,-0.0781 -0.962199,-0.18249 -1.231782,-0.43098 -0.19261,-0.17754 -0.34585,-0.44372 -0.309695,-0.53793 0.01709,-0.0446 0.04529,-0.0567 0.08941,-0.0384 0.07842,0.0325 0.786007,0.0729 0.786007,0.0449 0,-0.011 -0.07216,-0.0622 -0.160358,-0.11391 -0.283059,-0.16588 -0.52506,-0.49361 -0.650303,-0.88067 -0.04968,-0.15352 -0.111262,-0.51252 -0.08792,-0.51252 0.0085,0 0.06845,0.0398 0.133236,0.0885 0.18348,0.13781 0.606514,0.33757 0.932748,0.44046 0.335308,0.10574 0.572666,0.15649 0.572666,0.12244 0,-0.0126 -0.10476,-0.12686 -0.2328,-0.25389 -0.259224,-0.25718 -0.455274,-0.59884 -0.578421,-1.00803 -0.09364,-0.31116 -0.151484,-0.74878 -0.112485,-0.85108 l 0.02822,-0.074 0.02677,0.074 c 0.106859,0.29543 0.312491,0.63389 0.545291,0.89752 0.49245,0.55768 0.81024,0.76964 1.581542,1.05484 0.543472,0.20097 0.524735,0.19774 0.481081,0.0829 -0.07681,-0.20202 -0.03914,-0.21792 0.124242,-0.0525 0.112086,0.11353 0.30679,0.23499 0.638307,0.39819 0.478051,0.23533 0.717546,0.38603 0.717546,0.45151 0,0.0193 -0.05962,0.101 -0.132476,0.18165 -0.0981,0.10858 -0.126125,0.16665 -0.108004,0.22375 0.03104,0.0978 0.404897,0.34871 0.477839,0.32072 0.03013,-0.0116 0.07321,-0.0927 0.09573,-0.18019 0.164208,-0.63836 0.204005,-0.68464 0.818922,-0.95235 0.443247,-0.19298 0.58094,-0.21904 0.72752,-0.13767 0.08258,0.0458 0.07974,0.0495 -0.104734,0.13592 -0.15973,0.0748 -0.331673,0.23459 -0.331673,0.3082 0,0.0109 0.07077,-0.0206 0.157265,-0.07 0.149093,-0.0852 0.286777,-0.11786 0.286777,-0.0679 0,0.0126 -0.04996,0.0798 -0.11101,0.1493 -0.100617,0.1146 -0.11101,0.15057 -0.11101,0.38417 0,0.17852 0.01422,0.25947 0.04625,0.26337 0.02544,0.003 0.06421,0.007 0.08614,0.01 0.02195,0.002 0.09391,0.0497 0.159945,0.10525 0.09354,0.0787 0.135091,0.093 0.188118,0.0646 0.09577,-0.0513 0.333613,-0.33602 0.333613,-0.39944 0,-0.029 -0.04996,-0.11584 -0.111012,-0.19293 -0.06106,-0.0771 -0.11101,-0.15797 -0.11101,-0.17974 0,-0.0713 0.445143,-0.41194 0.715766,-0.54778 0.145654,-0.0731 0.373058,-0.20245 0.505344,-0.28743 0.372764,-0.23946 0.346994,-0.22984 0.319219,-0.11917 -0.01799,0.0716 -0.01044,0.098 0.02801,0.098 0.09725,0 0.815525,-0.2642 1.114385,-0.40989 0.561945,-0.27396 1.151417,-0.86532 1.435652,-1.44027 l 0.155488,-0.31453 0.01175,0.14302 c 0.01577,0.19197 -0.0878,0.68954 -0.205111,0.98558 -0.134499,0.3394 -0.317798,0.61632 -0.557041,0.84155 -0.113336,0.10669 -0.195421,0.20463 -0.182414,0.21763 0.03584,0.0358 0.637229,-0.12443 0.94022,-0.25057 0.147354,-0.0613 0.367762,-0.17606 0.489797,-0.25494 l 0.221882,-0.14341 -0.02107,0.11865 c -0.108314,0.61004 -0.376652,1.06218 -0.760498,1.2814 l -0.183232,0.10465 0.131183,0.0246 c 0.07214,0.0135 0.274207,0.006 0.449015,-0.0177 0.174811,-0.0233 0.327317,-0.0328 0.338908,-0.0212 0.04457,0.0445 -0.185455,0.43473 -0.328321,0.55702 -0.281761,0.24118 -0.717445,0.39116 -1.139154,0.39214 -0.372938,8.8e-4 -0.385967,0.0396 -0.07545,0.22404 0.147393,0.0876 0.403341,0.21379 0.568767,0.28049 0.165427,0.0667 0.300776,0.1417 0.300776,0.16668 0,0.0689 -0.305919,0.21105 -0.55075,0.25596 -0.250717,0.046 -0.504378,0.0203 -0.813441,-0.0823 -0.119396,-0.0396 -0.22546,-0.0637 -0.235698,-0.0535 -0.02071,0.0207 0.209257,0.35249 0.357408,0.51568 0.05246,0.0578 0.169072,0.1485 0.259141,0.20159 l 0.163765,0.0965 -0.108259,0.0319 c -0.149449,0.0441 -0.81181,0.004 -1.135644,-0.0693 -0.147252,-0.0332 -0.372913,-0.10214 -0.501474,-0.15325 -0.147763,-0.0588 -0.246687,-0.08 -0.268926,-0.0578 -0.03869,0.0387 0.195689,0.42542 0.32963,0.54391 0.04333,0.0383 0.06987,0.0841 0.05897,0.10176 -0.0326,0.0527 -0.525012,0.0363 -0.763515,-0.0255 -0.12221,-0.0317 -0.227054,-0.0525 -0.232981,-0.0463 -0.0059,0.006 0.04638,0.12654 0.116242,0.26736 0.08169,0.16465 0.11427,0.26878 0.09128,0.29177 -0.04465,0.0447 -0.326226,-0.0226 -0.530149,-0.12663 -0.08064,-0.0412 -0.153555,-0.0679 -0.162026,-0.0594 -0.0085,0.009 0.0098,0.0757 0.04058,0.14941 0.0308,0.0737 0.056,0.15119 0.056,0.1722 0,0.0548 -0.181084,0.047 -0.391907,-0.0169 -0.09991,-0.0303 -0.192083,-0.0553 -0.20484,-0.0555 -0.05244,-9.5e-4 -0.17673,0.37016 -0.213956,0.63875 -0.05929,0.42775 0.04184,1.01643 0.271833,1.58245 0.04931,0.12134 0.0735,0.22061 0.05376,0.22061 -0.01972,0 -0.101831,-0.0336 -0.182424,-0.0748 -0.0806,-0.0411 -0.146539,-0.0595 -0.146539,-0.0409 0,0.0186 0.03485,0.14801 0.07745,0.28753 0.104121,0.34099 0.412499,0.92558 0.631863,1.19781 0.09832,0.12201 0.178762,0.23036 0.178762,0.24078 0,0.0435 -0.383983,-0.18012 -0.519374,-0.30244 l -0.146685,-0.13253 v 0.25234 0.25234 l -0.151905,-0.14627 -0.151905,-0.14628 0.02716,0.12952 c 0.0253,0.12055 0.162425,0.55957 0.223852,0.71661 0.02441,0.0625 0.01852,0.0647 -0.06186,0.0234 -0.04887,-0.0251 -0.159638,-0.11375 -0.246133,-0.19702 l -0.157241,-0.1514 v 0.32796 c 0,0.32039 -0.0018,0.32649 -0.07062,0.26405 -0.03884,-0.0351 -0.09082,-0.11266 -0.115502,-0.17224 -0.05495,-0.13266 -0.09837,-0.13714 -0.153636,-0.0158 -0.0583,0.12796 -0.0973,0.11617 -0.172674,-0.0522 l -0.06478,-0.14469 -0.08251,0.15394 c -0.04538,0.0847 -0.114954,0.19556 -0.154612,0.24644 l -0.0721,0.0925 -8.05e-4,-0.33402 z m 0.176792,-7.90661 c 0.06255,-0.0625 0.05526,-0.21278 -0.01157,-0.23842 -0.07658,-0.0294 -0.166044,0.0523 -0.166044,0.15167 0,0.13223 0.08878,0.17558 0.177616,0.0867 z"
       id="path2152-6-1-1-5" />
    <path
       style="display:inline;fill:#000000;stroke-width:0.0370034"
       d="m -80.554865,150.2128 -8.04e-4,-0.33402 -0.224635,0.21376 c -0.248504,0.23647 -0.310838,0.2644 -0.253509,0.11362 0.02094,-0.0551 0.06942,-0.21328 0.107743,-0.35156 l 0.06967,-0.25142 -0.183135,0.19429 -0.183135,0.19429 0.02435,-0.36496 c 0.02779,-0.41668 0.05672,-0.4043 -0.318981,-0.13655 -0.111685,0.0796 -0.208521,0.13927 -0.215192,0.1326 -0.0067,-0.007 0.03982,-0.11503 0.103305,-0.2408 0.128419,-0.2544 0.338841,-0.85988 0.420173,-1.20903 l 0.05302,-0.2276 -0.156034,0.16285 c -0.126379,0.13189 -0.18072,0.16284 -0.285923,0.16284 h -0.129887 l 0.19782,-0.39778 c 0.265971,-0.53483 0.387408,-1.00976 0.395014,-1.54489 0.0045,-0.31415 -0.0094,-0.44648 -0.06092,-0.57989 -0.09173,-0.2377 -0.147907,-0.2786 -0.246827,-0.17968 -0.09554,0.0955 -0.229545,0.14902 -0.373439,0.14902 -0.127008,0 -0.124088,0.009 -0.05225,-0.16284 0.07171,-0.17161 0.01171,-0.20715 -0.171264,-0.10144 -0.130886,0.0756 -0.541937,0.17481 -0.577405,0.13934 -0.01122,-0.0112 0.04838,-0.15259 0.132446,-0.31416 0.21118,-0.40591 0.204291,-0.44165 -0.05674,-0.29434 -0.177493,0.10018 -0.256802,0.12076 -0.518047,0.13447 -0.169658,0.009 -0.30847,0.004 -0.30847,-0.01 0,-0.0144 0.05766,-0.0965 0.128131,-0.18253 0.136932,-0.16711 0.276759,-0.4436 0.278093,-0.5499 0.001,-0.0821 0.01424,-0.0845 -0.266547,0.0469 -0.313923,0.14691 -0.673834,0.22005 -1.08326,0.22014 -0.282258,7e-5 -0.488302,-0.0388 -0.424465,-0.08 0.0096,-0.006 0.117078,-0.0611 0.23887,-0.1221 0.219516,-0.10987 0.686638,-0.5096 0.644957,-0.55191 -0.01192,-0.0121 -0.112773,0.009 -0.224108,0.0476 -0.298051,0.10255 -0.544864,0.12642 -0.809941,0.0784 -0.262915,-0.0477 -0.603133,-0.20366 -0.582064,-0.26687 0.0076,-0.0227 0.162709,-0.10125 0.344741,-0.1745 0.182032,-0.0733 0.439202,-0.19951 0.571489,-0.28059 l 0.240521,-0.14741 -0.240521,-0.0283 c -0.663784,-0.0781 -0.962199,-0.18249 -1.231782,-0.43098 -0.19261,-0.17755 -0.34585,-0.44372 -0.309695,-0.53794 0.01709,-0.0446 0.04529,-0.0566 0.08941,-0.0384 0.07842,0.0325 0.786007,0.073 0.786007,0.0449 0,-0.011 -0.07216,-0.0622 -0.160358,-0.11391 -0.283059,-0.16588 -0.52506,-0.49361 -0.650303,-0.88067 -0.04968,-0.15352 -0.111262,-0.51251 -0.08792,-0.51251 0.0085,0 0.06845,0.0398 0.133236,0.0885 0.18348,0.13781 0.606515,0.33757 0.932748,0.44045 0.335308,0.10575 0.572666,0.1565 0.572666,0.12244 0,-0.0126 -0.10476,-0.12686 -0.232799,-0.25389 -0.259224,-0.25718 -0.455274,-0.59884 -0.578422,-1.00803 -0.09364,-0.31116 -0.151484,-0.74878 -0.112484,-0.85107 l 0.02822,-0.074 0.02677,0.074 c 0.106859,0.29543 0.312491,0.63389 0.545291,0.89752 0.49245,0.55768 0.81024,0.76963 1.581542,1.05484 0.543472,0.20096 0.524735,0.19773 0.48108,0.0829 -0.07681,-0.20202 -0.03914,-0.21793 0.124242,-0.0524 0.112086,0.11353 0.30679,0.23499 0.638307,0.39818 0.478051,0.23534 0.717546,0.38604 0.717546,0.45152 0,0.0193 -0.05962,0.101 -0.132476,0.18165 -0.0981,0.10857 -0.126125,0.16664 -0.108004,0.22374 0.03104,0.0978 0.404896,0.34872 0.477839,0.32073 0.03013,-0.0116 0.07321,-0.0926 0.09573,-0.1802 0.164207,-0.63835 0.204005,-0.68464 0.818922,-0.95235 0.443247,-0.19297 0.580939,-0.21903 0.72752,-0.13767 0.08258,0.0458 0.07974,0.0495 -0.104734,0.13592 -0.15973,0.0748 -0.331673,0.23459 -0.331673,0.30821 0,0.0109 0.07077,-0.0206 0.157264,-0.07 0.149093,-0.0853 0.286777,-0.11787 0.286777,-0.0679 0,0.0126 -0.04996,0.0798 -0.11101,0.1493 -0.100617,0.1146 -0.11101,0.15056 -0.11101,0.38417 0,0.17851 0.01422,0.25947 0.04625,0.26337 0.02544,0.003 0.06421,0.007 0.08614,0.01 0.02195,0.002 0.09391,0.0497 0.159945,0.10524 0.09354,0.0787 0.135091,0.093 0.188118,0.0646 0.09577,-0.0513 0.333613,-0.33602 0.333613,-0.39943 0,-0.029 -0.04996,-0.11584 -0.111011,-0.19293 -0.06106,-0.0771 -0.11101,-0.15798 -0.11101,-0.17975 0,-0.0713 0.445142,-0.41194 0.715765,-0.54778 0.145654,-0.0731 0.373058,-0.20245 0.505345,-0.28743 0.372764,-0.23945 0.346993,-0.22983 0.319219,-0.11916 -0.01799,0.0716 -0.01044,0.098 0.02801,0.098 0.09725,0 0.815525,-0.2642 1.114385,-0.4099 0.561945,-0.27395 1.151417,-0.86532 1.435652,-1.44027 l 0.155488,-0.31452 0.01175,0.14302 c 0.01577,0.19196 -0.0878,0.68954 -0.205111,0.98558 -0.134499,0.3394 -0.317798,0.61632 -0.557041,0.84154 -0.113336,0.10669 -0.195421,0.20463 -0.182414,0.21764 0.03584,0.0358 0.637229,-0.12444 0.94022,-0.25057 0.147354,-0.0613 0.367762,-0.17607 0.489797,-0.25494 l 0.221882,-0.14341 -0.02107,0.11865 c -0.108314,0.61004 -0.376652,1.06218 -0.760498,1.2814 l -0.183232,0.10464 0.131183,0.0246 c 0.07214,0.0135 0.274207,0.006 0.449015,-0.0177 0.174811,-0.0233 0.327317,-0.0328 0.338908,-0.0212 0.04457,0.0445 -0.185455,0.43474 -0.328321,0.55702 -0.281761,0.24118 -0.717445,0.39116 -1.139154,0.39215 -0.372938,8.8e-4 -0.385967,0.0396 -0.07545,0.22404 0.147393,0.0876 0.403341,0.21378 0.568767,0.28048 0.165427,0.0667 0.300776,0.14171 0.300776,0.16668 0,0.0689 -0.305919,0.21105 -0.55075,0.25596 -0.250717,0.046 -0.504378,0.0203 -0.813441,-0.0823 -0.119396,-0.0396 -0.22546,-0.0637 -0.235698,-0.0535 -0.02071,0.0207 0.209257,0.3525 0.357408,0.51569 0.05246,0.0578 0.169072,0.1485 0.259141,0.20159 l 0.163765,0.0965 -0.108259,0.0319 c -0.149449,0.0441 -0.81181,0.004 -1.135644,-0.0693 -0.147252,-0.0332 -0.372913,-0.10214 -0.501474,-0.15326 -0.147763,-0.0588 -0.246687,-0.08 -0.268926,-0.0578 -0.03869,0.0387 0.195689,0.42543 0.32963,0.54391 0.04333,0.0384 0.06987,0.0841 0.05897,0.10176 -0.0326,0.0527 -0.525012,0.0363 -0.763515,-0.0255 -0.12221,-0.0317 -0.227054,-0.0525 -0.232981,-0.0463 -0.0059,0.006 0.04638,0.12654 0.116242,0.26736 0.08169,0.16466 0.11427,0.26879 0.09128,0.29178 -0.04465,0.0446 -0.326226,-0.0226 -0.530149,-0.12664 -0.08064,-0.0411 -0.153555,-0.0679 -0.162026,-0.0594 -0.0085,0.008 0.0098,0.0757 0.04058,0.14941 0.0308,0.0737 0.056,0.15119 0.056,0.17219 0,0.0548 -0.181084,0.047 -0.391907,-0.0169 -0.09991,-0.0303 -0.192083,-0.0553 -0.20484,-0.0555 -0.05244,-9.5e-4 -0.17673,0.37016 -0.213956,0.63876 -0.05929,0.42775 0.04184,1.01642 0.271833,1.58245 0.04931,0.12133 0.0735,0.22061 0.05376,0.22061 -0.01972,0 -0.101831,-0.0336 -0.182424,-0.0748 -0.0806,-0.0411 -0.146539,-0.0595 -0.146539,-0.0409 0,0.0186 0.03485,0.14801 0.07745,0.28753 0.104121,0.34099 0.412499,0.92557 0.631863,1.19781 0.09832,0.12201 0.178762,0.23036 0.178762,0.24077 0,0.0435 -0.383983,-0.18012 -0.519374,-0.30244 l -0.146685,-0.13252 v 0.25234 0.25233 l -0.151905,-0.14627 -0.151905,-0.14627 0.02716,0.12951 c 0.0253,0.12056 0.162425,0.55957 0.223852,0.71662 0.02441,0.0625 0.01852,0.0647 -0.06186,0.0234 -0.04887,-0.0251 -0.159638,-0.11376 -0.246133,-0.19703 l -0.157241,-0.1514 v 0.32797 c 0,0.32039 -0.0018,0.32649 -0.07062,0.26405 -0.03884,-0.0352 -0.09082,-0.11266 -0.115502,-0.17225 -0.05495,-0.13266 -0.09837,-0.13713 -0.153636,-0.0158 -0.0583,0.12796 -0.0973,0.11618 -0.172674,-0.0522 l -0.06478,-0.14468 -0.08251,0.15393 c -0.04538,0.0847 -0.114954,0.19557 -0.154612,0.24644 l -0.0721,0.0925 -8.05e-4,-0.33401 z m 0.176792,-7.90662 c 0.06255,-0.0625 0.05526,-0.21277 -0.01157,-0.23842 -0.07658,-0.0294 -0.166044,0.0523 -0.166044,0.15168 0,0.13222 0.08878,0.17558 0.177616,0.0867 z"
       id="path2152-6-1-1-17-9" />
    <path
       style="display:inline;fill:#000000;stroke-width:0.0370034"
       d="m -50.474676,150.58336 -8.04e-4,-0.33401 -0.224635,0.21375 c -0.248504,0.23647 -0.310838,0.26441 -0.253509,0.11362 0.02094,-0.0551 0.06942,-0.21327 0.107743,-0.35155 l 0.06967,-0.25142 -0.183135,0.19429 -0.183135,0.19429 0.02435,-0.36496 c 0.02779,-0.41668 0.05672,-0.4043 -0.318981,-0.13655 -0.111685,0.0796 -0.208521,0.13926 -0.215192,0.13259 -0.0067,-0.007 0.03982,-0.11503 0.103305,-0.24079 0.128419,-0.2544 0.338841,-0.85988 0.420173,-1.20903 l 0.05302,-0.22761 -0.156034,0.16285 c -0.126379,0.1319 -0.18072,0.16285 -0.285923,0.16285 h -0.129887 l 0.19782,-0.39779 c 0.265971,-0.53482 0.387408,-1.00975 0.395014,-1.54488 0.0045,-0.31415 -0.0094,-0.44649 -0.06092,-0.57989 -0.09173,-0.2377 -0.147907,-0.2786 -0.246827,-0.17968 -0.09554,0.0955 -0.229545,0.14901 -0.373439,0.14901 -0.127008,0 -0.124088,0.009 -0.05225,-0.16283 0.07171,-0.17161 0.01171,-0.20715 -0.171264,-0.10145 -0.130886,0.0756 -0.541937,0.17482 -0.577405,0.13935 -0.01122,-0.0112 0.04838,-0.15259 0.132446,-0.31416 0.21118,-0.40592 0.204291,-0.44166 -0.05674,-0.29434 -0.177493,0.10017 -0.256802,0.12076 -0.518047,0.13447 -0.169658,0.009 -0.30847,0.004 -0.30847,-0.01 0,-0.0144 0.05766,-0.0965 0.128131,-0.18253 0.136932,-0.16711 0.276759,-0.4436 0.278093,-0.5499 10e-4,-0.0821 0.01424,-0.0845 -0.266547,0.0469 -0.313923,0.1469 -0.673834,0.22004 -1.08326,0.22013 -0.282258,8e-5 -0.488302,-0.0388 -0.424465,-0.08 0.0096,-0.006 0.117078,-0.0611 0.23887,-0.12209 0.219516,-0.10987 0.686638,-0.50961 0.644957,-0.55191 -0.01192,-0.0121 -0.112773,0.009 -0.224108,0.0476 -0.298051,0.10254 -0.544864,0.12642 -0.809941,0.0784 -0.262915,-0.0477 -0.603133,-0.20367 -0.582064,-0.26687 0.0076,-0.0227 0.162709,-0.10125 0.344741,-0.1745 0.182032,-0.0733 0.439202,-0.19952 0.571489,-0.28059 l 0.240521,-0.14741 -0.240521,-0.0283 c -0.663784,-0.0781 -0.962199,-0.1825 -1.231782,-0.43099 -0.19261,-0.17754 -0.34585,-0.44371 -0.309695,-0.53793 0.01709,-0.0445 0.04529,-0.0566 0.08941,-0.0384 0.07842,0.0325 0.786007,0.0729 0.786007,0.0449 0,-0.011 -0.07216,-0.0622 -0.160358,-0.11391 -0.283059,-0.16588 -0.52506,-0.49361 -0.650303,-0.88067 -0.04968,-0.15352 -0.111262,-0.51252 -0.08792,-0.51252 0.0085,0 0.06845,0.0398 0.133236,0.0885 0.18348,0.13781 0.606514,0.33758 0.932748,0.44046 0.335308,0.10574 0.572666,0.15649 0.572666,0.12244 0,-0.0126 -0.10476,-0.12686 -0.2328,-0.25389 -0.259224,-0.25718 -0.455274,-0.59884 -0.578421,-1.00803 -0.09364,-0.31116 -0.151484,-0.74878 -0.112485,-0.85108 l 0.02822,-0.074 0.02677,0.074 c 0.106859,0.29543 0.312491,0.63389 0.545291,0.89753 0.49245,0.55767 0.81024,0.76963 1.581542,1.05484 0.543472,0.20096 0.524735,0.19773 0.48108,0.0829 -0.07681,-0.20203 -0.03914,-0.21793 0.124242,-0.0525 0.112086,0.11353 0.30679,0.23498 0.638307,0.39818 0.478051,0.23533 0.717546,0.38603 0.717546,0.45151 0,0.0193 -0.05962,0.101 -0.132476,0.18165 -0.0981,0.10858 -0.126125,0.16665 -0.108004,0.22375 0.03104,0.0978 0.404897,0.34871 0.47784,0.32072 0.03013,-0.0116 0.07321,-0.0926 0.09573,-0.18019 0.164207,-0.63836 0.204005,-0.68464 0.818922,-0.95235 0.443247,-0.19298 0.580939,-0.21903 0.72752,-0.13767 0.08258,0.0458 0.07974,0.0495 -0.104734,0.13592 -0.15973,0.0748 -0.331673,0.23459 -0.331673,0.3082 0,0.0109 0.07077,-0.0206 0.157264,-0.07 0.149093,-0.0853 0.286777,-0.11786 0.286777,-0.0679 0,0.0126 -0.04996,0.0798 -0.11101,0.14931 -0.100617,0.11459 -0.11101,0.15056 -0.11101,0.38416 0,0.17852 0.01422,0.25947 0.04625,0.26338 0.02544,0.003 0.06421,0.007 0.08614,0.01 0.02195,0.002 0.09391,0.0497 0.159945,0.10524 0.09354,0.0787 0.135091,0.093 0.188118,0.0646 0.09577,-0.0513 0.333613,-0.33602 0.333613,-0.39943 0,-0.029 -0.04996,-0.11585 -0.111011,-0.19294 -0.06106,-0.0771 -0.11101,-0.15797 -0.11101,-0.17974 0,-0.0713 0.445142,-0.41194 0.715765,-0.54778 0.145654,-0.0731 0.373058,-0.20245 0.505345,-0.28743 0.372764,-0.23945 0.346993,-0.22984 0.319219,-0.11917 -0.01799,0.0716 -0.01044,0.098 0.02801,0.098 0.09725,0 0.815525,-0.2642 1.114385,-0.40989 0.561945,-0.27395 1.151417,-0.86532 1.435652,-1.44027 l 0.155488,-0.31453 0.01175,0.14303 c 0.01577,0.19196 -0.0878,0.68953 -0.205111,0.98557 -0.134499,0.3394 -0.317798,0.61632 -0.557041,0.84155 -0.113336,0.10669 -0.195421,0.20463 -0.182414,0.21763 0.03584,0.0358 0.637229,-0.12443 0.94022,-0.25057 0.147354,-0.0613 0.367762,-0.17606 0.489797,-0.25494 l 0.221882,-0.1434 -0.02107,0.11864 c -0.108314,0.61004 -0.376652,1.06218 -0.760498,1.2814 l -0.183232,0.10465 0.131183,0.0246 c 0.07214,0.0135 0.274207,0.006 0.449015,-0.0177 0.174811,-0.0233 0.327317,-0.0328 0.338908,-0.0212 0.04457,0.0445 -0.185455,0.43473 -0.328321,0.55702 -0.281761,0.24118 -0.717445,0.39116 -1.139154,0.39215 -0.372938,8.7e-4 -0.385967,0.0396 -0.07545,0.22403 0.147393,0.0876 0.403341,0.21379 0.568767,0.28049 0.165427,0.0667 0.300776,0.14171 0.300776,0.16668 0,0.0689 -0.305919,0.21105 -0.55075,0.25596 -0.250717,0.046 -0.504378,0.0203 -0.813441,-0.0823 -0.119396,-0.0396 -0.22546,-0.0637 -0.235698,-0.0535 -0.02071,0.0207 0.209257,0.35249 0.357408,0.51568 0.05246,0.0578 0.169072,0.1485 0.259141,0.2016 l 0.163765,0.0965 -0.108259,0.0319 c -0.149449,0.0441 -0.81181,0.004 -1.135644,-0.0693 -0.147252,-0.0332 -0.372913,-0.10215 -0.501474,-0.15326 -0.147763,-0.0588 -0.246687,-0.08 -0.268926,-0.0578 -0.03869,0.0387 0.195689,0.42542 0.32963,0.54391 0.04333,0.0383 0.06987,0.0841 0.05897,0.10176 -0.0326,0.0527 -0.525012,0.0363 -0.763515,-0.0255 -0.12221,-0.0317 -0.227054,-0.0525 -0.232981,-0.0463 -0.0059,0.006 0.04638,0.12654 0.116242,0.26736 0.08169,0.16466 0.11427,0.26879 0.09128,0.29177 -0.04465,0.0447 -0.326226,-0.0226 -0.530149,-0.12663 -0.08064,-0.0411 -0.153555,-0.0679 -0.162026,-0.0594 -0.0085,0.008 0.0098,0.0757 0.04058,0.1494 0.0308,0.0737 0.056,0.15119 0.056,0.1722 0,0.0549 -0.181084,0.047 -0.391907,-0.0169 -0.09991,-0.0303 -0.192083,-0.0553 -0.20484,-0.0555 -0.05244,-9.5e-4 -0.17673,0.37016 -0.213956,0.63876 -0.05929,0.42774 0.04184,1.01642 0.271833,1.58244 0.04931,0.12134 0.0735,0.22062 0.05376,0.22062 -0.01972,0 -0.101831,-0.0336 -0.182424,-0.0748 -0.0806,-0.0411 -0.146539,-0.0595 -0.146539,-0.0409 0,0.0186 0.03485,0.14801 0.07745,0.28752 0.104121,0.341 0.412499,0.92558 0.631863,1.19781 0.09832,0.12201 0.178762,0.23036 0.178762,0.24078 0,0.0435 -0.383983,-0.18012 -0.519374,-0.30244 l -0.146685,-0.13252 v 0.25233 0.25234 l -0.151905,-0.14627 -0.151905,-0.14627 0.02716,0.12951 c 0.0253,0.12055 0.162425,0.55957 0.223852,0.71661 0.02441,0.0625 0.01852,0.0647 -0.06186,0.0234 -0.04887,-0.0251 -0.159638,-0.11375 -0.246133,-0.19702 l -0.157241,-0.1514 v 0.32797 c 0,0.32038 -0.0018,0.32649 -0.07062,0.26405 -0.03884,-0.0351 -0.09082,-0.11267 -0.115502,-0.17225 -0.05495,-0.13266 -0.09837,-0.13714 -0.153636,-0.0158 -0.0583,0.12796 -0.0973,0.11617 -0.172674,-0.0522 l -0.06478,-0.14469 -0.08251,0.15394 c -0.04538,0.0847 -0.114954,0.19556 -0.154612,0.24644 l -0.0721,0.0925 -8.05e-4,-0.33401 z m 0.176792,-7.90661 c 0.06255,-0.0625 0.05526,-0.21278 -0.01157,-0.23842 -0.07658,-0.0294 -0.166044,0.0523 -0.166044,0.15168 0,0.13222 0.08878,0.17558 0.177616,0.0867 z"
       id="path2152-6-1-1-17-3-4" />
    <path
       style="display:inline;fill:#000000;stroke-width:0.0370034"
       d="m -50.474677,167.40956 -8.03e-4,-0.33402 -0.224635,0.21376 c -0.248505,0.23647 -0.310839,0.2644 -0.253509,0.11362 0.02094,-0.0551 0.06942,-0.21327 0.107743,-0.35156 l 0.06967,-0.25142 -0.183135,0.19429 -0.183135,0.19429 0.02435,-0.36496 c 0.02779,-0.41668 0.05672,-0.4043 -0.318981,-0.13655 -0.111685,0.0796 -0.208521,0.13927 -0.215192,0.1326 -0.0067,-0.007 0.03982,-0.11503 0.103305,-0.2408 0.128419,-0.2544 0.338841,-0.85988 0.420173,-1.20903 l 0.05302,-0.2276 -0.156034,0.16285 c -0.126379,0.13189 -0.18072,0.16284 -0.285923,0.16284 h -0.129887 l 0.19782,-0.39778 c 0.265971,-0.53483 0.387408,-1.00976 0.395014,-1.54489 0.0045,-0.31415 -0.0094,-0.44648 -0.06092,-0.57989 -0.09173,-0.2377 -0.147907,-0.2786 -0.246827,-0.17968 -0.09554,0.0955 -0.229545,0.14902 -0.373439,0.14902 -0.127008,0 -0.124088,0.009 -0.05225,-0.16284 0.07171,-0.17161 0.01171,-0.20715 -0.171264,-0.10144 -0.130886,0.0756 -0.541937,0.17481 -0.577405,0.13934 -0.01122,-0.0112 0.04838,-0.15259 0.132446,-0.31416 0.21118,-0.40591 0.204291,-0.44165 -0.05674,-0.29434 -0.177493,0.10018 -0.256802,0.12076 -0.518047,0.13447 -0.169658,0.009 -0.30847,0.004 -0.30847,-0.01 0,-0.0144 0.05766,-0.0965 0.128131,-0.18253 0.136932,-0.16711 0.276759,-0.4436 0.278093,-0.5499 10e-4,-0.0821 0.01424,-0.0845 -0.266547,0.0469 -0.313923,0.14691 -0.673834,0.22005 -1.08326,0.22014 -0.282258,7e-5 -0.488302,-0.0388 -0.424465,-0.08 0.0096,-0.006 0.117078,-0.0611 0.23887,-0.1221 0.219516,-0.10987 0.686638,-0.5096 0.644957,-0.55191 -0.01192,-0.0121 -0.112773,0.009 -0.224108,0.0476 -0.298051,0.10255 -0.544864,0.12642 -0.809941,0.0784 -0.262915,-0.0477 -0.603133,-0.20366 -0.582064,-0.26687 0.0076,-0.0227 0.162709,-0.10125 0.344741,-0.1745 0.182032,-0.0733 0.439202,-0.19951 0.571489,-0.28059 l 0.240521,-0.14741 -0.240521,-0.0283 c -0.663784,-0.0781 -0.962199,-0.18249 -1.231782,-0.43098 -0.19261,-0.17755 -0.34585,-0.44372 -0.309695,-0.53794 0.01709,-0.0445 0.04529,-0.0566 0.08941,-0.0384 0.07842,0.0325 0.786007,0.0729 0.786007,0.0449 0,-0.011 -0.07216,-0.0622 -0.160358,-0.11391 -0.283059,-0.16588 -0.52506,-0.49361 -0.650303,-0.88067 -0.04968,-0.15352 -0.111262,-0.51251 -0.08792,-0.51251 0.0085,0 0.06845,0.0398 0.133236,0.0885 0.18348,0.13781 0.606514,0.33757 0.932748,0.44045 0.335308,0.10575 0.572666,0.1565 0.572666,0.12244 0,-0.0126 -0.10476,-0.12686 -0.2328,-0.25389 -0.259224,-0.25718 -0.455274,-0.59884 -0.578421,-1.00803 -0.09364,-0.31116 -0.151484,-0.74878 -0.112485,-0.85107 l 0.02822,-0.074 0.02677,0.074 c 0.106859,0.29542 0.312491,0.63389 0.545291,0.89752 0.49245,0.55767 0.81024,0.76963 1.581542,1.05484 0.543472,0.20096 0.524735,0.19773 0.48108,0.0829 -0.07681,-0.20202 -0.03914,-0.21793 0.124242,-0.0524 0.112086,0.11353 0.30679,0.23499 0.638307,0.39818 0.478051,0.23533 0.717546,0.38603 0.717546,0.45152 0,0.0193 -0.05962,0.101 -0.132476,0.18165 -0.0981,0.10858 -0.126125,0.16664 -0.108004,0.22374 0.03104,0.0978 0.404897,0.34872 0.47784,0.32073 0.03013,-0.0116 0.07321,-0.0926 0.09573,-0.1802 0.164207,-0.63835 0.204005,-0.68464 0.818922,-0.95235 0.443247,-0.19297 0.580939,-0.21903 0.72752,-0.13767 0.08258,0.0458 0.07974,0.0495 -0.104734,0.13592 -0.15973,0.0748 -0.331673,0.23459 -0.331673,0.30821 0,0.0109 0.07077,-0.0206 0.157264,-0.07 0.149093,-0.0853 0.286777,-0.11787 0.286777,-0.0679 0,0.0126 -0.04996,0.0798 -0.11101,0.1493 -0.100617,0.1146 -0.11101,0.15056 -0.11101,0.38417 0,0.17851 0.01422,0.25947 0.04625,0.26337 0.02544,0.003 0.06421,0.007 0.08614,0.01 0.02195,0.002 0.09391,0.0497 0.159945,0.10524 0.09354,0.0787 0.135091,0.093 0.188118,0.0646 0.09577,-0.0513 0.333613,-0.33602 0.333613,-0.39943 0,-0.029 -0.04996,-0.11585 -0.11101,-0.19293 -0.06106,-0.0771 -0.11101,-0.15798 -0.11101,-0.17975 0,-0.0713 0.445141,-0.41194 0.715764,-0.54778 0.145654,-0.0731 0.373058,-0.20245 0.505345,-0.28743 0.372764,-0.23945 0.346993,-0.22983 0.319219,-0.11916 -0.01799,0.0716 -0.01044,0.098 0.02801,0.098 0.09725,0 0.815525,-0.2642 1.114385,-0.4099 0.561945,-0.27395 1.151417,-0.86532 1.435652,-1.44027 l 0.155488,-0.31452 0.01175,0.14302 c 0.01577,0.19196 -0.0878,0.68954 -0.205111,0.98558 -0.134499,0.3394 -0.317798,0.61632 -0.557041,0.84154 -0.113336,0.10669 -0.195421,0.20463 -0.182414,0.21764 0.03584,0.0358 0.637229,-0.12444 0.94022,-0.25057 0.147354,-0.0613 0.367762,-0.17607 0.489797,-0.25494 l 0.221882,-0.14341 -0.02107,0.11865 c -0.108314,0.61004 -0.376652,1.06217 -0.760498,1.2814 l -0.183232,0.10464 0.131183,0.0246 c 0.07214,0.0135 0.274207,0.006 0.449015,-0.0177 0.174811,-0.0233 0.327317,-0.0328 0.338908,-0.0212 0.04457,0.0445 -0.185455,0.43474 -0.328321,0.55702 -0.281761,0.24118 -0.717445,0.39116 -1.139154,0.39215 -0.372938,8.8e-4 -0.385967,0.0396 -0.07545,0.22404 0.147393,0.0876 0.403341,0.21378 0.568767,0.28048 0.165427,0.0667 0.300776,0.14171 0.300776,0.16668 0,0.0689 -0.305919,0.21105 -0.55075,0.25596 -0.250717,0.046 -0.504378,0.0203 -0.813441,-0.0823 -0.119396,-0.0396 -0.22546,-0.0637 -0.235698,-0.0535 -0.02071,0.0207 0.209257,0.3525 0.357408,0.51569 0.05246,0.0578 0.169072,0.1485 0.259141,0.20159 l 0.163765,0.0965 -0.108259,0.0319 c -0.149448,0.0441 -0.81181,0.004 -1.135644,-0.0693 -0.147252,-0.0332 -0.372912,-0.10214 -0.501474,-0.15326 -0.147763,-0.0588 -0.246687,-0.08 -0.268926,-0.0578 -0.03869,0.0387 0.195689,0.42543 0.32963,0.54391 0.04333,0.0383 0.06987,0.0841 0.05897,0.10176 -0.0326,0.0527 -0.525011,0.0363 -0.763514,-0.0255 -0.122211,-0.0317 -0.227055,-0.0525 -0.232982,-0.0463 -0.0059,0.006 0.04638,0.12654 0.116242,0.26736 0.08169,0.16466 0.11427,0.26879 0.09128,0.29177 -0.04465,0.0447 -0.326226,-0.0226 -0.530149,-0.12663 -0.08064,-0.0411 -0.153555,-0.0679 -0.162026,-0.0594 -0.0085,0.008 0.0098,0.0757 0.04058,0.14941 0.0308,0.0737 0.056,0.15119 0.056,0.17219 0,0.0548 -0.181084,0.047 -0.391907,-0.0169 -0.09991,-0.0303 -0.192083,-0.0553 -0.20484,-0.0555 -0.05244,-9.5e-4 -0.17673,0.37016 -0.213956,0.63876 -0.05929,0.42775 0.04184,1.01642 0.271833,1.58245 0.04931,0.12133 0.0735,0.22061 0.05376,0.22061 -0.01972,0 -0.101831,-0.0336 -0.182424,-0.0748 -0.0806,-0.0411 -0.146539,-0.0595 -0.146539,-0.0409 0,0.0186 0.03485,0.14801 0.07745,0.28753 0.104121,0.34099 0.412499,0.92557 0.631863,1.1978 0.09832,0.12202 0.178762,0.23037 0.178762,0.24078 0,0.0435 -0.383983,-0.18012 -0.519374,-0.30244 l -0.146686,-0.13252 v 0.25234 0.25233 l -0.151905,-0.14627 -0.151905,-0.14627 0.02716,0.12951 c 0.0253,0.12055 0.162425,0.55957 0.223853,0.71662 0.02441,0.0625 0.01852,0.0647 -0.06186,0.0234 -0.04887,-0.0251 -0.159638,-0.11376 -0.246133,-0.19703 l -0.157241,-0.1514 v 0.32797 c 0,0.32039 -0.0018,0.32649 -0.07062,0.26405 -0.03884,-0.0351 -0.09082,-0.11266 -0.115502,-0.17225 -0.05495,-0.13266 -0.09837,-0.13713 -0.153636,-0.0158 -0.0583,0.12796 -0.0973,0.11618 -0.172674,-0.0522 l -0.06478,-0.14468 -0.08251,0.15393 c -0.04538,0.0847 -0.114954,0.19557 -0.154612,0.24645 l -0.0721,0.0925 -8.05e-4,-0.33402 z m 0.176792,-7.90662 c 0.06255,-0.0625 0.05526,-0.21277 -0.01157,-0.23842 -0.07658,-0.0294 -0.166044,0.0523 -0.166044,0.15168 0,0.13222 0.08878,0.17558 0.177616,0.0867 z"
       id="path2152-6-5-69" />
    <path
       style="display:inline;fill:#000000;stroke-width:0.0370034"
       d="m -65.818165,141.48389 -8.03e-4,-0.33401 -0.224635,0.21375 c -0.248505,0.23647 -0.310839,0.26441 -0.253509,0.11362 0.02094,-0.0551 0.06942,-0.21327 0.107743,-0.35155 l 0.06967,-0.25143 -0.183135,0.19429 -0.183135,0.1943 0.02435,-0.36497 c 0.02779,-0.41668 0.05672,-0.4043 -0.318981,-0.13654 -0.111685,0.0796 -0.208521,0.13926 -0.215192,0.13259 -0.0067,-0.007 0.03982,-0.11503 0.103305,-0.2408 0.128419,-0.2544 0.338841,-0.85988 0.420173,-1.20903 l 0.05302,-0.2276 -0.156034,0.16285 c -0.126379,0.1319 -0.18072,0.16284 -0.285923,0.16284 h -0.129887 l 0.19782,-0.39778 c 0.265971,-0.53482 0.387408,-1.00976 0.395014,-1.54489 0.0045,-0.31414 -0.0094,-0.44648 -0.06092,-0.57988 -0.09173,-0.23771 -0.147907,-0.2786 -0.246827,-0.17968 -0.09554,0.0955 -0.229545,0.14901 -0.373439,0.14901 -0.127008,0 -0.124088,0.009 -0.05225,-0.16283 0.07171,-0.17161 0.01171,-0.20715 -0.171264,-0.10145 -0.130886,0.0756 -0.541937,0.17481 -0.577405,0.13934 -0.01122,-0.0112 0.04838,-0.15258 0.132446,-0.31415 0.21118,-0.40592 0.204291,-0.44166 -0.05674,-0.29434 -0.177493,0.10017 -0.256802,0.12075 -0.518047,0.13447 -0.169658,0.009 -0.30847,0.004 -0.30847,-0.01 0,-0.0144 0.05766,-0.0965 0.128131,-0.18253 0.136932,-0.16711 0.276759,-0.4436 0.278093,-0.5499 0.001,-0.0821 0.01424,-0.0845 -0.266547,0.0469 -0.313923,0.1469 -0.673834,0.22004 -1.08326,0.22013 -0.282258,8e-5 -0.488302,-0.0388 -0.424465,-0.08 0.0096,-0.006 0.117078,-0.0611 0.23887,-0.1221 0.219516,-0.10987 0.686638,-0.5096 0.644957,-0.55191 -0.01192,-0.0121 -0.112773,0.009 -0.224108,0.0476 -0.298051,0.10255 -0.544864,0.12643 -0.809941,0.0784 -0.262915,-0.0477 -0.603133,-0.20366 -0.582064,-0.26687 0.0076,-0.0227 0.162709,-0.10125 0.344741,-0.1745 0.182032,-0.0733 0.439202,-0.19951 0.571489,-0.28059 l 0.240521,-0.14741 -0.240521,-0.0283 c -0.663784,-0.0781 -0.962199,-0.18249 -1.231782,-0.43098 -0.19261,-0.17754 -0.34585,-0.44372 -0.309695,-0.53793 0.01709,-0.0445 0.04529,-0.0566 0.08941,-0.0384 0.07842,0.0325 0.786007,0.0729 0.786007,0.0449 0,-0.011 -0.07216,-0.0622 -0.160358,-0.11391 -0.283059,-0.16589 -0.52506,-0.49361 -0.650303,-0.88067 -0.04968,-0.15352 -0.111262,-0.51252 -0.08792,-0.51252 0.0085,0 0.06845,0.0398 0.133236,0.0885 0.18348,0.13781 0.606514,0.33757 0.932748,0.44046 0.335308,0.10574 0.572666,0.15649 0.572666,0.12244 0,-0.0126 -0.10476,-0.12687 -0.2328,-0.2539 -0.259224,-0.25717 -0.455274,-0.59883 -0.578421,-1.00803 -0.09364,-0.31115 -0.151484,-0.74878 -0.112485,-0.85107 l 0.02822,-0.074 0.02677,0.074 c 0.106859,0.29543 0.312491,0.63389 0.545291,0.89752 0.49245,0.55768 0.81024,0.76963 1.581542,1.05484 0.543472,0.20096 0.524735,0.19773 0.48108,0.0829 -0.07681,-0.20202 -0.03914,-0.21792 0.124242,-0.0525 0.112086,0.11353 0.30679,0.23499 0.638307,0.39819 0.478051,0.23533 0.717546,0.38603 0.717546,0.45151 0,0.0193 -0.05962,0.101 -0.132476,0.18165 -0.0981,0.10858 -0.126125,0.16665 -0.108004,0.22374 0.03104,0.0978 0.404897,0.34872 0.47784,0.32073 0.03013,-0.0116 0.07321,-0.0927 0.09573,-0.18019 0.164207,-0.63836 0.204005,-0.68464 0.818922,-0.95236 0.443247,-0.19297 0.580939,-0.21903 0.72752,-0.13767 0.08258,0.0458 0.07974,0.0495 -0.104734,0.13592 -0.15973,0.0748 -0.331673,0.23459 -0.331673,0.30821 0,0.0109 0.07077,-0.0206 0.157264,-0.07 0.149093,-0.0852 0.286777,-0.11786 0.286777,-0.0679 0,0.0126 -0.04996,0.0798 -0.11101,0.1493 -0.100617,0.1146 -0.11101,0.15056 -0.11101,0.38417 0,0.17851 0.01422,0.25947 0.04625,0.26337 0.02544,0.003 0.06421,0.007 0.08614,0.01 0.02195,0.002 0.09391,0.0497 0.159945,0.10524 0.09354,0.0787 0.135091,0.093 0.188118,0.0646 0.09577,-0.0513 0.333613,-0.33602 0.333613,-0.39943 0,-0.029 -0.04996,-0.11584 -0.11101,-0.19293 -0.06106,-0.0771 -0.11101,-0.15797 -0.11101,-0.17974 0,-0.0713 0.445141,-0.41195 0.715764,-0.54778 0.145654,-0.0731 0.373058,-0.20246 0.505345,-0.28743 0.372764,-0.23946 0.346993,-0.22984 0.319219,-0.11917 -0.01799,0.0716 -0.01044,0.098 0.02801,0.098 0.09725,0 0.815525,-0.2642 1.114385,-0.4099 0.561945,-0.27395 1.151417,-0.86531 1.435652,-1.44026 l 0.155488,-0.31453 0.01175,0.14302 c 0.01577,0.19196 -0.0878,0.68954 -0.205111,0.98558 -0.134499,0.3394 -0.317798,0.61632 -0.557041,0.84154 -0.113336,0.1067 -0.195421,0.20463 -0.182414,0.21764 0.03584,0.0358 0.637229,-0.12443 0.94022,-0.25057 0.147354,-0.0613 0.367762,-0.17607 0.489797,-0.25494 l 0.221882,-0.14341 -0.02107,0.11865 c -0.108314,0.61004 -0.376652,1.06218 -0.760498,1.2814 l -0.183232,0.10465 0.131183,0.0246 c 0.07214,0.0135 0.274207,0.006 0.449015,-0.0177 0.174811,-0.0233 0.327317,-0.0328 0.338908,-0.0212 0.04457,0.0445 -0.185455,0.43473 -0.328321,0.55701 -0.281761,0.24119 -0.717445,0.39117 -1.139154,0.39215 -0.372938,8.8e-4 -0.385967,0.0396 -0.07545,0.22404 0.147393,0.0876 0.403341,0.21378 0.568767,0.28049 0.165427,0.0667 0.300776,0.1417 0.300776,0.16667 0,0.0689 -0.305919,0.21106 -0.55075,0.25597 -0.250717,0.046 -0.504378,0.0203 -0.813441,-0.0823 -0.119396,-0.0396 -0.22546,-0.0637 -0.235698,-0.0535 -0.02071,0.0207 0.209257,0.35249 0.357408,0.51568 0.05246,0.0578 0.169072,0.1485 0.259141,0.20159 l 0.163765,0.0965 -0.108259,0.0319 c -0.149448,0.0441 -0.81181,0.004 -1.135644,-0.0693 -0.147252,-0.0332 -0.372912,-0.10214 -0.501474,-0.15326 -0.147763,-0.0588 -0.246687,-0.08 -0.268926,-0.0578 -0.03869,0.0387 0.195689,0.42543 0.32963,0.54392 0.04333,0.0383 0.06987,0.0841 0.05897,0.10176 -0.0326,0.0527 -0.525011,0.0363 -0.763514,-0.0255 -0.122211,-0.0317 -0.227055,-0.0525 -0.232982,-0.0463 -0.0059,0.006 0.04638,0.12654 0.116242,0.26736 0.08169,0.16465 0.11427,0.26878 0.09128,0.29177 -0.04465,0.0447 -0.326226,-0.0226 -0.530149,-0.12664 -0.08064,-0.0411 -0.153555,-0.0679 -0.162026,-0.0594 -0.0085,0.008 0.0098,0.0757 0.04058,0.14941 0.0308,0.0737 0.056,0.15119 0.056,0.1722 0,0.0549 -0.181084,0.047 -0.391907,-0.0169 -0.09991,-0.0303 -0.192083,-0.0553 -0.20484,-0.0555 -0.05244,-9.6e-4 -0.17673,0.37015 -0.213956,0.63875 -0.05929,0.42775 0.04184,1.01643 0.271833,1.58245 0.04931,0.12134 0.0735,0.22061 0.05376,0.22061 -0.01972,0 -0.101831,-0.0336 -0.182424,-0.0748 -0.0806,-0.0411 -0.146539,-0.0595 -0.146539,-0.0409 0,0.0186 0.03485,0.14801 0.07745,0.28753 0.104121,0.34099 0.412499,0.92558 0.631863,1.19781 0.09832,0.12201 0.178762,0.23036 0.178762,0.24078 0,0.0435 -0.383983,-0.18012 -0.519374,-0.30244 l -0.146686,-0.13253 v 0.25234 0.25234 l -0.151905,-0.14628 -0.151905,-0.14627 0.02716,0.12951 c 0.0253,0.12056 0.162425,0.55958 0.223853,0.71662 0.02441,0.0625 0.01852,0.0647 -0.06186,0.0234 -0.04887,-0.0251 -0.159638,-0.11376 -0.246133,-0.19702 l -0.157241,-0.15141 v 0.32797 c 0,0.32039 -0.0018,0.32649 -0.07062,0.26405 -0.03884,-0.0351 -0.09082,-0.11266 -0.115502,-0.17224 -0.05495,-0.13267 -0.09837,-0.13714 -0.153636,-0.0158 -0.0583,0.12796 -0.0973,0.11617 -0.172674,-0.0522 l -0.06478,-0.14469 -0.08251,0.15394 c -0.04538,0.0847 -0.114954,0.19556 -0.154612,0.24644 l -0.0721,0.0925 -8.05e-4,-0.33402 z m 0.176792,-7.90661 c 0.06255,-0.0625 0.05526,-0.21278 -0.01157,-0.23843 -0.07658,-0.0294 -0.166044,0.0523 -0.166044,0.15168 0,0.13222 0.08878,0.17558 0.177616,0.0867 z"
       id="path2152-6-5-3-2" />
    <path
       style="display:inline;fill:#000000;stroke-width:0.0370034"
       d="m -50.474677,116.93099 -8.03e-4,-0.33402 -0.224635,0.21376 c -0.248505,0.23647 -0.310839,0.2644 -0.253509,0.11362 0.02094,-0.0551 0.06942,-0.21327 0.107743,-0.35156 l 0.06967,-0.25142 -0.183135,0.19429 -0.183135,0.19429 0.02435,-0.36496 c 0.02779,-0.41668 0.05672,-0.4043 -0.318981,-0.13655 -0.111685,0.0796 -0.208521,0.13927 -0.215192,0.1326 -0.0067,-0.007 0.03982,-0.11503 0.103305,-0.2408 0.128419,-0.2544 0.338841,-0.85988 0.420173,-1.20903 l 0.05302,-0.2276 -0.156034,0.16285 c -0.126379,0.13189 -0.18072,0.16284 -0.285923,0.16284 h -0.129887 l 0.19782,-0.39778 c 0.265971,-0.53483 0.387408,-1.00976 0.395014,-1.54489 0.0045,-0.31414 -0.0094,-0.44648 -0.06092,-0.57989 -0.09173,-0.2377 -0.147907,-0.27859 -0.246827,-0.17967 -0.09554,0.0955 -0.229545,0.14901 -0.373439,0.14901 -0.127008,0 -0.124088,0.009 -0.05225,-0.16284 0.07171,-0.17161 0.01171,-0.20715 -0.171264,-0.10144 -0.130886,0.0756 -0.541937,0.17481 -0.577405,0.13934 -0.01122,-0.0112 0.04838,-0.15258 0.132446,-0.31416 0.21118,-0.40591 0.204291,-0.44165 -0.05674,-0.29433 -0.177493,0.10017 -0.256802,0.12075 -0.518047,0.13446 -0.169658,0.009 -0.30847,0.004 -0.30847,-0.01 0,-0.0144 0.05766,-0.0965 0.128131,-0.18253 0.136932,-0.1671 0.276759,-0.4436 0.278093,-0.5499 10e-4,-0.0821 0.01424,-0.0845 -0.266547,0.0469 -0.313923,0.14691 -0.673834,0.22005 -1.08326,0.22014 -0.282258,7e-5 -0.488302,-0.0388 -0.424465,-0.08 0.0096,-0.006 0.117078,-0.0611 0.23887,-0.1221 0.219516,-0.10987 0.686638,-0.5096 0.644957,-0.55191 -0.01192,-0.0121 -0.112773,0.009 -0.224108,0.0476 -0.298051,0.10255 -0.544864,0.12642 -0.809941,0.0784 -0.262915,-0.0477 -0.603133,-0.20366 -0.582064,-0.26687 0.0076,-0.0227 0.162709,-0.10125 0.344741,-0.1745 0.182032,-0.0733 0.439202,-0.19951 0.571489,-0.28059 l 0.240521,-0.14741 -0.240521,-0.0283 c -0.663784,-0.0781 -0.962199,-0.18249 -1.231782,-0.43098 -0.19261,-0.17755 -0.34585,-0.44372 -0.309695,-0.53794 0.01709,-0.0446 0.04529,-0.0566 0.08941,-0.0384 0.07842,0.0325 0.786007,0.073 0.786007,0.0449 0,-0.011 -0.07216,-0.0622 -0.160358,-0.11391 -0.283059,-0.16588 -0.52506,-0.49361 -0.650303,-0.88067 -0.04968,-0.15352 -0.111262,-0.51251 -0.08792,-0.51251 0.0085,0 0.06845,0.0398 0.133236,0.0885 0.18348,0.13781 0.606514,0.33757 0.932748,0.44045 0.335308,0.10575 0.572666,0.1565 0.572666,0.12244 0,-0.0126 -0.10476,-0.12686 -0.2328,-0.25389 -0.259224,-0.25718 -0.455274,-0.59884 -0.578421,-1.00803 -0.09364,-0.31116 -0.151484,-0.74878 -0.112485,-0.85107 l 0.02822,-0.074 0.02677,0.074 c 0.106859,0.29543 0.312491,0.63389 0.545291,0.89752 0.49245,0.55768 0.81024,0.76963 1.581542,1.05484 0.543472,0.20096 0.524735,0.19773 0.48108,0.0829 -0.07681,-0.20202 -0.03914,-0.21793 0.124242,-0.0524 0.112086,0.11353 0.30679,0.23499 0.638307,0.39819 0.478051,0.23533 0.717546,0.38603 0.717546,0.45151 0,0.0193 -0.05962,0.101 -0.132476,0.18165 -0.0981,0.10858 -0.126125,0.16664 -0.108004,0.22374 0.03104,0.0978 0.404897,0.34872 0.47784,0.32073 0.03013,-0.0116 0.07321,-0.0927 0.09573,-0.18019 0.164207,-0.63836 0.204005,-0.68464 0.818922,-0.95236 0.443247,-0.19297 0.580939,-0.21903 0.72752,-0.13767 0.08258,0.0458 0.07974,0.0495 -0.104734,0.13592 -0.15973,0.0748 -0.331673,0.23459 -0.331673,0.30821 0,0.0109 0.07077,-0.0206 0.157264,-0.07 0.149093,-0.0853 0.286777,-0.11786 0.286777,-0.0679 0,0.0126 -0.04996,0.0798 -0.11101,0.1493 -0.100617,0.1146 -0.11101,0.15056 -0.11101,0.38417 0,0.17851 0.01422,0.25947 0.04625,0.26337 0.02544,0.003 0.06421,0.007 0.08614,0.01 0.02195,0.002 0.09391,0.0497 0.159945,0.10524 0.09354,0.0787 0.135091,0.093 0.188118,0.0646 0.09577,-0.0513 0.333613,-0.33602 0.333613,-0.39943 0,-0.029 -0.04996,-0.11584 -0.11101,-0.19293 -0.06106,-0.0771 -0.11101,-0.15797 -0.11101,-0.17974 0,-0.0713 0.445141,-0.41195 0.715764,-0.54779 0.145654,-0.0731 0.373058,-0.20245 0.505345,-0.28743 0.372764,-0.23945 0.346993,-0.22983 0.319219,-0.11916 -0.01799,0.0716 -0.01044,0.098 0.02801,0.098 0.09725,0 0.815525,-0.2642 1.114385,-0.4099 0.561945,-0.27395 1.151417,-0.86532 1.435652,-1.44027 l 0.155488,-0.31452 0.01175,0.14302 c 0.01577,0.19196 -0.0878,0.68954 -0.205111,0.98558 -0.134499,0.3394 -0.317798,0.61632 -0.557041,0.84154 -0.113336,0.10669 -0.195421,0.20463 -0.182414,0.21764 0.03584,0.0358 0.637229,-0.12443 0.94022,-0.25057 0.147354,-0.0613 0.367762,-0.17607 0.489797,-0.25494 l 0.221882,-0.14341 -0.02107,0.11865 c -0.108314,0.61004 -0.376652,1.06218 -0.760498,1.2814 l -0.183232,0.10464 0.131183,0.0246 c 0.07214,0.0135 0.274207,0.006 0.449015,-0.0177 0.174811,-0.0233 0.327317,-0.0328 0.338908,-0.0212 0.04457,0.0446 -0.185455,0.43474 -0.328321,0.55702 -0.281761,0.24118 -0.717445,0.39116 -1.139154,0.39215 -0.372938,8.8e-4 -0.385967,0.0396 -0.07545,0.22404 0.147393,0.0876 0.403341,0.21378 0.568767,0.28048 0.165427,0.0667 0.300776,0.14171 0.300776,0.16668 0,0.0689 -0.305919,0.21106 -0.55075,0.25596 -0.250717,0.046 -0.504378,0.0203 -0.813441,-0.0823 -0.119396,-0.0396 -0.22546,-0.0637 -0.235698,-0.0535 -0.02071,0.0207 0.209257,0.3525 0.357408,0.51569 0.05246,0.0578 0.169072,0.1485 0.259141,0.20159 l 0.163765,0.0965 -0.108259,0.0319 c -0.149448,0.0441 -0.81181,0.004 -1.135644,-0.0693 -0.147252,-0.0332 -0.372912,-0.10214 -0.501474,-0.15326 -0.147763,-0.0588 -0.246687,-0.08 -0.268926,-0.0578 -0.03869,0.0387 0.195689,0.42543 0.32963,0.54392 0.04333,0.0383 0.06987,0.0841 0.05897,0.10175 -0.0326,0.0527 -0.525011,0.0363 -0.763514,-0.0255 -0.122211,-0.0317 -0.227055,-0.0525 -0.232982,-0.0463 -0.0059,0.006 0.04638,0.12654 0.116242,0.26736 0.08169,0.16466 0.11427,0.26879 0.09128,0.29178 -0.04465,0.0447 -0.326226,-0.0226 -0.530149,-0.12664 -0.08064,-0.0411 -0.153555,-0.0679 -0.162026,-0.0594 -0.0085,0.008 0.0098,0.0757 0.04058,0.14941 0.0308,0.0737 0.056,0.15119 0.056,0.17219 0,0.0549 -0.181084,0.047 -0.391907,-0.0169 -0.09991,-0.0303 -0.192083,-0.0553 -0.20484,-0.0555 -0.05244,-9.5e-4 -0.17673,0.37016 -0.213956,0.63876 -0.05929,0.42775 0.04184,1.01642 0.271833,1.58245 0.04931,0.12134 0.0735,0.22061 0.05376,0.22061 -0.01972,0 -0.101831,-0.0336 -0.182424,-0.0748 -0.0806,-0.0411 -0.146539,-0.0595 -0.146539,-0.0409 0,0.0186 0.03485,0.14801 0.07745,0.28753 0.104121,0.34099 0.412499,0.92558 0.631863,1.19781 0.09832,0.12201 0.178762,0.23036 0.178762,0.24077 0,0.0435 -0.383983,-0.18011 -0.519374,-0.30243 l -0.146686,-0.13253 v 0.25234 0.25233 l -0.151905,-0.14627 -0.151905,-0.14627 0.02716,0.12951 c 0.0253,0.12056 0.162425,0.55958 0.223853,0.71662 0.02441,0.0625 0.01852,0.0647 -0.06186,0.0234 -0.04887,-0.0251 -0.159638,-0.11376 -0.246133,-0.19703 l -0.157241,-0.1514 v 0.32797 c 0,0.32039 -0.0018,0.32649 -0.07062,0.26405 -0.03884,-0.0352 -0.09082,-0.11266 -0.115502,-0.17225 -0.05495,-0.13266 -0.09837,-0.13713 -0.153636,-0.0158 -0.0583,0.12796 -0.0973,0.11618 -0.172674,-0.0522 l -0.06478,-0.14468 -0.08251,0.15393 c -0.04538,0.0847 -0.114954,0.19557 -0.154612,0.24645 l -0.0721,0.0925 -8.05e-4,-0.33402 z m 0.176792,-7.90662 c 0.06255,-0.0625 0.05526,-0.21277 -0.01157,-0.23842 -0.07658,-0.0294 -0.166044,0.0523 -0.166044,0.15168 0,0.13222 0.08878,0.17558 0.177616,0.0867 z"
       id="path2152-6-5-6-2" />
    <text
       xml:space="preserve"
       style="font-size:14.1111px;line-height:1.25;font-family:'Blood Crow';-inkscape-font-specification:'Blood Crow';display:inline;stroke-width:0.264583"
       x="-92.53318"
       y="104.47289"
       id="text9052-47"><tspan
         id="tspan9050-75"
         style="font-style:normal;font-variant:normal;font-weight:normal;font-stretch:normal;font-size:14.1111px;font-family:'Bleeding Cowboys';-inkscape-font-specification:'Bleeding Cowboys';stroke-width:0.264583"
         x="-92.53318"
         y="104.47289">9</tspan></text>
    <text
       xml:space="preserve"
       style="font-size:14.1111px;line-height:1.25;font-family:'Blood Crow';-inkscape-font-specification:'Blood Crow';display:inline;stroke-width:0.264583"
       x="38.8759"
       y="-167.51041"
       id="text9052-3-48"
       transform="scale(-1)"><tspan
         id="tspan9050-0-1"
         style="font-style:normal;font-variant:normal;font-weight:normal;font-stretch:normal;font-size:14.1111px;font-family:'Bleeding Cowboys';-inkscape-font-specification:'Bleeding Cowboys';stroke-width:0.264583"
         x="38.8759"
         y="-167.51041">9</tspan></text>
  </g>
</svg>
